<svg width="357" height="143" viewBox="0 0 357 143" fill="none" xmlns="http://www.w3.org/2000/svg">
<g clip-path="url(#clip0_219_48)">
<path d="M357 -470H-3V328H357V-470Z" fill="white"/>
<path d="M33.8848 22.85V24H29.2559V22.85H33.8848ZM29.4976 13.336V24H28.1499V13.336H29.4976ZM33.2622 17.921V19.071H29.2559V17.921H33.2622ZM33.8115 13.336V14.493H29.2559V13.336H33.8115ZM39.2754 21.971C39.2754 21.771 39.2266 21.595 39.1289 21.444C39.0312 21.292 38.8701 21.146 38.6455 21.004C38.4258 20.863 38.1279 20.711 37.752 20.55C37.3857 20.399 37.0562 20.25 36.7632 20.104C36.4751 19.952 36.231 19.789 36.0308 19.613C35.8306 19.437 35.6768 19.234 35.5693 19.005C35.4668 18.771 35.4155 18.495 35.4155 18.177C35.4155 17.86 35.4741 17.567 35.5913 17.298C35.7134 17.025 35.8843 16.786 36.104 16.581C36.3237 16.375 36.5874 16.217 36.895 16.104C37.2026 15.987 37.5469 15.929 37.9277 15.929C38.4697 15.929 38.9312 16.034 39.312 16.244C39.6929 16.454 39.9834 16.742 40.1836 17.108C40.3887 17.469 40.4912 17.877 40.4912 18.331H39.2021C39.2021 18.111 39.1533 17.904 39.0557 17.708C38.958 17.513 38.814 17.354 38.6235 17.232C38.4331 17.105 38.2012 17.042 37.9277 17.042C37.6396 17.042 37.4053 17.093 37.2246 17.196C37.0439 17.298 36.9121 17.433 36.8291 17.599C36.751 17.76 36.7119 17.938 36.7119 18.133C36.7119 18.28 36.7314 18.407 36.7705 18.514C36.8145 18.617 36.8877 18.714 36.9902 18.807C37.0928 18.895 37.2319 18.988 37.4077 19.085C37.5884 19.178 37.8179 19.286 38.0962 19.408C38.6333 19.618 39.085 19.83 39.4512 20.045C39.8174 20.26 40.0957 20.511 40.2861 20.799C40.4766 21.087 40.5718 21.444 40.5718 21.869C40.5718 22.215 40.5083 22.53 40.3813 22.813C40.2593 23.092 40.0835 23.331 39.854 23.531C39.6245 23.731 39.3486 23.885 39.0264 23.993C38.709 24.095 38.3525 24.146 37.957 24.146C37.3613 24.146 36.856 24.029 36.4409 23.795C36.0308 23.556 35.7183 23.246 35.5034 22.865C35.2935 22.479 35.1885 22.066 35.1885 21.627H36.4849C36.4995 21.998 36.5825 22.286 36.7339 22.491C36.8901 22.696 37.0781 22.838 37.2979 22.916C37.5176 22.994 37.7373 23.033 37.957 23.033C38.2451 23.033 38.4868 22.992 38.6821 22.909C38.8774 22.821 39.0239 22.696 39.1216 22.535C39.2241 22.374 39.2754 22.186 39.2754 21.971ZM46.1162 21.971C46.1162 21.771 46.0674 21.595 45.9697 21.444C45.8721 21.292 45.7109 21.146 45.4863 21.004C45.2666 20.863 44.9688 20.711 44.5928 20.55C44.2266 20.399 43.897 20.25 43.604 20.104C43.3159 19.952 43.0718 19.789 42.8716 19.613C42.6714 19.437 42.5176 19.234 42.4102 19.005C42.3076 18.771 42.2563 18.495 42.2563 18.177C42.2563 17.86 42.3149 17.567 42.4321 17.298C42.5542 17.025 42.7251 16.786 42.9448 16.581C43.1646 16.375 43.4282 16.217 43.7358 16.104C44.0435 15.987 44.3877 15.929 44.7686 15.929C45.3105 15.929 45.772 16.034 46.1528 16.244C46.5337 16.454 46.8242 16.742 47.0244 17.108C47.2295 17.469 47.332 17.877 47.332 18.331H46.043C46.043 18.111 45.9941 17.904 45.8965 17.708C45.7988 17.513 45.6548 17.354 45.4644 17.232C45.2739 17.105 45.042 17.042 44.7686 17.042C44.4805 17.042 44.2461 17.093 44.0654 17.196C43.8848 17.298 43.7529 17.433 43.6699 17.599C43.5918 17.76 43.5527 17.938 43.5527 18.133C43.5527 18.28 43.5723 18.407 43.6113 18.514C43.6553 18.617 43.7285 18.714 43.8311 18.807C43.9336 18.895 44.0728 18.988 44.2485 19.085C44.4292 19.178 44.6587 19.286 44.937 19.408C45.4741 19.618 45.9258 19.83 46.292 20.045C46.6582 20.26 46.9365 20.511 47.127 20.799C47.3174 21.087 47.4126 21.444 47.4126 21.869C47.4126 22.215 47.3491 22.53 47.2222 22.813C47.1001 23.092 46.9243 23.331 46.6948 23.531C46.4653 23.731 46.1895 23.885 45.8672 23.993C45.5498 24.095 45.1934 24.146 44.7979 24.146C44.2021 24.146 43.6968 24.029 43.2817 23.795C42.8716 23.556 42.5591 23.246 42.3442 22.865C42.1343 22.479 42.0293 22.066 42.0293 21.627H43.3257C43.3403 21.998 43.4233 22.286 43.5747 22.491C43.731 22.696 43.9189 22.838 44.1387 22.916C44.3584 22.994 44.5781 23.033 44.7979 23.033C45.0859 23.033 45.3276 22.992 45.5229 22.909C45.7183 22.821 45.8647 22.696 45.9624 22.535C46.0649 22.374 46.1162 22.186 46.1162 21.971ZM51.9463 24.146C51.4727 24.146 51.0454 24.076 50.6646 23.934C50.2837 23.792 49.959 23.578 49.6904 23.29C49.4219 22.997 49.2168 22.628 49.0752 22.184C48.9336 21.739 48.8628 21.214 48.8628 20.609V19.715C48.8628 19.017 48.9434 18.426 49.1045 17.943C49.2705 17.459 49.4927 17.071 49.771 16.778C50.0493 16.48 50.3643 16.266 50.7158 16.134C51.0674 15.997 51.4287 15.929 51.7998 15.929C52.2979 15.929 52.7227 16.009 53.0742 16.17C53.4258 16.332 53.7114 16.571 53.9312 16.888C54.1509 17.206 54.312 17.596 54.4146 18.06C54.522 18.524 54.5757 19.059 54.5757 19.664V20.418H49.6245V19.312H53.2793V19.129C53.2598 18.719 53.2036 18.358 53.1108 18.045C53.0229 17.733 52.8765 17.489 52.6714 17.313C52.4663 17.132 52.1758 17.042 51.7998 17.042C51.5605 17.042 51.3384 17.083 51.1333 17.167C50.9331 17.245 50.7598 17.384 50.6133 17.584C50.4717 17.779 50.3594 18.05 50.2764 18.397C50.1982 18.744 50.1592 19.183 50.1592 19.715V20.609C50.1592 21.034 50.1982 21.4 50.2764 21.708C50.3594 22.01 50.479 22.262 50.6353 22.462C50.7964 22.657 50.9917 22.804 51.2212 22.901C51.4556 22.994 51.7217 23.041 52.0195 23.041C52.4541 23.041 52.813 22.958 53.0962 22.792C53.3794 22.621 53.626 22.403 53.8359 22.14L54.5171 22.953C54.3755 23.153 54.1899 23.346 53.9604 23.531C53.7358 23.712 53.4575 23.861 53.1255 23.978C52.7983 24.09 52.4053 24.146 51.9463 24.146ZM63.4673 22.645V18.346C63.4673 18.033 63.4185 17.782 63.3208 17.591C63.228 17.401 63.0864 17.262 62.896 17.174C62.7104 17.086 62.4761 17.042 62.1929 17.042C61.9194 17.042 61.6826 17.098 61.4824 17.21C61.2871 17.323 61.1357 17.472 61.0283 17.657C60.9258 17.843 60.8745 18.048 60.8745 18.272H59.5781C59.5781 17.989 59.6392 17.708 59.7612 17.43C59.8882 17.152 60.0688 16.9 60.3032 16.676C60.5376 16.446 60.8184 16.266 61.1455 16.134C61.4775 15.997 61.8486 15.929 62.2588 15.929C62.7471 15.929 63.1792 16.009 63.5552 16.17C63.9312 16.327 64.2266 16.583 64.4414 16.939C64.6562 17.296 64.7637 17.77 64.7637 18.36V22.271C64.7637 22.535 64.7832 22.816 64.8223 23.114C64.8662 23.412 64.9272 23.668 65.0054 23.883V24H63.665C63.6016 23.844 63.5527 23.636 63.5186 23.377C63.4844 23.114 63.4673 22.87 63.4673 22.645ZM63.6724 19.195L63.687 20.147H62.7861C62.4785 20.147 62.1978 20.182 61.9438 20.25C61.6948 20.318 61.48 20.418 61.2993 20.55C61.1187 20.677 60.9795 20.836 60.8818 21.026C60.7891 21.217 60.7427 21.434 60.7427 21.678C60.7427 21.996 60.7866 22.25 60.8745 22.44C60.9624 22.625 61.0942 22.76 61.27 22.843C61.4458 22.926 61.668 22.967 61.9365 22.967C62.2637 22.967 62.5518 22.892 62.8008 22.74C63.0498 22.589 63.2427 22.406 63.3794 22.191C63.521 21.976 63.5869 21.776 63.5771 21.59L63.8628 22.198C63.8433 22.389 63.7798 22.596 63.6724 22.821C63.5698 23.041 63.4258 23.253 63.2402 23.458C63.0547 23.658 62.835 23.824 62.5811 23.956C62.332 24.083 62.0513 24.146 61.7388 24.146C61.2798 24.146 60.877 24.059 60.5303 23.883C60.1885 23.707 59.9224 23.448 59.7319 23.106C59.5415 22.765 59.4463 22.342 59.4463 21.839C59.4463 21.458 59.5122 21.107 59.644 20.785C59.7759 20.462 59.9712 20.184 60.23 19.95C60.4888 19.71 60.8135 19.525 61.2041 19.393C61.5996 19.261 62.0562 19.195 62.5737 19.195H63.6724ZM68.1694 12.75V24H66.8804V12.75H68.1694ZM71.6118 16.075V24H70.3228V16.075H71.6118ZM70.2495 13.973C70.2495 13.753 70.3105 13.568 70.4326 13.417C70.5547 13.265 70.7378 13.189 70.9819 13.189C71.2261 13.189 71.4092 13.265 71.5312 13.417C71.6582 13.568 71.7217 13.753 71.7217 13.973C71.7217 14.183 71.6582 14.364 71.5312 14.515C71.4092 14.662 71.2261 14.735 70.9819 14.735C70.7378 14.735 70.5547 14.662 70.4326 14.515C70.3105 14.364 70.2495 14.183 70.2495 13.973ZM74.959 17.65V24H73.6699V16.075H74.8857L74.959 17.65ZM74.6953 19.737L74.0947 19.715C74.0898 19.173 74.1436 18.673 74.2559 18.214C74.3682 17.75 74.5366 17.347 74.7612 17.005C74.9907 16.664 75.2764 16.4 75.6182 16.214C75.9648 16.024 76.3677 15.929 76.8267 15.929C77.1294 15.929 77.4102 15.982 77.6689 16.09C77.9326 16.192 78.1621 16.356 78.3574 16.581C78.5527 16.805 78.7041 17.093 78.8115 17.445C78.9238 17.796 78.98 18.221 78.98 18.719V24H77.6836V18.785C77.6836 18.37 77.6274 18.038 77.5151 17.789C77.4077 17.54 77.2539 17.359 77.0537 17.247C76.8535 17.13 76.6143 17.071 76.3359 17.071C76.0186 17.071 75.7524 17.142 75.5376 17.284C75.3276 17.425 75.1592 17.621 75.0322 17.87C74.9102 18.119 74.8223 18.404 74.7686 18.727C74.7197 19.044 74.6953 19.381 74.6953 19.737ZM78.9653 18.99L78.1011 19.269C78.0962 18.834 78.1499 18.417 78.2622 18.016C78.3745 17.616 78.5405 17.259 78.7603 16.947C78.9849 16.634 79.2632 16.388 79.5952 16.207C79.9272 16.021 80.313 15.929 80.7524 15.929C81.1138 15.929 81.4336 15.985 81.7119 16.097C81.9902 16.209 82.2246 16.383 82.415 16.617C82.6104 16.847 82.7568 17.142 82.8545 17.503C82.9521 17.865 83.001 18.294 83.001 18.792V24H81.7046V18.778C81.7046 18.333 81.6484 17.989 81.5361 17.745C81.4287 17.496 81.2749 17.323 81.0747 17.225C80.8745 17.123 80.6353 17.071 80.3569 17.071C80.1323 17.071 79.9321 17.123 79.7563 17.225C79.5854 17.328 79.4414 17.469 79.3242 17.65C79.207 17.826 79.1167 18.028 79.0532 18.258C78.9946 18.487 78.9653 18.731 78.9653 18.99ZM87.791 24.146C87.3174 24.146 86.8901 24.076 86.5093 23.934C86.1284 23.792 85.8037 23.578 85.5352 23.29C85.2666 22.997 85.0615 22.628 84.9199 22.184C84.7783 21.739 84.7075 21.214 84.7075 20.609V19.715C84.7075 19.017 84.7881 18.426 84.9492 17.943C85.1152 17.459 85.3374 17.071 85.6157 16.778C85.894 16.48 86.209 16.266 86.5605 16.134C86.9121 15.997 87.2734 15.929 87.6445 15.929C88.1426 15.929 88.5674 16.009 88.9189 16.17C89.2705 16.332 89.5562 16.571 89.7759 16.888C89.9956 17.206 90.1567 17.596 90.2593 18.06C90.3667 18.524 90.4204 19.059 90.4204 19.664V20.418H85.4692V19.312H89.124V19.129C89.1045 18.719 89.0483 18.358 88.9556 18.045C88.8677 17.733 88.7212 17.489 88.5161 17.313C88.311 17.132 88.0205 17.042 87.6445 17.042C87.4053 17.042 87.1831 17.083 86.978 17.167C86.7778 17.245 86.6045 17.384 86.458 17.584C86.3164 17.779 86.2041 18.05 86.1211 18.397C86.043 18.744 86.0039 19.183 86.0039 19.715V20.609C86.0039 21.034 86.043 21.4 86.1211 21.708C86.2041 22.01 86.3237 22.262 86.48 22.462C86.6411 22.657 86.8364 22.804 87.0659 22.901C87.3003 22.994 87.5664 23.041 87.8643 23.041C88.2988 23.041 88.6577 22.958 88.9409 22.792C89.2241 22.621 89.4707 22.403 89.6807 22.14L90.3618 22.953C90.2202 23.153 90.0347 23.346 89.8052 23.531C89.5806 23.712 89.3022 23.861 88.9702 23.978C88.6431 24.09 88.25 24.146 87.791 24.146ZM93.2842 17.767V24H91.9878V16.075H93.2109L93.2842 17.767ZM92.9692 19.737L92.4419 19.715C92.437 19.173 92.498 18.673 92.625 18.214C92.7568 17.75 92.9424 17.347 93.1816 17.005C93.4258 16.664 93.7163 16.4 94.0532 16.214C94.3901 16.024 94.7637 15.929 95.1738 15.929C95.4961 15.929 95.7891 15.982 96.0527 16.09C96.3164 16.192 96.541 16.358 96.7266 16.588C96.9121 16.817 97.0537 17.115 97.1514 17.481C97.2539 17.843 97.3052 18.285 97.3052 18.807V24H96.0088V18.792C96.0088 18.377 95.9624 18.045 95.8696 17.796C95.7817 17.542 95.645 17.359 95.4595 17.247C95.2788 17.13 95.0493 17.071 94.771 17.071C94.5171 17.071 94.2803 17.142 94.0605 17.284C93.8408 17.425 93.6479 17.621 93.4819 17.87C93.3208 18.119 93.1938 18.404 93.1011 18.727C93.0132 19.044 92.9692 19.381 92.9692 19.737ZM102.146 16.075V17.115H98.4478V16.075H102.146ZM99.6562 14.149H100.953V22.037C100.953 22.306 100.984 22.508 101.048 22.645C101.116 22.782 101.202 22.872 101.304 22.916C101.407 22.96 101.517 22.982 101.634 22.982C101.722 22.982 101.819 22.972 101.927 22.953C102.034 22.928 102.107 22.909 102.146 22.894L102.139 24C102.051 24.034 101.934 24.066 101.788 24.095C101.641 24.129 101.456 24.146 101.231 24.146C100.953 24.146 100.694 24.081 100.455 23.949C100.215 23.817 100.022 23.597 99.876 23.29C99.7295 22.977 99.6562 22.557 99.6562 22.03V14.149ZM103.274 20.418V19.664C103.274 19.049 103.353 18.509 103.509 18.045C103.665 17.577 103.882 17.186 104.161 16.874C104.439 16.561 104.764 16.327 105.135 16.17C105.506 16.009 105.904 15.929 106.329 15.929C106.763 15.929 107.166 16.009 107.537 16.17C107.908 16.327 108.233 16.561 108.511 16.874C108.794 17.186 109.014 17.577 109.17 18.045C109.327 18.509 109.405 19.049 109.405 19.664V20.418C109.405 21.034 109.327 21.576 109.17 22.044C109.014 22.508 108.797 22.896 108.519 23.209C108.24 23.521 107.916 23.756 107.544 23.912C107.173 24.068 106.773 24.146 106.343 24.146C105.914 24.146 105.513 24.068 105.142 23.912C104.771 23.756 104.444 23.521 104.161 23.209C103.882 22.896 103.665 22.508 103.509 22.044C103.353 21.576 103.274 21.034 103.274 20.418ZM104.571 19.664V20.418C104.571 20.853 104.615 21.234 104.703 21.561C104.791 21.888 104.915 22.162 105.076 22.381C105.237 22.601 105.425 22.767 105.64 22.879C105.855 22.987 106.089 23.041 106.343 23.041C106.636 23.041 106.893 22.987 107.112 22.879C107.337 22.767 107.522 22.601 107.669 22.381C107.815 22.162 107.925 21.888 107.999 21.561C108.072 21.234 108.108 20.853 108.108 20.418V19.664C108.108 19.229 108.064 18.851 107.977 18.529C107.889 18.202 107.764 17.928 107.603 17.708C107.442 17.484 107.251 17.318 107.032 17.21C106.817 17.098 106.583 17.042 106.329 17.042C106.08 17.042 105.848 17.098 105.633 17.21C105.418 17.318 105.23 17.484 105.069 17.708C104.913 17.928 104.791 18.202 104.703 18.529C104.615 18.851 104.571 19.229 104.571 19.664ZM117.264 23.041C117.522 23.041 117.757 22.989 117.967 22.887C118.182 22.779 118.357 22.613 118.494 22.389C118.631 22.159 118.709 21.861 118.729 21.495H119.944C119.925 22.022 119.791 22.486 119.542 22.887C119.297 23.282 118.975 23.592 118.575 23.817C118.179 24.037 117.742 24.146 117.264 24.146C116.751 24.146 116.304 24.063 115.923 23.897C115.547 23.731 115.235 23.492 114.986 23.18C114.742 22.862 114.559 22.479 114.437 22.03C114.314 21.576 114.253 21.061 114.253 20.484V19.591C114.253 19.015 114.314 18.502 114.437 18.053C114.559 17.599 114.742 17.215 114.986 16.903C115.235 16.585 115.547 16.344 115.923 16.178C116.304 16.012 116.751 15.929 117.264 15.929C117.801 15.929 118.265 16.043 118.655 16.273C119.051 16.498 119.358 16.825 119.578 17.254C119.803 17.679 119.925 18.194 119.944 18.8H118.729C118.709 18.409 118.638 18.084 118.516 17.826C118.394 17.562 118.228 17.367 118.018 17.24C117.808 17.108 117.557 17.042 117.264 17.042C116.922 17.042 116.639 17.103 116.414 17.225C116.194 17.342 116.021 17.513 115.894 17.738C115.767 17.962 115.677 18.231 115.623 18.543C115.574 18.856 115.55 19.205 115.55 19.591V20.484C115.55 20.87 115.574 21.222 115.623 21.539C115.677 21.852 115.765 22.12 115.887 22.345C116.014 22.569 116.189 22.743 116.414 22.865C116.639 22.982 116.922 23.041 117.264 23.041ZM121.175 20.418V19.664C121.175 19.049 121.253 18.509 121.409 18.045C121.565 17.577 121.783 17.186 122.061 16.874C122.339 16.561 122.664 16.327 123.035 16.17C123.406 16.009 123.804 15.929 124.229 15.929C124.664 15.929 125.066 16.009 125.438 16.17C125.809 16.327 126.133 16.561 126.412 16.874C126.695 17.186 126.915 17.577 127.071 18.045C127.227 18.509 127.305 19.049 127.305 19.664V20.418C127.305 21.034 127.227 21.576 127.071 22.044C126.915 22.508 126.697 22.896 126.419 23.209C126.141 23.521 125.816 23.756 125.445 23.912C125.074 24.068 124.673 24.146 124.244 24.146C123.814 24.146 123.414 24.068 123.042 23.912C122.671 23.756 122.344 23.521 122.061 23.209C121.783 22.896 121.565 22.508 121.409 22.044C121.253 21.576 121.175 21.034 121.175 20.418ZM122.471 19.664V20.418C122.471 20.853 122.515 21.234 122.603 21.561C122.691 21.888 122.815 22.162 122.977 22.381C123.138 22.601 123.326 22.767 123.541 22.879C123.755 22.987 123.99 23.041 124.244 23.041C124.537 23.041 124.793 22.987 125.013 22.879C125.237 22.767 125.423 22.601 125.569 22.381C125.716 22.162 125.826 21.888 125.899 21.561C125.972 21.234 126.009 20.853 126.009 20.418V19.664C126.009 19.229 125.965 18.851 125.877 18.529C125.789 18.202 125.665 17.928 125.503 17.708C125.342 17.484 125.152 17.318 124.932 17.21C124.717 17.098 124.483 17.042 124.229 17.042C123.98 17.042 123.748 17.098 123.533 17.21C123.318 17.318 123.13 17.484 122.969 17.708C122.813 17.928 122.691 18.202 122.603 18.529C122.515 18.851 122.471 19.229 122.471 19.664ZM130.271 17.767V24H128.975V16.075H130.198L130.271 17.767ZM129.957 19.737L129.429 19.715C129.424 19.173 129.485 18.673 129.612 18.214C129.744 17.75 129.93 17.347 130.169 17.005C130.413 16.664 130.704 16.4 131.041 16.214C131.377 16.024 131.751 15.929 132.161 15.929C132.483 15.929 132.776 15.982 133.04 16.09C133.304 16.192 133.528 16.358 133.714 16.588C133.899 16.817 134.041 17.115 134.139 17.481C134.241 17.843 134.292 18.285 134.292 18.807V24H132.996V18.792C132.996 18.377 132.95 18.045 132.857 17.796C132.769 17.542 132.632 17.359 132.447 17.247C132.266 17.13 132.037 17.071 131.758 17.071C131.504 17.071 131.268 17.142 131.048 17.284C130.828 17.425 130.635 17.621 130.469 17.87C130.308 18.119 130.181 18.404 130.088 18.727C130 19.044 129.957 19.381 129.957 19.737ZM139.134 16.075V17.115H135.435V16.075H139.134ZM136.644 14.149H137.94V22.037C137.94 22.306 137.972 22.508 138.035 22.645C138.104 22.782 138.189 22.872 138.292 22.916C138.394 22.96 138.504 22.982 138.621 22.982C138.709 22.982 138.807 22.972 138.914 22.953C139.021 22.928 139.095 22.909 139.134 22.894L139.126 24C139.039 24.034 138.921 24.066 138.775 24.095C138.628 24.129 138.443 24.146 138.218 24.146C137.94 24.146 137.681 24.081 137.442 23.949C137.203 23.817 137.01 23.597 136.863 23.29C136.717 22.977 136.644 22.557 136.644 22.03V14.149ZM143.514 24.146C143.04 24.146 142.613 24.076 142.232 23.934C141.851 23.792 141.526 23.578 141.258 23.29C140.989 22.997 140.784 22.628 140.643 22.184C140.501 21.739 140.43 21.214 140.43 20.609V19.715C140.43 19.017 140.511 18.426 140.672 17.943C140.838 17.459 141.06 17.071 141.338 16.778C141.617 16.48 141.932 16.266 142.283 16.134C142.635 15.997 142.996 15.929 143.367 15.929C143.865 15.929 144.29 16.009 144.642 16.17C144.993 16.332 145.279 16.571 145.499 16.888C145.718 17.206 145.879 17.596 145.982 18.06C146.089 18.524 146.143 19.059 146.143 19.664V20.418H141.192V19.312H144.847V19.129C144.827 18.719 144.771 18.358 144.678 18.045C144.59 17.733 144.444 17.489 144.239 17.313C144.034 17.132 143.743 17.042 143.367 17.042C143.128 17.042 142.906 17.083 142.701 17.167C142.5 17.245 142.327 17.384 142.181 17.584C142.039 17.779 141.927 18.05 141.844 18.397C141.766 18.744 141.727 19.183 141.727 19.715V20.609C141.727 21.034 141.766 21.4 141.844 21.708C141.927 22.01 142.046 22.262 142.203 22.462C142.364 22.657 142.559 22.804 142.789 22.901C143.023 22.994 143.289 23.041 143.587 23.041C144.021 23.041 144.38 22.958 144.664 22.792C144.947 22.621 145.193 22.403 145.403 22.14L146.084 22.953C145.943 23.153 145.757 23.346 145.528 23.531C145.303 23.712 145.025 23.861 144.693 23.978C144.366 24.09 143.973 24.146 143.514 24.146ZM142.576 14.903L143.997 12.75H145.63L143.667 14.903H142.576ZM149.007 17.65V24H147.718V16.075H148.934L149.007 17.65ZM148.743 19.737L148.143 19.715C148.138 19.173 148.191 18.673 148.304 18.214C148.416 17.75 148.584 17.347 148.809 17.005C149.039 16.664 149.324 16.4 149.666 16.214C150.013 16.024 150.416 15.929 150.875 15.929C151.177 15.929 151.458 15.982 151.717 16.09C151.98 16.192 152.21 16.356 152.405 16.581C152.601 16.805 152.752 17.093 152.859 17.445C152.972 17.796 153.028 18.221 153.028 18.719V24H151.731V18.785C151.731 18.37 151.675 18.038 151.563 17.789C151.456 17.54 151.302 17.359 151.102 17.247C150.901 17.13 150.662 17.071 150.384 17.071C150.066 17.071 149.8 17.142 149.585 17.284C149.375 17.425 149.207 17.621 149.08 17.87C148.958 18.119 148.87 18.404 148.816 18.727C148.768 19.044 148.743 19.381 148.743 19.737ZM153.013 18.99L152.149 19.269C152.144 18.834 152.198 18.417 152.31 18.016C152.422 17.616 152.588 17.259 152.808 16.947C153.033 16.634 153.311 16.388 153.643 16.207C153.975 16.021 154.361 15.929 154.8 15.929C155.162 15.929 155.481 15.985 155.76 16.097C156.038 16.209 156.272 16.383 156.463 16.617C156.658 16.847 156.805 17.142 156.902 17.503C157 17.865 157.049 18.294 157.049 18.792V24H155.752V18.778C155.752 18.333 155.696 17.989 155.584 17.745C155.477 17.496 155.323 17.323 155.123 17.225C154.922 17.123 154.683 17.071 154.405 17.071C154.18 17.071 153.98 17.123 153.804 17.225C153.633 17.328 153.489 17.469 153.372 17.65C153.255 17.826 153.165 18.028 153.101 18.258C153.042 18.487 153.013 18.731 153.013 18.99ZM159.041 23.282C159.041 23.053 159.112 22.86 159.253 22.704C159.4 22.542 159.61 22.462 159.883 22.462C160.157 22.462 160.364 22.542 160.506 22.704C160.652 22.86 160.726 23.053 160.726 23.282C160.726 23.507 160.652 23.697 160.506 23.854C160.364 24.01 160.157 24.088 159.883 24.088C159.61 24.088 159.4 24.01 159.253 23.854C159.112 23.697 159.041 23.507 159.041 23.282ZM159.034 16.815C159.034 16.585 159.104 16.393 159.246 16.236C159.393 16.075 159.603 15.995 159.876 15.995C160.149 15.995 160.357 16.075 160.499 16.236C160.645 16.393 160.718 16.585 160.718 16.815C160.718 17.04 160.645 17.23 160.499 17.386C160.357 17.542 160.149 17.621 159.876 17.621C159.603 17.621 159.393 17.542 159.246 17.386C159.104 17.23 159.034 17.04 159.034 16.815Z" fill="#515151"/>
<path d="M43 33H27V49H43V33Z" fill="white"/>
<path d="M42.5 33.5H27.5V48.5H42.5V33.5Z" stroke="black" stroke-opacity="0.66"/>
<path d="M43 83H27V99H43V83Z" fill="white"/>
<path d="M42.5 83.5H27.5V98.5H42.5V83.5Z" stroke="black" stroke-opacity="0.66"/>
<path d="M43 58H27V74H43V58Z" fill="white"/>
<path d="M42.5 58.5H27.5V73.5H42.5V58.5Z" stroke="black" stroke-opacity="0.66"/>
<path d="M57.1885 40.0871V40.6711C57.1885 41.3651 57.1017 41.9871 56.9282 42.5371C56.7547 43.0871 56.505 43.5551 56.1792 43.9401C55.8534 44.3251 55.4619 44.6191 55.0049 44.8221C54.5521 45.0251 54.0443 45.1271 53.4814 45.1271C52.9355 45.1271 52.4341 45.0251 51.9771 44.8221C51.5243 44.6191 51.1307 44.3251 50.7964 43.9401C50.4663 43.5551 50.2103 43.0871 50.0283 42.5371C49.8464 41.9871 49.7554 41.3651 49.7554 40.6711V40.0871C49.7554 39.3931 49.8442 38.7731 50.022 38.2271C50.2039 37.6771 50.46 37.2091 50.79 36.8241C51.1201 36.4351 51.5116 36.1391 51.9644 35.9361C52.4214 35.7321 52.9229 35.6311 53.4688 35.6311C54.0316 35.6311 54.5394 35.7321 54.9922 35.9361C55.4492 36.1391 55.8407 36.4351 56.1665 36.8241C56.4966 37.2091 56.7484 37.6771 56.9219 38.2271C57.0996 38.7731 57.1885 39.3931 57.1885 40.0871ZM55.9761 40.6711V40.0741C55.9761 39.5241 55.9189 39.0371 55.8047 38.6141C55.6947 38.1911 55.5317 37.8361 55.3159 37.5481C55.1001 37.2601 54.8356 37.0421 54.5225 36.8941C54.2135 36.7461 53.8623 36.6721 53.4688 36.6721C53.0879 36.6721 52.743 36.7461 52.4341 36.8941C52.1294 37.0421 51.867 37.2601 51.647 37.5481C51.4312 37.8361 51.264 38.1911 51.1455 38.6141C51.027 39.0371 50.9678 39.5241 50.9678 40.0741V40.6711C50.9678 41.2251 51.027 41.7161 51.1455 42.1441C51.264 42.5671 51.4333 42.9241 51.6533 43.2161C51.8776 43.5041 52.1421 43.7221 52.4468 43.8701C52.7557 44.0181 53.1006 44.0921 53.4814 44.0921C53.8792 44.0921 54.2326 44.0181 54.5415 43.8701C54.8504 43.7221 55.1107 43.5041 55.3223 43.2161C55.5381 42.9241 55.701 42.5671 55.811 42.1441C55.9211 41.7161 55.9761 41.2251 55.9761 40.6711ZM60.9336 43.9401L62.8125 38.1321H64.0122L61.543 45.0001H60.7559L60.9336 43.9401ZM59.3657 38.1321L61.3018 43.9721L61.4351 45.0001H60.6479L58.1597 38.1321H59.3657ZM64.7295 41.6421V41.4961C64.7295 41.0011 64.8014 40.5421 64.9453 40.1191C65.0892 39.6911 65.2965 39.3211 65.5674 39.0081C65.8382 38.6901 66.1662 38.4451 66.5513 38.2711C66.9364 38.0941 67.368 38.0051 67.8462 38.0051C68.3286 38.0051 68.7624 38.0941 69.1475 38.2711C69.5368 38.4451 69.8669 38.6901 70.1377 39.0081C70.4128 39.3211 70.6222 39.6911 70.7661 40.1191C70.91 40.5421 70.9819 41.0011 70.9819 41.4961V41.6421C70.9819 42.1371 70.91 42.5961 70.7661 43.0201C70.6222 43.4431 70.4128 43.8131 70.1377 44.1301C69.8669 44.4441 69.5389 44.6891 69.1538 44.8671C68.7729 45.0401 68.3413 45.1271 67.8589 45.1271C67.3765 45.1271 66.9427 45.0401 66.5576 44.8671C66.1725 44.6891 65.8424 44.4441 65.5674 44.1301C65.2965 43.8131 65.0892 43.4431 64.9453 43.0201C64.8014 42.5961 64.7295 42.1371 64.7295 41.6421ZM65.9038 41.4961V41.6421C65.9038 41.9851 65.944 42.3091 66.0244 42.6131C66.1048 42.9141 66.2254 43.1801 66.3862 43.4131C66.5513 43.6461 66.7565 43.8301 67.002 43.9651C67.2474 44.0971 67.533 44.1621 67.8589 44.1621C68.1805 44.1621 68.4619 44.0971 68.7031 43.9651C68.9486 43.8301 69.1517 43.6461 69.3125 43.4131C69.4733 43.1801 69.5939 42.9141 69.6743 42.6131C69.759 42.3091 69.8013 41.9851 69.8013 41.6421V41.4961C69.8013 41.1581 69.759 40.8381 69.6743 40.5381C69.5939 40.2331 69.4712 39.9641 69.3062 39.7311C69.1453 39.4941 68.9422 39.3081 68.6968 39.1731C68.4556 39.0371 68.172 38.9701 67.8462 38.9701C67.5246 38.9701 67.241 39.0371 66.9956 39.1731C66.7544 39.3081 66.5513 39.4941 66.3862 39.7311C66.2254 39.9641 66.1048 40.2331 66.0244 40.5381C65.944 40.8381 65.9038 41.1581 65.9038 41.4961ZM76.4536 43.1781C76.4536 43.0091 76.4155 42.8521 76.3394 42.7081C76.2674 42.5601 76.1172 42.4271 75.8887 42.3091C75.6644 42.1861 75.3258 42.0801 74.873 41.9911C74.4922 41.9111 74.1473 41.8161 73.8384 41.7061C73.5337 41.5961 73.2734 41.4621 73.0576 41.3061C72.846 41.1491 72.6831 40.9651 72.5688 40.7531C72.4546 40.5421 72.3975 40.2941 72.3975 40.0111C72.3975 39.7401 72.4567 39.4841 72.5752 39.2431C72.6979 39.0011 72.8693 38.7881 73.0894 38.6021C73.3136 38.4151 73.5824 38.2691 73.8955 38.1641C74.2087 38.0581 74.5578 38.0051 74.9429 38.0051C75.493 38.0051 75.9627 38.1021 76.3521 38.2971C76.7414 38.4921 77.0397 38.7521 77.2471 39.0781C77.4544 39.3991 77.5581 39.7571 77.5581 40.1501H76.3838C76.3838 39.9601 76.3267 39.7761 76.2124 39.5981C76.1024 39.4161 75.9395 39.2661 75.7236 39.1471C75.512 39.0291 75.2518 38.9701 74.9429 38.9701C74.617 38.9701 74.3525 39.0211 74.1494 39.1221C73.9505 39.2191 73.8045 39.3441 73.7114 39.4971C73.6226 39.6491 73.5781 39.8101 73.5781 39.9791C73.5781 40.1061 73.5993 40.2201 73.6416 40.3221C73.6882 40.4191 73.7686 40.5101 73.8828 40.5951C73.9971 40.6751 74.1579 40.7511 74.3652 40.8231C74.5726 40.8951 74.8371 40.9671 75.1587 41.0391C75.7215 41.1661 76.1849 41.3181 76.5488 41.4961C76.9128 41.6741 77.1836 41.8921 77.3613 42.1501C77.5391 42.4081 77.6279 42.7211 77.6279 43.0891C77.6279 43.3901 77.5645 43.6651 77.4375 43.9151C77.3148 44.1641 77.1349 44.3801 76.8979 44.5621C76.6652 44.7401 76.3859 44.8791 76.0601 44.9811C75.7384 45.0781 75.3766 45.1271 74.9746 45.1271C74.3695 45.1271 73.8574 45.0191 73.4385 44.8031C73.0195 44.5871 72.7021 44.3081 72.4863 43.9651C72.2705 43.6231 72.1626 43.2611 72.1626 42.8801H73.3433C73.3602 43.2011 73.4533 43.4581 73.6226 43.6481C73.7918 43.8341 73.9992 43.9671 74.2446 44.0481C74.4901 44.1241 74.7334 44.1621 74.9746 44.1621C75.2962 44.1621 75.5649 44.1201 75.7808 44.0351C76.0008 43.9511 76.168 43.8341 76.2822 43.6861C76.3965 43.5381 76.4536 43.3691 76.4536 43.1781Z" fill="#515151"/>
<path d="M43 33H27V49H43V33Z" fill="white"/>
<path d="M42.5 33.5H27.5V48.5H42.5V33.5Z" stroke="black" stroke-opacity="0.66"/>
<path d="M56.9028 92.398V95.781C56.7886 95.951 56.6066 96.141 56.3569 96.353C56.1073 96.56 55.7624 96.742 55.3223 96.898C54.8864 97.051 54.3236 97.127 53.6338 97.127C53.071 97.127 52.5526 97.03 52.0786 96.835C51.6089 96.636 51.2005 96.348 50.8535 95.972C50.5107 95.591 50.2441 95.13 50.0537 94.588C49.8675 94.042 49.7744 93.424 49.7744 92.734V92.017C49.7744 91.327 49.8548 90.712 50.0156 90.17C50.1807 89.628 50.4219 89.169 50.7393 88.792C51.0566 88.412 51.446 88.124 51.9072 87.929C52.3685 87.73 52.8975 87.631 53.4941 87.631C54.2008 87.631 54.7912 87.754 55.2651 87.999C55.7433 88.24 56.1157 88.575 56.3823 89.002C56.6532 89.429 56.8267 89.916 56.9028 90.462H55.6777C55.6227 90.128 55.5127 89.823 55.3477 89.548C55.1868 89.273 54.9562 89.053 54.6558 88.888C54.3553 88.718 53.9681 88.634 53.4941 88.634C53.0667 88.634 52.6965 88.712 52.3833 88.869C52.0701 89.025 51.812 89.25 51.6089 89.542C51.4058 89.833 51.2534 90.187 51.1519 90.602C51.0545 91.016 51.0059 91.484 51.0059 92.004V92.734C51.0059 93.268 51.0672 93.744 51.1899 94.163C51.3169 94.582 51.4967 94.939 51.7295 95.235C51.9622 95.527 52.2394 95.75 52.561 95.902C52.8869 96.054 53.2466 96.13 53.6401 96.13C54.076 96.13 54.4294 96.094 54.7002 96.022C54.971 95.946 55.1826 95.857 55.335 95.756C55.4873 95.65 55.6037 95.551 55.6841 95.458V93.388H53.5449V92.398H56.9028ZM60.0322 87.25V97H58.8516V87.25H60.0322ZM66.1196 95.413V90.132H67.3003V97H66.1768L66.1196 95.413ZM66.3418 93.966L66.8306 93.953C66.8306 94.41 66.7819 94.833 66.6846 95.223C66.5915 95.608 66.4391 95.942 66.2275 96.226C66.016 96.509 65.7388 96.731 65.396 96.892C65.0532 97.049 64.6364 97.127 64.1455 97.127C63.8112 97.127 63.5044 97.078 63.2251 96.981C62.95 96.884 62.7131 96.733 62.5142 96.53C62.3153 96.327 62.1608 96.063 62.0508 95.737C61.945 95.411 61.8921 95.02 61.8921 94.562V90.132H63.0664V94.575C63.0664 94.884 63.1003 95.14 63.168 95.343C63.2399 95.542 63.3351 95.701 63.4536 95.819C63.5763 95.934 63.7118 96.014 63.8599 96.061C64.0122 96.107 64.1688 96.13 64.3296 96.13C64.8289 96.13 65.2246 96.035 65.5166 95.845C65.8086 95.65 66.0181 95.39 66.145 95.064C66.2762 94.734 66.3418 94.368 66.3418 93.966ZM63.9741 89.116L65.2056 87.25H66.6211L64.9199 89.116H63.9741ZM71.9658 90.132V91.033H68.2524V90.132H71.9658ZM69.5093 88.462H70.6836V95.299C70.6836 95.532 70.7196 95.707 70.7915 95.826C70.8634 95.944 70.9565 96.022 71.0708 96.061C71.1851 96.099 71.3078 96.118 71.439 96.118C71.5363 96.118 71.6379 96.109 71.7437 96.092C71.8537 96.071 71.9362 96.054 71.9912 96.042L71.9976 97C71.9045 97.03 71.7817 97.057 71.6294 97.083C71.4813 97.112 71.3014 97.127 71.0898 97.127C70.8021 97.127 70.5376 97.07 70.2964 96.956C70.0552 96.841 69.8626 96.651 69.7188 96.384C69.5791 96.113 69.5093 95.75 69.5093 95.292V88.462ZM76.1934 97.127C75.7152 97.127 75.2814 97.047 74.8921 96.886C74.507 96.721 74.1748 96.49 73.8955 96.194C73.6204 95.898 73.4089 95.546 73.2607 95.14C73.1126 94.734 73.0386 94.29 73.0386 93.807V93.541C73.0386 92.982 73.1211 92.485 73.2861 92.049C73.4512 91.609 73.6755 91.236 73.959 90.932C74.2425 90.627 74.5641 90.396 74.9238 90.24C75.2835 90.083 75.6559 90.005 76.041 90.005C76.5319 90.005 76.9551 90.09 77.3105 90.259C77.6702 90.428 77.9644 90.665 78.1929 90.97C78.4214 91.27 78.5907 91.626 78.7007 92.036C78.8107 92.442 78.8657 92.887 78.8657 93.369V93.896H73.7368V92.938H77.6914V92.849C77.6745 92.544 77.611 92.248 77.501 91.96C77.3952 91.672 77.2259 91.435 76.9932 91.249C76.7604 91.063 76.443 90.97 76.041 90.97C75.7744 90.97 75.529 91.027 75.3047 91.141C75.0804 91.251 74.8879 91.416 74.7271 91.636C74.5662 91.856 74.4414 92.125 74.3525 92.442C74.2637 92.76 74.2192 93.126 74.2192 93.541V93.807C74.2192 94.133 74.2637 94.44 74.3525 94.728C74.4456 95.011 74.5789 95.261 74.7524 95.477C74.9302 95.692 75.1439 95.862 75.3936 95.984C75.6475 96.107 75.9352 96.168 76.2568 96.168C76.6715 96.168 77.0228 96.084 77.3105 95.915C77.5983 95.745 77.8501 95.519 78.0659 95.235L78.7769 95.8C78.6287 96.025 78.4404 96.238 78.2119 96.441C77.9834 96.645 77.702 96.81 77.3677 96.937C77.0376 97.063 76.6462 97.127 76.1934 97.127ZM81.4111 91.598V97H80.2368V90.132H81.3477L81.4111 91.598ZM81.1318 93.306L80.6431 93.287C80.6473 92.817 80.7171 92.383 80.8525 91.985C80.988 91.583 81.1784 91.234 81.4238 90.938C81.6693 90.642 81.9613 90.413 82.2998 90.252C82.6426 90.087 83.0213 90.005 83.436 90.005C83.7746 90.005 84.0793 90.051 84.3501 90.145C84.6209 90.233 84.8516 90.377 85.042 90.576C85.2367 90.775 85.3848 91.033 85.4863 91.351C85.5879 91.664 85.6387 92.047 85.6387 92.5V97H84.458V92.487C84.458 92.127 84.4051 91.839 84.2993 91.624C84.1935 91.403 84.0391 91.245 83.8359 91.147C83.6328 91.046 83.3831 90.995 83.0869 90.995C82.7949 90.995 82.5283 91.056 82.2871 91.179C82.0501 91.302 81.8449 91.471 81.6714 91.687C81.5021 91.903 81.3688 92.15 81.2715 92.43C81.1784 92.705 81.1318 92.997 81.1318 93.306Z" fill="#515151"/>
<path d="M43 83H27V99H43V83Z" fill="white"/>
<path d="M42.5 83.5H27.5V98.5H42.5V83.5Z" stroke="black" stroke-opacity="0.66"/>
<path d="M55.6523 67.061H56.8711C56.8076 67.645 56.6405 68.168 56.3696 68.629C56.0988 69.09 55.7158 69.456 55.2207 69.727C54.7256 69.994 54.1077 70.127 53.3672 70.127C52.8255 70.127 52.3325 70.025 51.8882 69.822C51.4481 69.619 51.0693 69.331 50.752 68.959C50.4346 68.582 50.1891 68.132 50.0156 67.607C49.8464 67.078 49.7617 66.49 49.7617 65.842V64.922C49.7617 64.274 49.8464 63.688 50.0156 63.164C50.1891 62.635 50.4367 62.182 50.7583 61.805C51.0841 61.429 51.4756 61.139 51.9326 60.936C52.3896 60.732 52.9038 60.631 53.4751 60.631C54.1733 60.631 54.7637 60.762 55.2461 61.024C55.7285 61.287 56.103 61.651 56.3696 62.116C56.6405 62.577 56.8076 63.113 56.8711 63.722H55.6523C55.5931 63.291 55.4831 62.92 55.3223 62.611C55.1615 62.298 54.9329 62.057 54.6367 61.888C54.3405 61.718 53.9533 61.634 53.4751 61.634C53.0646 61.634 52.7028 61.712 52.3896 61.869C52.0807 62.025 51.8205 62.247 51.6089 62.535C51.4015 62.823 51.245 63.168 51.1392 63.57C51.0334 63.972 50.9805 64.418 50.9805 64.909V65.842C50.9805 66.295 51.027 66.72 51.1201 67.118C51.2174 67.516 51.3634 67.865 51.5581 68.166C51.7528 68.466 52.0003 68.703 52.3008 68.876C52.6012 69.046 52.9567 69.13 53.3672 69.13C53.8877 69.13 54.3024 69.048 54.6113 68.883C54.9202 68.718 55.153 68.481 55.3096 68.172C55.4704 67.863 55.5846 67.493 55.6523 67.061ZM58.0518 66.642V66.496C58.0518 66.001 58.1237 65.542 58.2676 65.119C58.4115 64.691 58.6188 64.321 58.8896 64.008C59.1605 63.69 59.4884 63.445 59.8735 63.271C60.2586 63.094 60.6903 63.005 61.1685 63.005C61.6509 63.005 62.0846 63.094 62.4697 63.271C62.859 63.445 63.1891 63.69 63.46 64.008C63.735 64.321 63.9445 64.691 64.0884 65.119C64.2323 65.542 64.3042 66.001 64.3042 66.496V66.642C64.3042 67.137 64.2323 67.596 64.0884 68.02C63.9445 68.443 63.735 68.813 63.46 69.13C63.1891 69.444 62.8612 69.689 62.4761 69.867C62.0952 70.04 61.6636 70.127 61.1812 70.127C60.6987 70.127 60.265 70.04 59.8799 69.867C59.4948 69.689 59.1647 69.444 58.8896 69.13C58.6188 68.813 58.4115 68.443 58.2676 68.02C58.1237 67.596 58.0518 67.137 58.0518 66.642ZM59.2261 66.496V66.642C59.2261 66.985 59.2663 67.309 59.3467 67.613C59.4271 67.914 59.5477 68.18 59.7085 68.413C59.8735 68.646 60.0788 68.83 60.3242 68.965C60.5697 69.097 60.8553 69.162 61.1812 69.162C61.5028 69.162 61.7842 69.097 62.0254 68.965C62.2708 68.83 62.474 68.646 62.6348 68.413C62.7956 68.18 62.9162 67.914 62.9966 67.613C63.0812 67.309 63.1235 66.985 63.1235 66.642V66.496C63.1235 66.158 63.0812 65.838 62.9966 65.538C62.9162 65.233 62.7935 64.964 62.6284 64.731C62.4676 64.494 62.2645 64.308 62.019 64.173C61.7778 64.037 61.4943 63.97 61.1685 63.97C60.8468 63.97 60.5633 64.037 60.3179 64.173C60.0767 64.308 59.8735 64.494 59.7085 64.731C59.5477 64.964 59.4271 65.233 59.3467 65.538C59.2663 65.838 59.2261 66.158 59.2261 66.496ZM66.9512 64.211V70H65.7769V63.132H66.9194L66.9512 64.211ZM69.0967 63.094L69.0903 64.186C68.993 64.164 68.8999 64.152 68.811 64.147C68.7264 64.139 68.6291 64.135 68.519 64.135C68.2482 64.135 68.0091 64.177 67.8018 64.262C67.5944 64.346 67.4188 64.465 67.2749 64.617C67.131 64.77 67.0168 64.951 66.9321 65.163C66.8517 65.37 66.7988 65.599 66.7734 65.849L66.4434 66.039C66.4434 65.624 66.4836 65.235 66.564 64.871C66.6486 64.507 66.7777 64.186 66.9512 63.906C67.1247 63.623 67.3447 63.403 67.6113 63.246C67.8822 63.085 68.2038 63.005 68.5762 63.005C68.6608 63.005 68.7581 63.015 68.8682 63.037C68.9782 63.054 69.0544 63.073 69.0967 63.094ZM73.978 68.826V65.29C73.978 65.019 73.923 64.784 73.813 64.585C73.7072 64.382 73.5464 64.226 73.3306 64.116C73.1147 64.006 72.8481 63.951 72.5308 63.951C72.2345 63.951 71.9743 64.001 71.75 64.103C71.5299 64.205 71.3564 64.338 71.2295 64.503C71.1068 64.668 71.0454 64.846 71.0454 65.036H69.8711C69.8711 64.791 69.9346 64.547 70.0615 64.306C70.1885 64.065 70.3704 63.847 70.6074 63.652C70.8486 63.453 71.1364 63.297 71.4707 63.183C71.8092 63.064 72.1859 63.005 72.6006 63.005C73.0999 63.005 73.54 63.09 73.9209 63.259C74.306 63.428 74.6064 63.684 74.8223 64.027C75.0423 64.365 75.1523 64.791 75.1523 65.303V68.502C75.1523 68.73 75.1714 68.974 75.2095 69.232C75.2518 69.49 75.3132 69.712 75.3936 69.898V70H74.1685C74.1092 69.865 74.0627 69.685 74.0288 69.46C73.995 69.232 73.978 69.02 73.978 68.826ZM74.1812 65.836L74.1938 66.661H73.0068C72.6725 66.661 72.3742 66.689 72.1118 66.744C71.8494 66.794 71.6294 66.873 71.4517 66.979C71.2739 67.084 71.1385 67.218 71.0454 67.378C70.9523 67.535 70.9058 67.719 70.9058 67.931C70.9058 68.146 70.9544 68.343 71.0518 68.521C71.1491 68.699 71.2951 68.84 71.4897 68.946C71.6886 69.048 71.932 69.099 72.2197 69.099C72.5794 69.099 72.8968 69.022 73.1719 68.87C73.4469 68.718 73.6649 68.532 73.8257 68.312C73.9907 68.091 74.0796 67.878 74.0923 67.67L74.5938 68.235C74.5641 68.413 74.4837 68.61 74.3525 68.826C74.2214 69.042 74.0457 69.249 73.8257 69.448C73.6099 69.642 73.3517 69.805 73.0513 69.937C72.755 70.063 72.4207 70.127 72.0483 70.127C71.5828 70.127 71.1745 70.036 70.8232 69.854C70.4762 69.672 70.2054 69.429 70.0107 69.124C69.8203 68.815 69.7251 68.47 69.7251 68.089C69.7251 67.721 69.797 67.397 69.9409 67.118C70.0848 66.835 70.2922 66.6 70.563 66.414C70.8338 66.223 71.1597 66.079 71.5405 65.982C71.9214 65.885 72.3467 65.836 72.8164 65.836H74.1812ZM78.1738 64.598V70H76.9995V63.132H78.1104L78.1738 64.598ZM77.8945 66.306L77.4058 66.287C77.41 65.817 77.4798 65.383 77.6152 64.985C77.7507 64.583 77.9411 64.234 78.1865 63.938C78.432 63.642 78.724 63.413 79.0625 63.252C79.4053 63.087 79.784 63.005 80.1987 63.005C80.5373 63.005 80.842 63.051 81.1128 63.145C81.3836 63.233 81.6143 63.377 81.8047 63.576C81.9993 63.775 82.1475 64.033 82.249 64.351C82.3506 64.664 82.4014 65.047 82.4014 65.5V70H81.2207V65.487C81.2207 65.127 81.1678 64.839 81.062 64.624C80.9562 64.403 80.8018 64.245 80.5986 64.147C80.3955 64.046 80.1458 63.995 79.8496 63.995C79.5576 63.995 79.291 64.056 79.0498 64.179C78.8128 64.302 78.6076 64.471 78.4341 64.687C78.2648 64.903 78.1315 65.15 78.0342 65.43C77.9411 65.705 77.8945 65.997 77.8945 66.306ZM87.0605 63.132V64.033H83.3472V63.132H87.0605ZM84.604 61.462H85.7783V68.299C85.7783 68.532 85.8143 68.707 85.8862 68.826C85.9582 68.944 86.0513 69.022 86.1655 69.061C86.2798 69.099 86.4025 69.118 86.5337 69.118C86.631 69.118 86.7326 69.109 86.8384 69.092C86.9484 69.071 87.0309 69.054 87.0859 69.042L87.0923 70C86.9992 70.03 86.8765 70.057 86.7241 70.083C86.576 70.112 86.3962 70.127 86.1846 70.127C85.8968 70.127 85.6323 70.07 85.3911 69.956C85.1499 69.841 84.9574 69.651 84.8135 69.384C84.6738 69.113 84.604 68.75 84.604 68.292V61.462ZM91.2881 70.127C90.8099 70.127 90.3761 70.047 89.9868 69.886C89.6017 69.721 89.2695 69.49 88.9902 69.194C88.7152 68.898 88.5036 68.546 88.3555 68.14C88.2074 67.734 88.1333 67.29 88.1333 66.807V66.541C88.1333 65.982 88.2158 65.485 88.3809 65.049C88.5459 64.609 88.7702 64.236 89.0537 63.932C89.3372 63.627 89.6589 63.396 90.0186 63.24C90.3783 63.083 90.7507 63.005 91.1357 63.005C91.6266 63.005 92.0498 63.09 92.4053 63.259C92.765 63.428 93.0591 63.665 93.2876 63.97C93.5161 64.27 93.6854 64.626 93.7954 65.036C93.9054 65.442 93.9604 65.887 93.9604 66.369V66.896H88.8315V65.938H92.7861V65.849C92.7692 65.544 92.7057 65.248 92.5957 64.96C92.4899 64.672 92.3206 64.435 92.0879 64.249C91.8551 64.063 91.5378 63.97 91.1357 63.97C90.8691 63.97 90.6237 64.027 90.3994 64.141C90.1751 64.251 89.9826 64.416 89.8218 64.636C89.661 64.856 89.5361 65.125 89.4473 65.442C89.3584 65.76 89.314 66.126 89.314 66.541V66.807C89.314 67.133 89.3584 67.44 89.4473 67.728C89.5404 68.011 89.6737 68.261 89.8472 68.477C90.0249 68.692 90.2386 68.862 90.4883 68.984C90.7422 69.107 91.0299 69.168 91.3516 69.168C91.7663 69.168 92.1175 69.084 92.4053 68.915C92.693 68.745 92.9448 68.519 93.1606 68.235L93.8716 68.8C93.7235 69.025 93.5352 69.238 93.3066 69.441C93.0781 69.645 92.7967 69.81 92.4624 69.937C92.1323 70.063 91.7409 70.127 91.2881 70.127ZM99.7305 64.598V70H98.5562V63.132H99.667L99.7305 64.598ZM99.4512 66.306L98.9624 66.287C98.9666 65.817 99.0365 65.383 99.1719 64.985C99.3073 64.583 99.4977 64.234 99.7432 63.938C99.9886 63.642 100.281 63.413 100.619 63.252C100.962 63.087 101.341 63.005 101.755 63.005C102.094 63.005 102.399 63.051 102.669 63.145C102.94 63.233 103.171 63.377 103.361 63.576C103.556 63.775 103.704 64.033 103.806 64.351C103.907 64.664 103.958 65.047 103.958 65.5V70H102.777V65.487C102.777 65.127 102.724 64.839 102.619 64.624C102.513 64.403 102.358 64.245 102.155 64.147C101.952 64.046 101.702 63.995 101.406 63.995C101.114 63.995 100.848 64.056 100.606 64.179C100.369 64.302 100.164 64.471 99.9907 64.687C99.8215 64.903 99.6882 65.15 99.5908 65.43C99.4977 65.705 99.4512 65.997 99.4512 66.306ZM109.792 68.826V65.29C109.792 65.019 109.736 64.784 109.626 64.585C109.521 64.382 109.36 64.226 109.144 64.116C108.928 64.006 108.662 63.951 108.344 63.951C108.048 63.951 107.788 64.001 107.563 64.103C107.343 64.205 107.17 64.338 107.043 64.503C106.92 64.668 106.859 64.846 106.859 65.036H105.685C105.685 64.791 105.748 64.547 105.875 64.306C106.002 64.065 106.184 63.847 106.421 63.652C106.662 63.453 106.95 63.297 107.284 63.183C107.623 63.064 107.999 63.005 108.414 63.005C108.913 63.005 109.354 63.09 109.734 63.259C110.119 63.428 110.42 63.684 110.636 64.027C110.856 64.365 110.966 64.791 110.966 65.303V68.502C110.966 68.73 110.985 68.974 111.023 69.232C111.065 69.49 111.127 69.712 111.207 69.898V70H109.982C109.923 69.865 109.876 69.685 109.842 69.46C109.808 69.232 109.792 69.02 109.792 68.826ZM109.995 65.836L110.007 66.661H108.82C108.486 66.661 108.188 66.689 107.925 66.744C107.663 66.794 107.443 66.873 107.265 66.979C107.087 67.084 106.952 67.218 106.859 67.378C106.766 67.535 106.719 67.719 106.719 67.931C106.719 68.146 106.768 68.343 106.865 68.521C106.963 68.699 107.109 68.84 107.303 68.946C107.502 69.048 107.745 69.099 108.033 69.099C108.393 69.099 108.71 69.022 108.985 68.87C109.26 68.718 109.478 68.532 109.639 68.312C109.804 68.091 109.893 67.878 109.906 67.67L110.407 68.235C110.378 68.413 110.297 68.61 110.166 68.826C110.035 69.042 109.859 69.249 109.639 69.448C109.423 69.642 109.165 69.805 108.865 69.937C108.569 70.063 108.234 70.127 107.862 70.127C107.396 70.127 106.988 70.036 106.637 69.854C106.29 69.672 106.019 69.429 105.824 69.124C105.634 68.815 105.539 68.47 105.539 68.089C105.539 67.721 105.611 67.397 105.754 67.118C105.898 66.835 106.106 66.6 106.376 66.414C106.647 66.223 106.973 66.079 107.354 65.982C107.735 65.885 108.16 65.836 108.63 65.836H109.995ZM115.688 63.132V64.033H111.975V63.132H115.688ZM113.232 61.462H114.406V68.299C114.406 68.532 114.442 68.707 114.514 68.826C114.586 68.944 114.679 69.022 114.793 69.061C114.908 69.099 115.03 69.118 115.162 69.118C115.259 69.118 115.361 69.109 115.466 69.092C115.576 69.071 115.659 69.054 115.714 69.042L115.72 70C115.627 70.03 115.504 70.057 115.352 70.083C115.204 70.112 115.024 70.127 114.812 70.127C114.525 70.127 114.26 70.07 114.019 69.956C113.778 69.841 113.585 69.651 113.441 69.384C113.302 69.113 113.232 68.75 113.232 68.292V61.462ZM121.268 68.413V63.132H122.449V70H121.325L121.268 68.413ZM121.49 66.966L121.979 66.953C121.979 67.41 121.93 67.833 121.833 68.223C121.74 68.608 121.588 68.942 121.376 69.226C121.164 69.509 120.887 69.731 120.544 69.892C120.202 70.049 119.785 70.127 119.294 70.127C118.96 70.127 118.653 70.078 118.374 69.981C118.098 69.884 117.861 69.733 117.663 69.53C117.464 69.327 117.309 69.063 117.199 68.737C117.093 68.411 117.041 68.02 117.041 67.562V63.132H118.215V67.575C118.215 67.884 118.249 68.14 118.316 68.343C118.388 68.542 118.484 68.701 118.602 68.819C118.725 68.934 118.86 69.014 119.008 69.061C119.161 69.107 119.317 69.13 119.478 69.13C119.977 69.13 120.373 69.035 120.665 68.845C120.957 68.65 121.167 68.39 121.293 68.064C121.425 67.734 121.49 67.368 121.49 66.966ZM125.413 64.211V70H124.239V63.132H125.381L125.413 64.211ZM127.559 63.094L127.552 64.186C127.455 64.164 127.362 64.152 127.273 64.147C127.188 64.139 127.091 64.135 126.981 64.135C126.71 64.135 126.471 64.177 126.264 64.262C126.056 64.346 125.881 64.465 125.737 64.617C125.593 64.77 125.479 64.951 125.394 65.163C125.314 65.37 125.261 65.599 125.235 65.849L124.905 66.039C124.905 65.624 124.945 65.235 125.026 64.871C125.111 64.507 125.24 64.186 125.413 63.906C125.587 63.623 125.807 63.403 126.073 63.246C126.344 63.085 126.666 63.005 127.038 63.005C127.123 63.005 127.22 63.015 127.33 63.037C127.44 63.054 127.516 63.073 127.559 63.094ZM132.44 68.826V65.29C132.44 65.019 132.385 64.784 132.275 64.585C132.169 64.382 132.008 64.226 131.792 64.116C131.577 64.006 131.31 63.951 130.993 63.951C130.696 63.951 130.436 64.001 130.212 64.103C129.992 64.205 129.818 64.338 129.691 64.503C129.569 64.668 129.507 64.846 129.507 65.036H128.333C128.333 64.791 128.396 64.547 128.523 64.306C128.65 64.065 128.832 63.847 129.069 63.652C129.311 63.453 129.598 63.297 129.933 63.183C130.271 63.064 130.648 63.005 131.062 63.005C131.562 63.005 132.002 63.09 132.383 63.259C132.768 63.428 133.068 63.684 133.284 64.027C133.504 64.365 133.614 64.791 133.614 65.303V68.502C133.614 68.73 133.633 68.974 133.671 69.232C133.714 69.49 133.775 69.712 133.855 69.898V70H132.63C132.571 69.865 132.525 69.685 132.491 69.46C132.457 69.232 132.44 69.02 132.44 68.826ZM132.643 65.836L132.656 66.661H131.469C131.134 66.661 130.836 66.689 130.574 66.744C130.311 66.794 130.091 66.873 129.914 66.979C129.736 67.084 129.6 67.218 129.507 67.378C129.414 67.535 129.368 67.719 129.368 67.931C129.368 68.146 129.416 68.343 129.514 68.521C129.611 68.699 129.757 68.84 129.952 68.946C130.151 69.048 130.394 69.099 130.682 69.099C131.041 69.099 131.359 69.022 131.634 68.87C131.909 68.718 132.127 68.532 132.288 68.312C132.453 68.091 132.542 67.878 132.554 67.67L133.056 68.235C133.026 68.413 132.946 68.61 132.814 68.826C132.683 69.042 132.508 69.249 132.288 69.448C132.072 69.642 131.814 69.805 131.513 69.937C131.217 70.063 130.883 70.127 130.51 70.127C130.045 70.127 129.636 70.036 129.285 69.854C128.938 69.672 128.667 69.429 128.473 69.124C128.282 68.815 128.187 68.47 128.187 68.089C128.187 67.721 128.259 67.397 128.403 67.118C128.547 66.835 128.754 66.6 129.025 66.414C129.296 66.223 129.622 66.079 130.002 65.982C130.383 65.885 130.809 65.836 131.278 65.836H132.643ZM136.737 60.25V70H135.557V60.25H136.737Z" fill="#515151"/>
<path d="M43 58H27V74H43V58Z" fill="white"/>
<path d="M42.5 58.5H27.5V73.5H42.5V58.5Z" stroke="black" stroke-opacity="0.66"/>
<path d="M27 114C27 110.686 29.6863 108 33 108H181C184.314 108 187 110.686 187 114V131C187 134.314 184.314 137 181 137H33C29.6863 137 27 134.314 27 131V114Z" fill="white"/>
<path d="M27.5 114C27.5 110.962 29.9624 108.5 33 108.5H181C184.038 108.5 186.5 110.962 186.5 114V131C186.5 134.038 184.038 136.5 181 136.5H33C29.9624 136.5 27.5 134.038 27.5 131V114Z" stroke="black" stroke-opacity="0.66"/>
<path d="M35.584 125.642V125.496C35.584 125.001 35.6559 124.542 35.7998 124.119C35.9437 123.691 36.151 123.321 36.4219 123.008C36.6927 122.69 37.0207 122.445 37.4058 122.271C37.7909 122.094 38.2225 122.005 38.7007 122.005C39.1831 122.005 39.6169 122.094 40.002 122.271C40.3913 122.445 40.7214 122.69 40.9922 123.008C41.2673 123.321 41.4767 123.691 41.6206 124.119C41.7645 124.542 41.8364 125.001 41.8364 125.496V125.642C41.8364 126.137 41.7645 126.596 41.6206 127.02C41.4767 127.443 41.2673 127.813 40.9922 128.13C40.7214 128.444 40.3934 128.689 40.0083 128.867C39.6274 129.04 39.1958 129.127 38.7134 129.127C38.231 129.127 37.7972 129.04 37.4121 128.867C37.027 128.689 36.6969 128.444 36.4219 128.13C36.151 127.813 35.9437 127.443 35.7998 127.02C35.6559 126.596 35.584 126.137 35.584 125.642ZM36.7583 125.496V125.642C36.7583 125.985 36.7985 126.309 36.8789 126.613C36.9593 126.914 37.0799 127.18 37.2407 127.413C37.4058 127.646 37.611 127.83 37.8564 127.965C38.1019 128.097 38.3875 128.162 38.7134 128.162C39.035 128.162 39.3164 128.097 39.5576 127.965C39.8031 127.83 40.0062 127.646 40.167 127.413C40.3278 127.18 40.4484 126.914 40.5288 126.613C40.6134 126.309 40.6558 125.985 40.6558 125.642V125.496C40.6558 125.158 40.6134 124.838 40.5288 124.538C40.4484 124.233 40.3257 123.964 40.1606 123.731C39.9998 123.494 39.7967 123.308 39.5513 123.173C39.3101 123.037 39.0265 122.97 38.7007 122.97C38.3791 122.97 38.0955 123.037 37.8501 123.173C37.6089 123.308 37.4058 123.494 37.2407 123.731C37.0799 123.964 36.9593 124.233 36.8789 124.538C36.7985 124.838 36.7583 125.158 36.7583 125.496ZM47.5112 127.413V122.132H48.6919V129H47.5684L47.5112 127.413ZM47.7334 125.966L48.2222 125.953C48.2222 126.41 48.1735 126.833 48.0762 127.223C47.9831 127.608 47.8307 127.942 47.6191 128.226C47.4076 128.509 47.1304 128.731 46.7876 128.892C46.4448 129.049 46.028 129.127 45.5371 129.127C45.2028 129.127 44.896 129.078 44.6167 128.981C44.3416 128.884 44.1047 128.733 43.9058 128.53C43.7069 128.327 43.5524 128.063 43.4424 127.737C43.3366 127.411 43.2837 127.02 43.2837 126.562V122.132H44.458V126.575C44.458 126.884 44.4919 127.14 44.5596 127.343C44.6315 127.542 44.7267 127.701 44.8452 127.819C44.9679 127.934 45.1034 128.014 45.2515 128.061C45.4038 128.107 45.5604 128.13 45.7212 128.13C46.2205 128.13 46.6162 128.035 46.9082 127.845C47.2002 127.65 47.4097 127.39 47.5366 127.064C47.6678 126.734 47.7334 126.368 47.7334 125.966ZM53.3574 122.132V123.033H49.644V122.132H53.3574ZM50.9009 120.462H52.0752V127.299C52.0752 127.532 52.1112 127.707 52.1831 127.826C52.255 127.944 52.3481 128.022 52.4624 128.061C52.5767 128.099 52.6994 128.118 52.8306 128.118C52.9279 128.118 53.0295 128.109 53.1353 128.092C53.2453 128.071 53.3278 128.054 53.3828 128.042L53.3892 129C53.2961 129.03 53.1733 129.057 53.021 129.083C52.8729 129.112 52.693 129.127 52.4814 129.127C52.1937 129.127 51.9292 129.07 51.688 128.956C51.4468 128.841 51.2542 128.651 51.1104 128.384C50.9707 128.113 50.9009 127.75 50.9009 127.292V120.462ZM55.9092 123.211V129H54.7349V122.132H55.8774L55.9092 123.211ZM58.0547 122.094L58.0483 123.186C57.951 123.164 57.8579 123.152 57.769 123.147C57.6844 123.139 57.5871 123.135 57.4771 123.135C57.2062 123.135 56.9671 123.177 56.7598 123.262C56.5524 123.346 56.3768 123.465 56.2329 123.617C56.089 123.77 55.9748 123.951 55.8901 124.163C55.8097 124.37 55.7568 124.599 55.7314 124.849L55.4014 125.039C55.4014 124.624 55.4416 124.235 55.522 123.871C55.6066 123.507 55.7357 123.186 55.9092 122.906C56.0827 122.623 56.3027 122.403 56.5693 122.246C56.8402 122.085 57.1618 122.005 57.5342 122.005C57.6188 122.005 57.7161 122.015 57.8262 122.037C57.9362 122.054 58.0124 122.073 58.0547 122.094ZM58.7021 125.642V125.496C58.7021 125.001 58.7741 124.542 58.918 124.119C59.0618 123.691 59.2692 123.321 59.54 123.008C59.8109 122.69 60.1388 122.445 60.5239 122.271C60.909 122.094 61.3407 122.005 61.8188 122.005C62.3013 122.005 62.735 122.094 63.1201 122.271C63.5094 122.445 63.8395 122.69 64.1104 123.008C64.3854 123.321 64.5949 123.691 64.7388 124.119C64.8826 124.542 64.9546 125.001 64.9546 125.496V125.642C64.9546 126.137 64.8826 126.596 64.7388 127.02C64.5949 127.443 64.3854 127.813 64.1104 128.13C63.8395 128.444 63.5116 128.689 63.1265 128.867C62.7456 129.04 62.314 129.127 61.8315 129.127C61.3491 129.127 60.9154 129.04 60.5303 128.867C60.1452 128.689 59.8151 128.444 59.54 128.13C59.2692 127.813 59.0618 127.443 58.918 127.02C58.7741 126.596 58.7021 126.137 58.7021 125.642ZM59.8765 125.496V125.642C59.8765 125.985 59.9167 126.309 59.9971 126.613C60.0775 126.914 60.1981 127.18 60.3589 127.413C60.5239 127.646 60.7292 127.83 60.9746 127.965C61.2201 128.097 61.5057 128.162 61.8315 128.162C62.1532 128.162 62.4346 128.097 62.6758 127.965C62.9212 127.83 63.1243 127.646 63.2852 127.413C63.446 127.18 63.5666 126.914 63.647 126.613C63.7316 126.309 63.7739 125.985 63.7739 125.642V125.496C63.7739 125.158 63.7316 124.838 63.647 124.538C63.5666 124.233 63.4438 123.964 63.2788 123.731C63.118 123.494 62.9149 123.308 62.6694 123.173C62.4282 123.037 62.1447 122.97 61.8188 122.97C61.4972 122.97 61.2137 123.037 60.9683 123.173C60.7271 123.308 60.5239 123.494 60.3589 123.731C60.1981 123.964 60.0775 124.233 59.9971 124.538C59.9167 124.838 59.8765 125.158 59.8765 125.496ZM70.4263 127.178C70.4263 127.009 70.3882 126.852 70.312 126.708C70.2401 126.56 70.0898 126.427 69.8613 126.309C69.637 126.186 69.2985 126.08 68.8457 125.991C68.4648 125.911 68.12 125.816 67.811 125.706C67.5063 125.596 67.2461 125.462 67.0303 125.306C66.8187 125.149 66.6558 124.965 66.5415 124.753C66.4272 124.542 66.3701 124.294 66.3701 124.011C66.3701 123.74 66.4294 123.484 66.5479 123.243C66.6706 123.001 66.842 122.788 67.062 122.602C67.2863 122.415 67.555 122.269 67.8682 122.164C68.1813 122.058 68.5304 122.005 68.9155 122.005C69.4657 122.005 69.9354 122.102 70.3247 122.297C70.714 122.492 71.0124 122.752 71.2197 123.078C71.4271 123.399 71.5308 123.757 71.5308 124.15H70.3564C70.3564 123.96 70.2993 123.776 70.1851 123.598C70.075 123.416 69.9121 123.266 69.6963 123.147C69.4847 123.029 69.2244 122.97 68.9155 122.97C68.5897 122.97 68.3252 123.021 68.1221 123.122C67.9232 123.219 67.7772 123.344 67.6841 123.497C67.5952 123.649 67.5508 123.81 67.5508 123.979C67.5508 124.106 67.5719 124.22 67.6143 124.322C67.6608 124.419 67.7412 124.51 67.8555 124.595C67.9697 124.675 68.1305 124.751 68.3379 124.823C68.5452 124.895 68.8097 124.967 69.1313 125.039C69.6942 125.166 70.1576 125.318 70.5215 125.496C70.8854 125.674 71.1562 125.892 71.334 126.15C71.5117 126.408 71.6006 126.721 71.6006 127.089C71.6006 127.39 71.5371 127.665 71.4102 127.915C71.2874 128.164 71.1076 128.38 70.8706 128.562C70.6379 128.74 70.3586 128.879 70.0327 128.981C69.7111 129.078 69.3493 129.127 68.9473 129.127C68.3421 129.127 67.8301 129.019 67.4111 128.803C66.9922 128.587 66.6748 128.308 66.459 127.965C66.2432 127.623 66.1353 127.261 66.1353 126.88H67.3159C67.3328 127.201 67.4259 127.458 67.5952 127.648C67.7645 127.834 67.9718 127.967 68.2173 128.048C68.4627 128.124 68.7061 128.162 68.9473 128.162C69.2689 128.162 69.5376 128.12 69.7534 128.035C69.9735 127.951 70.1406 127.834 70.2549 127.686C70.3691 127.538 70.4263 127.369 70.4263 127.178Z" fill="#515151"/>
</g>
<defs>
<clipPath id="clip0_219_48">
<rect width="360" height="782" fill="white" transform="translate(0 -462)"/>
</clipPath>
</defs>
</svg>
