<svg width="357" height="42" viewBox="0 0 357 42" fill="none" xmlns="http://www.w3.org/2000/svg">
<g clip-path="url(#clip0_219_48)">
<path d="M357 -647H-3V151H357V-647Z" fill="white"/>
<path d="M326 18L333.263 22.237C333.976 22.653 333.906 23.706 333.144 24.024L326 27" stroke="#C4C4C4"/>
<path d="M29.9141 22.633L26.8047 33H25.3359L29 21.625H29.9219L29.9141 22.633ZM32.4297 33L29.3203 22.633L29.3047 21.625H30.2344L33.8984 33H32.4297ZM32.4297 28.789V30.023H26.9453V28.789H32.4297ZM37.0703 31.695L38.8828 24.547H40.2891L37.7812 33H36.8672L37.0703 31.695ZM35.6094 24.547L37.5 31.734L37.6484 33H36.7422L34.2031 24.547H35.6094ZM45.7422 31.555V26.969C45.7422 26.635 45.6901 26.367 45.5859 26.164C45.487 25.961 45.3359 25.812 45.1328 25.719C44.9349 25.625 44.6849 25.578 44.3828 25.578C44.0911 25.578 43.8385 25.638 43.625 25.758C43.4167 25.878 43.2552 26.036 43.1406 26.234C43.0312 26.432 42.9766 26.651 42.9766 26.891H41.5938C41.5938 26.589 41.6589 26.289 41.7891 25.992C41.9245 25.695 42.1172 25.427 42.3672 25.188C42.6172 24.943 42.9167 24.75 43.2656 24.609C43.6198 24.464 44.0156 24.391 44.4531 24.391C44.974 24.391 45.4349 24.477 45.8359 24.648C46.237 24.815 46.5521 25.089 46.7812 25.469C47.0104 25.849 47.125 26.354 47.125 26.984V31.156C47.125 31.438 47.1458 31.737 47.1875 32.055C47.2344 32.372 47.2995 32.646 47.3828 32.875V33H45.9531C45.8854 32.833 45.8333 32.612 45.7969 32.336C45.7604 32.055 45.7422 31.794 45.7422 31.555ZM45.9609 27.875L45.9766 28.891H45.0156C44.6875 28.891 44.388 28.927 44.1172 29C43.8516 29.073 43.6224 29.18 43.4297 29.32C43.237 29.456 43.0885 29.625 42.9844 29.828C42.8854 30.031 42.8359 30.263 42.8359 30.523C42.8359 30.862 42.8828 31.133 42.9766 31.336C43.0703 31.534 43.2109 31.677 43.3984 31.766C43.5859 31.854 43.8229 31.898 44.1094 31.898C44.4583 31.898 44.7656 31.818 45.0312 31.656C45.2969 31.495 45.5026 31.299 45.6484 31.07C45.7995 30.841 45.8698 30.628 45.8594 30.43L46.1641 31.078C46.1432 31.281 46.0755 31.503 45.9609 31.742C45.8516 31.977 45.6979 32.203 45.5 32.422C45.3021 32.635 45.0677 32.812 44.7969 32.953C44.5312 33.089 44.2318 33.156 43.8984 33.156C43.4089 33.156 42.9792 33.062 42.6094 32.875C42.2448 32.688 41.9609 32.411 41.7578 32.047C41.5547 31.682 41.4531 31.232 41.4531 30.695C41.4531 30.289 41.5234 29.914 41.6641 29.57C41.8047 29.227 42.013 28.93 42.2891 28.68C42.5651 28.424 42.9115 28.227 43.3281 28.086C43.75 27.945 44.237 27.875 44.7891 27.875H45.9609ZM50.7578 21V33H49.3828V21H50.7578ZM54.4297 24.547V33H53.0547V24.547H54.4297ZM52.9766 22.305C52.9766 22.07 53.0417 21.872 53.1719 21.711C53.3021 21.549 53.4974 21.469 53.7578 21.469C54.0182 21.469 54.2135 21.549 54.3438 21.711C54.4792 21.872 54.5469 22.07 54.5469 22.305C54.5469 22.529 54.4792 22.721 54.3438 22.883C54.2135 23.039 54.0182 23.117 53.7578 23.117C53.4974 23.117 53.3021 23.039 53.1719 22.883C53.0417 22.721 52.9766 22.529 52.9766 22.305ZM60.7578 31.555V26.969C60.7578 26.635 60.7057 26.367 60.6016 26.164C60.5026 25.961 60.3516 25.812 60.1484 25.719C59.9505 25.625 59.7005 25.578 59.3984 25.578C59.1068 25.578 58.8542 25.638 58.6406 25.758C58.4323 25.878 58.2708 26.036 58.1562 26.234C58.0469 26.432 57.9922 26.651 57.9922 26.891H56.6094C56.6094 26.589 56.6745 26.289 56.8047 25.992C56.9401 25.695 57.1328 25.427 57.3828 25.188C57.6328 24.943 57.9323 24.75 58.2812 24.609C58.6354 24.464 59.0312 24.391 59.4688 24.391C59.9896 24.391 60.4505 24.477 60.8516 24.648C61.2526 24.815 61.5677 25.089 61.7969 25.469C62.026 25.849 62.1406 26.354 62.1406 26.984V31.156C62.1406 31.438 62.1615 31.737 62.2031 32.055C62.25 32.372 62.3151 32.646 62.3984 32.875V33H60.9688C60.901 32.833 60.849 32.612 60.8125 32.336C60.776 32.055 60.7578 31.794 60.7578 31.555ZM60.9766 27.875L60.9922 28.891H60.0312C59.7031 28.891 59.4036 28.927 59.1328 29C58.8672 29.073 58.638 29.18 58.4453 29.32C58.2526 29.456 58.1042 29.625 58 29.828C57.901 30.031 57.8516 30.263 57.8516 30.523C57.8516 30.862 57.8984 31.133 57.9922 31.336C58.0859 31.534 58.2266 31.677 58.4141 31.766C58.6016 31.854 58.8385 31.898 59.125 31.898C59.474 31.898 59.7812 31.818 60.0469 31.656C60.3125 31.495 60.5182 31.299 60.6641 31.07C60.8151 30.841 60.8854 30.628 60.875 30.43L61.1797 31.078C61.1589 31.281 61.0911 31.503 60.9766 31.742C60.8672 31.977 60.7135 32.203 60.5156 32.422C60.3177 32.635 60.0833 32.812 59.8125 32.953C59.5469 33.089 59.2474 33.156 58.9141 33.156C58.4245 33.156 57.9948 33.062 57.625 32.875C57.2604 32.688 56.9766 32.411 56.7734 32.047C56.5703 31.682 56.4688 31.232 56.4688 30.695C56.4688 30.289 56.5391 29.914 56.6797 29.57C56.8203 29.227 57.0286 28.93 57.3047 28.68C57.5807 28.424 57.9271 28.227 58.3438 28.086C58.7656 27.945 59.2526 27.875 59.8047 27.875H60.9766ZM65.6719 25.875V33H64.2891V24.547H65.625L65.6719 25.875ZM67.7734 24.5L67.7812 25.844C67.6667 25.818 67.5625 25.802 67.4688 25.797C67.3802 25.786 67.276 25.781 67.1562 25.781C66.8958 25.781 66.6667 25.833 66.4688 25.938C66.276 26.042 66.1094 26.188 65.9688 26.375C65.8281 26.562 65.7161 26.786 65.6328 27.047C65.5495 27.302 65.4922 27.583 65.4609 27.891L65.1016 28.125C65.1016 27.615 65.1406 27.135 65.2188 26.688C65.3021 26.24 65.4297 25.844 65.6016 25.5C65.7734 25.151 65.9922 24.88 66.2578 24.688C66.5286 24.49 66.8516 24.391 67.2266 24.391C67.3099 24.391 67.4115 24.404 67.5312 24.43C67.6562 24.451 67.737 24.474 67.7734 24.5ZM72.5469 29.18V28.375C72.5469 27.719 72.6302 27.143 72.7969 26.648C72.9635 26.148 73.1953 25.732 73.4922 25.398C73.7891 25.065 74.1354 24.815 74.5312 24.648C74.9271 24.477 75.3516 24.391 75.8047 24.391C76.2682 24.391 76.6979 24.477 77.0938 24.648C77.4896 24.815 77.8359 25.065 78.1328 25.398C78.4349 25.732 78.6693 26.148 78.8359 26.648C79.0026 27.143 79.0859 27.719 79.0859 28.375V29.18C79.0859 29.836 79.0026 30.414 78.8359 30.914C78.6693 31.409 78.4375 31.823 78.1406 32.156C77.8438 32.49 77.4974 32.74 77.1016 32.906C76.7057 33.073 76.2786 33.156 75.8203 33.156C75.362 33.156 74.9349 33.073 74.5391 32.906C74.1432 32.74 73.7943 32.49 73.4922 32.156C73.1953 31.823 72.9635 31.409 72.7969 30.914C72.6302 30.414 72.5469 29.836 72.5469 29.18ZM73.9297 28.375V29.18C73.9297 29.643 73.9766 30.049 74.0703 30.398C74.1641 30.747 74.2969 31.039 74.4688 31.273C74.6406 31.508 74.8411 31.685 75.0703 31.805C75.2995 31.919 75.5495 31.977 75.8203 31.977C76.1328 31.977 76.4062 31.919 76.6406 31.805C76.8802 31.685 77.0781 31.508 77.2344 31.273C77.3906 31.039 77.5078 30.747 77.5859 30.398C77.6641 30.049 77.7031 29.643 77.7031 29.18V28.375C77.7031 27.911 77.6562 27.508 77.5625 27.164C77.4688 26.815 77.3359 26.523 77.1641 26.289C76.9922 26.049 76.7891 25.872 76.5547 25.758C76.3255 25.638 76.0755 25.578 75.8047 25.578C75.5391 25.578 75.2917 25.638 75.0625 25.758C74.8333 25.872 74.6328 26.049 74.4609 26.289C74.2943 26.523 74.1641 26.815 74.0703 27.164C73.9766 27.508 73.9297 27.911 73.9297 28.375ZM85.1406 31.047V24.547H86.5234V33H85.2109L85.1406 31.047ZM85.3984 29.266L85.9453 29.25C85.9453 29.812 85.8958 30.333 85.7969 30.812C85.7031 31.286 85.5469 31.698 85.3281 32.047C85.1146 32.396 84.8307 32.669 84.4766 32.867C84.1224 33.06 83.6875 33.156 83.1719 33.156C82.8229 33.156 82.5052 33.096 82.2188 32.977C81.9375 32.857 81.6927 32.672 81.4844 32.422C81.2812 32.172 81.1224 31.846 81.0078 31.445C80.8984 31.044 80.8438 30.562 80.8438 30V24.547H82.2188V30.016C82.2188 30.396 82.2526 30.711 82.3203 30.961C82.388 31.206 82.4792 31.401 82.5938 31.547C82.7083 31.688 82.8359 31.786 82.9766 31.844C83.1172 31.901 83.2604 31.93 83.4062 31.93C83.8958 31.93 84.2865 31.812 84.5781 31.578C84.8698 31.339 85.0781 31.018 85.2031 30.617C85.3333 30.211 85.3984 29.76 85.3984 29.266ZM91.6875 24.547V25.656H87.7422V24.547H91.6875ZM89.0312 22.492H90.4141V30.906C90.4141 31.193 90.4479 31.409 90.5156 31.555C90.5885 31.701 90.6797 31.797 90.7891 31.844C90.8984 31.891 91.0156 31.914 91.1406 31.914C91.2344 31.914 91.3385 31.904 91.4531 31.883C91.5677 31.857 91.6458 31.836 91.6875 31.82L91.6797 33C91.5859 33.036 91.4609 33.07 91.3047 33.102C91.1484 33.138 90.9505 33.156 90.7109 33.156C90.4141 33.156 90.138 33.086 89.8828 32.945C89.6276 32.805 89.4219 32.57 89.2656 32.242C89.1094 31.909 89.0312 31.461 89.0312 30.898V22.492ZM94.7188 25.875V33H93.3359V24.547H94.6719L94.7188 25.875ZM96.8203 24.5L96.8281 25.844C96.7135 25.818 96.6094 25.802 96.5156 25.797C96.4271 25.786 96.3229 25.781 96.2031 25.781C95.9427 25.781 95.7135 25.833 95.5156 25.938C95.3229 26.042 95.1562 26.188 95.0156 26.375C94.875 26.562 94.763 26.786 94.6797 27.047C94.5964 27.302 94.5391 27.583 94.5078 27.891L94.1484 28.125C94.1484 27.615 94.1875 27.135 94.2656 26.688C94.349 26.24 94.4766 25.844 94.6484 25.5C94.8203 25.151 95.0391 24.88 95.3047 24.688C95.5755 24.49 95.8984 24.391 96.2734 24.391C96.3568 24.391 96.4583 24.404 96.5781 24.43C96.7031 24.451 96.7839 24.474 96.8203 24.5ZM97.7656 29.18V28.375C97.7656 27.719 97.849 27.143 98.0156 26.648C98.1823 26.148 98.4141 25.732 98.7109 25.398C99.0078 25.065 99.3542 24.815 99.75 24.648C100.146 24.477 100.57 24.391 101.023 24.391C101.487 24.391 101.917 24.477 102.312 24.648C102.708 24.815 103.055 25.065 103.352 25.398C103.654 25.732 103.888 26.148 104.055 26.648C104.221 27.143 104.305 27.719 104.305 28.375V29.18C104.305 29.836 104.221 30.414 104.055 30.914C103.888 31.409 103.656 31.823 103.359 32.156C103.062 32.49 102.716 32.74 102.32 32.906C101.924 33.073 101.497 33.156 101.039 33.156C100.581 33.156 100.154 33.073 99.7578 32.906C99.362 32.74 99.013 32.49 98.7109 32.156C98.4141 31.823 98.1823 31.409 98.0156 30.914C97.849 30.414 97.7656 29.836 97.7656 29.18ZM99.1484 28.375V29.18C99.1484 29.643 99.1953 30.049 99.2891 30.398C99.3828 30.747 99.5156 31.039 99.6875 31.273C99.8594 31.508 100.06 31.685 100.289 31.805C100.518 31.919 100.768 31.977 101.039 31.977C101.352 31.977 101.625 31.919 101.859 31.805C102.099 31.685 102.297 31.508 102.453 31.273C102.609 31.039 102.727 30.747 102.805 30.398C102.883 30.049 102.922 29.643 102.922 29.18V28.375C102.922 27.911 102.875 27.508 102.781 27.164C102.688 26.815 102.555 26.523 102.383 26.289C102.211 26.049 102.008 25.872 101.773 25.758C101.544 25.638 101.294 25.578 101.023 25.578C100.758 25.578 100.51 25.638 100.281 25.758C100.052 25.872 99.8516 26.049 99.6797 26.289C99.513 26.523 99.3828 26.815 99.2891 27.164C99.1953 27.508 99.1484 27.911 99.1484 28.375ZM110.188 30.836C110.188 30.622 110.135 30.435 110.031 30.273C109.927 30.112 109.755 29.956 109.516 29.805C109.281 29.654 108.964 29.492 108.562 29.32C108.172 29.159 107.82 29 107.508 28.844C107.201 28.682 106.94 28.508 106.727 28.32C106.513 28.133 106.349 27.917 106.234 27.672C106.125 27.422 106.07 27.128 106.07 26.789C106.07 26.451 106.133 26.138 106.258 25.852C106.388 25.56 106.57 25.305 106.805 25.086C107.039 24.867 107.32 24.698 107.648 24.578C107.977 24.453 108.344 24.391 108.75 24.391C109.328 24.391 109.82 24.503 110.227 24.727C110.633 24.951 110.943 25.258 111.156 25.648C111.375 26.034 111.484 26.469 111.484 26.953H110.109C110.109 26.719 110.057 26.497 109.953 26.289C109.849 26.081 109.695 25.911 109.492 25.781C109.289 25.646 109.042 25.578 108.75 25.578C108.443 25.578 108.193 25.633 108 25.742C107.807 25.852 107.667 25.995 107.578 26.172C107.495 26.344 107.453 26.534 107.453 26.742C107.453 26.898 107.474 27.034 107.516 27.148C107.562 27.258 107.641 27.362 107.75 27.461C107.859 27.555 108.008 27.654 108.195 27.758C108.388 27.857 108.633 27.971 108.93 28.102C109.503 28.326 109.984 28.552 110.375 28.781C110.766 29.01 111.062 29.279 111.266 29.586C111.469 29.893 111.57 30.273 111.57 30.727C111.57 31.096 111.503 31.432 111.367 31.734C111.237 32.031 111.049 32.286 110.805 32.5C110.56 32.714 110.266 32.878 109.922 32.992C109.583 33.102 109.203 33.156 108.781 33.156C108.146 33.156 107.607 33.031 107.164 32.781C106.727 32.526 106.393 32.195 106.164 31.789C105.94 31.378 105.828 30.938 105.828 30.469H107.211C107.227 30.865 107.315 31.172 107.477 31.391C107.643 31.609 107.844 31.76 108.078 31.844C108.312 31.927 108.547 31.969 108.781 31.969C109.089 31.969 109.346 31.924 109.555 31.836C109.763 31.742 109.919 31.609 110.023 31.438C110.133 31.266 110.188 31.065 110.188 30.836ZM121.195 31.555V26.969C121.195 26.635 121.143 26.367 121.039 26.164C120.94 25.961 120.789 25.812 120.586 25.719C120.388 25.625 120.138 25.578 119.836 25.578C119.544 25.578 119.292 25.638 119.078 25.758C118.87 25.878 118.708 26.036 118.594 26.234C118.484 26.432 118.43 26.651 118.43 26.891H117.047C117.047 26.589 117.112 26.289 117.242 25.992C117.378 25.695 117.57 25.427 117.82 25.188C118.07 24.943 118.37 24.75 118.719 24.609C119.073 24.464 119.469 24.391 119.906 24.391C120.427 24.391 120.888 24.477 121.289 24.648C121.69 24.815 122.005 25.089 122.234 25.469C122.464 25.849 122.578 26.354 122.578 26.984V31.156C122.578 31.438 122.599 31.737 122.641 32.055C122.688 32.372 122.753 32.646 122.836 32.875V33H121.406C121.339 32.833 121.286 32.612 121.25 32.336C121.214 32.055 121.195 31.794 121.195 31.555ZM121.414 27.875L121.43 28.891H120.469C120.141 28.891 119.841 28.927 119.57 29C119.305 29.073 119.076 29.18 118.883 29.32C118.69 29.456 118.542 29.625 118.438 29.828C118.339 30.031 118.289 30.263 118.289 30.523C118.289 30.862 118.336 31.133 118.43 31.336C118.523 31.534 118.664 31.677 118.852 31.766C119.039 31.854 119.276 31.898 119.562 31.898C119.911 31.898 120.219 31.818 120.484 31.656C120.75 31.495 120.956 31.299 121.102 31.07C121.253 30.841 121.323 30.628 121.312 30.43L121.617 31.078C121.596 31.281 121.529 31.503 121.414 31.742C121.305 31.977 121.151 32.203 120.953 32.422C120.755 32.635 120.521 32.812 120.25 32.953C119.984 33.089 119.685 33.156 119.352 33.156C118.862 33.156 118.432 33.062 118.062 32.875C117.698 32.688 117.414 32.411 117.211 32.047C117.008 31.682 116.906 31.232 116.906 30.695C116.906 30.289 116.977 29.914 117.117 29.57C117.258 29.227 117.466 28.93 117.742 28.68C118.018 28.424 118.365 28.227 118.781 28.086C119.203 27.945 119.69 27.875 120.242 27.875H121.414ZM126.211 21V33H124.836V21H126.211ZM129.883 24.547V33H128.508V24.547H129.883ZM128.43 22.305C128.43 22.07 128.495 21.872 128.625 21.711C128.755 21.549 128.951 21.469 129.211 21.469C129.471 21.469 129.667 21.549 129.797 21.711C129.932 21.872 130 22.07 130 22.305C130 22.529 129.932 22.721 129.797 22.883C129.667 23.039 129.471 23.117 129.211 23.117C128.951 23.117 128.755 23.039 128.625 22.883C128.495 22.721 128.43 22.529 128.43 22.305ZM133.453 26.227V33H132.078V24.547H133.375L133.453 26.227ZM133.172 28.453L132.531 28.43C132.526 27.852 132.583 27.318 132.703 26.828C132.823 26.333 133.003 25.904 133.242 25.539C133.487 25.174 133.792 24.893 134.156 24.695C134.526 24.492 134.956 24.391 135.445 24.391C135.768 24.391 136.068 24.448 136.344 24.562C136.625 24.672 136.87 24.846 137.078 25.086C137.286 25.326 137.448 25.633 137.562 26.008C137.682 26.383 137.742 26.836 137.742 27.367V33H136.359V27.438C136.359 26.995 136.299 26.641 136.18 26.375C136.065 26.109 135.901 25.917 135.688 25.797C135.474 25.672 135.219 25.609 134.922 25.609C134.583 25.609 134.299 25.685 134.07 25.836C133.846 25.987 133.667 26.195 133.531 26.461C133.401 26.727 133.307 27.031 133.25 27.375C133.198 27.714 133.172 28.073 133.172 28.453ZM137.727 27.656L136.805 27.953C136.799 27.49 136.857 27.044 136.977 26.617C137.096 26.19 137.273 25.81 137.508 25.477C137.747 25.143 138.044 24.88 138.398 24.688C138.753 24.49 139.164 24.391 139.633 24.391C140.018 24.391 140.359 24.451 140.656 24.57C140.953 24.69 141.203 24.875 141.406 25.125C141.615 25.37 141.771 25.685 141.875 26.07C141.979 26.456 142.031 26.914 142.031 27.445V33H140.648V27.43C140.648 26.956 140.589 26.589 140.469 26.328C140.354 26.062 140.19 25.878 139.977 25.773C139.763 25.664 139.508 25.609 139.211 25.609C138.971 25.609 138.758 25.664 138.57 25.773C138.388 25.883 138.234 26.034 138.109 26.227C137.984 26.414 137.888 26.63 137.82 26.875C137.758 27.12 137.727 27.38 137.727 27.656ZM147.141 33.156C146.635 33.156 146.18 33.081 145.773 32.93C145.367 32.779 145.021 32.549 144.734 32.242C144.448 31.93 144.229 31.536 144.078 31.062C143.927 30.589 143.852 30.029 143.852 29.383V28.43C143.852 27.685 143.938 27.055 144.109 26.539C144.286 26.023 144.523 25.609 144.82 25.297C145.117 24.979 145.453 24.75 145.828 24.609C146.203 24.464 146.589 24.391 146.984 24.391C147.516 24.391 147.969 24.477 148.344 24.648C148.719 24.82 149.023 25.076 149.258 25.414C149.492 25.753 149.664 26.169 149.773 26.664C149.888 27.159 149.945 27.729 149.945 28.375V29.18H144.664V28H148.562V27.805C148.542 27.367 148.482 26.982 148.383 26.648C148.289 26.315 148.133 26.055 147.914 25.867C147.695 25.674 147.385 25.578 146.984 25.578C146.729 25.578 146.492 25.622 146.273 25.711C146.06 25.794 145.875 25.943 145.719 26.156C145.568 26.365 145.448 26.654 145.359 27.023C145.276 27.393 145.234 27.862 145.234 28.43V29.383C145.234 29.836 145.276 30.227 145.359 30.555C145.448 30.878 145.576 31.146 145.742 31.359C145.914 31.568 146.122 31.724 146.367 31.828C146.617 31.927 146.901 31.977 147.219 31.977C147.682 31.977 148.065 31.888 148.367 31.711C148.669 31.529 148.932 31.297 149.156 31.016L149.883 31.883C149.732 32.096 149.534 32.302 149.289 32.5C149.049 32.693 148.753 32.852 148.398 32.977C148.049 33.096 147.63 33.156 147.141 33.156ZM153 26.352V33H151.617V24.547H152.922L153 26.352ZM152.664 28.453L152.102 28.43C152.096 27.852 152.161 27.318 152.297 26.828C152.438 26.333 152.635 25.904 152.891 25.539C153.151 25.174 153.461 24.893 153.82 24.695C154.18 24.492 154.578 24.391 155.016 24.391C155.359 24.391 155.672 24.448 155.953 24.562C156.234 24.672 156.474 24.849 156.672 25.094C156.87 25.339 157.021 25.656 157.125 26.047C157.234 26.432 157.289 26.904 157.289 27.461V33H155.906V27.445C155.906 27.003 155.857 26.648 155.758 26.383C155.664 26.112 155.518 25.917 155.32 25.797C155.128 25.672 154.883 25.609 154.586 25.609C154.315 25.609 154.062 25.685 153.828 25.836C153.594 25.987 153.388 26.195 153.211 26.461C153.039 26.727 152.904 27.031 152.805 27.375C152.711 27.714 152.664 28.073 152.664 28.453ZM162.453 24.547V25.656H158.508V24.547H162.453ZM159.797 22.492H161.18V30.906C161.18 31.193 161.214 31.409 161.281 31.555C161.354 31.701 161.445 31.797 161.555 31.844C161.664 31.891 161.781 31.914 161.906 31.914C162 31.914 162.104 31.904 162.219 31.883C162.333 31.857 162.411 31.836 162.453 31.82L162.445 33C162.352 33.036 162.227 33.07 162.07 33.102C161.914 33.138 161.716 33.156 161.477 33.156C161.18 33.156 160.904 33.086 160.648 32.945C160.393 32.805 160.188 32.57 160.031 32.242C159.875 31.909 159.797 31.461 159.797 30.898V22.492ZM163.656 29.18V28.375C163.656 27.719 163.74 27.143 163.906 26.648C164.073 26.148 164.305 25.732 164.602 25.398C164.898 25.065 165.245 24.815 165.641 24.648C166.036 24.477 166.461 24.391 166.914 24.391C167.378 24.391 167.807 24.477 168.203 24.648C168.599 24.815 168.945 25.065 169.242 25.398C169.544 25.732 169.779 26.148 169.945 26.648C170.112 27.143 170.195 27.719 170.195 28.375V29.18C170.195 29.836 170.112 30.414 169.945 30.914C169.779 31.409 169.547 31.823 169.25 32.156C168.953 32.49 168.607 32.74 168.211 32.906C167.815 33.073 167.388 33.156 166.93 33.156C166.471 33.156 166.044 33.073 165.648 32.906C165.253 32.74 164.904 32.49 164.602 32.156C164.305 31.823 164.073 31.409 163.906 30.914C163.74 30.414 163.656 29.836 163.656 29.18ZM165.039 28.375V29.18C165.039 29.643 165.086 30.049 165.18 30.398C165.273 30.747 165.406 31.039 165.578 31.273C165.75 31.508 165.951 31.685 166.18 31.805C166.409 31.919 166.659 31.977 166.93 31.977C167.242 31.977 167.516 31.919 167.75 31.805C167.99 31.685 168.188 31.508 168.344 31.273C168.5 31.039 168.617 30.747 168.695 30.398C168.773 30.049 168.812 29.643 168.812 29.18V28.375C168.812 27.911 168.766 27.508 168.672 27.164C168.578 26.815 168.445 26.523 168.273 26.289C168.102 26.049 167.898 25.872 167.664 25.758C167.435 25.638 167.185 25.578 166.914 25.578C166.648 25.578 166.401 25.638 166.172 25.758C165.943 25.872 165.742 26.049 165.57 26.289C165.404 26.523 165.273 26.815 165.18 27.164C165.086 27.508 165.039 27.911 165.039 28.375ZM176.078 30.836C176.078 30.622 176.026 30.435 175.922 30.273C175.818 30.112 175.646 29.956 175.406 29.805C175.172 29.654 174.854 29.492 174.453 29.32C174.062 29.159 173.711 29 173.398 28.844C173.091 28.682 172.831 28.508 172.617 28.32C172.404 28.133 172.24 27.917 172.125 27.672C172.016 27.422 171.961 27.128 171.961 26.789C171.961 26.451 172.023 26.138 172.148 25.852C172.279 25.56 172.461 25.305 172.695 25.086C172.93 24.867 173.211 24.698 173.539 24.578C173.867 24.453 174.234 24.391 174.641 24.391C175.219 24.391 175.711 24.503 176.117 24.727C176.523 24.951 176.833 25.258 177.047 25.648C177.266 26.034 177.375 26.469 177.375 26.953H176C176 26.719 175.948 26.497 175.844 26.289C175.74 26.081 175.586 25.911 175.383 25.781C175.18 25.646 174.932 25.578 174.641 25.578C174.333 25.578 174.083 25.633 173.891 25.742C173.698 25.852 173.557 25.995 173.469 26.172C173.385 26.344 173.344 26.534 173.344 26.742C173.344 26.898 173.365 27.034 173.406 27.148C173.453 27.258 173.531 27.362 173.641 27.461C173.75 27.555 173.898 27.654 174.086 27.758C174.279 27.857 174.523 27.971 174.82 28.102C175.393 28.326 175.875 28.552 176.266 28.781C176.656 29.01 176.953 29.279 177.156 29.586C177.359 29.893 177.461 30.273 177.461 30.727C177.461 31.096 177.393 31.432 177.258 31.734C177.128 32.031 176.94 32.286 176.695 32.5C176.451 32.714 176.156 32.878 175.812 32.992C175.474 33.102 175.094 33.156 174.672 33.156C174.036 33.156 173.497 33.031 173.055 32.781C172.617 32.526 172.284 32.195 172.055 31.789C171.831 31.378 171.719 30.938 171.719 30.469H173.102C173.117 30.865 173.206 31.172 173.367 31.391C173.534 31.609 173.734 31.76 173.969 31.844C174.203 31.927 174.438 31.969 174.672 31.969C174.979 31.969 175.237 31.924 175.445 31.836C175.654 31.742 175.81 31.609 175.914 31.438C176.023 31.266 176.078 31.065 176.078 30.836Z" fill="black"/>
<path d="M25 6L349 7" stroke="#C4C4C4"/>
</g>
<defs>
<clipPath id="clip0_219_48">
<rect width="360" height="782" fill="white" transform="translate(0 -639)"/>
</clipPath>
</defs>
</svg>
