<svg width="360" height="67" viewBox="0 0 360 67" fill="none" xmlns="http://www.w3.org/2000/svg">
<rect y="-248" width="360" height="686" fill="white"/>
<path d="M27.8047 26H25.8672L25.8828 24.773H27.8047C28.487 24.773 29.0417 24.643 29.4688 24.383C29.8958 24.117 30.2109 23.727 30.4141 23.211C30.6172 22.69 30.7188 22.047 30.7188 21.281V19.336C30.7188 18.732 30.6615 18.211 30.5469 17.773C30.4323 17.336 30.2604 16.977 30.0312 16.695C29.8021 16.414 29.513 16.206 29.1641 16.07C28.8151 15.93 28.4062 15.859 27.9375 15.859H25.8281V14.625H27.9375C28.5781 14.625 29.1562 14.727 29.6719 14.93C30.1875 15.128 30.6302 15.427 31 15.828C31.3698 16.224 31.651 16.716 31.8438 17.305C32.0417 17.893 32.1406 18.576 32.1406 19.352V21.281C32.1406 22.057 32.0417 22.74 31.8438 23.328C31.651 23.917 31.3672 24.409 30.9922 24.805C30.6172 25.201 30.1615 25.5 29.625 25.703C29.0938 25.901 28.487 26 27.8047 26ZM26.6641 14.625V26H25.2266V14.625H26.6641ZM37.2031 26.156C36.6979 26.156 36.2422 26.081 35.8359 25.93C35.4297 25.779 35.0833 25.549 34.7969 25.242C34.5104 24.93 34.2917 24.536 34.1406 24.062C33.9896 23.589 33.9141 23.029 33.9141 22.383V21.43C33.9141 20.685 34 20.055 34.1719 19.539C34.349 19.023 34.5859 18.609 34.8828 18.297C35.1797 17.979 35.5156 17.75 35.8906 17.609C36.2656 17.464 36.651 17.391 37.0469 17.391C37.5781 17.391 38.0312 17.477 38.4062 17.648C38.7812 17.82 39.0859 18.076 39.3203 18.414C39.5547 18.753 39.7266 19.169 39.8359 19.664C39.9505 20.159 40.0078 20.729 40.0078 21.375V22.18H34.7266V21H38.625V20.805C38.6042 20.367 38.5443 19.982 38.4453 19.648C38.3516 19.315 38.1953 19.055 37.9766 18.867C37.7578 18.674 37.4479 18.578 37.0469 18.578C36.7917 18.578 36.5547 18.622 36.3359 18.711C36.1224 18.794 35.9375 18.943 35.7812 19.156C35.6302 19.365 35.5104 19.654 35.4219 20.023C35.3385 20.393 35.2969 20.862 35.2969 21.43V22.383C35.2969 22.836 35.3385 23.227 35.4219 23.555C35.5104 23.878 35.638 24.146 35.8047 24.359C35.9766 24.568 36.1849 24.724 36.4297 24.828C36.6797 24.927 36.9635 24.977 37.2812 24.977C37.7448 24.977 38.1276 24.888 38.4297 24.711C38.7318 24.529 38.9948 24.297 39.2188 24.016L39.9453 24.883C39.7943 25.096 39.5964 25.302 39.3516 25.5C39.112 25.693 38.8151 25.852 38.4609 25.977C38.112 26.096 37.6927 26.156 37.2031 26.156ZM43.4453 26H42.0625V16.812C42.0625 16.172 42.1693 15.63 42.3828 15.188C42.6016 14.745 42.9115 14.409 43.3125 14.18C43.7188 13.951 44.1979 13.836 44.75 13.836C45.0781 13.836 45.3932 13.883 45.6953 13.977C45.9974 14.065 46.3099 14.177 46.6328 14.312L46.3984 15.531C46.2109 15.438 45.9818 15.349 45.7109 15.266C45.4401 15.177 45.1562 15.133 44.8594 15.133C44.3385 15.133 43.9714 15.273 43.7578 15.555C43.5495 15.831 43.4453 16.25 43.4453 16.812V26ZM44.8125 17.547V18.656H40.9609V17.547H44.8125ZM47.2969 17.547V26H45.9141V17.547H47.2969ZM50.9062 19.352V26H49.5234V17.547H50.8281L50.9062 19.352ZM50.5703 21.453L50.0078 21.43C50.0026 20.852 50.0677 20.318 50.2031 19.828C50.3438 19.333 50.5417 18.904 50.7969 18.539C51.0573 18.174 51.3672 17.893 51.7266 17.695C52.0859 17.492 52.4844 17.391 52.9219 17.391C53.2656 17.391 53.5781 17.448 53.8594 17.562C54.1406 17.672 54.3802 17.849 54.5781 18.094C54.776 18.339 54.9271 18.656 55.0312 19.047C55.1406 19.432 55.1953 19.904 55.1953 20.461V26H53.8125V20.445C53.8125 20.003 53.763 19.648 53.6641 19.383C53.5703 19.112 53.4245 18.917 53.2266 18.797C53.0339 18.672 52.7891 18.609 52.4922 18.609C52.2214 18.609 51.9688 18.685 51.7344 18.836C51.5 18.987 51.2943 19.195 51.1172 19.461C50.9453 19.727 50.8099 20.031 50.7109 20.375C50.6172 20.714 50.5703 21.073 50.5703 21.453ZM58.7578 17.547V26H57.3828V17.547H58.7578ZM57.3047 15.305C57.3047 15.07 57.3698 14.872 57.5 14.711C57.6302 14.549 57.8255 14.469 58.0859 14.469C58.3464 14.469 58.5417 14.549 58.6719 14.711C58.8073 14.872 58.875 15.07 58.875 15.305C58.875 15.529 58.8073 15.721 58.6719 15.883C58.5417 16.039 58.3464 16.117 58.0859 16.117C57.8255 16.117 57.6302 16.039 57.5 15.883C57.3698 15.721 57.3047 15.529 57.3047 15.305ZM62.3281 18.875V26H60.9453V17.547H62.2812L62.3281 18.875ZM64.4297 17.5L64.4375 18.844C64.3229 18.818 64.2188 18.802 64.125 18.797C64.0365 18.786 63.9323 18.781 63.8125 18.781C63.5521 18.781 63.3229 18.833 63.125 18.938C62.9323 19.042 62.7656 19.188 62.625 19.375C62.4844 19.562 62.3724 19.786 62.2891 20.047C62.2057 20.302 62.1484 20.583 62.1172 20.891L61.7578 21.125C61.7578 20.615 61.7969 20.135 61.875 19.688C61.9583 19.24 62.0859 18.844 62.2578 18.5C62.4297 18.151 62.6484 17.88 62.9141 17.688C63.1849 17.49 63.5078 17.391 63.8828 17.391C63.9661 17.391 64.0677 17.404 64.1875 17.43C64.3125 17.451 64.3932 17.474 64.4297 17.5ZM70.875 19.172V29.25H69.4922V17.547H70.75L70.875 19.172ZM75.6016 21.391V22.18C75.6016 22.846 75.5391 23.43 75.4141 23.93C75.2943 24.424 75.1146 24.839 74.875 25.172C74.6406 25.5 74.3516 25.747 74.0078 25.914C73.6641 26.076 73.2708 26.156 72.8281 26.156C72.3854 26.156 72 26.073 71.6719 25.906C71.349 25.734 71.0755 25.487 70.8516 25.164C70.6328 24.841 70.4583 24.453 70.3281 24C70.2031 23.542 70.1172 23.029 70.0703 22.461V21.258C70.1172 20.659 70.2031 20.122 70.3281 19.648C70.4531 19.169 70.625 18.763 70.8438 18.43C71.0677 18.091 71.3411 17.833 71.6641 17.656C71.9922 17.479 72.375 17.391 72.8125 17.391C73.2656 17.391 73.6641 17.469 74.0078 17.625C74.3568 17.781 74.6484 18.023 74.8828 18.352C75.1224 18.674 75.3021 19.089 75.4219 19.594C75.5417 20.094 75.6016 20.693 75.6016 21.391ZM74.2188 22.18V21.391C74.2188 20.922 74.1823 20.513 74.1094 20.164C74.0417 19.815 73.9323 19.526 73.7812 19.297C73.6302 19.068 73.4401 18.896 73.2109 18.781C72.9818 18.667 72.7057 18.609 72.3828 18.609C72.1068 18.609 71.862 18.667 71.6484 18.781C71.4401 18.896 71.2604 19.052 71.1094 19.25C70.9583 19.443 70.8333 19.664 70.7344 19.914C70.6354 20.159 70.5625 20.414 70.5156 20.68V23.047C70.6042 23.38 70.7214 23.695 70.8672 23.992C71.013 24.284 71.2083 24.521 71.4531 24.703C71.7031 24.885 72.0182 24.977 72.3984 24.977C72.7161 24.977 72.9896 24.919 73.2188 24.805C73.4479 24.69 73.6354 24.518 73.7812 24.289C73.9323 24.055 74.0417 23.763 74.1094 23.414C74.1823 23.06 74.2188 22.648 74.2188 22.18ZM78.8672 14V26H77.4922V14H78.8672ZM85.1953 24.555V19.969C85.1953 19.635 85.1432 19.367 85.0391 19.164C84.9401 18.961 84.7891 18.812 84.5859 18.719C84.388 18.625 84.138 18.578 83.8359 18.578C83.5443 18.578 83.2917 18.638 83.0781 18.758C82.8698 18.878 82.7083 19.036 82.5938 19.234C82.4844 19.432 82.4297 19.651 82.4297 19.891H81.0469C81.0469 19.589 81.112 19.289 81.2422 18.992C81.3776 18.695 81.5703 18.427 81.8203 18.188C82.0703 17.943 82.3698 17.75 82.7188 17.609C83.0729 17.464 83.4688 17.391 83.9062 17.391C84.4271 17.391 84.888 17.477 85.2891 17.648C85.6901 17.815 86.0052 18.089 86.2344 18.469C86.4635 18.849 86.5781 19.354 86.5781 19.984V24.156C86.5781 24.438 86.599 24.737 86.6406 25.055C86.6875 25.372 86.7526 25.646 86.8359 25.875V26H85.4062C85.3385 25.833 85.2865 25.612 85.25 25.336C85.2135 25.055 85.1953 24.794 85.1953 24.555ZM85.4141 20.875L85.4297 21.891H84.4688C84.1406 21.891 83.8411 21.927 83.5703 22C83.3047 22.073 83.0755 22.18 82.8828 22.32C82.6901 22.456 82.5417 22.625 82.4375 22.828C82.3385 23.031 82.2891 23.263 82.2891 23.523C82.2891 23.862 82.3359 24.133 82.4297 24.336C82.5234 24.534 82.6641 24.677 82.8516 24.766C83.0391 24.854 83.276 24.898 83.5625 24.898C83.9115 24.898 84.2188 24.818 84.4844 24.656C84.75 24.495 84.9557 24.299 85.1016 24.07C85.2526 23.841 85.3229 23.628 85.3125 23.43L85.6172 24.078C85.5964 24.281 85.5286 24.503 85.4141 24.742C85.3047 24.977 85.151 25.203 84.9531 25.422C84.7552 25.635 84.5208 25.812 84.25 25.953C83.9844 26.089 83.6849 26.156 83.3516 26.156C82.862 26.156 82.4323 26.062 82.0625 25.875C81.6979 25.688 81.4141 25.411 81.2109 25.047C81.0078 24.682 80.9062 24.232 80.9062 23.695C80.9062 23.289 80.9766 22.914 81.1172 22.57C81.2578 22.227 81.4661 21.93 81.7422 21.68C82.0182 21.424 82.3646 21.227 82.7812 21.086C83.2031 20.945 83.6901 20.875 84.2422 20.875H85.4141ZM90.1094 19.352V26H88.7266V17.547H90.0312L90.1094 19.352ZM89.7734 21.453L89.2109 21.43C89.2057 20.852 89.2708 20.318 89.4062 19.828C89.5469 19.333 89.7448 18.904 90 18.539C90.2604 18.174 90.5703 17.893 90.9297 17.695C91.2891 17.492 91.6875 17.391 92.125 17.391C92.4688 17.391 92.7812 17.448 93.0625 17.562C93.3438 17.672 93.5833 17.849 93.7812 18.094C93.9792 18.339 94.1302 18.656 94.2344 19.047C94.3438 19.432 94.3984 19.904 94.3984 20.461V26H93.0156V20.445C93.0156 20.003 92.9661 19.648 92.8672 19.383C92.7734 19.112 92.6276 18.917 92.4297 18.797C92.237 18.672 91.9922 18.609 91.6953 18.609C91.4245 18.609 91.1719 18.685 90.9375 18.836C90.7031 18.987 90.4974 19.195 90.3203 19.461C90.1484 19.727 90.013 20.031 89.9141 20.375C89.8203 20.714 89.7734 21.073 89.7734 21.453ZM96.1875 22.18V21.375C96.1875 20.719 96.2708 20.143 96.4375 19.648C96.6042 19.148 96.8359 18.732 97.1328 18.398C97.4297 18.065 97.776 17.815 98.1719 17.648C98.5677 17.477 98.9922 17.391 99.4453 17.391C99.9089 17.391 100.339 17.477 100.734 17.648C101.13 17.815 101.477 18.065 101.773 18.398C102.076 18.732 102.31 19.148 102.477 19.648C102.643 20.143 102.727 20.719 102.727 21.375V22.18C102.727 22.836 102.643 23.414 102.477 23.914C102.31 24.409 102.078 24.823 101.781 25.156C101.484 25.49 101.138 25.74 100.742 25.906C100.346 26.073 99.9193 26.156 99.4609 26.156C99.0026 26.156 98.5755 26.073 98.1797 25.906C97.7839 25.74 97.4349 25.49 97.1328 25.156C96.8359 24.823 96.6042 24.409 96.4375 23.914C96.2708 23.414 96.1875 22.836 96.1875 22.18ZM97.5703 21.375V22.18C97.5703 22.643 97.6172 23.049 97.7109 23.398C97.8047 23.747 97.9375 24.039 98.1094 24.273C98.2812 24.508 98.4818 24.685 98.7109 24.805C98.9401 24.919 99.1901 24.977 99.4609 24.977C99.7734 24.977 100.047 24.919 100.281 24.805C100.521 24.685 100.719 24.508 100.875 24.273C101.031 24.039 101.148 23.747 101.227 23.398C101.305 23.049 101.344 22.643 101.344 22.18V21.375C101.344 20.911 101.297 20.508 101.203 20.164C101.109 19.815 100.977 19.523 100.805 19.289C100.633 19.049 100.43 18.872 100.195 18.758C99.9661 18.638 99.7161 18.578 99.4453 18.578C99.1797 18.578 98.9323 18.638 98.7031 18.758C98.474 18.872 98.2734 19.049 98.1016 19.289C97.9349 19.523 97.8047 19.815 97.7109 20.164C97.6172 20.508 97.5703 20.911 97.5703 21.375ZM109.562 19.352V26H108.18V17.547H109.484L109.562 19.352ZM109.227 21.453L108.664 21.43C108.659 20.852 108.724 20.318 108.859 19.828C109 19.333 109.198 18.904 109.453 18.539C109.714 18.174 110.023 17.893 110.383 17.695C110.742 17.492 111.141 17.391 111.578 17.391C111.922 17.391 112.234 17.448 112.516 17.562C112.797 17.672 113.036 17.849 113.234 18.094C113.432 18.339 113.583 18.656 113.688 19.047C113.797 19.432 113.852 19.904 113.852 20.461V26H112.469V20.445C112.469 20.003 112.419 19.648 112.32 19.383C112.227 19.112 112.081 18.917 111.883 18.797C111.69 18.672 111.445 18.609 111.148 18.609C110.878 18.609 110.625 18.685 110.391 18.836C110.156 18.987 109.951 19.195 109.773 19.461C109.602 19.727 109.466 20.031 109.367 20.375C109.273 20.714 109.227 21.073 109.227 21.453ZM120.203 24.047V17.547H121.586V26H120.273L120.203 24.047ZM120.461 22.266L121.008 22.25C121.008 22.812 120.958 23.333 120.859 23.812C120.766 24.286 120.609 24.698 120.391 25.047C120.177 25.396 119.893 25.669 119.539 25.867C119.185 26.06 118.75 26.156 118.234 26.156C117.885 26.156 117.568 26.096 117.281 25.977C117 25.857 116.755 25.672 116.547 25.422C116.344 25.172 116.185 24.846 116.07 24.445C115.961 24.044 115.906 23.562 115.906 23V17.547H117.281V23.016C117.281 23.396 117.315 23.711 117.383 23.961C117.451 24.206 117.542 24.401 117.656 24.547C117.771 24.688 117.898 24.786 118.039 24.844C118.18 24.901 118.323 24.93 118.469 24.93C118.958 24.93 119.349 24.812 119.641 24.578C119.932 24.339 120.141 24.018 120.266 23.617C120.396 23.211 120.461 22.76 120.461 22.266ZM126.75 17.547V18.656H122.805V17.547H126.75ZM124.094 15.492H125.477V23.906C125.477 24.193 125.51 24.409 125.578 24.555C125.651 24.701 125.742 24.797 125.852 24.844C125.961 24.891 126.078 24.914 126.203 24.914C126.297 24.914 126.401 24.904 126.516 24.883C126.63 24.857 126.708 24.836 126.75 24.82L126.742 26C126.648 26.036 126.523 26.07 126.367 26.102C126.211 26.138 126.013 26.156 125.773 26.156C125.477 26.156 125.201 26.086 124.945 25.945C124.69 25.805 124.484 25.57 124.328 25.242C124.172 24.909 124.094 24.461 124.094 23.898V15.492ZM129.781 18.875V26H128.398V17.547H129.734L129.781 18.875ZM131.883 17.5L131.891 18.844C131.776 18.818 131.672 18.802 131.578 18.797C131.49 18.786 131.385 18.781 131.266 18.781C131.005 18.781 130.776 18.833 130.578 18.938C130.385 19.042 130.219 19.188 130.078 19.375C129.938 19.562 129.826 19.786 129.742 20.047C129.659 20.302 129.602 20.583 129.57 20.891L129.211 21.125C129.211 20.615 129.25 20.135 129.328 19.688C129.411 19.24 129.539 18.844 129.711 18.5C129.883 18.151 130.102 17.88 130.367 17.688C130.638 17.49 130.961 17.391 131.336 17.391C131.419 17.391 131.521 17.404 131.641 17.43C131.766 17.451 131.846 17.474 131.883 17.5ZM134.758 17.547V26H133.383V17.547H134.758ZM133.305 15.305C133.305 15.07 133.37 14.872 133.5 14.711C133.63 14.549 133.826 14.469 134.086 14.469C134.346 14.469 134.542 14.549 134.672 14.711C134.807 14.872 134.875 15.07 134.875 15.305C134.875 15.529 134.807 15.721 134.672 15.883C134.542 16.039 134.346 16.117 134.086 16.117C133.826 16.117 133.63 16.039 133.5 15.883C133.37 15.721 133.305 15.529 133.305 15.305ZM139.875 24.977C140.151 24.977 140.401 24.922 140.625 24.812C140.854 24.698 141.042 24.521 141.188 24.281C141.333 24.036 141.417 23.719 141.438 23.328H142.734C142.714 23.891 142.57 24.385 142.305 24.812C142.044 25.234 141.701 25.565 141.273 25.805C140.852 26.039 140.385 26.156 139.875 26.156C139.328 26.156 138.852 26.068 138.445 25.891C138.044 25.714 137.711 25.458 137.445 25.125C137.185 24.786 136.99 24.378 136.859 23.898C136.729 23.414 136.664 22.865 136.664 22.25V21.297C136.664 20.682 136.729 20.135 136.859 19.656C136.99 19.172 137.185 18.763 137.445 18.43C137.711 18.091 138.044 17.833 138.445 17.656C138.852 17.479 139.328 17.391 139.875 17.391C140.448 17.391 140.943 17.513 141.359 17.758C141.781 17.997 142.109 18.346 142.344 18.805C142.583 19.258 142.714 19.807 142.734 20.453H141.438C141.417 20.036 141.341 19.69 141.211 19.414C141.081 19.133 140.904 18.924 140.68 18.789C140.456 18.648 140.188 18.578 139.875 18.578C139.51 18.578 139.208 18.643 138.969 18.773C138.734 18.898 138.549 19.081 138.414 19.32C138.279 19.56 138.182 19.846 138.125 20.18C138.073 20.513 138.047 20.885 138.047 21.297V22.25C138.047 22.661 138.073 23.036 138.125 23.375C138.182 23.708 138.276 23.995 138.406 24.234C138.542 24.474 138.729 24.659 138.969 24.789C139.208 24.914 139.51 24.977 139.875 24.977ZM145.82 17.547V26H144.445V17.547H145.82ZM144.367 15.305C144.367 15.07 144.432 14.872 144.562 14.711C144.693 14.549 144.888 14.469 145.148 14.469C145.409 14.469 145.604 14.549 145.734 14.711C145.87 14.872 145.938 15.07 145.938 15.305C145.938 15.529 145.87 15.721 145.734 15.883C145.604 16.039 145.409 16.117 145.148 16.117C144.888 16.117 144.693 16.039 144.562 15.883C144.432 15.721 144.367 15.529 144.367 15.305ZM147.719 22.18V21.375C147.719 20.719 147.802 20.143 147.969 19.648C148.135 19.148 148.367 18.732 148.664 18.398C148.961 18.065 149.307 17.815 149.703 17.648C150.099 17.477 150.523 17.391 150.977 17.391C151.44 17.391 151.87 17.477 152.266 17.648C152.661 17.815 153.008 18.065 153.305 18.398C153.607 18.732 153.841 19.148 154.008 19.648C154.174 20.143 154.258 20.719 154.258 21.375V22.18C154.258 22.836 154.174 23.414 154.008 23.914C153.841 24.409 153.609 24.823 153.312 25.156C153.016 25.49 152.669 25.74 152.273 25.906C151.878 26.073 151.451 26.156 150.992 26.156C150.534 26.156 150.107 26.073 149.711 25.906C149.315 25.74 148.966 25.49 148.664 25.156C148.367 24.823 148.135 24.409 147.969 23.914C147.802 23.414 147.719 22.836 147.719 22.18ZM149.102 21.375V22.18C149.102 22.643 149.148 23.049 149.242 23.398C149.336 23.747 149.469 24.039 149.641 24.273C149.812 24.508 150.013 24.685 150.242 24.805C150.471 24.919 150.721 24.977 150.992 24.977C151.305 24.977 151.578 24.919 151.812 24.805C152.052 24.685 152.25 24.508 152.406 24.273C152.562 24.039 152.68 23.747 152.758 23.398C152.836 23.049 152.875 22.643 152.875 22.18V21.375C152.875 20.911 152.828 20.508 152.734 20.164C152.641 19.815 152.508 19.523 152.336 19.289C152.164 19.049 151.961 18.872 151.727 18.758C151.497 18.638 151.247 18.578 150.977 18.578C150.711 18.578 150.464 18.638 150.234 18.758C150.005 18.872 149.805 19.049 149.633 19.289C149.466 19.523 149.336 19.815 149.242 20.164C149.148 20.508 149.102 20.911 149.102 21.375ZM157.422 19.352V26H156.039V17.547H157.344L157.422 19.352ZM157.086 21.453L156.523 21.43C156.518 20.852 156.583 20.318 156.719 19.828C156.859 19.333 157.057 18.904 157.312 18.539C157.573 18.174 157.883 17.893 158.242 17.695C158.602 17.492 159 17.391 159.438 17.391C159.781 17.391 160.094 17.448 160.375 17.562C160.656 17.672 160.896 17.849 161.094 18.094C161.292 18.339 161.443 18.656 161.547 19.047C161.656 19.432 161.711 19.904 161.711 20.461V26H160.328V20.445C160.328 20.003 160.279 19.648 160.18 19.383C160.086 19.112 159.94 18.917 159.742 18.797C159.549 18.672 159.305 18.609 159.008 18.609C158.737 18.609 158.484 18.685 158.25 18.836C158.016 18.987 157.81 19.195 157.633 19.461C157.461 19.727 157.326 20.031 157.227 20.375C157.133 20.714 157.086 21.073 157.086 21.453ZM167.93 24.555V19.969C167.93 19.635 167.878 19.367 167.773 19.164C167.674 18.961 167.523 18.812 167.32 18.719C167.122 18.625 166.872 18.578 166.57 18.578C166.279 18.578 166.026 18.638 165.812 18.758C165.604 18.878 165.443 19.036 165.328 19.234C165.219 19.432 165.164 19.651 165.164 19.891H163.781C163.781 19.589 163.846 19.289 163.977 18.992C164.112 18.695 164.305 18.427 164.555 18.188C164.805 17.943 165.104 17.75 165.453 17.609C165.807 17.464 166.203 17.391 166.641 17.391C167.161 17.391 167.622 17.477 168.023 17.648C168.424 17.815 168.74 18.089 168.969 18.469C169.198 18.849 169.312 19.354 169.312 19.984V24.156C169.312 24.438 169.333 24.737 169.375 25.055C169.422 25.372 169.487 25.646 169.57 25.875V26H168.141C168.073 25.833 168.021 25.612 167.984 25.336C167.948 25.055 167.93 24.794 167.93 24.555ZM168.148 20.875L168.164 21.891H167.203C166.875 21.891 166.576 21.927 166.305 22C166.039 22.073 165.81 22.18 165.617 22.32C165.424 22.456 165.276 22.625 165.172 22.828C165.073 23.031 165.023 23.263 165.023 23.523C165.023 23.862 165.07 24.133 165.164 24.336C165.258 24.534 165.398 24.677 165.586 24.766C165.773 24.854 166.01 24.898 166.297 24.898C166.646 24.898 166.953 24.818 167.219 24.656C167.484 24.495 167.69 24.299 167.836 24.07C167.987 23.841 168.057 23.628 168.047 23.43L168.352 24.078C168.331 24.281 168.263 24.503 168.148 24.742C168.039 24.977 167.885 25.203 167.688 25.422C167.49 25.635 167.255 25.812 166.984 25.953C166.719 26.089 166.419 26.156 166.086 26.156C165.596 26.156 165.167 26.062 164.797 25.875C164.432 25.688 164.148 25.411 163.945 25.047C163.742 24.682 163.641 24.232 163.641 23.695C163.641 23.289 163.711 22.914 163.852 22.57C163.992 22.227 164.201 21.93 164.477 21.68C164.753 21.424 165.099 21.227 165.516 21.086C165.938 20.945 166.424 20.875 166.977 20.875H168.148ZM172.945 14V26H171.57V14H172.945Z" fill="black"/>
<path d="M30.6523 39.061H31.8711C31.8076 39.645 31.6405 40.168 31.3696 40.629C31.0988 41.09 30.7158 41.456 30.2207 41.727C29.7256 41.994 29.1077 42.127 28.3672 42.127C27.8255 42.127 27.3325 42.025 26.8882 41.822C26.4481 41.619 26.0693 41.331 25.752 40.959C25.4346 40.582 25.1891 40.132 25.0156 39.607C24.8464 39.078 24.7617 38.49 24.7617 37.842V36.922C24.7617 36.274 24.8464 35.688 25.0156 35.164C25.1891 34.635 25.4367 34.182 25.7583 33.805C26.0841 33.429 26.4756 33.139 26.9326 32.936C27.3896 32.732 27.9038 32.631 28.4751 32.631C29.1733 32.631 29.7637 32.762 30.2461 33.024C30.7285 33.287 31.103 33.651 31.3696 34.116C31.6405 34.577 31.8076 35.113 31.8711 35.722H30.6523C30.5931 35.291 30.4831 34.92 30.3223 34.611C30.1615 34.298 29.9329 34.057 29.6367 33.888C29.3405 33.718 28.9533 33.634 28.4751 33.634C28.0646 33.634 27.7028 33.712 27.3896 33.869C27.0807 34.025 26.8205 34.247 26.6089 34.535C26.4015 34.823 26.245 35.168 26.1392 35.57C26.0334 35.972 25.9805 36.418 25.9805 36.909V37.842C25.9805 38.295 26.027 38.72 26.1201 39.118C26.2174 39.516 26.3634 39.865 26.5581 40.166C26.7528 40.466 27.0003 40.703 27.3008 40.876C27.6012 41.046 27.9567 41.13 28.3672 41.13C28.8877 41.13 29.3024 41.048 29.6113 40.883C29.9202 40.718 30.153 40.481 30.3096 40.172C30.4704 39.863 30.5846 39.493 30.6523 39.061ZM37.4126 40.826V37.29C37.4126 37.019 37.3576 36.784 37.2476 36.585C37.1418 36.382 36.981 36.226 36.7651 36.116C36.5493 36.006 36.2827 35.951 35.9653 35.951C35.6691 35.951 35.4089 36.001 35.1846 36.103C34.9645 36.205 34.791 36.338 34.6641 36.503C34.5413 36.668 34.48 36.846 34.48 37.036H33.3057C33.3057 36.791 33.3691 36.547 33.4961 36.306C33.623 36.065 33.805 35.847 34.042 35.652C34.2832 35.453 34.571 35.297 34.9053 35.183C35.2438 35.064 35.6204 35.005 36.0352 35.005C36.5345 35.005 36.9746 35.09 37.3555 35.259C37.7406 35.428 38.041 35.684 38.2568 36.027C38.4769 36.365 38.5869 36.791 38.5869 37.303V40.502C38.5869 40.73 38.606 40.974 38.644 41.232C38.6864 41.49 38.7477 41.712 38.8281 41.898V42H37.603C37.5438 41.865 37.4972 41.685 37.4634 41.46C37.4295 41.232 37.4126 41.02 37.4126 40.826ZM37.6157 37.836L37.6284 38.661H36.4414C36.1071 38.661 35.8088 38.689 35.5464 38.744C35.284 38.794 35.064 38.873 34.8862 38.979C34.7085 39.084 34.5731 39.218 34.48 39.378C34.3869 39.535 34.3403 39.719 34.3403 39.931C34.3403 40.146 34.389 40.343 34.4863 40.521C34.5837 40.699 34.7297 40.84 34.9243 40.946C35.1232 41.048 35.3665 41.099 35.6543 41.099C36.014 41.099 36.3314 41.022 36.6064 40.87C36.8815 40.718 37.0994 40.532 37.2603 40.312C37.4253 40.091 37.5142 39.878 37.5269 39.67L38.0283 40.235C37.9987 40.413 37.9183 40.61 37.7871 40.826C37.6559 41.042 37.4803 41.249 37.2603 41.448C37.0444 41.642 36.7863 41.805 36.4858 41.937C36.1896 42.063 35.8553 42.127 35.4829 42.127C35.0174 42.127 34.609 42.036 34.2578 41.854C33.9108 41.672 33.64 41.429 33.4453 41.124C33.2549 40.815 33.1597 40.47 33.1597 40.089C33.1597 39.721 33.2316 39.397 33.3755 39.118C33.5194 38.835 33.7267 38.6 33.9976 38.414C34.2684 38.223 34.5942 38.079 34.9751 37.982C35.356 37.885 35.7812 37.836 36.251 37.836H37.6157ZM41.71 32.25V42H40.5293V32.25H41.71ZM43.2842 38.642V38.496C43.2842 38.001 43.3561 37.542 43.5 37.119C43.6439 36.691 43.8512 36.321 44.1221 36.008C44.3929 35.69 44.7209 35.445 45.106 35.271C45.491 35.094 45.9227 35.005 46.4009 35.005C46.8833 35.005 47.3171 35.094 47.7021 35.271C48.0915 35.445 48.4215 35.69 48.6924 36.008C48.9674 36.321 49.1769 36.691 49.3208 37.119C49.4647 37.542 49.5366 38.001 49.5366 38.496V38.642C49.5366 39.137 49.4647 39.596 49.3208 40.02C49.1769 40.443 48.9674 40.813 48.6924 41.13C48.4215 41.444 48.0936 41.689 47.7085 41.867C47.3276 42.04 46.896 42.127 46.4136 42.127C45.9312 42.127 45.4974 42.04 45.1123 41.867C44.7272 41.689 44.3971 41.444 44.1221 41.13C43.8512 40.813 43.6439 40.443 43.5 40.02C43.3561 39.596 43.2842 39.137 43.2842 38.642ZM44.4585 38.496V38.642C44.4585 38.985 44.4987 39.309 44.5791 39.613C44.6595 39.914 44.7801 40.18 44.9409 40.413C45.106 40.646 45.3112 40.83 45.5566 40.965C45.8021 41.097 46.0877 41.162 46.4136 41.162C46.7352 41.162 47.0166 41.097 47.2578 40.965C47.5033 40.83 47.7064 40.646 47.8672 40.413C48.028 40.18 48.1486 39.914 48.229 39.613C48.3136 39.309 48.356 38.985 48.356 38.642V38.496C48.356 38.158 48.3136 37.838 48.229 37.538C48.1486 37.233 48.0259 36.964 47.8608 36.731C47.7 36.494 47.4969 36.308 47.2515 36.173C47.0103 36.037 46.7267 35.97 46.4009 35.97C46.0793 35.97 45.7957 36.037 45.5503 36.173C45.3091 36.308 45.106 36.494 44.9409 36.731C44.7801 36.964 44.6595 37.233 44.5791 37.538C44.4987 37.838 44.4585 38.158 44.4585 38.496ZM52.1836 36.211V42H51.0093V35.132H52.1519L52.1836 36.211ZM54.3291 35.094L54.3228 36.186C54.2254 36.164 54.1323 36.152 54.0435 36.147C53.9588 36.139 53.8615 36.135 53.7515 36.135C53.4806 36.135 53.2415 36.177 53.0342 36.262C52.8268 36.346 52.6512 36.465 52.5073 36.617C52.3634 36.77 52.2492 36.951 52.1646 37.163C52.0841 37.37 52.0312 37.599 52.0059 37.849L51.6758 38.039C51.6758 37.624 51.716 37.235 51.7964 36.871C51.881 36.507 52.0101 36.186 52.1836 35.906C52.3571 35.623 52.5771 35.403 52.8438 35.246C53.1146 35.085 53.4362 35.005 53.8086 35.005C53.8932 35.005 53.9906 35.015 54.1006 35.037C54.2106 35.054 54.2868 35.073 54.3291 35.094ZM56.6904 35.132V42H55.5098V35.132H56.6904ZM55.4209 33.31C55.4209 33.12 55.478 32.959 55.5923 32.828C55.7108 32.696 55.8843 32.631 56.1128 32.631C56.3371 32.631 56.5085 32.696 56.627 32.828C56.7497 32.959 56.811 33.12 56.811 33.31C56.811 33.492 56.7497 33.649 56.627 33.78C56.5085 33.907 56.3371 33.97 56.1128 33.97C55.8843 33.97 55.7108 33.907 55.5923 33.78C55.478 33.649 55.4209 33.492 55.4209 33.31ZM62.6255 40.826V37.29C62.6255 37.019 62.5705 36.784 62.4604 36.585C62.3547 36.382 62.1938 36.226 61.978 36.116C61.7622 36.006 61.4956 35.951 61.1782 35.951C60.882 35.951 60.6217 36.001 60.3975 36.103C60.1774 36.205 60.0039 36.338 59.877 36.503C59.7542 36.668 59.6929 36.846 59.6929 37.036H58.5186C58.5186 36.791 58.582 36.547 58.709 36.306C58.8359 36.065 59.0179 35.847 59.2549 35.652C59.4961 35.453 59.7839 35.297 60.1182 35.183C60.4567 35.064 60.8333 35.005 61.248 35.005C61.7474 35.005 62.1875 35.09 62.5684 35.259C62.9535 35.428 63.2539 35.684 63.4697 36.027C63.6898 36.365 63.7998 36.791 63.7998 37.303V40.502C63.7998 40.73 63.8188 40.974 63.8569 41.232C63.8993 41.49 63.9606 41.712 64.041 41.898V42H62.8159C62.7567 41.865 62.7101 41.685 62.6763 41.46C62.6424 41.232 62.6255 41.02 62.6255 40.826ZM62.8286 37.836L62.8413 38.661H61.6543C61.32 38.661 61.0216 38.689 60.7593 38.744C60.4969 38.794 60.2769 38.873 60.0991 38.979C59.9214 39.084 59.786 39.218 59.6929 39.378C59.5998 39.535 59.5532 39.719 59.5532 39.931C59.5532 40.146 59.6019 40.343 59.6992 40.521C59.7965 40.699 59.9425 40.84 60.1372 40.946C60.3361 41.048 60.5794 41.099 60.8672 41.099C61.2269 41.099 61.5443 41.022 61.8193 40.87C62.0944 40.718 62.3123 40.532 62.4731 40.312C62.6382 40.091 62.7271 39.878 62.7397 39.67L63.2412 40.235C63.2116 40.413 63.1312 40.61 63 40.826C62.8688 41.042 62.6932 41.249 62.4731 41.448C62.2573 41.642 61.9992 41.805 61.6987 41.937C61.4025 42.063 61.0682 42.127 60.6958 42.127C60.2303 42.127 59.8219 42.036 59.4707 41.854C59.1237 41.672 58.8529 41.429 58.6582 41.124C58.4678 40.815 58.3726 40.47 58.3726 40.089C58.3726 39.721 58.4445 39.397 58.5884 39.118C58.7323 38.835 58.9396 38.6 59.2104 38.414C59.4813 38.223 59.8071 38.079 60.188 37.982C60.5688 37.885 60.9941 37.836 61.4639 37.836H62.8286ZM69.646 40.178C69.646 40.009 69.6079 39.852 69.5317 39.708C69.4598 39.56 69.3096 39.427 69.0811 39.309C68.8568 39.186 68.5182 39.08 68.0654 38.991C67.6846 38.911 67.3397 38.816 67.0308 38.706C66.7261 38.596 66.4658 38.462 66.25 38.306C66.0384 38.149 65.8755 37.965 65.7612 37.753C65.647 37.542 65.5898 37.294 65.5898 37.011C65.5898 36.74 65.6491 36.484 65.7676 36.243C65.8903 36.001 66.0617 35.788 66.2817 35.602C66.506 35.415 66.7747 35.269 67.0879 35.164C67.401 35.058 67.7502 35.005 68.1353 35.005C68.6854 35.005 69.1551 35.102 69.5444 35.297C69.9338 35.492 70.2321 35.752 70.4395 36.078C70.6468 36.399 70.7505 36.757 70.7505 37.15H69.5762C69.5762 36.96 69.519 36.776 69.4048 36.598C69.2948 36.416 69.1318 36.266 68.916 36.147C68.7044 36.029 68.4442 35.97 68.1353 35.97C67.8094 35.97 67.5449 36.021 67.3418 36.122C67.1429 36.219 66.9969 36.344 66.9038 36.497C66.8149 36.649 66.7705 36.81 66.7705 36.979C66.7705 37.106 66.7917 37.22 66.834 37.322C66.8805 37.419 66.9609 37.51 67.0752 37.595C67.1895 37.675 67.3503 37.751 67.5576 37.823C67.765 37.895 68.0295 37.967 68.3511 38.039C68.9139 38.166 69.3773 38.318 69.7412 38.496C70.1051 38.674 70.376 38.892 70.5537 39.15C70.7314 39.408 70.8203 39.721 70.8203 40.089C70.8203 40.39 70.7568 40.665 70.6299 40.915C70.5072 41.164 70.3273 41.38 70.0903 41.562C69.8576 41.74 69.5783 41.879 69.2524 41.981C68.9308 42.078 68.569 42.127 68.167 42.127C67.5618 42.127 67.0498 42.019 66.6309 41.803C66.2119 41.587 65.8945 41.308 65.6787 40.965C65.4629 40.623 65.355 40.261 65.355 39.88H66.5356C66.5526 40.201 66.6457 40.458 66.8149 40.648C66.9842 40.834 67.1916 40.967 67.437 41.048C67.6825 41.124 67.9258 41.162 68.167 41.162C68.4886 41.162 68.7573 41.12 68.9731 41.035C69.1932 40.951 69.3604 40.834 69.4746 40.686C69.5889 40.538 69.646 40.369 69.646 40.178ZM76.8633 35.132V42H75.6826V35.132H76.8633ZM75.5938 33.31C75.5938 33.12 75.6509 32.959 75.7651 32.828C75.8836 32.696 76.0571 32.631 76.2856 32.631C76.5099 32.631 76.6813 32.696 76.7998 32.828C76.9225 32.959 76.9839 33.12 76.9839 33.31C76.9839 33.492 76.9225 33.649 76.7998 33.78C76.6813 33.907 76.5099 33.97 76.2856 33.97C76.0571 33.97 75.8836 33.907 75.7651 33.78C75.6509 33.649 75.5938 33.492 75.5938 33.31ZM79.9229 36.598V42H78.7485V35.132H79.8594L79.9229 36.598ZM79.6436 38.306L79.1548 38.287C79.159 37.817 79.2288 37.383 79.3643 36.985C79.4997 36.583 79.6901 36.234 79.9355 35.938C80.181 35.642 80.473 35.413 80.8115 35.252C81.1543 35.087 81.533 35.005 81.9478 35.005C82.2863 35.005 82.591 35.051 82.8618 35.145C83.1326 35.233 83.3633 35.377 83.5537 35.576C83.7484 35.775 83.8965 36.033 83.998 36.351C84.0996 36.664 84.1504 37.047 84.1504 37.5V42H82.9697V37.487C82.9697 37.127 82.9168 36.839 82.811 36.624C82.7052 36.403 82.5508 36.245 82.3477 36.147C82.1445 36.046 81.8949 35.995 81.5986 35.995C81.3066 35.995 81.04 36.056 80.7988 36.179C80.5618 36.302 80.3566 36.471 80.1831 36.687C80.0138 36.903 79.8805 37.15 79.7832 37.43C79.6901 37.705 79.6436 37.997 79.6436 38.306ZM90.3838 35.132H91.4502V41.854C91.4502 42.459 91.3275 42.975 91.082 43.403C90.8366 43.83 90.4938 44.154 90.0537 44.374C89.6178 44.598 89.1143 44.71 88.543 44.71C88.306 44.71 88.0267 44.672 87.7051 44.596C87.3877 44.524 87.0745 44.399 86.7656 44.222C86.4609 44.048 86.2049 43.813 85.9976 43.517L86.6133 42.819C86.901 43.166 87.2015 43.407 87.5146 43.542C87.832 43.678 88.1452 43.746 88.4541 43.746C88.8265 43.746 89.1481 43.676 89.4189 43.536C89.6898 43.396 89.8993 43.189 90.0474 42.914C90.1997 42.643 90.2759 42.309 90.2759 41.911V36.643L90.3838 35.132ZM85.6548 38.642V38.509C85.6548 37.984 85.7161 37.508 85.8389 37.081C85.9658 36.649 86.1457 36.279 86.3784 35.97C86.6154 35.661 86.901 35.424 87.2354 35.259C87.5697 35.09 87.9463 35.005 88.3652 35.005C88.7969 35.005 89.1735 35.081 89.4951 35.233C89.821 35.382 90.096 35.599 90.3203 35.887C90.5488 36.171 90.7287 36.514 90.8599 36.916C90.991 37.318 91.082 37.772 91.1328 38.28V38.864C91.0863 39.368 90.9953 39.821 90.8599 40.223C90.7287 40.625 90.5488 40.967 90.3203 41.251C90.096 41.535 89.821 41.752 89.4951 41.905C89.1693 42.053 88.7884 42.127 88.3525 42.127C87.9421 42.127 87.5697 42.04 87.2354 41.867C86.9053 41.693 86.6217 41.45 86.3848 41.137C86.1478 40.824 85.9658 40.455 85.8389 40.032C85.7161 39.605 85.6548 39.141 85.6548 38.642ZM86.8291 38.509V38.642C86.8291 38.985 86.863 39.306 86.9307 39.607C87.0026 39.907 87.1105 40.172 87.2544 40.4C87.4025 40.629 87.5908 40.809 87.8193 40.94C88.0479 41.067 88.3208 41.13 88.6382 41.13C89.0275 41.13 89.3491 41.048 89.603 40.883C89.8569 40.718 90.0579 40.5 90.2061 40.229C90.3584 39.958 90.4769 39.664 90.5615 39.347V37.817C90.515 37.584 90.443 37.36 90.3457 37.144C90.2526 36.924 90.1299 36.729 89.9775 36.56C89.8294 36.387 89.6453 36.249 89.4253 36.147C89.2052 36.046 88.9471 35.995 88.6509 35.995C88.3293 35.995 88.0521 36.063 87.8193 36.198C87.5908 36.329 87.4025 36.511 87.2544 36.744C87.1105 36.973 87.0026 37.239 86.9307 37.544C86.863 37.844 86.8291 38.166 86.8291 38.509ZM96.084 42.127C95.6058 42.127 95.172 42.047 94.7827 41.886C94.3976 41.721 94.0654 41.49 93.7861 41.194C93.5111 40.898 93.2995 40.546 93.1514 40.14C93.0033 39.734 92.9292 39.29 92.9292 38.807V38.541C92.9292 37.982 93.0117 37.485 93.1768 37.049C93.3418 36.609 93.5661 36.236 93.8496 35.932C94.1331 35.627 94.4548 35.396 94.8145 35.24C95.1742 35.083 95.5465 35.005 95.9316 35.005C96.4225 35.005 96.8457 35.09 97.2012 35.259C97.5609 35.428 97.855 35.665 98.0835 35.97C98.312 36.27 98.4813 36.626 98.5913 37.036C98.7013 37.442 98.7563 37.887 98.7563 38.369V38.896H93.6274V37.938H97.582V37.849C97.5651 37.544 97.5016 37.248 97.3916 36.96C97.2858 36.672 97.1165 36.435 96.8838 36.249C96.651 36.063 96.3337 35.97 95.9316 35.97C95.665 35.97 95.4196 36.027 95.1953 36.141C94.971 36.251 94.7785 36.416 94.6177 36.636C94.4569 36.856 94.332 37.125 94.2432 37.442C94.1543 37.76 94.1099 38.126 94.1099 38.541V38.807C94.1099 39.133 94.1543 39.44 94.2432 39.728C94.3363 40.011 94.4696 40.261 94.6431 40.477C94.8208 40.692 95.0345 40.862 95.2842 40.984C95.5381 41.107 95.8258 41.168 96.1475 41.168C96.5622 41.168 96.9134 41.084 97.2012 40.915C97.4889 40.745 97.7407 40.519 97.9565 40.235L98.6675 40.8C98.5194 41.025 98.3311 41.238 98.1025 41.441C97.874 41.645 97.5926 41.81 97.2583 41.937C96.9282 42.063 96.5368 42.127 96.084 42.127ZM101.302 36.211V42H100.127V35.132H101.27L101.302 36.211ZM103.447 35.094L103.441 36.186C103.344 36.164 103.25 36.152 103.162 36.147C103.077 36.139 102.98 36.135 102.87 36.135C102.599 36.135 102.36 36.177 102.152 36.262C101.945 36.346 101.769 36.465 101.625 36.617C101.482 36.77 101.367 36.951 101.283 37.163C101.202 37.37 101.149 37.599 101.124 37.849L100.794 38.039C100.794 37.624 100.834 37.235 100.915 36.871C100.999 36.507 101.128 36.186 101.302 35.906C101.475 35.623 101.695 35.403 101.962 35.246C102.233 35.085 102.554 35.005 102.927 35.005C103.011 35.005 103.109 35.015 103.219 35.037C103.329 35.054 103.405 35.073 103.447 35.094ZM105.809 35.132V42H104.628V35.132H105.809ZM104.539 33.31C104.539 33.12 104.596 32.959 104.71 32.828C104.829 32.696 105.002 32.631 105.231 32.631C105.455 32.631 105.627 32.696 105.745 32.828C105.868 32.959 105.929 33.12 105.929 33.31C105.929 33.492 105.868 33.649 105.745 33.78C105.627 33.907 105.455 33.97 105.231 33.97C105.002 33.97 104.829 33.907 104.71 33.78C104.596 33.649 104.539 33.492 104.539 33.31ZM112.023 40.667V32.25H113.204V42H112.125L112.023 40.667ZM107.402 38.642V38.509C107.402 37.984 107.465 37.508 107.592 37.081C107.723 36.649 107.908 36.279 108.145 35.97C108.386 35.661 108.671 35.424 109.001 35.259C109.336 35.09 109.708 35.005 110.119 35.005C110.55 35.005 110.927 35.081 111.249 35.233C111.574 35.382 111.849 35.599 112.074 35.887C112.302 36.171 112.482 36.514 112.613 36.916C112.744 37.318 112.835 37.772 112.886 38.28V38.864C112.84 39.368 112.749 39.821 112.613 40.223C112.482 40.625 112.302 40.967 112.074 41.251C111.849 41.535 111.574 41.752 111.249 41.905C110.923 42.053 110.542 42.127 110.106 42.127C109.704 42.127 109.336 42.04 109.001 41.867C108.671 41.693 108.386 41.45 108.145 41.137C107.908 40.824 107.723 40.455 107.592 40.032C107.465 39.605 107.402 39.141 107.402 38.642ZM108.583 38.509V38.642C108.583 38.985 108.616 39.306 108.684 39.607C108.756 39.907 108.866 40.172 109.014 40.4C109.162 40.629 109.351 40.809 109.579 40.94C109.808 41.067 110.081 41.13 110.398 41.13C110.787 41.13 111.107 41.048 111.356 40.883C111.61 40.718 111.813 40.5 111.966 40.229C112.118 39.958 112.237 39.664 112.321 39.347V37.817C112.271 37.584 112.196 37.36 112.099 37.144C112.006 36.924 111.883 36.729 111.731 36.56C111.583 36.387 111.399 36.249 111.179 36.147C110.963 36.046 110.707 35.995 110.411 35.995C110.089 35.995 109.812 36.063 109.579 36.198C109.351 36.329 109.162 36.511 109.014 36.744C108.866 36.973 108.756 37.239 108.684 37.544C108.616 37.844 108.583 38.166 108.583 38.509ZM119.082 40.826V37.29C119.082 37.019 119.027 36.784 118.917 36.585C118.811 36.382 118.65 36.226 118.434 36.116C118.218 36.006 117.952 35.951 117.634 35.951C117.338 35.951 117.078 36.001 116.854 36.103C116.633 36.205 116.46 36.338 116.333 36.503C116.21 36.668 116.149 36.846 116.149 37.036H114.975C114.975 36.791 115.038 36.547 115.165 36.306C115.292 36.065 115.474 35.847 115.711 35.652C115.952 35.453 116.24 35.297 116.574 35.183C116.913 35.064 117.289 35.005 117.704 35.005C118.203 35.005 118.644 35.09 119.024 35.259C119.41 35.428 119.71 35.684 119.926 36.027C120.146 36.365 120.256 36.791 120.256 37.303V40.502C120.256 40.73 120.275 40.974 120.313 41.232C120.355 41.49 120.417 41.712 120.497 41.898V42H119.272C119.213 41.865 119.166 41.685 119.132 41.46C119.098 41.232 119.082 41.02 119.082 40.826ZM119.285 37.836L119.297 38.661H118.11C117.776 38.661 117.478 38.689 117.215 38.744C116.953 38.794 116.733 38.873 116.555 38.979C116.377 39.084 116.242 39.218 116.149 39.378C116.056 39.535 116.009 39.719 116.009 39.931C116.009 40.146 116.058 40.343 116.155 40.521C116.253 40.699 116.399 40.84 116.593 40.946C116.792 41.048 117.035 41.099 117.323 41.099C117.683 41.099 118 41.022 118.275 40.87C118.55 40.718 118.768 40.532 118.929 40.312C119.094 40.091 119.183 39.878 119.196 39.67L119.697 40.235C119.668 40.413 119.587 40.61 119.456 40.826C119.325 41.042 119.149 41.249 118.929 41.448C118.713 41.642 118.455 41.805 118.155 41.937C117.859 42.063 117.524 42.127 117.152 42.127C116.686 42.127 116.278 42.036 115.927 41.854C115.58 41.672 115.309 41.429 115.114 41.124C114.924 40.815 114.829 40.47 114.829 40.089C114.829 39.721 114.901 39.397 115.044 39.118C115.188 38.835 115.396 38.6 115.667 38.414C115.937 38.223 116.263 38.079 116.644 37.982C117.025 37.885 117.45 37.836 117.92 37.836H119.285ZM126.102 40.178C126.102 40.009 126.064 39.852 125.988 39.708C125.916 39.56 125.766 39.427 125.537 39.309C125.313 39.186 124.974 39.08 124.521 38.991C124.141 38.911 123.796 38.816 123.487 38.706C123.182 38.596 122.922 38.462 122.706 38.306C122.494 38.149 122.332 37.965 122.217 37.753C122.103 37.542 122.046 37.294 122.046 37.011C122.046 36.74 122.105 36.484 122.224 36.243C122.346 36.001 122.518 35.788 122.738 35.602C122.962 35.415 123.231 35.269 123.544 35.164C123.857 35.058 124.206 35.005 124.591 35.005C125.141 35.005 125.611 35.102 126 35.297C126.39 35.492 126.688 35.752 126.896 36.078C127.103 36.399 127.207 36.757 127.207 37.15H126.032C126.032 36.96 125.975 36.776 125.861 36.598C125.751 36.416 125.588 36.266 125.372 36.147C125.16 36.029 124.9 35.97 124.591 35.97C124.265 35.97 124.001 36.021 123.798 36.122C123.599 36.219 123.453 36.344 123.36 36.497C123.271 36.649 123.227 36.81 123.227 36.979C123.227 37.106 123.248 37.22 123.29 37.322C123.337 37.419 123.417 37.51 123.531 37.595C123.646 37.675 123.806 37.751 124.014 37.823C124.221 37.895 124.486 37.967 124.807 38.039C125.37 38.166 125.833 38.318 126.197 38.496C126.561 38.674 126.832 38.892 127.01 39.15C127.188 39.408 127.276 39.721 127.276 40.089C127.276 40.39 127.213 40.665 127.086 40.915C126.963 41.164 126.783 41.38 126.546 41.562C126.314 41.74 126.034 41.879 125.708 41.981C125.387 42.078 125.025 42.127 124.623 42.127C124.018 42.127 123.506 42.019 123.087 41.803C122.668 41.587 122.351 41.308 122.135 40.965C121.919 40.623 121.811 40.261 121.811 39.88H122.992C123.009 40.201 123.102 40.458 123.271 40.648C123.44 40.834 123.648 40.967 123.893 41.048C124.139 41.124 124.382 41.162 124.623 41.162C124.945 41.162 125.213 41.12 125.429 41.035C125.649 40.951 125.816 40.834 125.931 40.686C126.045 40.538 126.102 40.369 126.102 40.178ZM133.218 36.452V44.641H132.037V35.132H133.116L133.218 36.452ZM137.845 38.509V38.642C137.845 39.141 137.786 39.605 137.667 40.032C137.549 40.455 137.375 40.824 137.147 41.137C136.923 41.45 136.646 41.693 136.315 41.867C135.985 42.04 135.607 42.127 135.179 42.127C134.743 42.127 134.358 42.055 134.024 41.911C133.69 41.767 133.406 41.558 133.173 41.283C132.941 41.008 132.754 40.678 132.615 40.292C132.479 39.907 132.386 39.474 132.335 38.991V38.28C132.386 37.772 132.481 37.318 132.621 36.916C132.761 36.514 132.945 36.171 133.173 35.887C133.406 35.599 133.688 35.382 134.018 35.233C134.348 35.081 134.729 35.005 135.16 35.005C135.592 35.005 135.975 35.09 136.309 35.259C136.643 35.424 136.925 35.661 137.153 35.97C137.382 36.279 137.553 36.649 137.667 37.081C137.786 37.508 137.845 37.984 137.845 38.509ZM136.665 38.642V38.509C136.665 38.166 136.629 37.844 136.557 37.544C136.485 37.239 136.373 36.973 136.22 36.744C136.072 36.511 135.882 36.329 135.649 36.198C135.416 36.063 135.139 35.995 134.817 35.995C134.521 35.995 134.263 36.046 134.043 36.147C133.827 36.249 133.643 36.387 133.491 36.56C133.338 36.729 133.214 36.924 133.116 37.144C133.023 37.36 132.953 37.584 132.907 37.817V39.461C132.991 39.757 133.11 40.036 133.262 40.299C133.415 40.557 133.618 40.766 133.872 40.927C134.125 41.084 134.445 41.162 134.83 41.162C135.147 41.162 135.42 41.097 135.649 40.965C135.882 40.83 136.072 40.646 136.22 40.413C136.373 40.18 136.485 39.914 136.557 39.613C136.629 39.309 136.665 38.985 136.665 38.642ZM139.032 38.642V38.496C139.032 38.001 139.104 37.542 139.248 37.119C139.392 36.691 139.599 36.321 139.87 36.008C140.141 35.69 140.469 35.445 140.854 35.271C141.239 35.094 141.671 35.005 142.149 35.005C142.631 35.005 143.065 35.094 143.45 35.271C143.84 35.445 144.17 35.69 144.44 36.008C144.715 36.321 144.925 36.691 145.069 37.119C145.213 37.542 145.285 38.001 145.285 38.496V38.642C145.285 39.137 145.213 39.596 145.069 40.02C144.925 40.443 144.715 40.813 144.44 41.13C144.17 41.444 143.842 41.689 143.457 41.867C143.076 42.04 142.644 42.127 142.162 42.127C141.679 42.127 141.245 42.04 140.86 41.867C140.475 41.689 140.145 41.444 139.87 41.13C139.599 40.813 139.392 40.443 139.248 40.02C139.104 39.596 139.032 39.137 139.032 38.642ZM140.207 38.496V38.642C140.207 38.985 140.247 39.309 140.327 39.613C140.408 39.914 140.528 40.18 140.689 40.413C140.854 40.646 141.059 40.83 141.305 40.965C141.55 41.097 141.836 41.162 142.162 41.162C142.483 41.162 142.765 41.097 143.006 40.965C143.251 40.83 143.454 40.646 143.615 40.413C143.776 40.18 143.897 39.914 143.977 39.613C144.062 39.309 144.104 38.985 144.104 38.642V38.496C144.104 38.158 144.062 37.838 143.977 37.538C143.897 37.233 143.774 36.964 143.609 36.731C143.448 36.494 143.245 36.308 143 36.173C142.758 36.037 142.475 35.97 142.149 35.97C141.827 35.97 141.544 36.037 141.298 36.173C141.057 36.308 140.854 36.494 140.689 36.731C140.528 36.964 140.408 37.233 140.327 37.538C140.247 37.838 140.207 38.158 140.207 38.496ZM147.932 36.211V42H146.757V35.132H147.9L147.932 36.211ZM150.077 35.094L150.071 36.186C149.973 36.164 149.88 36.152 149.792 36.147C149.707 36.139 149.61 36.135 149.5 36.135C149.229 36.135 148.99 36.177 148.782 36.262C148.575 36.346 148.399 36.465 148.255 36.617C148.111 36.77 147.997 36.951 147.913 37.163C147.832 37.37 147.779 37.599 147.754 37.849L147.424 38.039C147.424 37.624 147.464 37.235 147.544 36.871C147.629 36.507 147.758 36.186 147.932 35.906C148.105 35.623 148.325 35.403 148.592 35.246C148.863 35.085 149.184 35.005 149.557 35.005C149.641 35.005 149.739 35.015 149.849 35.037C149.959 35.054 150.035 35.073 150.077 35.094ZM155.562 36.211V42H154.387V35.132H155.53L155.562 36.211ZM157.707 35.094L157.701 36.186C157.603 36.164 157.51 36.152 157.421 36.147C157.337 36.139 157.239 36.135 157.129 36.135C156.859 36.135 156.619 36.177 156.412 36.262C156.205 36.346 156.029 36.465 155.885 36.617C155.741 36.77 155.627 36.951 155.542 37.163C155.462 37.37 155.409 37.599 155.384 37.849L155.054 38.039C155.054 37.624 155.094 37.235 155.174 36.871C155.259 36.507 155.388 36.186 155.562 35.906C155.735 35.623 155.955 35.403 156.222 35.246C156.493 35.085 156.814 35.005 157.187 35.005C157.271 35.005 157.368 35.015 157.479 35.037C157.589 35.054 157.665 35.073 157.707 35.094ZM161.516 42.127C161.037 42.127 160.604 42.047 160.214 41.886C159.829 41.721 159.497 41.49 159.218 41.194C158.943 40.898 158.731 40.546 158.583 40.14C158.435 39.734 158.361 39.29 158.361 38.807V38.541C158.361 37.982 158.443 37.485 158.608 37.049C158.773 36.609 158.998 36.236 159.281 35.932C159.565 35.627 159.886 35.396 160.246 35.24C160.606 35.083 160.978 35.005 161.363 35.005C161.854 35.005 162.277 35.09 162.633 35.259C162.993 35.428 163.287 35.665 163.515 35.97C163.744 36.27 163.913 36.626 164.023 37.036C164.133 37.442 164.188 37.887 164.188 38.369V38.896H159.059V37.938H163.014V37.849C162.997 37.544 162.933 37.248 162.823 36.96C162.717 36.672 162.548 36.435 162.315 36.249C162.083 36.063 161.765 35.97 161.363 35.97C161.097 35.97 160.851 36.027 160.627 36.141C160.403 36.251 160.21 36.416 160.049 36.636C159.889 36.856 159.764 37.125 159.675 37.442C159.586 37.76 159.542 38.126 159.542 38.541V38.807C159.542 39.133 159.586 39.44 159.675 39.728C159.768 40.011 159.901 40.261 160.075 40.477C160.252 40.692 160.466 40.862 160.716 40.984C160.97 41.107 161.257 41.168 161.579 41.168C161.994 41.168 162.345 41.084 162.633 40.915C162.921 40.745 163.172 40.519 163.388 40.235L164.099 40.8C163.951 41.025 163.763 41.238 163.534 41.441C163.306 41.645 163.024 41.81 162.69 41.937C162.36 42.063 161.968 42.127 161.516 42.127ZM167.311 42H166.137V34.408C166.137 33.913 166.226 33.496 166.403 33.158C166.585 32.815 166.846 32.557 167.184 32.383C167.523 32.206 167.925 32.117 168.39 32.117C168.526 32.117 168.661 32.125 168.796 32.142C168.936 32.159 169.071 32.184 169.203 32.218L169.139 33.177C169.05 33.156 168.949 33.141 168.834 33.132C168.724 33.124 168.614 33.12 168.504 33.12C168.255 33.12 168.039 33.17 167.857 33.272C167.679 33.369 167.544 33.513 167.451 33.704C167.358 33.894 167.311 34.129 167.311 34.408V42ZM168.771 35.132V36.033H165.051V35.132H168.771ZM172.776 42.127C172.298 42.127 171.864 42.047 171.475 41.886C171.09 41.721 170.758 41.49 170.479 41.194C170.203 40.898 169.992 40.546 169.844 40.14C169.696 39.734 169.622 39.29 169.622 38.807V38.541C169.622 37.982 169.704 37.485 169.869 37.049C170.034 36.609 170.258 36.236 170.542 35.932C170.826 35.627 171.147 35.396 171.507 35.24C171.867 35.083 172.239 35.005 172.624 35.005C173.115 35.005 173.538 35.09 173.894 35.259C174.253 35.428 174.547 35.665 174.776 35.97C175.004 36.27 175.174 36.626 175.284 37.036C175.394 37.442 175.449 37.887 175.449 38.369V38.896H170.32V37.938H174.274V37.849C174.257 37.544 174.194 37.248 174.084 36.96C173.978 36.672 173.809 36.435 173.576 36.249C173.343 36.063 173.026 35.97 172.624 35.97C172.357 35.97 172.112 36.027 171.888 36.141C171.663 36.251 171.471 36.416 171.31 36.636C171.149 36.856 171.024 37.125 170.936 37.442C170.847 37.76 170.802 38.126 170.802 38.541V38.807C170.802 39.133 170.847 39.44 170.936 39.728C171.029 40.011 171.162 40.261 171.335 40.477C171.513 40.692 171.727 40.862 171.977 40.984C172.23 41.107 172.518 41.168 172.84 41.168C173.255 41.168 173.606 41.084 173.894 40.915C174.181 40.745 174.433 40.519 174.649 40.235L175.36 40.8C175.212 41.025 175.023 41.238 174.795 41.441C174.566 41.645 174.285 41.81 173.951 41.937C173.621 42.063 173.229 42.127 172.776 42.127ZM178.096 35.132V42H176.915V35.132H178.096ZM176.826 33.31C176.826 33.12 176.883 32.959 176.998 32.828C177.116 32.696 177.29 32.631 177.518 32.631C177.742 32.631 177.914 32.696 178.032 32.828C178.155 32.959 178.216 33.12 178.216 33.31C178.216 33.492 178.155 33.649 178.032 33.78C177.914 33.907 177.742 33.97 177.518 33.97C177.29 33.97 177.116 33.907 176.998 33.78C176.883 33.649 176.826 33.492 176.826 33.31ZM182.729 41.162C183.009 41.162 183.267 41.105 183.504 40.991C183.741 40.876 183.936 40.72 184.088 40.521C184.24 40.318 184.327 40.087 184.348 39.829H185.465C185.444 40.235 185.307 40.614 185.053 40.965C184.803 41.312 184.475 41.594 184.069 41.81C183.663 42.021 183.216 42.127 182.729 42.127C182.213 42.127 181.763 42.036 181.377 41.854C180.997 41.672 180.679 41.422 180.425 41.105C180.176 40.788 179.987 40.424 179.86 40.013C179.738 39.598 179.676 39.16 179.676 38.699V38.433C179.676 37.971 179.738 37.535 179.86 37.125C179.987 36.71 180.176 36.344 180.425 36.027C180.679 35.709 180.997 35.46 181.377 35.278C181.763 35.096 182.213 35.005 182.729 35.005C183.267 35.005 183.737 35.115 184.139 35.335C184.541 35.551 184.856 35.847 185.084 36.224C185.317 36.596 185.444 37.019 185.465 37.493H184.348C184.327 37.21 184.247 36.954 184.107 36.725C183.972 36.497 183.785 36.315 183.548 36.179C183.316 36.04 183.043 35.97 182.729 35.97C182.37 35.97 182.067 36.042 181.822 36.186C181.581 36.325 181.388 36.516 181.244 36.757C181.104 36.994 181.003 37.258 180.939 37.55C180.88 37.838 180.851 38.132 180.851 38.433V38.699C180.851 39 180.88 39.296 180.939 39.588C180.999 39.88 181.098 40.144 181.238 40.381C181.382 40.618 181.574 40.809 181.815 40.953C182.061 41.092 182.366 41.162 182.729 41.162ZM182.082 42.063H182.926L182.85 42.4C183.096 42.442 183.318 42.544 183.517 42.705C183.72 42.865 183.821 43.13 183.821 43.498C183.821 43.697 183.779 43.877 183.694 44.038C183.614 44.203 183.493 44.342 183.333 44.457C183.172 44.575 182.971 44.666 182.729 44.729C182.493 44.793 182.215 44.825 181.898 44.825L181.854 44.146C182.048 44.146 182.224 44.124 182.38 44.082C182.541 44.04 182.668 43.972 182.761 43.879C182.859 43.786 182.907 43.665 182.907 43.517C182.907 43.377 182.871 43.267 182.799 43.187C182.727 43.107 182.615 43.045 182.463 43.003C182.315 42.965 182.122 42.937 181.885 42.92L182.082 42.063ZM190.835 40.826V37.29C190.835 37.019 190.78 36.784 190.67 36.585C190.565 36.382 190.404 36.226 190.188 36.116C189.972 36.006 189.706 35.951 189.388 35.951C189.092 35.951 188.832 36.001 188.607 36.103C188.387 36.205 188.214 36.338 188.087 36.503C187.964 36.668 187.903 36.846 187.903 37.036H186.729C186.729 36.791 186.792 36.547 186.919 36.306C187.046 36.065 187.228 35.847 187.465 35.652C187.706 35.453 187.994 35.297 188.328 35.183C188.667 35.064 189.043 35.005 189.458 35.005C189.957 35.005 190.397 35.09 190.778 35.259C191.163 35.428 191.464 35.684 191.68 36.027C191.9 36.365 192.01 36.791 192.01 37.303V40.502C192.01 40.73 192.029 40.974 192.067 41.232C192.109 41.49 192.171 41.712 192.251 41.898V42H191.026C190.967 41.865 190.92 41.685 190.886 41.46C190.852 41.232 190.835 41.02 190.835 40.826ZM191.039 37.836L191.051 38.661H189.864C189.53 38.661 189.232 38.689 188.969 38.744C188.707 38.794 188.487 38.873 188.309 38.979C188.131 39.084 187.996 39.218 187.903 39.378C187.81 39.535 187.763 39.719 187.763 39.931C187.763 40.146 187.812 40.343 187.909 40.521C188.007 40.699 188.153 40.84 188.347 40.946C188.546 41.048 188.789 41.099 189.077 41.099C189.437 41.099 189.754 41.022 190.029 40.87C190.304 40.718 190.522 40.532 190.683 40.312C190.848 40.091 190.937 39.878 190.95 39.67L191.451 40.235C191.422 40.413 191.341 40.61 191.21 40.826C191.079 41.042 190.903 41.249 190.683 41.448C190.467 41.642 190.209 41.805 189.909 41.937C189.612 42.063 189.278 42.127 188.906 42.127C188.44 42.127 188.032 42.036 187.681 41.854C187.334 41.672 187.063 41.429 186.868 41.124C186.678 40.815 186.583 40.47 186.583 40.089C186.583 39.721 186.654 39.397 186.798 39.118C186.942 38.835 187.15 38.6 187.42 38.414C187.691 38.223 188.017 38.079 188.398 37.982C188.779 37.885 189.204 37.836 189.674 37.836H191.039ZM191.045 32.377L191.838 32.447C191.838 32.756 191.777 33.027 191.654 33.259C191.532 33.492 191.367 33.672 191.159 33.799C190.956 33.926 190.725 33.989 190.467 33.989C190.251 33.989 190.074 33.96 189.934 33.9C189.794 33.837 189.67 33.767 189.56 33.691C189.45 33.611 189.333 33.541 189.21 33.481C189.092 33.418 188.944 33.386 188.766 33.386C188.588 33.386 188.438 33.454 188.315 33.589C188.197 33.725 188.138 33.892 188.138 34.091L187.344 34.053C187.344 33.744 187.403 33.473 187.522 33.24C187.645 33.003 187.81 32.819 188.017 32.688C188.224 32.553 188.455 32.485 188.709 32.485C188.891 32.485 189.05 32.517 189.185 32.58C189.325 32.639 189.456 32.709 189.579 32.79C189.701 32.866 189.828 32.936 189.959 32.999C190.091 33.058 190.241 33.088 190.41 33.088C190.588 33.088 190.738 33.02 190.861 32.885C190.984 32.745 191.045 32.576 191.045 32.377ZM193.546 38.642V38.496C193.546 38.001 193.618 37.542 193.762 37.119C193.906 36.691 194.113 36.321 194.384 36.008C194.655 35.69 194.983 35.445 195.368 35.271C195.753 35.094 196.184 35.005 196.663 35.005C197.145 35.005 197.579 35.094 197.964 35.271C198.353 35.445 198.683 35.69 198.954 36.008C199.229 36.321 199.439 36.691 199.583 37.119C199.726 37.542 199.798 38.001 199.798 38.496V38.642C199.798 39.137 199.726 39.596 199.583 40.02C199.439 40.443 199.229 40.813 198.954 41.13C198.683 41.444 198.355 41.689 197.97 41.867C197.589 42.04 197.158 42.127 196.675 42.127C196.193 42.127 195.759 42.04 195.374 41.867C194.989 41.689 194.659 41.444 194.384 41.13C194.113 40.813 193.906 40.443 193.762 40.02C193.618 39.596 193.546 39.137 193.546 38.642ZM194.72 38.496V38.642C194.72 38.985 194.76 39.309 194.841 39.613C194.921 39.914 195.042 40.18 195.203 40.413C195.368 40.646 195.573 40.83 195.818 40.965C196.064 41.097 196.349 41.162 196.675 41.162C196.997 41.162 197.278 41.097 197.52 40.965C197.765 40.83 197.968 40.646 198.129 40.413C198.29 40.18 198.41 39.914 198.491 39.613C198.575 39.309 198.618 38.985 198.618 38.642V38.496C198.618 38.158 198.575 37.838 198.491 37.538C198.41 37.233 198.288 36.964 198.123 36.731C197.962 36.494 197.759 36.308 197.513 36.173C197.272 36.037 196.988 35.97 196.663 35.97C196.341 35.97 196.057 36.037 195.812 36.173C195.571 36.308 195.368 36.494 195.203 36.731C195.042 36.964 194.921 37.233 194.841 37.538C194.76 37.838 194.72 38.158 194.72 38.496Z" fill="#515151"/>
<path d="M313 27L320.263 31.237C320.976 31.653 320.906 32.706 320.144 33.024L313 36" stroke="#C4C4C4"/>
<path d="M10 59L334 60" stroke="#C4C4C4"/>
</svg>
