<svg width="360" height="63" viewBox="0 0 360 63" fill="none" xmlns="http://www.w3.org/2000/svg">
<rect y="-185" width="360" height="686" fill="white"/>
<path d="M27.8047 46H25.8672L25.8828 44.773H27.8047C28.487 44.773 29.0417 44.643 29.4688 44.383C29.8958 44.117 30.2109 43.727 30.4141 43.211C30.6172 42.69 30.7188 42.047 30.7188 41.281V39.336C30.7188 38.732 30.6615 38.211 30.5469 37.773C30.4323 37.336 30.2604 36.977 30.0312 36.695C29.8021 36.414 29.513 36.206 29.1641 36.07C28.8151 35.93 28.4062 35.859 27.9375 35.859H25.8281V34.625H27.9375C28.5781 34.625 29.1562 34.727 29.6719 34.93C30.1875 35.128 30.6302 35.427 31 35.828C31.3698 36.224 31.651 36.716 31.8438 37.305C32.0417 37.893 32.1406 38.576 32.1406 39.352V41.281C32.1406 42.057 32.0417 42.74 31.8438 43.328C31.651 43.917 31.3672 44.409 30.9922 44.805C30.6172 45.201 30.1615 45.5 29.625 45.703C29.0938 45.901 28.487 46 27.8047 46ZM26.6641 34.625V46H25.2266V34.625H26.6641ZM37.2031 46.156C36.6979 46.156 36.2422 46.081 35.8359 45.93C35.4297 45.779 35.0833 45.549 34.7969 45.242C34.5104 44.93 34.2917 44.536 34.1406 44.062C33.9896 43.589 33.9141 43.029 33.9141 42.383V41.43C33.9141 40.685 34 40.055 34.1719 39.539C34.349 39.023 34.5859 38.609 34.8828 38.297C35.1797 37.979 35.5156 37.75 35.8906 37.609C36.2656 37.464 36.651 37.391 37.0469 37.391C37.5781 37.391 38.0312 37.477 38.4062 37.648C38.7812 37.82 39.0859 38.076 39.3203 38.414C39.5547 38.753 39.7266 39.169 39.8359 39.664C39.9505 40.159 40.0078 40.729 40.0078 41.375V42.18H34.7266V41H38.625V40.805C38.6042 40.367 38.5443 39.982 38.4453 39.648C38.3516 39.315 38.1953 39.055 37.9766 38.867C37.7578 38.674 37.4479 38.578 37.0469 38.578C36.7917 38.578 36.5547 38.622 36.3359 38.711C36.1224 38.794 35.9375 38.943 35.7812 39.156C35.6302 39.365 35.5104 39.654 35.4219 40.023C35.3385 40.393 35.2969 40.862 35.2969 41.43V42.383C35.2969 42.836 35.3385 43.227 35.4219 43.555C35.5104 43.878 35.638 44.146 35.8047 44.359C35.9766 44.568 36.1849 44.724 36.4297 44.828C36.6797 44.927 36.9635 44.977 37.2812 44.977C37.7448 44.977 38.1276 44.888 38.4297 44.711C38.7318 44.529 38.9948 44.297 39.2188 44.016L39.9453 44.883C39.7943 45.096 39.5964 45.302 39.3516 45.5C39.112 45.693 38.8151 45.852 38.4609 45.977C38.112 46.096 37.6927 46.156 37.2031 46.156ZM43.4453 46H42.0625V36.812C42.0625 36.172 42.1693 35.63 42.3828 35.188C42.6016 34.745 42.9115 34.409 43.3125 34.18C43.7188 33.951 44.1979 33.836 44.75 33.836C45.0781 33.836 45.3932 33.883 45.6953 33.977C45.9974 34.065 46.3099 34.177 46.6328 34.312L46.3984 35.531C46.2109 35.438 45.9818 35.349 45.7109 35.266C45.4401 35.177 45.1562 35.133 44.8594 35.133C44.3385 35.133 43.9714 35.273 43.7578 35.555C43.5495 35.831 43.4453 36.25 43.4453 36.812V46ZM44.8125 37.547V38.656H40.9609V37.547H44.8125ZM47.2969 37.547V46H45.9141V37.547H47.2969ZM50.9062 39.352V46H49.5234V37.547H50.8281L50.9062 39.352ZM50.5703 41.453L50.0078 41.43C50.0026 40.852 50.0677 40.318 50.2031 39.828C50.3438 39.333 50.5417 38.904 50.7969 38.539C51.0573 38.174 51.3672 37.893 51.7266 37.695C52.0859 37.492 52.4844 37.391 52.9219 37.391C53.2656 37.391 53.5781 37.448 53.8594 37.562C54.1406 37.672 54.3802 37.849 54.5781 38.094C54.776 38.339 54.9271 38.656 55.0312 39.047C55.1406 39.432 55.1953 39.904 55.1953 40.461V46H53.8125V40.445C53.8125 40.003 53.763 39.648 53.6641 39.383C53.5703 39.112 53.4245 38.917 53.2266 38.797C53.0339 38.672 52.7891 38.609 52.4922 38.609C52.2214 38.609 51.9688 38.685 51.7344 38.836C51.5 38.987 51.2943 39.195 51.1172 39.461C50.9453 39.727 50.8099 40.031 50.7109 40.375C50.6172 40.714 50.5703 41.073 50.5703 41.453ZM58.7578 37.547V46H57.3828V37.547H58.7578ZM57.3047 35.305C57.3047 35.07 57.3698 34.872 57.5 34.711C57.6302 34.549 57.8255 34.469 58.0859 34.469C58.3464 34.469 58.5417 34.549 58.6719 34.711C58.8073 34.872 58.875 35.07 58.875 35.305C58.875 35.529 58.8073 35.721 58.6719 35.883C58.5417 36.039 58.3464 36.117 58.0859 36.117C57.8255 36.117 57.6302 36.039 57.5 35.883C57.3698 35.721 57.3047 35.529 57.3047 35.305ZM62.3281 38.875V46H60.9453V37.547H62.2812L62.3281 38.875ZM64.4297 37.5L64.4375 38.844C64.3229 38.818 64.2188 38.802 64.125 38.797C64.0365 38.786 63.9323 38.781 63.8125 38.781C63.5521 38.781 63.3229 38.833 63.125 38.938C62.9323 39.042 62.7656 39.188 62.625 39.375C62.4844 39.562 62.3724 39.786 62.2891 40.047C62.2057 40.302 62.1484 40.583 62.1172 40.891L61.7578 41.125C61.7578 40.615 61.7969 40.135 61.875 39.688C61.9583 39.24 62.0859 38.844 62.2578 38.5C62.4297 38.151 62.6484 37.88 62.9141 37.688C63.1849 37.49 63.5078 37.391 63.8828 37.391C63.9661 37.391 64.0677 37.404 64.1875 37.43C64.3125 37.451 64.3932 37.474 64.4297 37.5ZM70.875 38.875V46H69.4922V37.547H70.8281L70.875 38.875ZM72.9766 37.5L72.9844 38.844C72.8698 38.818 72.7656 38.802 72.6719 38.797C72.5833 38.786 72.4792 38.781 72.3594 38.781C72.099 38.781 71.8698 38.833 71.6719 38.938C71.4792 39.042 71.3125 39.188 71.1719 39.375C71.0312 39.562 70.9193 39.786 70.8359 40.047C70.7526 40.302 70.6953 40.583 70.6641 40.891L70.3047 41.125C70.3047 40.615 70.3438 40.135 70.4219 39.688C70.5052 39.24 70.6328 38.844 70.8047 38.5C70.9766 38.151 71.1953 37.88 71.4609 37.688C71.7318 37.49 72.0547 37.391 72.4297 37.391C72.513 37.391 72.6146 37.404 72.7344 37.43C72.8594 37.451 72.9401 37.474 72.9766 37.5ZM77.2344 46.156C76.7292 46.156 76.2734 46.081 75.8672 45.93C75.4609 45.779 75.1146 45.549 74.8281 45.242C74.5417 44.93 74.3229 44.536 74.1719 44.062C74.0208 43.589 73.9453 43.029 73.9453 42.383V41.43C73.9453 40.685 74.0312 40.055 74.2031 39.539C74.3802 39.023 74.6172 38.609 74.9141 38.297C75.2109 37.979 75.5469 37.75 75.9219 37.609C76.2969 37.464 76.6823 37.391 77.0781 37.391C77.6094 37.391 78.0625 37.477 78.4375 37.648C78.8125 37.82 79.1172 38.076 79.3516 38.414C79.5859 38.753 79.7578 39.169 79.8672 39.664C79.9818 40.159 80.0391 40.729 80.0391 41.375V42.18H74.7578V41H78.6562V40.805C78.6354 40.367 78.5755 39.982 78.4766 39.648C78.3828 39.315 78.2266 39.055 78.0078 38.867C77.7891 38.674 77.4792 38.578 77.0781 38.578C76.8229 38.578 76.5859 38.622 76.3672 38.711C76.1536 38.794 75.9688 38.943 75.8125 39.156C75.6615 39.365 75.5417 39.654 75.4531 40.023C75.3698 40.393 75.3281 40.862 75.3281 41.43V42.383C75.3281 42.836 75.3698 43.227 75.4531 43.555C75.5417 43.878 75.6693 44.146 75.8359 44.359C76.0078 44.568 76.2161 44.724 76.4609 44.828C76.7109 44.927 76.9948 44.977 77.3125 44.977C77.776 44.977 78.1589 44.888 78.4609 44.711C78.763 44.529 79.026 44.297 79.25 44.016L79.9766 44.883C79.8255 45.096 79.6276 45.302 79.3828 45.5C79.1432 45.693 78.8464 45.852 78.4922 45.977C78.1432 46.096 77.724 46.156 77.2344 46.156ZM85.8125 43.836C85.8125 43.622 85.7604 43.435 85.6562 43.273C85.5521 43.112 85.3802 42.956 85.1406 42.805C84.9062 42.654 84.5885 42.492 84.1875 42.32C83.7969 42.159 83.4453 42 83.1328 41.844C82.8255 41.682 82.5651 41.508 82.3516 41.32C82.138 41.133 81.974 40.917 81.8594 40.672C81.75 40.422 81.6953 40.128 81.6953 39.789C81.6953 39.451 81.7578 39.138 81.8828 38.852C82.013 38.56 82.1953 38.305 82.4297 38.086C82.6641 37.867 82.9453 37.698 83.2734 37.578C83.6016 37.453 83.9688 37.391 84.375 37.391C84.9531 37.391 85.4453 37.503 85.8516 37.727C86.2578 37.951 86.5677 38.258 86.7812 38.648C87 39.034 87.1094 39.469 87.1094 39.953H85.7344C85.7344 39.719 85.6823 39.497 85.5781 39.289C85.474 39.081 85.3203 38.911 85.1172 38.781C84.9141 38.646 84.6667 38.578 84.375 38.578C84.0677 38.578 83.8177 38.633 83.625 38.742C83.4323 38.852 83.2917 38.995 83.2031 39.172C83.1198 39.344 83.0781 39.534 83.0781 39.742C83.0781 39.898 83.099 40.034 83.1406 40.148C83.1875 40.258 83.2656 40.362 83.375 40.461C83.4844 40.555 83.6328 40.654 83.8203 40.758C84.013 40.857 84.2578 40.971 84.5547 41.102C85.1276 41.326 85.6094 41.552 86 41.781C86.3906 42.01 86.6875 42.279 86.8906 42.586C87.0938 42.893 87.1953 43.273 87.1953 43.727C87.1953 44.096 87.1276 44.432 86.9922 44.734C86.862 45.031 86.6745 45.286 86.4297 45.5C86.1849 45.714 85.8906 45.878 85.5469 45.992C85.2083 46.102 84.8281 46.156 84.4062 46.156C83.7708 46.156 83.2318 46.031 82.7891 45.781C82.3516 45.526 82.0182 45.195 81.7891 44.789C81.5651 44.378 81.4531 43.938 81.4531 43.469H82.8359C82.8516 43.865 82.9401 44.172 83.1016 44.391C83.2682 44.609 83.4688 44.76 83.7031 44.844C83.9375 44.927 84.1719 44.969 84.4062 44.969C84.7135 44.969 84.9714 44.924 85.1797 44.836C85.388 44.742 85.5443 44.609 85.6484 44.438C85.7578 44.266 85.8125 44.065 85.8125 43.836ZM92.0938 37.547V38.656H88.1484V37.547H92.0938ZM89.4375 35.492H90.8203V43.906C90.8203 44.193 90.8542 44.409 90.9219 44.555C90.9948 44.701 91.0859 44.797 91.1953 44.844C91.3047 44.891 91.4219 44.914 91.5469 44.914C91.6406 44.914 91.7448 44.904 91.8594 44.883C91.974 44.857 92.0521 44.836 92.0938 44.82L92.0859 46C91.9922 46.036 91.8672 46.07 91.7109 46.102C91.5547 46.138 91.3568 46.156 91.1172 46.156C90.8203 46.156 90.5443 46.086 90.2891 45.945C90.0339 45.805 89.8281 45.57 89.6719 45.242C89.5156 44.909 89.4375 44.461 89.4375 43.898V35.492ZM95.125 38.875V46H93.7422V37.547H95.0781L95.125 38.875ZM97.2266 37.5L97.2344 38.844C97.1198 38.818 97.0156 38.802 96.9219 38.797C96.8333 38.786 96.7292 38.781 96.6094 38.781C96.349 38.781 96.1198 38.833 95.9219 38.938C95.7292 39.042 95.5625 39.188 95.4219 39.375C95.2812 39.562 95.1693 39.786 95.0859 40.047C95.0026 40.302 94.9453 40.583 94.9141 40.891L94.5547 41.125C94.5547 40.615 94.5938 40.135 94.6719 39.688C94.7552 39.24 94.8828 38.844 95.0547 38.5C95.2266 38.151 95.4453 37.88 95.7109 37.688C95.9818 37.49 96.3047 37.391 96.6797 37.391C96.763 37.391 96.8646 37.404 96.9844 37.43C97.1094 37.451 97.1901 37.474 97.2266 37.5ZM100.102 37.547V46H98.7266V37.547H100.102ZM98.6484 35.305C98.6484 35.07 98.7135 34.872 98.8438 34.711C98.974 34.549 99.1693 34.469 99.4297 34.469C99.6901 34.469 99.8854 34.549 100.016 34.711C100.151 34.872 100.219 35.07 100.219 35.305C100.219 35.529 100.151 35.721 100.016 35.883C99.8854 36.039 99.6901 36.117 99.4297 36.117C99.1693 36.117 98.974 36.039 98.8438 35.883C98.7135 35.721 98.6484 35.529 98.6484 35.305ZM105.219 44.977C105.495 44.977 105.745 44.922 105.969 44.812C106.198 44.698 106.385 44.521 106.531 44.281C106.677 44.036 106.76 43.719 106.781 43.328H108.078C108.057 43.891 107.914 44.385 107.648 44.812C107.388 45.234 107.044 45.565 106.617 45.805C106.195 46.039 105.729 46.156 105.219 46.156C104.672 46.156 104.195 46.068 103.789 45.891C103.388 45.714 103.055 45.458 102.789 45.125C102.529 44.786 102.333 44.378 102.203 43.898C102.073 43.414 102.008 42.865 102.008 42.25V41.297C102.008 40.682 102.073 40.135 102.203 39.656C102.333 39.172 102.529 38.763 102.789 38.43C103.055 38.091 103.388 37.833 103.789 37.656C104.195 37.479 104.672 37.391 105.219 37.391C105.792 37.391 106.286 37.513 106.703 37.758C107.125 37.997 107.453 38.346 107.688 38.805C107.927 39.258 108.057 39.807 108.078 40.453H106.781C106.76 40.036 106.685 39.69 106.555 39.414C106.424 39.133 106.247 38.924 106.023 38.789C105.799 38.648 105.531 38.578 105.219 38.578C104.854 38.578 104.552 38.643 104.312 38.773C104.078 38.898 103.893 39.081 103.758 39.32C103.622 39.56 103.526 39.846 103.469 40.18C103.417 40.513 103.391 40.885 103.391 41.297V42.25C103.391 42.661 103.417 43.036 103.469 43.375C103.526 43.708 103.62 43.995 103.75 44.234C103.885 44.474 104.073 44.659 104.312 44.789C104.552 44.914 104.854 44.977 105.219 44.977ZM104.438 46.078H105.406L105.328 46.492C105.573 46.544 105.794 46.669 105.992 46.867C106.195 47.065 106.297 47.391 106.297 47.844C106.297 48.089 106.255 48.31 106.172 48.508C106.089 48.711 105.961 48.883 105.789 49.023C105.622 49.169 105.414 49.281 105.164 49.359C104.914 49.438 104.622 49.477 104.289 49.477L104.242 48.641C104.44 48.641 104.612 48.615 104.758 48.562C104.909 48.51 105.026 48.427 105.109 48.312C105.198 48.198 105.242 48.049 105.242 47.867C105.242 47.695 105.206 47.56 105.133 47.461C105.065 47.362 104.956 47.286 104.805 47.234C104.659 47.188 104.464 47.154 104.219 47.133L104.438 46.078ZM109.391 42.18V41.375C109.391 40.719 109.474 40.143 109.641 39.648C109.807 39.148 110.039 38.732 110.336 38.398C110.633 38.065 110.979 37.815 111.375 37.648C111.771 37.477 112.195 37.391 112.648 37.391C113.112 37.391 113.542 37.477 113.938 37.648C114.333 37.815 114.68 38.065 114.977 38.398C115.279 38.732 115.513 39.148 115.68 39.648C115.846 40.143 115.93 40.719 115.93 41.375V42.18C115.93 42.836 115.846 43.414 115.68 43.914C115.513 44.409 115.281 44.823 114.984 45.156C114.688 45.49 114.341 45.74 113.945 45.906C113.549 46.073 113.122 46.156 112.664 46.156C112.206 46.156 111.779 46.073 111.383 45.906C110.987 45.74 110.638 45.49 110.336 45.156C110.039 44.823 109.807 44.409 109.641 43.914C109.474 43.414 109.391 42.836 109.391 42.18ZM110.773 41.375V42.18C110.773 42.643 110.82 43.049 110.914 43.398C111.008 43.747 111.141 44.039 111.312 44.273C111.484 44.508 111.685 44.685 111.914 44.805C112.143 44.919 112.393 44.977 112.664 44.977C112.977 44.977 113.25 44.919 113.484 44.805C113.724 44.685 113.922 44.508 114.078 44.273C114.234 44.039 114.352 43.747 114.43 43.398C114.508 43.049 114.547 42.643 114.547 42.18V41.375C114.547 40.911 114.5 40.508 114.406 40.164C114.312 39.815 114.18 39.523 114.008 39.289C113.836 39.049 113.633 38.872 113.398 38.758C113.169 38.638 112.919 38.578 112.648 38.578C112.383 38.578 112.135 38.638 111.906 38.758C111.677 38.872 111.477 39.049 111.305 39.289C111.138 39.523 111.008 39.815 110.914 40.164C110.82 40.508 110.773 40.911 110.773 41.375ZM114.039 34.156L114.938 34.242C114.938 34.622 114.872 34.956 114.742 35.242C114.612 35.529 114.435 35.75 114.211 35.906C113.992 36.062 113.747 36.141 113.477 36.141C113.258 36.141 113.076 36.104 112.93 36.031C112.784 35.953 112.654 35.867 112.539 35.773C112.43 35.674 112.312 35.589 112.188 35.516C112.068 35.438 111.917 35.398 111.734 35.398C111.557 35.398 111.409 35.482 111.289 35.648C111.169 35.815 111.109 36.021 111.109 36.266L110.211 36.219C110.211 35.839 110.273 35.505 110.398 35.219C110.529 34.927 110.703 34.701 110.922 34.539C111.146 34.372 111.393 34.289 111.664 34.289C111.846 34.289 112.008 34.328 112.148 34.406C112.289 34.479 112.422 34.565 112.547 34.664C112.672 34.758 112.802 34.844 112.938 34.922C113.078 34.995 113.234 35.031 113.406 35.031C113.583 35.031 113.732 34.948 113.852 34.781C113.977 34.609 114.039 34.401 114.039 34.156ZM120.734 46.156C120.229 46.156 119.773 46.081 119.367 45.93C118.961 45.779 118.615 45.549 118.328 45.242C118.042 44.93 117.823 44.536 117.672 44.062C117.521 43.589 117.445 43.029 117.445 42.383V41.43C117.445 40.685 117.531 40.055 117.703 39.539C117.88 39.023 118.117 38.609 118.414 38.297C118.711 37.979 119.047 37.75 119.422 37.609C119.797 37.464 120.182 37.391 120.578 37.391C121.109 37.391 121.562 37.477 121.938 37.648C122.312 37.82 122.617 38.076 122.852 38.414C123.086 38.753 123.258 39.169 123.367 39.664C123.482 40.159 123.539 40.729 123.539 41.375V42.18H118.258V41H122.156V40.805C122.135 40.367 122.076 39.982 121.977 39.648C121.883 39.315 121.727 39.055 121.508 38.867C121.289 38.674 120.979 38.578 120.578 38.578C120.323 38.578 120.086 38.622 119.867 38.711C119.654 38.794 119.469 38.943 119.312 39.156C119.161 39.365 119.042 39.654 118.953 40.023C118.87 40.393 118.828 40.862 118.828 41.43V42.383C118.828 42.836 118.87 43.227 118.953 43.555C119.042 43.878 119.169 44.146 119.336 44.359C119.508 44.568 119.716 44.724 119.961 44.828C120.211 44.927 120.495 44.977 120.812 44.977C121.276 44.977 121.659 44.888 121.961 44.711C122.263 44.529 122.526 44.297 122.75 44.016L123.477 44.883C123.326 45.096 123.128 45.302 122.883 45.5C122.643 45.693 122.346 45.852 121.992 45.977C121.643 46.096 121.224 46.156 120.734 46.156ZM129.312 43.836C129.312 43.622 129.26 43.435 129.156 43.273C129.052 43.112 128.88 42.956 128.641 42.805C128.406 42.654 128.089 42.492 127.688 42.32C127.297 42.159 126.945 42 126.633 41.844C126.326 41.682 126.065 41.508 125.852 41.32C125.638 41.133 125.474 40.917 125.359 40.672C125.25 40.422 125.195 40.128 125.195 39.789C125.195 39.451 125.258 39.138 125.383 38.852C125.513 38.56 125.695 38.305 125.93 38.086C126.164 37.867 126.445 37.698 126.773 37.578C127.102 37.453 127.469 37.391 127.875 37.391C128.453 37.391 128.945 37.503 129.352 37.727C129.758 37.951 130.068 38.258 130.281 38.648C130.5 39.034 130.609 39.469 130.609 39.953H129.234C129.234 39.719 129.182 39.497 129.078 39.289C128.974 39.081 128.82 38.911 128.617 38.781C128.414 38.646 128.167 38.578 127.875 38.578C127.568 38.578 127.318 38.633 127.125 38.742C126.932 38.852 126.792 38.995 126.703 39.172C126.62 39.344 126.578 39.534 126.578 39.742C126.578 39.898 126.599 40.034 126.641 40.148C126.688 40.258 126.766 40.362 126.875 40.461C126.984 40.555 127.133 40.654 127.32 40.758C127.513 40.857 127.758 40.971 128.055 41.102C128.628 41.326 129.109 41.552 129.5 41.781C129.891 42.01 130.188 42.279 130.391 42.586C130.594 42.893 130.695 43.273 130.695 43.727C130.695 44.096 130.628 44.432 130.492 44.734C130.362 45.031 130.174 45.286 129.93 45.5C129.685 45.714 129.391 45.878 129.047 45.992C128.708 46.102 128.328 46.156 127.906 46.156C127.271 46.156 126.732 46.031 126.289 45.781C125.852 45.526 125.518 45.195 125.289 44.789C125.065 44.378 124.953 43.938 124.953 43.469H126.336C126.352 43.865 126.44 44.172 126.602 44.391C126.768 44.609 126.969 44.76 127.203 44.844C127.438 44.927 127.672 44.969 127.906 44.969C128.214 44.969 128.471 44.924 128.68 44.836C128.888 44.742 129.044 44.609 129.148 44.438C129.258 44.266 129.312 44.065 129.312 43.836ZM140.32 44.555V39.969C140.32 39.635 140.268 39.367 140.164 39.164C140.065 38.961 139.914 38.812 139.711 38.719C139.513 38.625 139.263 38.578 138.961 38.578C138.669 38.578 138.417 38.638 138.203 38.758C137.995 38.878 137.833 39.036 137.719 39.234C137.609 39.432 137.555 39.651 137.555 39.891H136.172C136.172 39.589 136.237 39.289 136.367 38.992C136.503 38.695 136.695 38.427 136.945 38.188C137.195 37.943 137.495 37.75 137.844 37.609C138.198 37.464 138.594 37.391 139.031 37.391C139.552 37.391 140.013 37.477 140.414 37.648C140.815 37.815 141.13 38.089 141.359 38.469C141.589 38.849 141.703 39.354 141.703 39.984V44.156C141.703 44.438 141.724 44.737 141.766 45.055C141.812 45.372 141.878 45.646 141.961 45.875V46H140.531C140.464 45.833 140.411 45.612 140.375 45.336C140.339 45.055 140.32 44.794 140.32 44.555ZM140.539 40.875L140.555 41.891H139.594C139.266 41.891 138.966 41.927 138.695 42C138.43 42.073 138.201 42.18 138.008 42.32C137.815 42.456 137.667 42.625 137.562 42.828C137.464 43.031 137.414 43.263 137.414 43.523C137.414 43.862 137.461 44.133 137.555 44.336C137.648 44.534 137.789 44.677 137.977 44.766C138.164 44.854 138.401 44.898 138.688 44.898C139.036 44.898 139.344 44.818 139.609 44.656C139.875 44.495 140.081 44.299 140.227 44.07C140.378 43.841 140.448 43.628 140.438 43.43L140.742 44.078C140.721 44.281 140.654 44.503 140.539 44.742C140.43 44.977 140.276 45.203 140.078 45.422C139.88 45.635 139.646 45.812 139.375 45.953C139.109 46.089 138.81 46.156 138.477 46.156C137.987 46.156 137.557 46.062 137.188 45.875C136.823 45.688 136.539 45.411 136.336 45.047C136.133 44.682 136.031 44.232 136.031 43.695C136.031 43.289 136.102 42.914 136.242 42.57C136.383 42.227 136.591 41.93 136.867 41.68C137.143 41.424 137.49 41.227 137.906 41.086C138.328 40.945 138.815 40.875 139.367 40.875H140.539ZM145.336 34V46H143.961V34H145.336ZM149.008 37.547V46H147.633V37.547H149.008ZM147.555 35.305C147.555 35.07 147.62 34.872 147.75 34.711C147.88 34.549 148.076 34.469 148.336 34.469C148.596 34.469 148.792 34.549 148.922 34.711C149.057 34.872 149.125 35.07 149.125 35.305C149.125 35.529 149.057 35.721 148.922 35.883C148.792 36.039 148.596 36.117 148.336 36.117C148.076 36.117 147.88 36.039 147.75 35.883C147.62 35.721 147.555 35.529 147.555 35.305ZM152.578 39.227V46H151.203V37.547H152.5L152.578 39.227ZM152.297 41.453L151.656 41.43C151.651 40.852 151.708 40.318 151.828 39.828C151.948 39.333 152.128 38.904 152.367 38.539C152.612 38.174 152.917 37.893 153.281 37.695C153.651 37.492 154.081 37.391 154.57 37.391C154.893 37.391 155.193 37.448 155.469 37.562C155.75 37.672 155.995 37.846 156.203 38.086C156.411 38.326 156.573 38.633 156.688 39.008C156.807 39.383 156.867 39.836 156.867 40.367V46H155.484V40.438C155.484 39.995 155.424 39.641 155.305 39.375C155.19 39.109 155.026 38.917 154.812 38.797C154.599 38.672 154.344 38.609 154.047 38.609C153.708 38.609 153.424 38.685 153.195 38.836C152.971 38.987 152.792 39.195 152.656 39.461C152.526 39.727 152.432 40.031 152.375 40.375C152.323 40.714 152.297 41.073 152.297 41.453ZM156.852 40.656L155.93 40.953C155.924 40.49 155.982 40.044 156.102 39.617C156.221 39.19 156.398 38.81 156.633 38.477C156.872 38.143 157.169 37.88 157.523 37.688C157.878 37.49 158.289 37.391 158.758 37.391C159.143 37.391 159.484 37.451 159.781 37.57C160.078 37.69 160.328 37.875 160.531 38.125C160.74 38.37 160.896 38.685 161 39.07C161.104 39.456 161.156 39.914 161.156 40.445V46H159.773V40.43C159.773 39.956 159.714 39.589 159.594 39.328C159.479 39.062 159.315 38.878 159.102 38.773C158.888 38.664 158.633 38.609 158.336 38.609C158.096 38.609 157.883 38.664 157.695 38.773C157.513 38.883 157.359 39.034 157.234 39.227C157.109 39.414 157.013 39.63 156.945 39.875C156.883 40.12 156.852 40.38 156.852 40.656ZM166.266 46.156C165.76 46.156 165.305 46.081 164.898 45.93C164.492 45.779 164.146 45.549 163.859 45.242C163.573 44.93 163.354 44.536 163.203 44.062C163.052 43.589 162.977 43.029 162.977 42.383V41.43C162.977 40.685 163.062 40.055 163.234 39.539C163.411 39.023 163.648 38.609 163.945 38.297C164.242 37.979 164.578 37.75 164.953 37.609C165.328 37.464 165.714 37.391 166.109 37.391C166.641 37.391 167.094 37.477 167.469 37.648C167.844 37.82 168.148 38.076 168.383 38.414C168.617 38.753 168.789 39.169 168.898 39.664C169.013 40.159 169.07 40.729 169.07 41.375V42.18H163.789V41H167.688V40.805C167.667 40.367 167.607 39.982 167.508 39.648C167.414 39.315 167.258 39.055 167.039 38.867C166.82 38.674 166.51 38.578 166.109 38.578C165.854 38.578 165.617 38.622 165.398 38.711C165.185 38.794 165 38.943 164.844 39.156C164.693 39.365 164.573 39.654 164.484 40.023C164.401 40.393 164.359 40.862 164.359 41.43V42.383C164.359 42.836 164.401 43.227 164.484 43.555C164.573 43.878 164.701 44.146 164.867 44.359C165.039 44.568 165.247 44.724 165.492 44.828C165.742 44.927 166.026 44.977 166.344 44.977C166.807 44.977 167.19 44.888 167.492 44.711C167.794 44.529 168.057 44.297 168.281 44.016L169.008 44.883C168.857 45.096 168.659 45.302 168.414 45.5C168.174 45.693 167.878 45.852 167.523 45.977C167.174 46.096 166.755 46.156 166.266 46.156ZM172.125 39.352V46H170.742V37.547H172.047L172.125 39.352ZM171.789 41.453L171.227 41.43C171.221 40.852 171.286 40.318 171.422 39.828C171.562 39.333 171.76 38.904 172.016 38.539C172.276 38.174 172.586 37.893 172.945 37.695C173.305 37.492 173.703 37.391 174.141 37.391C174.484 37.391 174.797 37.448 175.078 37.562C175.359 37.672 175.599 37.849 175.797 38.094C175.995 38.339 176.146 38.656 176.25 39.047C176.359 39.432 176.414 39.904 176.414 40.461V46H175.031V40.445C175.031 40.003 174.982 39.648 174.883 39.383C174.789 39.112 174.643 38.917 174.445 38.797C174.253 38.672 174.008 38.609 173.711 38.609C173.44 38.609 173.188 38.685 172.953 38.836C172.719 38.987 172.513 39.195 172.336 39.461C172.164 39.727 172.029 40.031 171.93 40.375C171.836 40.714 171.789 41.073 171.789 41.453ZM181.578 37.547V38.656H177.633V37.547H181.578ZM178.922 35.492H180.305V43.906C180.305 44.193 180.339 44.409 180.406 44.555C180.479 44.701 180.57 44.797 180.68 44.844C180.789 44.891 180.906 44.914 181.031 44.914C181.125 44.914 181.229 44.904 181.344 44.883C181.458 44.857 181.536 44.836 181.578 44.82L181.57 46C181.477 46.036 181.352 46.07 181.195 46.102C181.039 46.138 180.841 46.156 180.602 46.156C180.305 46.156 180.029 46.086 179.773 45.945C179.518 45.805 179.312 45.57 179.156 45.242C179 44.909 178.922 44.461 178.922 43.898V35.492ZM187.367 44.555V39.969C187.367 39.635 187.315 39.367 187.211 39.164C187.112 38.961 186.961 38.812 186.758 38.719C186.56 38.625 186.31 38.578 186.008 38.578C185.716 38.578 185.464 38.638 185.25 38.758C185.042 38.878 184.88 39.036 184.766 39.234C184.656 39.432 184.602 39.651 184.602 39.891H183.219C183.219 39.589 183.284 39.289 183.414 38.992C183.549 38.695 183.742 38.427 183.992 38.188C184.242 37.943 184.542 37.75 184.891 37.609C185.245 37.464 185.641 37.391 186.078 37.391C186.599 37.391 187.06 37.477 187.461 37.648C187.862 37.815 188.177 38.089 188.406 38.469C188.635 38.849 188.75 39.354 188.75 39.984V44.156C188.75 44.438 188.771 44.737 188.812 45.055C188.859 45.372 188.924 45.646 189.008 45.875V46H187.578C187.51 45.833 187.458 45.612 187.422 45.336C187.385 45.055 187.367 44.794 187.367 44.555ZM187.586 40.875L187.602 41.891H186.641C186.312 41.891 186.013 41.927 185.742 42C185.477 42.073 185.247 42.18 185.055 42.32C184.862 42.456 184.714 42.625 184.609 42.828C184.51 43.031 184.461 43.263 184.461 43.523C184.461 43.862 184.508 44.133 184.602 44.336C184.695 44.534 184.836 44.677 185.023 44.766C185.211 44.854 185.448 44.898 185.734 44.898C186.083 44.898 186.391 44.818 186.656 44.656C186.922 44.495 187.128 44.299 187.273 44.07C187.424 43.841 187.495 43.628 187.484 43.43L187.789 44.078C187.768 44.281 187.701 44.503 187.586 44.742C187.477 44.977 187.323 45.203 187.125 45.422C186.927 45.635 186.693 45.812 186.422 45.953C186.156 46.089 185.857 46.156 185.523 46.156C185.034 46.156 184.604 46.062 184.234 45.875C183.87 45.688 183.586 45.411 183.383 45.047C183.18 44.682 183.078 44.232 183.078 43.695C183.078 43.289 183.148 42.914 183.289 42.57C183.43 42.227 183.638 41.93 183.914 41.68C184.19 41.424 184.536 41.227 184.953 41.086C185.375 40.945 185.862 40.875 186.414 40.875H187.586ZM192.281 38.875V46H190.898V37.547H192.234L192.281 38.875ZM194.383 37.5L194.391 38.844C194.276 38.818 194.172 38.802 194.078 38.797C193.99 38.786 193.885 38.781 193.766 38.781C193.505 38.781 193.276 38.833 193.078 38.938C192.885 39.042 192.719 39.188 192.578 39.375C192.438 39.562 192.326 39.786 192.242 40.047C192.159 40.302 192.102 40.583 192.07 40.891L191.711 41.125C191.711 40.615 191.75 40.135 191.828 39.688C191.911 39.24 192.039 38.844 192.211 38.5C192.383 38.151 192.602 37.88 192.867 37.688C193.138 37.49 193.461 37.391 193.836 37.391C193.919 37.391 194.021 37.404 194.141 37.43C194.266 37.451 194.346 37.474 194.383 37.5ZM198.641 46.156C198.135 46.156 197.68 46.081 197.273 45.93C196.867 45.779 196.521 45.549 196.234 45.242C195.948 44.93 195.729 44.536 195.578 44.062C195.427 43.589 195.352 43.029 195.352 42.383V41.43C195.352 40.685 195.438 40.055 195.609 39.539C195.786 39.023 196.023 38.609 196.32 38.297C196.617 37.979 196.953 37.75 197.328 37.609C197.703 37.464 198.089 37.391 198.484 37.391C199.016 37.391 199.469 37.477 199.844 37.648C200.219 37.82 200.523 38.076 200.758 38.414C200.992 38.753 201.164 39.169 201.273 39.664C201.388 40.159 201.445 40.729 201.445 41.375V42.18H196.164V41H200.062V40.805C200.042 40.367 199.982 39.982 199.883 39.648C199.789 39.315 199.633 39.055 199.414 38.867C199.195 38.674 198.885 38.578 198.484 38.578C198.229 38.578 197.992 38.622 197.773 38.711C197.56 38.794 197.375 38.943 197.219 39.156C197.068 39.365 196.948 39.654 196.859 40.023C196.776 40.393 196.734 40.862 196.734 41.43V42.383C196.734 42.836 196.776 43.227 196.859 43.555C196.948 43.878 197.076 44.146 197.242 44.359C197.414 44.568 197.622 44.724 197.867 44.828C198.117 44.927 198.401 44.977 198.719 44.977C199.182 44.977 199.565 44.888 199.867 44.711C200.169 44.529 200.432 44.297 200.656 44.016L201.383 44.883C201.232 45.096 201.034 45.302 200.789 45.5C200.549 45.693 200.253 45.852 199.898 45.977C199.549 46.096 199.13 46.156 198.641 46.156ZM207.219 43.836C207.219 43.622 207.167 43.435 207.062 43.273C206.958 43.112 206.786 42.956 206.547 42.805C206.312 42.654 205.995 42.492 205.594 42.32C205.203 42.159 204.852 42 204.539 41.844C204.232 41.682 203.971 41.508 203.758 41.32C203.544 41.133 203.38 40.917 203.266 40.672C203.156 40.422 203.102 40.128 203.102 39.789C203.102 39.451 203.164 39.138 203.289 38.852C203.419 38.56 203.602 38.305 203.836 38.086C204.07 37.867 204.352 37.698 204.68 37.578C205.008 37.453 205.375 37.391 205.781 37.391C206.359 37.391 206.852 37.503 207.258 37.727C207.664 37.951 207.974 38.258 208.188 38.648C208.406 39.034 208.516 39.469 208.516 39.953H207.141C207.141 39.719 207.089 39.497 206.984 39.289C206.88 39.081 206.727 38.911 206.523 38.781C206.32 38.646 206.073 38.578 205.781 38.578C205.474 38.578 205.224 38.633 205.031 38.742C204.839 38.852 204.698 38.995 204.609 39.172C204.526 39.344 204.484 39.534 204.484 39.742C204.484 39.898 204.505 40.034 204.547 40.148C204.594 40.258 204.672 40.362 204.781 40.461C204.891 40.555 205.039 40.654 205.227 40.758C205.419 40.857 205.664 40.971 205.961 41.102C206.534 41.326 207.016 41.552 207.406 41.781C207.797 42.01 208.094 42.279 208.297 42.586C208.5 42.893 208.602 43.273 208.602 43.727C208.602 44.096 208.534 44.432 208.398 44.734C208.268 45.031 208.081 45.286 207.836 45.5C207.591 45.714 207.297 45.878 206.953 45.992C206.615 46.102 206.234 46.156 205.812 46.156C205.177 46.156 204.638 46.031 204.195 45.781C203.758 45.526 203.424 45.195 203.195 44.789C202.971 44.378 202.859 43.938 202.859 43.469H204.242C204.258 43.865 204.346 44.172 204.508 44.391C204.674 44.609 204.875 44.76 205.109 44.844C205.344 44.927 205.578 44.969 205.812 44.969C206.12 44.969 206.378 44.924 206.586 44.836C206.794 44.742 206.951 44.609 207.055 44.438C207.164 44.266 207.219 44.065 207.219 43.836Z" fill="black"/>
<path d="M313 29L320.263 33.237C320.976 33.653 320.906 34.706 320.144 35.024L313 38" stroke="#C4C4C4"/>
<path d="M14 56L338 57" stroke="#C4C4C4"/>
</svg>
