<svg width="360" height="275" viewBox="0 0 360 275" fill="none" xmlns="http://www.w3.org/2000/svg">
<rect y="-316" width="360" height="686" fill="white"/>
<path d="M28.9141 5.633L25.8047 16H24.3359L28 4.625H28.9219L28.9141 5.633ZM31.4297 16L28.3203 5.633L28.3047 4.625H29.2344L32.8984 16H31.4297ZM31.4297 11.789V13.023H25.9453V11.789H31.4297ZM36.0703 14.695L37.8828 7.547H39.2891L36.7812 16H35.8672L36.0703 14.695ZM34.6094 7.547L36.5 14.734L36.6484 16H35.7422L33.2031 7.547H34.6094ZM44.7422 14.555V9.96899C44.7422 9.63499 44.6901 9.367 44.5859 9.164C44.487 8.961 44.3359 8.81199 44.1328 8.71899C43.9349 8.62499 43.6849 8.578 43.3828 8.578C43.0911 8.578 42.8385 8.638 42.625 8.758C42.4167 8.878 42.2552 9.03601 42.1406 9.23401C42.0312 9.43201 41.9766 9.65099 41.9766 9.89099H40.5938C40.5938 9.58899 40.6589 9.289 40.7891 8.992C40.9245 8.695 41.1172 8.42699 41.3672 8.18799C41.6172 7.94299 41.9167 7.75001 42.2656 7.60901C42.6198 7.46401 43.0156 7.39099 43.4531 7.39099C43.974 7.39099 44.4349 7.47701 44.8359 7.64801C45.237 7.81501 45.5521 8.08899 45.7812 8.46899C46.0104 8.84899 46.125 9.35401 46.125 9.98401V14.156C46.125 14.438 46.1458 14.737 46.1875 15.055C46.2344 15.372 46.2995 15.646 46.3828 15.875V16H44.9531C44.8854 15.833 44.8333 15.612 44.7969 15.336C44.7604 15.055 44.7422 14.794 44.7422 14.555ZM44.9609 10.875L44.9766 11.891H44.0156C43.6875 11.891 43.388 11.927 43.1172 12C42.8516 12.073 42.6224 12.18 42.4297 12.32C42.237 12.456 42.0885 12.625 41.9844 12.828C41.8854 13.031 41.8359 13.263 41.8359 13.523C41.8359 13.862 41.8828 14.133 41.9766 14.336C42.0703 14.534 42.2109 14.677 42.3984 14.766C42.5859 14.854 42.8229 14.898 43.1094 14.898C43.4583 14.898 43.7656 14.818 44.0312 14.656C44.2969 14.495 44.5026 14.299 44.6484 14.07C44.7995 13.841 44.8698 13.628 44.8594 13.43L45.1641 14.078C45.1432 14.281 45.0755 14.503 44.9609 14.742C44.8516 14.977 44.6979 15.203 44.5 15.422C44.3021 15.635 44.0677 15.812 43.7969 15.953C43.5312 16.089 43.2318 16.156 42.8984 16.156C42.4089 16.156 41.9792 16.062 41.6094 15.875C41.2448 15.688 40.9609 15.411 40.7578 15.047C40.5547 14.682 40.4531 14.232 40.4531 13.695C40.4531 13.289 40.5234 12.914 40.6641 12.57C40.8047 12.227 41.013 11.93 41.2891 11.68C41.5651 11.424 41.9115 11.227 42.3281 11.086C42.75 10.945 43.237 10.875 43.7891 10.875H44.9609ZM49.7578 4V16H48.3828V4H49.7578ZM53.4297 7.547V16H52.0547V7.547H53.4297ZM51.9766 5.30499C51.9766 5.06999 52.0417 4.872 52.1719 4.711C52.3021 4.549 52.4974 4.46899 52.7578 4.46899C53.0182 4.46899 53.2135 4.549 53.3438 4.711C53.4792 4.872 53.5469 5.06999 53.5469 5.30499C53.5469 5.52899 53.4792 5.721 53.3438 5.883C53.2135 6.039 53.0182 6.117 52.7578 6.117C52.4974 6.117 52.3021 6.039 52.1719 5.883C52.0417 5.721 51.9766 5.52899 51.9766 5.30499ZM59.7578 14.555V9.96899C59.7578 9.63499 59.7057 9.367 59.6016 9.164C59.5026 8.961 59.3516 8.81199 59.1484 8.71899C58.9505 8.62499 58.7005 8.578 58.3984 8.578C58.1068 8.578 57.8542 8.638 57.6406 8.758C57.4323 8.878 57.2708 9.03601 57.1562 9.23401C57.0469 9.43201 56.9922 9.65099 56.9922 9.89099H55.6094C55.6094 9.58899 55.6745 9.289 55.8047 8.992C55.9401 8.695 56.1328 8.42699 56.3828 8.18799C56.6328 7.94299 56.9323 7.75001 57.2812 7.60901C57.6354 7.46401 58.0312 7.39099 58.4688 7.39099C58.9896 7.39099 59.4505 7.47701 59.8516 7.64801C60.2526 7.81501 60.5677 8.08899 60.7969 8.46899C61.026 8.84899 61.1406 9.35401 61.1406 9.98401V14.156C61.1406 14.438 61.1615 14.737 61.2031 15.055C61.25 15.372 61.3151 15.646 61.3984 15.875V16H59.9688C59.901 15.833 59.849 15.612 59.8125 15.336C59.776 15.055 59.7578 14.794 59.7578 14.555ZM59.9766 10.875L59.9922 11.891H59.0312C58.7031 11.891 58.4036 11.927 58.1328 12C57.8672 12.073 57.638 12.18 57.4453 12.32C57.2526 12.456 57.1042 12.625 57 12.828C56.901 13.031 56.8516 13.263 56.8516 13.523C56.8516 13.862 56.8984 14.133 56.9922 14.336C57.0859 14.534 57.2266 14.677 57.4141 14.766C57.6016 14.854 57.8385 14.898 58.125 14.898C58.474 14.898 58.7812 14.818 59.0469 14.656C59.3125 14.495 59.5182 14.299 59.6641 14.07C59.8151 13.841 59.8854 13.628 59.875 13.43L60.1797 14.078C60.1589 14.281 60.0911 14.503 59.9766 14.742C59.8672 14.977 59.7135 15.203 59.5156 15.422C59.3177 15.635 59.0833 15.812 58.8125 15.953C58.5469 16.089 58.2474 16.156 57.9141 16.156C57.4245 16.156 56.9948 16.062 56.625 15.875C56.2604 15.688 55.9766 15.411 55.7734 15.047C55.5703 14.682 55.4688 14.232 55.4688 13.695C55.4688 13.289 55.5391 12.914 55.6797 12.57C55.8203 12.227 56.0286 11.93 56.3047 11.68C56.5807 11.424 56.9271 11.227 57.3438 11.086C57.7656 10.945 58.2526 10.875 58.8047 10.875H59.9766ZM66.2188 14.977C66.4948 14.977 66.7448 14.922 66.9688 14.812C67.1979 14.698 67.3854 14.521 67.5312 14.281C67.6771 14.036 67.7604 13.719 67.7812 13.328H69.0781C69.0573 13.891 68.9141 14.385 68.6484 14.812C68.388 15.234 68.0443 15.565 67.6172 15.805C67.1953 16.039 66.7292 16.156 66.2188 16.156C65.6719 16.156 65.1953 16.068 64.7891 15.891C64.388 15.714 64.0547 15.458 63.7891 15.125C63.5286 14.786 63.3333 14.378 63.2031 13.898C63.0729 13.414 63.0078 12.865 63.0078 12.25V11.297C63.0078 10.682 63.0729 10.135 63.2031 9.65601C63.3333 9.17201 63.5286 8.76299 63.7891 8.42999C64.0547 8.09099 64.388 7.83301 64.7891 7.65601C65.1953 7.47901 65.6719 7.39099 66.2188 7.39099C66.7917 7.39099 67.2865 7.513 67.7031 7.758C68.125 7.997 68.4531 8.34599 68.6875 8.80499C68.9271 9.25799 69.0573 9.807 69.0781 10.453H67.7812C67.7604 10.036 67.6849 9.69 67.5547 9.414C67.4245 9.133 67.2474 8.924 67.0234 8.789C66.7995 8.648 66.5312 8.578 66.2188 8.578C65.8542 8.578 65.5521 8.64301 65.3125 8.77301C65.0781 8.89801 64.8932 9.08101 64.7578 9.32001C64.6224 9.56001 64.526 9.84599 64.4688 10.18C64.4167 10.513 64.3906 10.885 64.3906 11.297V12.25C64.3906 12.661 64.4167 13.036 64.4688 13.375C64.526 13.708 64.6198 13.995 64.75 14.234C64.8854 14.474 65.0729 14.659 65.3125 14.789C65.5521 14.914 65.8542 14.977 66.2188 14.977ZM65.4375 16.078H66.4062L66.3281 16.492C66.5729 16.544 66.7943 16.669 66.9922 16.867C67.1953 17.065 67.2969 17.391 67.2969 17.844C67.2969 18.089 67.2552 18.31 67.1719 18.508C67.0885 18.711 66.9609 18.883 66.7891 19.023C66.6224 19.169 66.4141 19.281 66.1641 19.359C65.9141 19.438 65.6224 19.477 65.2891 19.477L65.2422 18.641C65.4401 18.641 65.612 18.615 65.7578 18.562C65.9089 18.51 66.026 18.427 66.1094 18.312C66.1979 18.198 66.2422 18.049 66.2422 17.867C66.2422 17.695 66.2057 17.56 66.1328 17.461C66.0651 17.362 65.9557 17.286 65.8047 17.234C65.6589 17.188 65.4635 17.154 65.2188 17.133L65.4375 16.078ZM74.8203 14.555V9.96899C74.8203 9.63499 74.7682 9.367 74.6641 9.164C74.5651 8.961 74.4141 8.81199 74.2109 8.71899C74.013 8.62499 73.763 8.578 73.4609 8.578C73.1693 8.578 72.9167 8.638 72.7031 8.758C72.4948 8.878 72.3333 9.03601 72.2188 9.23401C72.1094 9.43201 72.0547 9.65099 72.0547 9.89099H70.6719C70.6719 9.58899 70.737 9.289 70.8672 8.992C71.0026 8.695 71.1953 8.42699 71.4453 8.18799C71.6953 7.94299 71.9948 7.75001 72.3438 7.60901C72.6979 7.46401 73.0938 7.39099 73.5312 7.39099C74.0521 7.39099 74.513 7.47701 74.9141 7.64801C75.3151 7.81501 75.6302 8.08899 75.8594 8.46899C76.0885 8.84899 76.2031 9.35401 76.2031 9.98401V14.156C76.2031 14.438 76.224 14.737 76.2656 15.055C76.3125 15.372 76.3776 15.646 76.4609 15.875V16H75.0312C74.9635 15.833 74.9115 15.612 74.875 15.336C74.8385 15.055 74.8203 14.794 74.8203 14.555ZM75.0391 10.875L75.0547 11.891H74.0938C73.7656 11.891 73.4661 11.927 73.1953 12C72.9297 12.073 72.7005 12.18 72.5078 12.32C72.3151 12.456 72.1667 12.625 72.0625 12.828C71.9635 13.031 71.9141 13.263 71.9141 13.523C71.9141 13.862 71.9609 14.133 72.0547 14.336C72.1484 14.534 72.2891 14.677 72.4766 14.766C72.6641 14.854 72.901 14.898 73.1875 14.898C73.5365 14.898 73.8438 14.818 74.1094 14.656C74.375 14.495 74.5807 14.299 74.7266 14.07C74.8776 13.841 74.9479 13.628 74.9375 13.43L75.2422 14.078C75.2214 14.281 75.1536 14.503 75.0391 14.742C74.9297 14.977 74.776 15.203 74.5781 15.422C74.3802 15.635 74.1458 15.812 73.875 15.953C73.6094 16.089 73.3099 16.156 72.9766 16.156C72.487 16.156 72.0573 16.062 71.6875 15.875C71.3229 15.688 71.0391 15.411 70.8359 15.047C70.6328 14.682 70.5312 14.232 70.5312 13.695C70.5312 13.289 70.6016 12.914 70.7422 12.57C70.8828 12.227 71.0911 11.93 71.3672 11.68C71.6432 11.424 71.9896 11.227 72.4062 11.086C72.8281 10.945 73.3151 10.875 73.8672 10.875H75.0391ZM75.0781 4.15601L75.9766 4.242C75.9766 4.622 75.9115 4.956 75.7812 5.242C75.651 5.529 75.474 5.75001 75.25 5.90601C75.0312 6.06201 74.7865 6.14099 74.5156 6.14099C74.2969 6.14099 74.1146 6.10401 73.9688 6.03101C73.8229 5.95301 73.6927 5.86701 73.5781 5.77301C73.4688 5.67401 73.3516 5.58899 73.2266 5.51599C73.1068 5.43799 72.9557 5.39801 72.7734 5.39801C72.5964 5.39801 72.4479 5.48201 72.3281 5.64801C72.2083 5.81501 72.1484 6.02099 72.1484 6.26599L71.25 6.21899C71.25 5.83899 71.3125 5.50499 71.4375 5.21899C71.5677 4.92699 71.7422 4.701 71.9609 4.539C72.1849 4.372 72.4323 4.289 72.7031 4.289C72.8854 4.289 73.0469 4.32801 73.1875 4.40601C73.3281 4.47901 73.4609 4.565 73.5859 4.664C73.7109 4.758 73.8411 4.844 73.9766 4.922C74.1172 4.995 74.2734 5.03101 74.4453 5.03101C74.6224 5.03101 74.7708 4.94801 74.8906 4.78101C75.0156 4.60901 75.0781 4.40101 75.0781 4.15601ZM78.0625 12.18V11.375C78.0625 10.719 78.1458 10.143 78.3125 9.64801C78.4792 9.14801 78.7109 8.73201 79.0078 8.39801C79.3047 8.06501 79.651 7.81501 80.0469 7.64801C80.4427 7.47701 80.8672 7.39099 81.3203 7.39099C81.7839 7.39099 82.2135 7.47701 82.6094 7.64801C83.0052 7.81501 83.3516 8.06501 83.6484 8.39801C83.9505 8.73201 84.1849 9.14801 84.3516 9.64801C84.5182 10.143 84.6016 10.719 84.6016 11.375V12.18C84.6016 12.836 84.5182 13.414 84.3516 13.914C84.1849 14.409 83.9531 14.823 83.6562 15.156C83.3594 15.49 83.013 15.74 82.6172 15.906C82.2214 16.073 81.7943 16.156 81.3359 16.156C80.8776 16.156 80.4505 16.073 80.0547 15.906C79.6589 15.74 79.3099 15.49 79.0078 15.156C78.7109 14.823 78.4792 14.409 78.3125 13.914C78.1458 13.414 78.0625 12.836 78.0625 12.18ZM79.4453 11.375V12.18C79.4453 12.643 79.4922 13.049 79.5859 13.398C79.6797 13.747 79.8125 14.039 79.9844 14.273C80.1562 14.508 80.3568 14.685 80.5859 14.805C80.8151 14.919 81.0651 14.977 81.3359 14.977C81.6484 14.977 81.9219 14.919 82.1562 14.805C82.3958 14.685 82.5938 14.508 82.75 14.273C82.9062 14.039 83.0234 13.747 83.1016 13.398C83.1797 13.049 83.2188 12.643 83.2188 12.18V11.375C83.2188 10.911 83.1719 10.508 83.0781 10.164C82.9844 9.815 82.8516 9.523 82.6797 9.289C82.5078 9.049 82.3047 8.872 82.0703 8.758C81.8411 8.638 81.5911 8.578 81.3203 8.578C81.0547 8.578 80.8073 8.638 80.5781 8.758C80.349 8.872 80.1484 9.049 79.9766 9.289C79.8099 9.523 79.6797 9.815 79.5859 10.164C79.4922 10.508 79.4453 10.911 79.4453 11.375ZM94.4844 14.359V4H95.8594V16H94.6016L94.4844 14.359ZM89.7578 12.18V11.391C89.7578 10.693 89.8255 10.094 89.9609 9.59399C90.0964 9.08899 90.2891 8.67399 90.5391 8.35199C90.7891 8.02299 91.0885 7.781 91.4375 7.625C91.7865 7.469 92.1719 7.39099 92.5938 7.39099C93.0312 7.39099 93.4062 7.47901 93.7188 7.65601C94.0365 7.83301 94.3021 8.09099 94.5156 8.42999C94.7292 8.76299 94.8958 9.16901 95.0156 9.64801C95.1406 10.122 95.224 10.659 95.2656 11.258V12.312C95.2188 12.906 95.1328 13.44 95.0078 13.914C94.888 14.388 94.7214 14.792 94.5078 15.125C94.2943 15.458 94.0286 15.714 93.7109 15.891C93.3932 16.068 93.0156 16.156 92.5781 16.156C92.1615 16.156 91.7812 16.076 91.4375 15.914C91.0938 15.747 90.7943 15.5 90.5391 15.172C90.2891 14.839 90.0964 14.424 89.9609 13.93C89.8255 13.43 89.7578 12.846 89.7578 12.18ZM91.1406 11.391V12.18C91.1406 12.648 91.1745 13.057 91.2422 13.406C91.3099 13.75 91.4167 14.036 91.5625 14.266C91.7083 14.49 91.8932 14.656 92.1172 14.766C92.3464 14.875 92.6198 14.93 92.9375 14.93C93.3229 14.93 93.638 14.836 93.8828 14.648C94.1276 14.461 94.3229 14.214 94.4688 13.906C94.6198 13.594 94.7396 13.258 94.8281 12.898V10.68C94.776 10.414 94.7005 10.159 94.6016 9.914C94.5026 9.664 94.3776 9.443 94.2266 9.25C94.0807 9.052 93.901 8.89601 93.6875 8.78101C93.4792 8.66701 93.2344 8.60901 92.9531 8.60901C92.6354 8.60901 92.3594 8.66701 92.125 8.78101C91.8958 8.89601 91.7083 9.068 91.5625 9.297C91.4219 9.526 91.3151 9.815 91.2422 10.164C91.1745 10.513 91.1406 10.922 91.1406 11.391ZM101.016 16.156C100.51 16.156 100.055 16.081 99.6484 15.93C99.2422 15.779 98.8958 15.549 98.6094 15.242C98.3229 14.93 98.1042 14.536 97.9531 14.062C97.8021 13.589 97.7266 13.029 97.7266 12.383V11.43C97.7266 10.685 97.8125 10.055 97.9844 9.539C98.1615 9.023 98.3984 8.609 98.6953 8.297C98.9922 7.979 99.3281 7.75001 99.7031 7.60901C100.078 7.46401 100.464 7.39099 100.859 7.39099C101.391 7.39099 101.844 7.47701 102.219 7.64801C102.594 7.82001 102.898 8.076 103.133 8.414C103.367 8.753 103.539 9.169 103.648 9.664C103.763 10.159 103.82 10.729 103.82 11.375V12.18H98.5391V11H102.438V10.805C102.417 10.367 102.357 9.98201 102.258 9.64801C102.164 9.31501 102.008 9.055 101.789 8.867C101.57 8.674 101.26 8.578 100.859 8.578C100.604 8.578 100.367 8.622 100.148 8.711C99.9349 8.794 99.75 8.94301 99.5938 9.15601C99.4427 9.36501 99.3229 9.65401 99.2344 10.023C99.151 10.393 99.1094 10.862 99.1094 11.43V12.383C99.1094 12.836 99.151 13.227 99.2344 13.555C99.3229 13.878 99.4505 14.146 99.6172 14.359C99.7891 14.568 99.9974 14.724 100.242 14.828C100.492 14.927 100.776 14.977 101.094 14.977C101.557 14.977 101.94 14.888 102.242 14.711C102.544 14.529 102.807 14.297 103.031 14.016L103.758 14.883C103.607 15.096 103.409 15.302 103.164 15.5C102.924 15.693 102.628 15.852 102.273 15.977C101.924 16.096 101.505 16.156 101.016 16.156ZM113.305 14.555V9.96899C113.305 9.63499 113.253 9.367 113.148 9.164C113.049 8.961 112.898 8.81199 112.695 8.71899C112.497 8.62499 112.247 8.578 111.945 8.578C111.654 8.578 111.401 8.638 111.188 8.758C110.979 8.878 110.818 9.03601 110.703 9.23401C110.594 9.43201 110.539 9.65099 110.539 9.89099H109.156C109.156 9.58899 109.221 9.289 109.352 8.992C109.487 8.695 109.68 8.42699 109.93 8.18799C110.18 7.94299 110.479 7.75001 110.828 7.60901C111.182 7.46401 111.578 7.39099 112.016 7.39099C112.536 7.39099 112.997 7.47701 113.398 7.64801C113.799 7.81501 114.115 8.08899 114.344 8.46899C114.573 8.84899 114.688 9.35401 114.688 9.98401V14.156C114.688 14.438 114.708 14.737 114.75 15.055C114.797 15.372 114.862 15.646 114.945 15.875V16H113.516C113.448 15.833 113.396 15.612 113.359 15.336C113.323 15.055 113.305 14.794 113.305 14.555ZM113.523 10.875L113.539 11.891H112.578C112.25 11.891 111.951 11.927 111.68 12C111.414 12.073 111.185 12.18 110.992 12.32C110.799 12.456 110.651 12.625 110.547 12.828C110.448 13.031 110.398 13.263 110.398 13.523C110.398 13.862 110.445 14.133 110.539 14.336C110.633 14.534 110.773 14.677 110.961 14.766C111.148 14.854 111.385 14.898 111.672 14.898C112.021 14.898 112.328 14.818 112.594 14.656C112.859 14.495 113.065 14.299 113.211 14.07C113.362 13.841 113.432 13.628 113.422 13.43L113.727 14.078C113.706 14.281 113.638 14.503 113.523 14.742C113.414 14.977 113.26 15.203 113.062 15.422C112.865 15.635 112.63 15.812 112.359 15.953C112.094 16.089 111.794 16.156 111.461 16.156C110.971 16.156 110.542 16.062 110.172 15.875C109.807 15.688 109.523 15.411 109.32 15.047C109.117 14.682 109.016 14.232 109.016 13.695C109.016 13.289 109.086 12.914 109.227 12.57C109.367 12.227 109.576 11.93 109.852 11.68C110.128 11.424 110.474 11.227 110.891 11.086C111.312 10.945 111.799 10.875 112.352 10.875H113.523ZM118.32 4V16H116.945V4H118.32ZM121.992 7.547V16H120.617V7.547H121.992ZM120.539 5.30499C120.539 5.06999 120.604 4.872 120.734 4.711C120.865 4.549 121.06 4.46899 121.32 4.46899C121.581 4.46899 121.776 4.549 121.906 4.711C122.042 4.872 122.109 5.06999 122.109 5.30499C122.109 5.52899 122.042 5.721 121.906 5.883C121.776 6.039 121.581 6.117 121.32 6.117C121.06 6.117 120.865 6.039 120.734 5.883C120.604 5.721 120.539 5.52899 120.539 5.30499ZM125.562 9.22699V16H124.188V7.547H125.484L125.562 9.22699ZM125.281 11.453L124.641 11.43C124.635 10.852 124.693 10.318 124.812 9.828C124.932 9.333 125.112 8.904 125.352 8.539C125.596 8.174 125.901 7.89301 126.266 7.69501C126.635 7.49201 127.065 7.39099 127.555 7.39099C127.878 7.39099 128.177 7.44801 128.453 7.56201C128.734 7.67201 128.979 7.846 129.188 8.086C129.396 8.326 129.557 8.633 129.672 9.008C129.792 9.383 129.852 9.836 129.852 10.367V16H128.469V10.438C128.469 9.99499 128.409 9.641 128.289 9.375C128.174 9.109 128.01 8.917 127.797 8.797C127.583 8.672 127.328 8.60901 127.031 8.60901C126.693 8.60901 126.409 8.685 126.18 8.836C125.956 8.987 125.776 9.195 125.641 9.461C125.51 9.727 125.417 10.031 125.359 10.375C125.307 10.714 125.281 11.073 125.281 11.453ZM129.836 10.656L128.914 10.953C128.909 10.49 128.966 10.044 129.086 9.617C129.206 9.19 129.383 8.80999 129.617 8.47699C129.857 8.14299 130.154 7.87999 130.508 7.68799C130.862 7.48999 131.273 7.39099 131.742 7.39099C132.128 7.39099 132.469 7.45101 132.766 7.57001C133.062 7.69001 133.312 7.875 133.516 8.125C133.724 8.37 133.88 8.68501 133.984 9.07001C134.089 9.45601 134.141 9.91401 134.141 10.445V16H132.758V10.43C132.758 9.95599 132.698 9.589 132.578 9.328C132.464 9.062 132.299 8.87801 132.086 8.77301C131.872 8.66401 131.617 8.60901 131.32 8.60901C131.081 8.60901 130.867 8.66401 130.68 8.77301C130.497 8.88301 130.344 9.03399 130.219 9.22699C130.094 9.41399 129.997 9.63 129.93 9.875C129.867 10.12 129.836 10.38 129.836 10.656ZM139.25 16.156C138.745 16.156 138.289 16.081 137.883 15.93C137.477 15.779 137.13 15.549 136.844 15.242C136.557 14.93 136.339 14.536 136.188 14.062C136.036 13.589 135.961 13.029 135.961 12.383V11.43C135.961 10.685 136.047 10.055 136.219 9.539C136.396 9.023 136.633 8.609 136.93 8.297C137.227 7.979 137.562 7.75001 137.938 7.60901C138.312 7.46401 138.698 7.39099 139.094 7.39099C139.625 7.39099 140.078 7.47701 140.453 7.64801C140.828 7.82001 141.133 8.076 141.367 8.414C141.602 8.753 141.773 9.169 141.883 9.664C141.997 10.159 142.055 10.729 142.055 11.375V12.18H136.773V11H140.672V10.805C140.651 10.367 140.591 9.98201 140.492 9.64801C140.398 9.31501 140.242 9.055 140.023 8.867C139.805 8.674 139.495 8.578 139.094 8.578C138.839 8.578 138.602 8.622 138.383 8.711C138.169 8.794 137.984 8.94301 137.828 9.15601C137.677 9.36501 137.557 9.65401 137.469 10.023C137.385 10.393 137.344 10.862 137.344 11.43V12.383C137.344 12.836 137.385 13.227 137.469 13.555C137.557 13.878 137.685 14.146 137.852 14.359C138.023 14.568 138.232 14.724 138.477 14.828C138.727 14.927 139.01 14.977 139.328 14.977C139.792 14.977 140.174 14.888 140.477 14.711C140.779 14.529 141.042 14.297 141.266 14.016L141.992 14.883C141.841 15.096 141.643 15.302 141.398 15.5C141.159 15.693 140.862 15.852 140.508 15.977C140.159 16.096 139.74 16.156 139.25 16.156ZM145.109 9.35199V16H143.727V7.547H145.031L145.109 9.35199ZM144.773 11.453L144.211 11.43C144.206 10.852 144.271 10.318 144.406 9.828C144.547 9.333 144.745 8.904 145 8.539C145.26 8.174 145.57 7.89301 145.93 7.69501C146.289 7.49201 146.688 7.39099 147.125 7.39099C147.469 7.39099 147.781 7.44801 148.062 7.56201C148.344 7.67201 148.583 7.84899 148.781 8.09399C148.979 8.33899 149.13 8.656 149.234 9.047C149.344 9.432 149.398 9.904 149.398 10.461V16H148.016V10.445C148.016 10.003 147.966 9.648 147.867 9.383C147.773 9.112 147.628 8.917 147.43 8.797C147.237 8.672 146.992 8.60901 146.695 8.60901C146.424 8.60901 146.172 8.685 145.938 8.836C145.703 8.987 145.497 9.195 145.32 9.461C145.148 9.727 145.013 10.031 144.914 10.375C144.82 10.714 144.773 11.073 144.773 11.453ZM154.562 7.547V8.65601H150.617V7.547H154.562ZM151.906 5.492H153.289V13.906C153.289 14.193 153.323 14.409 153.391 14.555C153.464 14.701 153.555 14.797 153.664 14.844C153.773 14.891 153.891 14.914 154.016 14.914C154.109 14.914 154.214 14.904 154.328 14.883C154.443 14.857 154.521 14.836 154.562 14.82L154.555 16C154.461 16.036 154.336 16.07 154.18 16.102C154.023 16.138 153.826 16.156 153.586 16.156C153.289 16.156 153.013 16.086 152.758 15.945C152.503 15.805 152.297 15.57 152.141 15.242C151.984 14.909 151.906 14.461 151.906 13.898V5.492ZM155.766 12.18V11.375C155.766 10.719 155.849 10.143 156.016 9.64801C156.182 9.14801 156.414 8.73201 156.711 8.39801C157.008 8.06501 157.354 7.81501 157.75 7.64801C158.146 7.47701 158.57 7.39099 159.023 7.39099C159.487 7.39099 159.917 7.47701 160.312 7.64801C160.708 7.81501 161.055 8.06501 161.352 8.39801C161.654 8.73201 161.888 9.14801 162.055 9.64801C162.221 10.143 162.305 10.719 162.305 11.375V12.18C162.305 12.836 162.221 13.414 162.055 13.914C161.888 14.409 161.656 14.823 161.359 15.156C161.062 15.49 160.716 15.74 160.32 15.906C159.924 16.073 159.497 16.156 159.039 16.156C158.581 16.156 158.154 16.073 157.758 15.906C157.362 15.74 157.013 15.49 156.711 15.156C156.414 14.823 156.182 14.409 156.016 13.914C155.849 13.414 155.766 12.836 155.766 12.18ZM157.148 11.375V12.18C157.148 12.643 157.195 13.049 157.289 13.398C157.383 13.747 157.516 14.039 157.688 14.273C157.859 14.508 158.06 14.685 158.289 14.805C158.518 14.919 158.768 14.977 159.039 14.977C159.352 14.977 159.625 14.919 159.859 14.805C160.099 14.685 160.297 14.508 160.453 14.273C160.609 14.039 160.727 13.747 160.805 13.398C160.883 13.049 160.922 12.643 160.922 12.18V11.375C160.922 10.911 160.875 10.508 160.781 10.164C160.688 9.815 160.555 9.523 160.383 9.289C160.211 9.049 160.008 8.872 159.773 8.758C159.544 8.638 159.294 8.578 159.023 8.578C158.758 8.578 158.51 8.638 158.281 8.758C158.052 8.872 157.852 9.049 157.68 9.289C157.513 9.523 157.383 9.815 157.289 10.164C157.195 10.508 157.148 10.911 157.148 11.375ZM168.188 13.836C168.188 13.622 168.135 13.435 168.031 13.273C167.927 13.112 167.755 12.956 167.516 12.805C167.281 12.654 166.964 12.492 166.562 12.32C166.172 12.159 165.82 12 165.508 11.844C165.201 11.682 164.94 11.508 164.727 11.32C164.513 11.133 164.349 10.917 164.234 10.672C164.125 10.422 164.07 10.128 164.07 9.789C164.07 9.451 164.133 9.13799 164.258 8.85199C164.388 8.55999 164.57 8.305 164.805 8.086C165.039 7.867 165.32 7.698 165.648 7.578C165.977 7.453 166.344 7.39099 166.75 7.39099C167.328 7.39099 167.82 7.50299 168.227 7.72699C168.633 7.95099 168.943 8.25801 169.156 8.64801C169.375 9.03401 169.484 9.469 169.484 9.953H168.109C168.109 9.719 168.057 9.497 167.953 9.289C167.849 9.081 167.695 8.91101 167.492 8.78101C167.289 8.64601 167.042 8.578 166.75 8.578C166.443 8.578 166.193 8.633 166 8.742C165.807 8.852 165.667 8.995 165.578 9.172C165.495 9.344 165.453 9.534 165.453 9.742C165.453 9.898 165.474 10.034 165.516 10.148C165.562 10.258 165.641 10.362 165.75 10.461C165.859 10.555 166.008 10.654 166.195 10.758C166.388 10.857 166.633 10.971 166.93 11.102C167.503 11.326 167.984 11.552 168.375 11.781C168.766 12.01 169.062 12.279 169.266 12.586C169.469 12.893 169.57 13.273 169.57 13.727C169.57 14.096 169.503 14.432 169.367 14.734C169.237 15.031 169.049 15.286 168.805 15.5C168.56 15.714 168.266 15.878 167.922 15.992C167.583 16.102 167.203 16.156 166.781 16.156C166.146 16.156 165.607 16.031 165.164 15.781C164.727 15.526 164.393 15.195 164.164 14.789C163.94 14.378 163.828 13.938 163.828 13.469H165.211C165.227 13.865 165.315 14.172 165.477 14.391C165.643 14.609 165.844 14.76 166.078 14.844C166.312 14.927 166.547 14.969 166.781 14.969C167.089 14.969 167.346 14.924 167.555 14.836C167.763 14.742 167.919 14.609 168.023 14.438C168.133 14.266 168.188 14.065 168.188 13.836Z" fill="black"/>
<path d="M28.4941 25.577L25.4346 34H24.1841L27.707 24.758H28.5132L28.4941 25.577ZM31.0586 34L27.9927 25.577L27.9736 24.758H28.7798L32.3154 34H31.0586ZM30.8999 30.579V31.582H25.7075V30.579H30.8999ZM35.1465 32.94L37.0254 27.132H38.2251L35.7559 34H34.9688L35.1465 32.94ZM33.5786 27.132L35.5146 32.972L35.6479 34H34.8608L32.3726 27.132H33.5786ZM43.3032 32.826V29.29C43.3032 29.019 43.2482 28.784 43.1382 28.585C43.0324 28.382 42.8716 28.226 42.6558 28.116C42.4399 28.006 42.1733 27.951 41.856 27.951C41.5597 27.951 41.2995 28.001 41.0752 28.103C40.8551 28.205 40.6816 28.338 40.5547 28.503C40.432 28.668 40.3706 28.846 40.3706 29.036H39.1963C39.1963 28.791 39.2598 28.547 39.3867 28.306C39.5137 28.065 39.6956 27.847 39.9326 27.652C40.1738 27.453 40.4616 27.297 40.7959 27.183C41.1344 27.064 41.5111 27.005 41.9258 27.005C42.4251 27.005 42.8652 27.09 43.2461 27.259C43.6312 27.428 43.9316 27.684 44.1475 28.027C44.3675 28.365 44.4775 28.791 44.4775 29.303V32.502C44.4775 32.73 44.4966 32.974 44.5347 33.232C44.577 33.49 44.6383 33.712 44.7188 33.898V34H43.4937C43.4344 33.865 43.3879 33.685 43.354 33.46C43.3201 33.232 43.3032 33.02 43.3032 32.826ZM43.5063 29.836L43.519 30.661H42.332C41.9977 30.661 41.6994 30.689 41.437 30.744C41.1746 30.794 40.9546 30.873 40.7769 30.979C40.5991 31.084 40.4637 31.218 40.3706 31.378C40.2775 31.535 40.231 31.719 40.231 31.931C40.231 32.146 40.2796 32.343 40.377 32.521C40.4743 32.699 40.6203 32.84 40.8149 32.946C41.0138 33.048 41.2572 33.099 41.5449 33.099C41.9046 33.099 42.222 33.022 42.4971 32.87C42.7721 32.718 42.9901 32.532 43.1509 32.312C43.3159 32.091 43.4048 31.878 43.4175 31.67L43.9189 32.235C43.8893 32.413 43.8089 32.61 43.6777 32.826C43.5465 33.042 43.3709 33.249 43.1509 33.448C42.9351 33.642 42.6769 33.805 42.3765 33.937C42.0802 34.063 41.7459 34.127 41.3735 34.127C40.908 34.127 40.4997 34.036 40.1484 33.854C39.8014 33.672 39.5306 33.429 39.3359 33.124C39.1455 32.815 39.0503 32.47 39.0503 32.089C39.0503 31.721 39.1222 31.397 39.2661 31.118C39.41 30.835 39.6174 30.6 39.8882 30.414C40.159 30.223 40.4849 30.079 40.8657 29.982C41.2466 29.885 41.6719 29.836 42.1416 29.836H43.5063ZM47.6006 24.25V34H46.4199V24.25H47.6006ZM50.7617 27.132V34H49.5811V27.132H50.7617ZM49.4922 25.31C49.4922 25.12 49.5493 24.959 49.6636 24.828C49.7821 24.696 49.9556 24.631 50.1841 24.631C50.4084 24.631 50.5798 24.696 50.6982 24.828C50.821 24.959 50.8823 25.12 50.8823 25.31C50.8823 25.492 50.821 25.649 50.6982 25.78C50.5798 25.907 50.4084 25.97 50.1841 25.97C49.9556 25.97 49.7821 25.907 49.6636 25.78C49.5493 25.649 49.4922 25.492 49.4922 25.31ZM55.4971 34.127C55.0189 34.127 54.5851 34.047 54.1958 33.886C53.8107 33.721 53.4785 33.49 53.1992 33.194C52.9242 32.898 52.7126 32.546 52.5645 32.14C52.4163 31.734 52.3423 31.29 52.3423 30.807V30.541C52.3423 29.982 52.4248 29.485 52.5898 29.049C52.7549 28.609 52.9792 28.236 53.2627 27.932C53.5462 27.627 53.8678 27.396 54.2275 27.24C54.5872 27.083 54.9596 27.005 55.3447 27.005C55.8356 27.005 56.2588 27.09 56.6143 27.259C56.974 27.428 57.2681 27.665 57.4966 27.97C57.7251 28.27 57.8944 28.626 58.0044 29.036C58.1144 29.442 58.1694 29.887 58.1694 30.369V30.896H53.0405V29.938H56.9951V29.849C56.9782 29.544 56.9147 29.248 56.8047 28.96C56.6989 28.672 56.5296 28.435 56.2969 28.249C56.0641 28.063 55.7467 27.97 55.3447 27.97C55.0781 27.97 54.8327 28.027 54.6084 28.141C54.3841 28.251 54.1916 28.416 54.0308 28.636C53.87 28.856 53.7451 29.125 53.6562 29.442C53.5674 29.76 53.5229 30.126 53.5229 30.541V30.807C53.5229 31.133 53.5674 31.44 53.6562 31.728C53.7493 32.011 53.8826 32.261 54.0562 32.477C54.2339 32.692 54.4476 32.862 54.6973 32.984C54.9512 33.107 55.2389 33.168 55.5605 33.168C55.9753 33.168 56.3265 33.084 56.6143 32.915C56.902 32.745 57.1538 32.519 57.3696 32.235L58.0806 32.8C57.9325 33.025 57.7441 33.238 57.5156 33.441C57.2871 33.645 57.0057 33.81 56.6714 33.937C56.3413 34.063 55.9499 34.127 55.4971 34.127ZM62.4541 30.642V30.496C62.4541 30.001 62.526 29.542 62.6699 29.119C62.8138 28.691 63.0212 28.321 63.292 28.008C63.5628 27.69 63.8908 27.445 64.2759 27.271C64.661 27.094 65.0926 27.005 65.5708 27.005C66.0532 27.005 66.487 27.094 66.8721 27.271C67.2614 27.445 67.5915 27.69 67.8623 28.008C68.1374 28.321 68.3468 28.691 68.4907 29.119C68.6346 29.542 68.7065 30.001 68.7065 30.496V30.642C68.7065 31.137 68.6346 31.596 68.4907 32.02C68.3468 32.443 68.1374 32.813 67.8623 33.13C67.5915 33.444 67.2635 33.689 66.8784 33.867C66.4976 34.04 66.0659 34.127 65.5835 34.127C65.1011 34.127 64.6673 34.04 64.2822 33.867C63.8971 33.689 63.5671 33.444 63.292 33.13C63.0212 32.813 62.8138 32.443 62.6699 32.02C62.526 31.596 62.4541 31.137 62.4541 30.642ZM63.6284 30.496V30.642C63.6284 30.985 63.6686 31.309 63.749 31.613C63.8294 31.914 63.95 32.18 64.1108 32.413C64.2759 32.646 64.4811 32.83 64.7266 32.965C64.972 33.097 65.2576 33.162 65.5835 33.162C65.9051 33.162 66.1865 33.097 66.4277 32.965C66.6732 32.83 66.8763 32.646 67.0371 32.413C67.1979 32.18 67.3185 31.914 67.3989 31.613C67.4836 31.309 67.5259 30.985 67.5259 30.642V30.496C67.5259 30.158 67.4836 29.838 67.3989 29.538C67.3185 29.233 67.1958 28.964 67.0308 28.731C66.87 28.494 66.6668 28.308 66.4214 28.173C66.1802 28.037 65.8966 27.97 65.5708 27.97C65.2492 27.97 64.9657 28.037 64.7202 28.173C64.479 28.308 64.2759 28.494 64.1108 28.731C63.95 28.964 63.8294 29.233 63.749 29.538C63.6686 29.838 63.6284 30.158 63.6284 30.496ZM74.3813 32.413V27.132H75.562V34H74.4385L74.3813 32.413ZM74.6035 30.966L75.0923 30.953C75.0923 31.41 75.0436 31.833 74.9463 32.223C74.8532 32.608 74.7008 32.942 74.4893 33.226C74.2777 33.509 74.0005 33.731 73.6577 33.892C73.3149 34.049 72.8981 34.127 72.4072 34.127C72.0729 34.127 71.7661 34.078 71.4868 33.981C71.2118 33.884 70.9748 33.733 70.7759 33.53C70.577 33.327 70.4225 33.063 70.3125 32.737C70.2067 32.411 70.1538 32.02 70.1538 31.562V27.132H71.3281V31.575C71.3281 31.884 71.362 32.14 71.4297 32.343C71.5016 32.542 71.5968 32.701 71.7153 32.819C71.8381 32.934 71.9735 33.014 72.1216 33.061C72.2739 33.107 72.4305 33.13 72.5913 33.13C73.0907 33.13 73.4863 33.035 73.7783 32.845C74.0703 32.65 74.2798 32.39 74.4067 32.064C74.5379 31.734 74.6035 31.368 74.6035 30.966ZM83.3252 33.162C83.6045 33.162 83.8626 33.105 84.0996 32.991C84.3366 32.876 84.5312 32.72 84.6836 32.521C84.8359 32.318 84.9227 32.087 84.9438 31.829H86.061C86.0399 32.235 85.9023 32.614 85.6484 32.965C85.3988 33.312 85.0708 33.594 84.6646 33.81C84.2583 34.021 83.8118 34.127 83.3252 34.127C82.8089 34.127 82.3582 34.036 81.9731 33.854C81.5923 33.672 81.2749 33.422 81.021 33.105C80.7713 32.788 80.583 32.424 80.4561 32.013C80.3333 31.598 80.272 31.16 80.272 30.699V30.433C80.272 29.971 80.3333 29.535 80.4561 29.125C80.583 28.71 80.7713 28.344 81.021 28.027C81.2749 27.709 81.5923 27.46 81.9731 27.278C82.3582 27.096 82.8089 27.005 83.3252 27.005C83.8626 27.005 84.3324 27.115 84.7344 27.335C85.1364 27.551 85.4517 27.847 85.6802 28.224C85.9129 28.596 86.0399 29.019 86.061 29.493H84.9438C84.9227 29.21 84.8423 28.954 84.7026 28.725C84.5672 28.497 84.381 28.315 84.144 28.179C83.9113 28.04 83.6383 27.97 83.3252 27.97C82.9655 27.97 82.6629 28.042 82.4175 28.186C82.1763 28.325 81.9837 28.516 81.8398 28.757C81.7002 28.994 81.5986 29.258 81.5352 29.55C81.4759 29.838 81.4463 30.132 81.4463 30.433V30.699C81.4463 31 81.4759 31.296 81.5352 31.588C81.5944 31.88 81.6938 32.144 81.8335 32.381C81.9774 32.618 82.1699 32.809 82.4111 32.953C82.6566 33.092 82.9613 33.162 83.3252 33.162ZM91.5835 32.413V27.132H92.7642V34H91.6406L91.5835 32.413ZM91.8057 30.966L92.2944 30.953C92.2944 31.41 92.2458 31.833 92.1484 32.223C92.0553 32.608 91.903 32.942 91.6914 33.226C91.4798 33.509 91.2026 33.731 90.8599 33.892C90.5171 34.049 90.1003 34.127 89.6094 34.127C89.2751 34.127 88.9683 34.078 88.689 33.981C88.4139 33.884 88.1769 33.733 87.978 33.53C87.7791 33.327 87.6247 33.063 87.5146 32.737C87.4089 32.411 87.356 32.02 87.356 31.562V27.132H88.5303V31.575C88.5303 31.884 88.5641 32.14 88.6318 32.343C88.7038 32.542 88.799 32.701 88.9175 32.819C89.0402 32.934 89.1756 33.014 89.3237 33.061C89.4761 33.107 89.6326 33.13 89.7935 33.13C90.2928 33.13 90.6885 33.035 90.9805 32.845C91.2725 32.65 91.4819 32.39 91.6089 32.064C91.7401 31.734 91.8057 31.368 91.8057 30.966ZM95.7285 28.211V34H94.5542V27.132H95.6968L95.7285 28.211ZM97.874 27.094L97.8677 28.186C97.7703 28.164 97.6772 28.152 97.5884 28.147C97.5037 28.139 97.4064 28.135 97.2964 28.135C97.0256 28.135 96.7865 28.177 96.5791 28.262C96.3717 28.346 96.1961 28.465 96.0522 28.617C95.9084 28.77 95.7941 28.951 95.7095 29.163C95.6291 29.37 95.5762 29.599 95.5508 29.849L95.2207 30.039C95.2207 29.624 95.2609 29.235 95.3413 28.871C95.4259 28.507 95.555 28.186 95.7285 27.906C95.902 27.623 96.1221 27.403 96.3887 27.246C96.6595 27.085 96.9811 27.005 97.3535 27.005C97.4382 27.005 97.5355 27.015 97.6455 27.037C97.7555 27.054 97.8317 27.073 97.874 27.094ZM102.152 27.132V28.033H98.439V27.132H102.152ZM99.6958 25.462H100.87V32.299C100.87 32.532 100.906 32.707 100.978 32.826C101.05 32.944 101.143 33.022 101.257 33.061C101.372 33.099 101.494 33.118 101.625 33.118C101.723 33.118 101.824 33.109 101.93 33.092C102.04 33.071 102.123 33.054 102.178 33.042L102.184 34C102.091 34.03 101.968 34.057 101.816 34.083C101.668 34.112 101.488 34.127 101.276 34.127C100.989 34.127 100.724 34.07 100.483 33.956C100.242 33.841 100.049 33.651 99.9053 33.384C99.7656 33.113 99.6958 32.75 99.6958 32.292V25.462ZM107.58 32.826V29.29C107.58 29.019 107.525 28.784 107.415 28.585C107.309 28.382 107.148 28.226 106.932 28.116C106.716 28.006 106.45 27.951 106.132 27.951C105.836 27.951 105.576 28.001 105.352 28.103C105.132 28.205 104.958 28.338 104.831 28.503C104.708 28.668 104.647 28.846 104.647 29.036H103.473C103.473 28.791 103.536 28.547 103.663 28.306C103.79 28.065 103.972 27.847 104.209 27.652C104.45 27.453 104.738 27.297 105.072 27.183C105.411 27.064 105.787 27.005 106.202 27.005C106.701 27.005 107.142 27.09 107.522 27.259C107.908 27.428 108.208 27.684 108.424 28.027C108.644 28.365 108.754 28.791 108.754 29.303V32.502C108.754 32.73 108.773 32.974 108.811 33.232C108.853 33.49 108.915 33.712 108.995 33.898V34H107.77C107.711 33.865 107.664 33.685 107.63 33.46C107.597 33.232 107.58 33.02 107.58 32.826ZM107.783 29.836L107.795 30.661H106.608C106.274 30.661 105.976 30.689 105.713 30.744C105.451 30.794 105.231 30.873 105.053 30.979C104.875 31.084 104.74 31.218 104.647 31.378C104.554 31.535 104.507 31.719 104.507 31.931C104.507 32.146 104.556 32.343 104.653 32.521C104.751 32.699 104.897 32.84 105.091 32.946C105.29 33.048 105.534 33.099 105.821 33.099C106.181 33.099 106.498 33.022 106.773 32.87C107.049 32.718 107.266 32.532 107.427 32.312C107.592 32.091 107.681 31.878 107.694 31.67L108.195 32.235C108.166 32.413 108.085 32.61 107.954 32.826C107.823 33.042 107.647 33.249 107.427 33.448C107.211 33.642 106.953 33.805 106.653 33.937C106.357 34.063 106.022 34.127 105.65 34.127C105.184 34.127 104.776 34.036 104.425 33.854C104.078 33.672 103.807 33.429 103.612 33.124C103.422 32.815 103.327 32.47 103.327 32.089C103.327 31.721 103.399 31.397 103.542 31.118C103.686 30.835 103.894 30.6 104.165 30.414C104.435 30.223 104.761 30.079 105.142 29.982C105.523 29.885 105.948 29.836 106.418 29.836H107.783ZM117.875 32.826V29.29C117.875 29.019 117.82 28.784 117.71 28.585C117.605 28.382 117.444 28.226 117.228 28.116C117.012 28.006 116.746 27.951 116.428 27.951C116.132 27.951 115.872 28.001 115.647 28.103C115.427 28.205 115.254 28.338 115.127 28.503C115.004 28.668 114.943 28.846 114.943 29.036H113.769C113.769 28.791 113.832 28.547 113.959 28.306C114.086 28.065 114.268 27.847 114.505 27.652C114.746 27.453 115.034 27.297 115.368 27.183C115.707 27.064 116.083 27.005 116.498 27.005C116.997 27.005 117.438 27.09 117.818 27.259C118.203 27.428 118.504 27.684 118.72 28.027C118.94 28.365 119.05 28.791 119.05 29.303V32.502C119.05 32.73 119.069 32.974 119.107 33.232C119.149 33.49 119.211 33.712 119.291 33.898V34H118.066C118.007 33.865 117.96 33.685 117.926 33.46C117.892 33.232 117.875 33.02 117.875 32.826ZM118.079 29.836L118.091 30.661H116.904C116.57 30.661 116.272 30.689 116.009 30.744C115.747 30.794 115.527 30.873 115.349 30.979C115.171 31.084 115.036 31.218 114.943 31.378C114.85 31.535 114.803 31.719 114.803 31.931C114.803 32.146 114.852 32.343 114.949 32.521C115.047 32.699 115.193 32.84 115.387 32.946C115.586 33.048 115.829 33.099 116.117 33.099C116.477 33.099 116.794 33.022 117.069 32.87C117.344 32.718 117.562 32.532 117.723 32.312C117.888 32.091 117.977 31.878 117.99 31.67L118.491 32.235C118.462 32.413 118.381 32.61 118.25 32.826C118.119 33.042 117.943 33.249 117.723 33.448C117.507 33.642 117.249 33.805 116.949 33.937C116.653 34.063 116.318 34.127 115.946 34.127C115.48 34.127 115.072 34.036 114.721 33.854C114.374 33.672 114.103 33.429 113.908 33.124C113.718 32.815 113.623 32.47 113.623 32.089C113.623 31.721 113.694 31.397 113.838 31.118C113.982 30.835 114.19 30.6 114.46 30.414C114.731 30.223 115.057 30.079 115.438 29.982C115.819 29.885 116.244 29.836 116.714 29.836H118.079ZM122.884 32.94L124.763 27.132H125.962L123.493 34H122.706L122.884 32.94ZM121.316 27.132L123.252 32.972L123.385 34H122.598L120.11 27.132H121.316ZM131.041 32.826V29.29C131.041 29.019 130.986 28.784 130.875 28.585C130.77 28.382 130.609 28.226 130.393 28.116C130.177 28.006 129.911 27.951 129.593 27.951C129.297 27.951 129.037 28.001 128.812 28.103C128.592 28.205 128.419 28.338 128.292 28.503C128.169 28.668 128.108 28.846 128.108 29.036H126.934C126.934 28.791 126.997 28.547 127.124 28.306C127.251 28.065 127.433 27.847 127.67 27.652C127.911 27.453 128.199 27.297 128.533 27.183C128.872 27.064 129.248 27.005 129.663 27.005C130.162 27.005 130.603 27.09 130.983 27.259C131.368 27.428 131.669 27.684 131.885 28.027C132.105 28.365 132.215 28.791 132.215 29.303V32.502C132.215 32.73 132.234 32.974 132.272 33.232C132.314 33.49 132.376 33.712 132.456 33.898V34H131.231C131.172 33.865 131.125 33.685 131.091 33.46C131.057 33.232 131.041 33.02 131.041 32.826ZM131.244 29.836L131.256 30.661H130.069C129.735 30.661 129.437 30.689 129.174 30.744C128.912 30.794 128.692 30.873 128.514 30.979C128.336 31.084 128.201 31.218 128.108 31.378C128.015 31.535 127.968 31.719 127.968 31.931C127.968 32.146 128.017 32.343 128.114 32.521C128.212 32.699 128.358 32.84 128.552 32.946C128.751 33.048 128.994 33.099 129.282 33.099C129.642 33.099 129.959 33.022 130.234 32.87C130.509 32.718 130.727 32.532 130.888 32.312C131.053 32.091 131.142 31.878 131.155 31.67L131.656 32.235C131.627 32.413 131.546 32.61 131.415 32.826C131.284 33.042 131.108 33.249 130.888 33.448C130.672 33.642 130.414 33.805 130.114 33.937C129.818 34.063 129.483 34.127 129.111 34.127C128.645 34.127 128.237 34.036 127.886 33.854C127.539 33.672 127.268 33.429 127.073 33.124C126.883 32.815 126.788 32.47 126.788 32.089C126.788 31.721 126.86 31.397 127.003 31.118C127.147 30.835 127.355 30.6 127.625 30.414C127.896 30.223 128.222 30.079 128.603 29.982C128.984 29.885 129.409 29.836 129.879 29.836H131.244ZM135.338 24.25V34H134.157V24.25H135.338ZM138.499 27.132V34H137.318V27.132H138.499ZM137.229 25.31C137.229 25.12 137.287 24.959 137.401 24.828C137.519 24.696 137.693 24.631 137.921 24.631C138.146 24.631 138.317 24.696 138.436 24.828C138.558 24.959 138.62 25.12 138.62 25.31C138.62 25.492 138.558 25.649 138.436 25.78C138.317 25.907 138.146 25.97 137.921 25.97C137.693 25.97 137.519 25.907 137.401 25.78C137.287 25.649 137.229 25.492 137.229 25.31ZM144.434 32.826V29.29C144.434 29.019 144.379 28.784 144.269 28.585C144.163 28.382 144.002 28.226 143.787 28.116C143.571 28.006 143.304 27.951 142.987 27.951C142.691 27.951 142.43 28.001 142.206 28.103C141.986 28.205 141.812 28.338 141.686 28.503C141.563 28.668 141.501 28.846 141.501 29.036H140.327C140.327 28.791 140.391 28.547 140.518 28.306C140.645 28.065 140.826 27.847 141.063 27.652C141.305 27.453 141.592 27.297 141.927 27.183C142.265 27.064 142.642 27.005 143.057 27.005C143.556 27.005 143.996 27.09 144.377 27.259C144.762 27.428 145.062 27.684 145.278 28.027C145.498 28.365 145.608 28.791 145.608 29.303V32.502C145.608 32.73 145.627 32.974 145.666 33.232C145.708 33.49 145.769 33.712 145.85 33.898V34H144.625C144.565 33.865 144.519 33.685 144.485 33.46C144.451 33.232 144.434 33.02 144.434 32.826ZM144.637 29.836L144.65 30.661H143.463C143.129 30.661 142.83 30.689 142.568 30.744C142.306 30.794 142.085 30.873 141.908 30.979C141.73 31.084 141.595 31.218 141.501 31.378C141.408 31.535 141.362 31.719 141.362 31.931C141.362 32.146 141.41 32.343 141.508 32.521C141.605 32.699 141.751 32.84 141.946 32.946C142.145 33.048 142.388 33.099 142.676 33.099C143.035 33.099 143.353 33.022 143.628 32.87C143.903 32.718 144.121 32.532 144.282 32.312C144.447 32.091 144.536 31.878 144.548 31.67L145.05 32.235C145.02 32.413 144.94 32.61 144.809 32.826C144.677 33.042 144.502 33.249 144.282 33.448C144.066 33.642 143.808 33.805 143.507 33.937C143.211 34.063 142.877 34.127 142.504 34.127C142.039 34.127 141.631 34.036 141.279 33.854C140.932 33.672 140.661 33.429 140.467 33.124C140.276 32.815 140.181 32.47 140.181 32.089C140.181 31.721 140.253 31.397 140.397 31.118C140.541 30.835 140.748 30.6 141.019 30.414C141.29 30.223 141.616 30.079 141.997 29.982C142.377 29.885 142.803 29.836 143.272 29.836H144.637ZM150.204 33.162C150.483 33.162 150.742 33.105 150.979 32.991C151.215 32.876 151.41 32.72 151.562 32.521C151.715 32.318 151.802 32.087 151.823 31.829H152.94C152.919 32.235 152.781 32.614 152.527 32.965C152.278 33.312 151.95 33.594 151.543 33.81C151.137 34.021 150.691 34.127 150.204 34.127C149.688 34.127 149.237 34.036 148.852 33.854C148.471 33.672 148.154 33.422 147.9 33.105C147.65 32.788 147.462 32.424 147.335 32.013C147.212 31.598 147.151 31.16 147.151 30.699V30.433C147.151 29.971 147.212 29.535 147.335 29.125C147.462 28.71 147.65 28.344 147.9 28.027C148.154 27.709 148.471 27.46 148.852 27.278C149.237 27.096 149.688 27.005 150.204 27.005C150.742 27.005 151.211 27.115 151.613 27.335C152.015 27.551 152.331 27.847 152.559 28.224C152.792 28.596 152.919 29.019 152.94 29.493H151.823C151.802 29.21 151.721 28.954 151.582 28.725C151.446 28.497 151.26 28.315 151.023 28.179C150.79 28.04 150.517 27.97 150.204 27.97C149.844 27.97 149.542 28.042 149.296 28.186C149.055 28.325 148.863 28.516 148.719 28.757C148.579 28.994 148.478 29.258 148.414 29.55C148.355 29.838 148.325 30.132 148.325 30.433V30.699C148.325 31 148.355 31.296 148.414 31.588C148.473 31.88 148.573 32.144 148.712 32.381C148.856 32.618 149.049 32.809 149.29 32.953C149.535 33.092 149.84 33.162 150.204 33.162ZM149.557 34.063H150.401L150.325 34.4C150.57 34.442 150.792 34.544 150.991 34.705C151.194 34.865 151.296 35.13 151.296 35.498C151.296 35.697 151.254 35.877 151.169 36.038C151.089 36.203 150.968 36.342 150.807 36.457C150.646 36.575 150.445 36.666 150.204 36.729C149.967 36.793 149.69 36.825 149.373 36.825L149.328 36.146C149.523 36.146 149.698 36.124 149.855 36.082C150.016 36.04 150.143 35.972 150.236 35.879C150.333 35.786 150.382 35.665 150.382 35.517C150.382 35.377 150.346 35.267 150.274 35.187C150.202 35.107 150.09 35.045 149.938 35.003C149.789 34.965 149.597 34.937 149.36 34.92L149.557 34.063ZM153.949 30.642V30.496C153.949 30.001 154.021 29.542 154.165 29.119C154.309 28.691 154.516 28.321 154.787 28.008C155.058 27.69 155.386 27.445 155.771 27.271C156.156 27.094 156.588 27.005 157.066 27.005C157.548 27.005 157.982 27.094 158.367 27.271C158.757 27.445 159.087 27.69 159.357 28.008C159.632 28.321 159.842 28.691 159.986 29.119C160.13 29.542 160.202 30.001 160.202 30.496V30.642C160.202 31.137 160.13 31.596 159.986 32.02C159.842 32.443 159.632 32.813 159.357 33.13C159.087 33.444 158.759 33.689 158.374 33.867C157.993 34.04 157.561 34.127 157.079 34.127C156.596 34.127 156.162 34.04 155.777 33.867C155.392 33.689 155.062 33.444 154.787 33.13C154.516 32.813 154.309 32.443 154.165 32.02C154.021 31.596 153.949 31.137 153.949 30.642ZM155.124 30.496V30.642C155.124 30.985 155.164 31.309 155.244 31.613C155.325 31.914 155.445 32.18 155.606 32.413C155.771 32.646 155.976 32.83 156.222 32.965C156.467 33.097 156.753 33.162 157.079 33.162C157.4 33.162 157.682 33.097 157.923 32.965C158.168 32.83 158.371 32.646 158.532 32.413C158.693 32.18 158.814 31.914 158.894 31.613C158.979 31.309 159.021 30.985 159.021 30.642V30.496C159.021 30.158 158.979 29.838 158.894 29.538C158.814 29.233 158.691 28.964 158.526 28.731C158.365 28.494 158.162 28.308 157.917 28.173C157.675 28.037 157.392 27.97 157.066 27.97C156.744 27.97 156.461 28.037 156.215 28.173C155.974 28.308 155.771 28.494 155.606 28.731C155.445 28.964 155.325 29.233 155.244 29.538C155.164 29.838 155.124 30.158 155.124 30.496ZM158.475 24.377L159.269 24.447C159.269 24.756 159.207 25.027 159.084 25.259C158.962 25.492 158.797 25.672 158.589 25.799C158.386 25.926 158.156 25.989 157.897 25.989C157.682 25.989 157.504 25.96 157.364 25.9C157.225 25.837 157.1 25.767 156.99 25.691C156.88 25.611 156.763 25.541 156.641 25.481C156.522 25.418 156.374 25.386 156.196 25.386C156.019 25.386 155.868 25.454 155.746 25.589C155.627 25.725 155.568 25.892 155.568 26.091L154.774 26.053C154.774 25.744 154.834 25.473 154.952 25.24C155.075 25.003 155.24 24.819 155.447 24.688C155.655 24.553 155.885 24.485 156.139 24.485C156.321 24.485 156.48 24.517 156.615 24.58C156.755 24.639 156.886 24.709 157.009 24.79C157.132 24.866 157.258 24.936 157.39 24.999C157.521 25.058 157.671 25.088 157.84 25.088C158.018 25.088 158.168 25.02 158.291 24.885C158.414 24.745 158.475 24.576 158.475 24.377ZM164.524 34.127C164.046 34.127 163.612 34.047 163.223 33.886C162.838 33.721 162.506 33.49 162.227 33.194C161.951 32.898 161.74 32.546 161.592 32.14C161.444 31.734 161.37 31.29 161.37 30.807V30.541C161.37 29.982 161.452 29.485 161.617 29.049C161.782 28.609 162.007 28.236 162.29 27.932C162.574 27.627 162.895 27.396 163.255 27.24C163.615 27.083 163.987 27.005 164.372 27.005C164.863 27.005 165.286 27.09 165.642 27.259C166.001 27.428 166.295 27.665 166.524 27.97C166.752 28.27 166.922 28.626 167.032 29.036C167.142 29.442 167.197 29.887 167.197 30.369V30.896H162.068V29.938H166.022V29.849C166.006 29.544 165.942 29.248 165.832 28.96C165.726 28.672 165.557 28.435 165.324 28.249C165.091 28.063 164.774 27.97 164.372 27.97C164.105 27.97 163.86 28.027 163.636 28.141C163.411 28.251 163.219 28.416 163.058 28.636C162.897 28.856 162.772 29.125 162.684 29.442C162.595 29.76 162.55 30.126 162.55 30.541V30.807C162.55 31.133 162.595 31.44 162.684 31.728C162.777 32.011 162.91 32.261 163.083 32.477C163.261 32.692 163.475 32.862 163.725 32.984C163.979 33.107 164.266 33.168 164.588 33.168C165.003 33.168 165.354 33.084 165.642 32.915C165.929 32.745 166.181 32.519 166.397 32.235L167.108 32.8C166.96 33.025 166.771 33.238 166.543 33.441C166.314 33.645 166.033 33.81 165.699 33.937C165.369 34.063 164.977 34.127 164.524 34.127ZM172.567 32.178C172.567 32.009 172.529 31.852 172.453 31.708C172.381 31.56 172.23 31.427 172.002 31.309C171.778 31.186 171.439 31.08 170.986 30.991C170.605 30.911 170.261 30.816 169.952 30.706C169.647 30.596 169.387 30.462 169.171 30.306C168.959 30.149 168.796 29.965 168.682 29.753C168.568 29.542 168.511 29.294 168.511 29.011C168.511 28.74 168.57 28.484 168.688 28.243C168.811 28.001 168.983 27.788 169.203 27.602C169.427 27.415 169.696 27.269 170.009 27.164C170.322 27.058 170.671 27.005 171.056 27.005C171.606 27.005 172.076 27.102 172.465 27.297C172.855 27.492 173.153 27.752 173.36 28.078C173.568 28.399 173.671 28.757 173.671 29.15H172.497C172.497 28.96 172.44 28.776 172.326 28.598C172.216 28.416 172.053 28.266 171.837 28.147C171.625 28.029 171.365 27.97 171.056 27.97C170.73 27.97 170.466 28.021 170.263 28.122C170.064 28.219 169.918 28.344 169.825 28.497C169.736 28.649 169.691 28.81 169.691 28.979C169.691 29.106 169.713 29.22 169.755 29.322C169.801 29.419 169.882 29.51 169.996 29.595C170.11 29.675 170.271 29.751 170.479 29.823C170.686 29.895 170.95 29.967 171.272 30.039C171.835 30.166 172.298 30.318 172.662 30.496C173.026 30.674 173.297 30.892 173.475 31.15C173.652 31.408 173.741 31.721 173.741 32.089C173.741 32.39 173.678 32.665 173.551 32.915C173.428 33.164 173.248 33.38 173.011 33.562C172.778 33.74 172.499 33.879 172.173 33.981C171.852 34.078 171.49 34.127 171.088 34.127C170.483 34.127 169.971 34.019 169.552 33.803C169.133 33.587 168.815 33.308 168.6 32.965C168.384 32.623 168.276 32.261 168.276 31.88H169.457C169.473 32.201 169.567 32.458 169.736 32.648C169.905 32.834 170.112 32.967 170.358 33.048C170.603 33.124 170.847 33.162 171.088 33.162C171.41 33.162 171.678 33.12 171.894 33.035C172.114 32.951 172.281 32.834 172.396 32.686C172.51 32.538 172.567 32.369 172.567 32.178ZM182.837 32.667V24.25H184.018V34H182.939L182.837 32.667ZM178.216 30.642V30.509C178.216 29.984 178.28 29.508 178.407 29.081C178.538 28.649 178.722 28.279 178.959 27.97C179.2 27.661 179.486 27.424 179.816 27.259C180.15 27.09 180.523 27.005 180.933 27.005C181.365 27.005 181.741 27.081 182.063 27.233C182.389 27.382 182.664 27.599 182.888 27.887C183.117 28.171 183.297 28.514 183.428 28.916C183.559 29.318 183.65 29.772 183.701 30.28V30.864C183.654 31.368 183.563 31.821 183.428 32.223C183.297 32.625 183.117 32.967 182.888 33.251C182.664 33.535 182.389 33.752 182.063 33.905C181.737 34.053 181.356 34.127 180.92 34.127C180.518 34.127 180.15 34.04 179.816 33.867C179.486 33.693 179.2 33.45 178.959 33.137C178.722 32.824 178.538 32.455 178.407 32.032C178.28 31.605 178.216 31.141 178.216 30.642ZM179.397 30.509V30.642C179.397 30.985 179.431 31.306 179.499 31.607C179.57 31.907 179.681 32.172 179.829 32.4C179.977 32.629 180.165 32.809 180.394 32.94C180.622 33.067 180.895 33.13 181.212 33.13C181.602 33.13 181.921 33.048 182.171 32.883C182.425 32.718 182.628 32.5 182.78 32.229C182.933 31.958 183.051 31.664 183.136 31.347V29.817C183.085 29.584 183.011 29.36 182.914 29.144C182.82 28.924 182.698 28.729 182.545 28.56C182.397 28.387 182.213 28.249 181.993 28.147C181.777 28.046 181.521 27.995 181.225 27.995C180.903 27.995 180.626 28.063 180.394 28.198C180.165 28.329 179.977 28.511 179.829 28.744C179.681 28.973 179.57 29.239 179.499 29.544C179.431 29.844 179.397 30.166 179.397 30.509ZM188.696 34.127C188.218 34.127 187.784 34.047 187.395 33.886C187.01 33.721 186.678 33.49 186.398 33.194C186.123 32.898 185.912 32.546 185.764 32.14C185.616 31.734 185.542 31.29 185.542 30.807V30.541C185.542 29.982 185.624 29.485 185.789 29.049C185.954 28.609 186.178 28.236 186.462 27.932C186.745 27.627 187.067 27.396 187.427 27.24C187.786 27.083 188.159 27.005 188.544 27.005C189.035 27.005 189.458 27.09 189.813 27.259C190.173 27.428 190.467 27.665 190.696 27.97C190.924 28.27 191.094 28.626 191.204 29.036C191.314 29.442 191.369 29.887 191.369 30.369V30.896H186.24V29.938H190.194V29.849C190.177 29.544 190.114 29.248 190.004 28.96C189.898 28.672 189.729 28.435 189.496 28.249C189.263 28.063 188.946 27.97 188.544 27.97C188.277 27.97 188.032 28.027 187.808 28.141C187.583 28.251 187.391 28.416 187.23 28.636C187.069 28.856 186.944 29.125 186.855 29.442C186.767 29.76 186.722 30.126 186.722 30.541V30.807C186.722 31.133 186.767 31.44 186.855 31.728C186.949 32.011 187.082 32.261 187.255 32.477C187.433 32.692 187.647 32.862 187.896 32.984C188.15 33.107 188.438 33.168 188.76 33.168C189.174 33.168 189.526 33.084 189.813 32.915C190.101 32.745 190.353 32.519 190.569 32.235L191.28 32.8C191.132 33.025 190.943 33.238 190.715 33.441C190.486 33.645 190.205 33.81 189.871 33.937C189.541 34.063 189.149 34.127 188.696 34.127ZM24.584 45.642V45.496C24.584 45.001 24.6559 44.542 24.7998 44.119C24.9437 43.691 25.151 43.321 25.4219 43.008C25.6927 42.69 26.0207 42.445 26.4058 42.271C26.7909 42.094 27.2225 42.005 27.7007 42.005C28.1831 42.005 28.6169 42.094 29.002 42.271C29.3913 42.445 29.7214 42.69 29.9922 43.008C30.2673 43.321 30.4767 43.691 30.6206 44.119C30.7645 44.542 30.8364 45.001 30.8364 45.496V45.642C30.8364 46.137 30.7645 46.596 30.6206 47.02C30.4767 47.443 30.2673 47.813 29.9922 48.13C29.7214 48.444 29.3934 48.689 29.0083 48.867C28.6274 49.04 28.1958 49.127 27.7134 49.127C27.231 49.127 26.7972 49.04 26.4121 48.867C26.027 48.689 25.6969 48.444 25.4219 48.13C25.151 47.813 24.9437 47.443 24.7998 47.02C24.6559 46.596 24.584 46.137 24.584 45.642ZM25.7583 45.496V45.642C25.7583 45.985 25.7985 46.309 25.8789 46.613C25.9593 46.914 26.0799 47.18 26.2407 47.413C26.4058 47.646 26.611 47.83 26.8564 47.965C27.1019 48.097 27.3875 48.162 27.7134 48.162C28.035 48.162 28.3164 48.097 28.5576 47.965C28.8031 47.83 29.0062 47.646 29.167 47.413C29.3278 47.18 29.4484 46.914 29.5288 46.613C29.6134 46.309 29.6558 45.985 29.6558 45.642V45.496C29.6558 45.158 29.6134 44.838 29.5288 44.538C29.4484 44.233 29.3257 43.964 29.1606 43.731C28.9998 43.494 28.7967 43.308 28.5513 43.173C28.3101 43.037 28.0265 42.97 27.7007 42.97C27.3791 42.97 27.0955 43.037 26.8501 43.173C26.6089 43.308 26.4058 43.494 26.2407 43.731C26.0799 43.964 25.9593 44.233 25.8789 44.538C25.7985 44.838 25.7583 45.158 25.7583 45.496ZM36.5112 47.413V42.132H37.6919V49H36.5684L36.5112 47.413ZM36.7334 45.966L37.2222 45.953C37.2222 46.41 37.1735 46.833 37.0762 47.223C36.9831 47.608 36.8307 47.942 36.6191 48.226C36.4076 48.509 36.1304 48.731 35.7876 48.892C35.4448 49.049 35.028 49.127 34.5371 49.127C34.2028 49.127 33.896 49.078 33.6167 48.981C33.3416 48.884 33.1047 48.733 32.9058 48.53C32.7069 48.327 32.5524 48.063 32.4424 47.737C32.3366 47.411 32.2837 47.02 32.2837 46.562V42.132H33.458V46.575C33.458 46.884 33.4919 47.14 33.5596 47.343C33.6315 47.542 33.7267 47.701 33.8452 47.819C33.9679 47.934 34.1034 48.014 34.2515 48.061C34.4038 48.107 34.5604 48.13 34.7212 48.13C35.2205 48.13 35.6162 48.035 35.9082 47.845C36.2002 47.65 36.4097 47.39 36.5366 47.064C36.6678 46.734 36.7334 46.368 36.7334 45.966ZM42.3574 42.132V43.033H38.644V42.132H42.3574ZM39.9009 40.462H41.0752V47.299C41.0752 47.532 41.1112 47.707 41.1831 47.826C41.255 47.944 41.3481 48.022 41.4624 48.061C41.5767 48.099 41.6994 48.118 41.8306 48.118C41.9279 48.118 42.0295 48.109 42.1353 48.092C42.2453 48.071 42.3278 48.054 42.3828 48.042L42.3892 49C42.2961 49.03 42.1733 49.057 42.021 49.083C41.8729 49.112 41.693 49.127 41.4814 49.127C41.1937 49.127 40.9292 49.07 40.688 48.956C40.4468 48.841 40.2542 48.651 40.1104 48.384C39.9707 48.113 39.9009 47.75 39.9009 47.292V40.462ZM44.9092 43.211V49H43.7349V42.132H44.8774L44.9092 43.211ZM47.0547 42.094L47.0483 43.186C46.951 43.164 46.8579 43.152 46.769 43.147C46.6844 43.139 46.5871 43.135 46.4771 43.135C46.2062 43.135 45.9671 43.177 45.7598 43.262C45.5524 43.346 45.3768 43.465 45.2329 43.617C45.089 43.77 44.9748 43.951 44.8901 44.163C44.8097 44.37 44.7568 44.599 44.7314 44.849L44.4014 45.039C44.4014 44.624 44.4416 44.235 44.522 43.871C44.6066 43.507 44.7357 43.186 44.9092 42.906C45.0827 42.623 45.3027 42.403 45.5693 42.246C45.8402 42.085 46.1618 42.005 46.5342 42.005C46.6188 42.005 46.7161 42.015 46.8262 42.037C46.9362 42.054 47.0124 42.073 47.0547 42.094ZM47.7021 45.642V45.496C47.7021 45.001 47.7741 44.542 47.918 44.119C48.0618 43.691 48.2692 43.321 48.54 43.008C48.8109 42.69 49.1388 42.445 49.5239 42.271C49.909 42.094 50.3407 42.005 50.8188 42.005C51.3013 42.005 51.735 42.094 52.1201 42.271C52.5094 42.445 52.8395 42.69 53.1104 43.008C53.3854 43.321 53.5949 43.691 53.7388 44.119C53.8826 44.542 53.9546 45.001 53.9546 45.496V45.642C53.9546 46.137 53.8826 46.596 53.7388 47.02C53.5949 47.443 53.3854 47.813 53.1104 48.13C52.8395 48.444 52.5116 48.689 52.1265 48.867C51.7456 49.04 51.314 49.127 50.8315 49.127C50.3491 49.127 49.9154 49.04 49.5303 48.867C49.1452 48.689 48.8151 48.444 48.54 48.13C48.2692 47.813 48.0618 47.443 47.918 47.02C47.7741 46.596 47.7021 46.137 47.7021 45.642ZM48.8765 45.496V45.642C48.8765 45.985 48.9167 46.309 48.9971 46.613C49.0775 46.914 49.1981 47.18 49.3589 47.413C49.5239 47.646 49.7292 47.83 49.9746 47.965C50.2201 48.097 50.5057 48.162 50.8315 48.162C51.1532 48.162 51.4346 48.097 51.6758 47.965C51.9212 47.83 52.1243 47.646 52.2852 47.413C52.446 47.18 52.5666 46.914 52.647 46.613C52.7316 46.309 52.7739 45.985 52.7739 45.642V45.496C52.7739 45.158 52.7316 44.838 52.647 44.538C52.5666 44.233 52.4438 43.964 52.2788 43.731C52.118 43.494 51.9149 43.308 51.6694 43.173C51.4282 43.037 51.1447 42.97 50.8188 42.97C50.4972 42.97 50.2137 43.037 49.9683 43.173C49.7271 43.308 49.5239 43.494 49.3589 43.731C49.1981 43.964 49.0775 44.233 48.9971 44.538C48.9167 44.838 48.8765 45.158 48.8765 45.496ZM59.4263 47.178C59.4263 47.009 59.3882 46.852 59.312 46.708C59.2401 46.56 59.0898 46.427 58.8613 46.309C58.637 46.186 58.2985 46.08 57.8457 45.991C57.4648 45.911 57.12 45.816 56.811 45.706C56.5063 45.596 56.2461 45.462 56.0303 45.306C55.8187 45.149 55.6558 44.965 55.5415 44.753C55.4272 44.542 55.3701 44.294 55.3701 44.011C55.3701 43.74 55.4294 43.484 55.5479 43.243C55.6706 43.001 55.842 42.788 56.062 42.602C56.2863 42.415 56.555 42.269 56.8682 42.164C57.1813 42.058 57.5304 42.005 57.9155 42.005C58.4657 42.005 58.9354 42.102 59.3247 42.297C59.714 42.492 60.0124 42.752 60.2197 43.078C60.4271 43.399 60.5308 43.757 60.5308 44.15H59.3564C59.3564 43.96 59.2993 43.776 59.1851 43.598C59.075 43.416 58.9121 43.266 58.6963 43.147C58.4847 43.029 58.2244 42.97 57.9155 42.97C57.5897 42.97 57.3252 43.021 57.1221 43.122C56.9232 43.219 56.7772 43.344 56.6841 43.497C56.5952 43.649 56.5508 43.81 56.5508 43.979C56.5508 44.106 56.5719 44.22 56.6143 44.322C56.6608 44.419 56.7412 44.51 56.8555 44.595C56.9697 44.675 57.1305 44.751 57.3379 44.823C57.5452 44.895 57.8097 44.967 58.1313 45.039C58.6942 45.166 59.1576 45.318 59.5215 45.496C59.8854 45.674 60.1562 45.892 60.334 46.15C60.5117 46.408 60.6006 46.721 60.6006 47.089C60.6006 47.39 60.5371 47.665 60.4102 47.915C60.2874 48.164 60.1076 48.38 59.8706 48.562C59.6379 48.74 59.3586 48.879 59.0327 48.981C58.7111 49.078 58.3493 49.127 57.9473 49.127C57.3421 49.127 56.8301 49.019 56.4111 48.803C55.9922 48.587 55.6748 48.308 55.459 47.965C55.2432 47.623 55.1353 47.261 55.1353 46.88H56.3159C56.3328 47.201 56.4259 47.458 56.5952 47.648C56.7645 47.834 56.9718 47.967 57.2173 48.048C57.4627 48.124 57.7061 48.162 57.9473 48.162C58.2689 48.162 58.5376 48.12 58.7534 48.035C58.9735 47.951 59.1406 47.834 59.2549 47.686C59.3691 47.538 59.4263 47.369 59.4263 47.178ZM69.5698 47.413V42.132H70.7505V49H69.627L69.5698 47.413ZM69.792 45.966L70.2808 45.953C70.2808 46.41 70.2321 46.833 70.1348 47.223C70.0417 47.608 69.8893 47.942 69.6777 48.226C69.4661 48.509 69.189 48.731 68.8462 48.892C68.5034 49.049 68.0866 49.127 67.5957 49.127C67.2614 49.127 66.9546 49.078 66.6753 48.981C66.4002 48.884 66.1632 48.733 65.9644 48.53C65.7655 48.327 65.611 48.063 65.501 47.737C65.3952 47.411 65.3423 47.02 65.3423 46.562V42.132H66.5166V46.575C66.5166 46.884 66.5505 47.14 66.6182 47.343C66.6901 47.542 66.7853 47.701 66.9038 47.819C67.0265 47.934 67.1619 48.014 67.3101 48.061C67.4624 48.107 67.619 48.13 67.7798 48.13C68.2791 48.13 68.6748 48.035 68.9668 47.845C69.2588 47.65 69.4683 47.39 69.5952 47.064C69.7264 46.734 69.792 46.368 69.792 45.966ZM76.5396 47.178C76.5396 47.009 76.5015 46.852 76.4253 46.708C76.3534 46.56 76.2031 46.427 75.9746 46.309C75.7503 46.186 75.4118 46.08 74.959 45.991C74.5781 45.911 74.2332 45.816 73.9243 45.706C73.6196 45.596 73.3594 45.462 73.1436 45.306C72.932 45.149 72.769 44.965 72.6548 44.753C72.5405 44.542 72.4834 44.294 72.4834 44.011C72.4834 43.74 72.5426 43.484 72.6611 43.243C72.7839 43.001 72.9552 42.788 73.1753 42.602C73.3996 42.415 73.6683 42.269 73.9814 42.164C74.2946 42.058 74.6437 42.005 75.0288 42.005C75.5789 42.005 76.0487 42.102 76.438 42.297C76.8273 42.492 77.1257 42.752 77.333 43.078C77.5404 43.399 77.644 43.757 77.644 44.15H76.4697C76.4697 43.96 76.4126 43.776 76.2983 43.598C76.1883 43.416 76.0254 43.266 75.8096 43.147C75.598 43.029 75.3377 42.97 75.0288 42.97C74.703 42.97 74.4385 43.021 74.2354 43.122C74.0365 43.219 73.8905 43.344 73.7974 43.497C73.7085 43.649 73.6641 43.81 73.6641 43.979C73.6641 44.106 73.6852 44.22 73.7275 44.322C73.7741 44.419 73.8545 44.51 73.9688 44.595C74.083 44.675 74.2438 44.751 74.4512 44.823C74.6585 44.895 74.923 44.967 75.2446 45.039C75.8075 45.166 76.2708 45.318 76.6348 45.496C76.9987 45.674 77.2695 45.892 77.4473 46.15C77.625 46.408 77.7139 46.721 77.7139 47.089C77.7139 47.39 77.6504 47.665 77.5234 47.915C77.4007 48.164 77.2209 48.38 76.9839 48.562C76.7511 48.74 76.4718 48.879 76.146 48.981C75.8244 49.078 75.4626 49.127 75.0605 49.127C74.4554 49.127 73.9434 49.019 73.5244 48.803C73.1055 48.587 72.7881 48.308 72.5723 47.965C72.3564 47.623 72.2485 47.261 72.2485 46.88H73.4292C73.4461 47.201 73.5392 47.458 73.7085 47.648C73.8778 47.834 74.0851 47.967 74.3306 48.048C74.576 48.124 74.8193 48.162 75.0605 48.162C75.3822 48.162 75.6509 48.12 75.8667 48.035C76.0868 47.951 76.2539 47.834 76.3682 47.686C76.4824 47.538 76.5396 47.369 76.5396 47.178ZM83.4585 47.413V42.132H84.6392V49H83.5156L83.4585 47.413ZM83.6807 45.966L84.1694 45.953C84.1694 46.41 84.1208 46.833 84.0234 47.223C83.9303 47.608 83.778 47.942 83.5664 48.226C83.3548 48.509 83.0776 48.731 82.7349 48.892C82.3921 49.049 81.9753 49.127 81.4844 49.127C81.1501 49.127 80.8433 49.078 80.564 48.981C80.2889 48.884 80.0519 48.733 79.853 48.53C79.6541 48.327 79.4997 48.063 79.3896 47.737C79.2839 47.411 79.231 47.02 79.231 46.562V42.132H80.4053V46.575C80.4053 46.884 80.4391 47.14 80.5068 47.343C80.5788 47.542 80.674 47.701 80.7925 47.819C80.9152 47.934 81.0506 48.014 81.1987 48.061C81.3511 48.107 81.5076 48.13 81.6685 48.13C82.1678 48.13 82.5635 48.035 82.8555 47.845C83.1475 47.65 83.3569 47.39 83.4839 47.064C83.6151 46.734 83.6807 46.368 83.6807 45.966ZM90.479 47.826V44.29C90.479 44.019 90.424 43.784 90.314 43.585C90.2082 43.382 90.0474 43.226 89.8315 43.116C89.6157 43.006 89.3491 42.951 89.0317 42.951C88.7355 42.951 88.4753 43.001 88.251 43.103C88.0309 43.205 87.8574 43.338 87.7305 43.503C87.6077 43.668 87.5464 43.846 87.5464 44.036H86.3721C86.3721 43.791 86.4355 43.547 86.5625 43.306C86.6895 43.065 86.8714 42.847 87.1084 42.652C87.3496 42.453 87.6374 42.297 87.9717 42.183C88.3102 42.064 88.6868 42.005 89.1016 42.005C89.6009 42.005 90.041 42.09 90.4219 42.259C90.807 42.428 91.1074 42.684 91.3232 43.027C91.5433 43.365 91.6533 43.791 91.6533 44.303V47.502C91.6533 47.73 91.6724 47.974 91.7104 48.232C91.7528 48.49 91.8141 48.712 91.8945 48.898V49H90.6694C90.6102 48.865 90.5636 48.685 90.5298 48.46C90.4959 48.232 90.479 48.02 90.479 47.826ZM90.6821 44.836L90.6948 45.661H89.5078C89.1735 45.661 88.8752 45.689 88.6128 45.744C88.3504 45.794 88.1304 45.873 87.9526 45.979C87.7749 46.084 87.6395 46.218 87.5464 46.378C87.4533 46.535 87.4067 46.719 87.4067 46.931C87.4067 47.146 87.4554 47.343 87.5527 47.521C87.6501 47.699 87.7961 47.84 87.9907 47.946C88.1896 48.048 88.4329 48.099 88.7207 48.099C89.0804 48.099 89.3978 48.022 89.6729 47.87C89.9479 47.718 90.1659 47.532 90.3267 47.312C90.4917 47.091 90.5806 46.878 90.5933 46.67L91.0947 47.235C91.0651 47.413 90.9847 47.61 90.8535 47.826C90.7223 48.042 90.5467 48.249 90.3267 48.448C90.1108 48.642 89.8527 48.805 89.5522 48.937C89.256 49.063 88.9217 49.127 88.5493 49.127C88.0838 49.127 87.6755 49.036 87.3242 48.854C86.9772 48.672 86.7064 48.429 86.5117 48.124C86.3213 47.815 86.2261 47.47 86.2261 47.089C86.2261 46.721 86.298 46.397 86.4419 46.118C86.5858 45.835 86.7931 45.6 87.064 45.414C87.3348 45.223 87.6606 45.079 88.0415 44.982C88.4224 44.885 88.8477 44.836 89.3174 44.836H90.6821ZM88.5811 41.116L89.8125 39.25H91.228L89.5269 41.116H88.5811ZM94.6748 43.211V49H93.5005V42.132H94.6431L94.6748 43.211ZM96.8203 42.094L96.814 43.186C96.7166 43.164 96.6235 43.152 96.5347 43.147C96.45 43.139 96.3527 43.135 96.2427 43.135C95.9718 43.135 95.7327 43.177 95.5254 43.262C95.318 43.346 95.1424 43.465 94.9985 43.617C94.8547 43.77 94.7404 43.951 94.6558 44.163C94.5754 44.37 94.5225 44.599 94.4971 44.849L94.167 45.039C94.167 44.624 94.2072 44.235 94.2876 43.871C94.3722 43.507 94.5013 43.186 94.6748 42.906C94.8483 42.623 95.0684 42.403 95.335 42.246C95.6058 42.085 95.9274 42.005 96.2998 42.005C96.3844 42.005 96.4818 42.015 96.5918 42.037C96.7018 42.054 96.778 42.073 96.8203 42.094ZM99.1816 42.132V49H98.001V42.132H99.1816ZM97.9121 40.31C97.9121 40.12 97.9692 39.959 98.0835 39.828C98.202 39.696 98.3755 39.631 98.604 39.631C98.8283 39.631 98.9997 39.696 99.1182 39.828C99.2409 39.959 99.3022 40.12 99.3022 40.31C99.3022 40.492 99.2409 40.649 99.1182 40.78C98.9997 40.907 98.8283 40.97 98.604 40.97C98.3755 40.97 98.202 40.907 98.0835 40.78C97.9692 40.649 97.9121 40.492 97.9121 40.31ZM100.756 45.642V45.496C100.756 45.001 100.828 44.542 100.972 44.119C101.116 43.691 101.323 43.321 101.594 43.008C101.865 42.69 102.193 42.445 102.578 42.271C102.963 42.094 103.394 42.005 103.873 42.005C104.355 42.005 104.789 42.094 105.174 42.271C105.563 42.445 105.893 42.69 106.164 43.008C106.439 43.321 106.649 43.691 106.792 44.119C106.936 44.542 107.008 45.001 107.008 45.496V45.642C107.008 46.137 106.936 46.596 106.792 47.02C106.649 47.443 106.439 47.813 106.164 48.13C105.893 48.444 105.565 48.689 105.18 48.867C104.799 49.04 104.368 49.127 103.885 49.127C103.403 49.127 102.969 49.04 102.584 48.867C102.199 48.689 101.869 48.444 101.594 48.13C101.323 47.813 101.116 47.443 100.972 47.02C100.828 46.596 100.756 46.137 100.756 45.642ZM101.93 45.496V45.642C101.93 45.985 101.97 46.309 102.051 46.613C102.131 46.914 102.252 47.18 102.413 47.413C102.578 47.646 102.783 47.83 103.028 47.965C103.274 48.097 103.559 48.162 103.885 48.162C104.207 48.162 104.488 48.097 104.729 47.965C104.975 47.83 105.178 47.646 105.339 47.413C105.5 47.18 105.62 46.914 105.701 46.613C105.785 46.309 105.828 45.985 105.828 45.642V45.496C105.828 45.158 105.785 44.838 105.701 44.538C105.62 44.233 105.498 43.964 105.333 43.731C105.172 43.494 104.969 43.308 104.723 43.173C104.482 43.037 104.198 42.97 103.873 42.97C103.551 42.97 103.267 43.037 103.022 43.173C102.781 43.308 102.578 43.494 102.413 43.731C102.252 43.964 102.131 44.233 102.051 44.538C101.97 44.838 101.93 45.158 101.93 45.496ZM112.48 47.178C112.48 47.009 112.442 46.852 112.366 46.708C112.294 46.56 112.144 46.427 111.915 46.309C111.691 46.186 111.352 46.08 110.899 45.991C110.519 45.911 110.174 45.816 109.865 45.706C109.56 45.596 109.3 45.462 109.084 45.306C108.872 45.149 108.709 44.965 108.595 44.753C108.481 44.542 108.424 44.294 108.424 44.011C108.424 43.74 108.483 43.484 108.602 43.243C108.724 43.001 108.896 42.788 109.116 42.602C109.34 42.415 109.609 42.269 109.922 42.164C110.235 42.058 110.584 42.005 110.969 42.005C111.519 42.005 111.989 42.102 112.378 42.297C112.768 42.492 113.066 42.752 113.273 43.078C113.481 43.399 113.584 43.757 113.584 44.15H112.41C112.41 43.96 112.353 43.776 112.239 43.598C112.129 43.416 111.966 43.266 111.75 43.147C111.538 43.029 111.278 42.97 110.969 42.97C110.643 42.97 110.379 43.021 110.176 43.122C109.977 43.219 109.831 43.344 109.738 43.497C109.649 43.649 109.604 43.81 109.604 43.979C109.604 44.106 109.626 44.22 109.668 44.322C109.715 44.419 109.795 44.51 109.909 44.595C110.023 44.675 110.184 44.751 110.392 44.823C110.599 44.895 110.863 44.967 111.185 45.039C111.748 45.166 112.211 45.318 112.575 45.496C112.939 45.674 113.21 45.892 113.388 46.15C113.565 46.408 113.654 46.721 113.654 47.089C113.654 47.39 113.591 47.665 113.464 47.915C113.341 48.164 113.161 48.38 112.924 48.562C112.692 48.74 112.412 48.879 112.086 48.981C111.765 49.078 111.403 49.127 111.001 49.127C110.396 49.127 109.884 49.019 109.465 48.803C109.046 48.587 108.729 48.308 108.513 47.965C108.297 47.623 108.189 47.261 108.189 46.88H109.37C109.387 47.201 109.48 47.458 109.649 47.648C109.818 47.834 110.026 47.967 110.271 48.048C110.516 48.124 110.76 48.162 111.001 48.162C111.323 48.162 111.591 48.12 111.807 48.035C112.027 47.951 112.194 47.834 112.309 47.686C112.423 47.538 112.48 47.369 112.48 47.178ZM115.216 48.378C115.216 48.179 115.277 48.012 115.4 47.876C115.527 47.737 115.709 47.667 115.946 47.667C116.183 47.667 116.363 47.737 116.485 47.876C116.612 48.012 116.676 48.179 116.676 48.378C116.676 48.573 116.612 48.738 116.485 48.873C116.363 49.008 116.183 49.076 115.946 49.076C115.709 49.076 115.527 49.008 115.4 48.873C115.277 48.738 115.216 48.573 115.216 48.378Z" fill="#515151"/>
<path d="M313 20L320.263 24.237C320.976 24.653 320.906 25.706 320.144 26.024L313 29" stroke="#C4C4C4"/>
<path d="M14 57L338 58" stroke="#C4C4C4"/>
</svg>
