<svg width="360" height="158" viewBox="0 0 360 158" fill="none" xmlns="http://www.w3.org/2000/svg">
<path d="M360 -545H0V253H360V-545Z" fill="white"/>
<path d="M192 108C192 104.686 194.686 102 198 102H319C322.314 102 325 104.686 325 108V134C325 137.314 322.314 140 319 140H198C194.686 140 192 137.314 192 134V108Z" fill="#EA1D2C"/>
<path d="M222.652 124.479H224.449C224.404 125.455 224.205 126.298 223.854 127.008C223.508 127.711 223.004 128.251 222.34 128.629C221.682 129.007 220.859 129.195 219.869 129.195C219.16 129.195 218.518 129.055 217.945 128.775C217.372 128.495 216.881 128.095 216.471 127.574C216.067 127.047 215.758 126.415 215.543 125.68C215.328 124.944 215.221 124.117 215.221 123.199V120.572C215.221 119.661 215.328 118.837 215.543 118.102C215.764 117.366 216.08 116.738 216.49 116.217C216.907 115.689 217.411 115.286 218.004 115.006C218.603 114.726 219.28 114.586 220.035 114.586C220.96 114.586 221.741 114.771 222.379 115.143C223.023 115.507 223.518 116.044 223.863 116.754C224.215 117.457 224.41 118.32 224.449 119.342H222.652C222.607 118.593 222.49 117.984 222.301 117.516C222.112 117.04 221.832 116.692 221.461 116.471C221.096 116.243 220.621 116.129 220.035 116.129C219.514 116.129 219.062 116.233 218.678 116.441C218.3 116.65 217.988 116.949 217.74 117.34C217.499 117.724 217.317 118.189 217.193 118.736C217.076 119.277 217.018 119.882 217.018 120.553V123.199C217.018 123.824 217.066 124.407 217.164 124.947C217.268 125.488 217.431 125.963 217.652 126.373C217.88 126.777 218.176 127.092 218.541 127.32C218.906 127.548 219.348 127.662 219.869 127.662C220.527 127.662 221.048 127.555 221.432 127.34C221.816 127.125 222.099 126.783 222.281 126.314C222.47 125.846 222.594 125.234 222.652 124.479ZM226.285 124.225V123.219C226.285 122.398 226.389 121.679 226.598 121.061C226.806 120.436 227.096 119.915 227.467 119.498C227.838 119.081 228.271 118.769 228.766 118.561C229.26 118.346 229.791 118.238 230.357 118.238C230.937 118.238 231.474 118.346 231.969 118.561C232.464 118.769 232.896 119.081 233.268 119.498C233.645 119.915 233.938 120.436 234.146 121.061C234.355 121.679 234.459 122.398 234.459 123.219V124.225C234.459 125.045 234.355 125.768 234.146 126.393C233.938 127.011 233.648 127.529 233.277 127.945C232.906 128.362 232.473 128.674 231.979 128.883C231.484 129.091 230.95 129.195 230.377 129.195C229.804 129.195 229.27 129.091 228.775 128.883C228.281 128.674 227.844 128.362 227.467 127.945C227.096 127.529 226.806 127.011 226.598 126.393C226.389 125.768 226.285 125.045 226.285 124.225ZM228.014 123.219V124.225C228.014 124.804 228.072 125.312 228.189 125.748C228.307 126.184 228.473 126.549 228.688 126.842C228.902 127.135 229.153 127.356 229.439 127.506C229.726 127.649 230.038 127.721 230.377 127.721C230.768 127.721 231.109 127.649 231.402 127.506C231.702 127.356 231.949 127.135 232.145 126.842C232.34 126.549 232.486 126.184 232.584 125.748C232.682 125.312 232.73 124.804 232.73 124.225V123.219C232.73 122.639 232.672 122.135 232.555 121.705C232.438 121.269 232.271 120.904 232.057 120.611C231.842 120.312 231.588 120.09 231.295 119.947C231.008 119.798 230.696 119.723 230.357 119.723C230.025 119.723 229.716 119.798 229.43 119.947C229.143 120.09 228.893 120.312 228.678 120.611C228.469 120.904 228.307 121.269 228.189 121.705C228.072 122.135 228.014 122.639 228.014 123.219ZM238.414 120.689V129H236.686V118.434H238.316L238.414 120.689ZM237.994 123.316L237.291 123.287C237.285 122.564 237.366 121.897 237.535 121.285C237.711 120.667 237.958 120.13 238.277 119.674C238.603 119.218 238.99 118.867 239.439 118.619C239.889 118.365 240.387 118.238 240.934 118.238C241.363 118.238 241.754 118.31 242.105 118.453C242.457 118.59 242.757 118.811 243.004 119.117C243.251 119.423 243.44 119.82 243.57 120.309C243.707 120.79 243.775 121.38 243.775 122.076V129H242.047V122.057C242.047 121.503 241.985 121.061 241.861 120.729C241.744 120.39 241.562 120.146 241.314 119.996C241.074 119.84 240.768 119.762 240.396 119.762C240.058 119.762 239.742 119.856 239.449 120.045C239.156 120.234 238.899 120.494 238.678 120.826C238.463 121.158 238.294 121.539 238.17 121.969C238.053 122.392 237.994 122.841 237.994 123.316ZM248.58 129H246.852V117.516C246.852 116.715 246.985 116.038 247.252 115.484C247.525 114.931 247.913 114.511 248.414 114.225C248.922 113.938 249.521 113.795 250.211 113.795C250.621 113.795 251.015 113.854 251.393 113.971C251.77 114.081 252.161 114.221 252.564 114.391L252.271 115.914C252.037 115.797 251.751 115.686 251.412 115.582C251.074 115.471 250.719 115.416 250.348 115.416C249.697 115.416 249.238 115.592 248.971 115.943C248.71 116.288 248.58 116.812 248.58 117.516V129ZM250.289 118.434V119.82H245.475V118.434H250.289ZM253.395 118.434V129H251.666V118.434H253.395ZM257.906 120.094V129H256.178V118.434H257.848L257.906 120.094ZM260.533 118.375L260.543 120.055C260.4 120.022 260.27 120.003 260.152 119.996C260.042 119.983 259.911 119.977 259.762 119.977C259.436 119.977 259.15 120.042 258.902 120.172C258.661 120.302 258.453 120.484 258.277 120.719C258.102 120.953 257.962 121.233 257.857 121.559C257.753 121.878 257.682 122.229 257.643 122.613L257.193 122.906C257.193 122.268 257.242 121.669 257.34 121.109C257.444 120.549 257.604 120.055 257.818 119.625C258.033 119.189 258.307 118.85 258.639 118.609C258.977 118.362 259.381 118.238 259.85 118.238C259.954 118.238 260.081 118.255 260.23 118.287C260.387 118.313 260.488 118.342 260.533 118.375ZM264 120.533V129H262.281V118.434H263.902L264 120.533ZM263.648 123.316L262.848 123.287C262.841 122.564 262.913 121.897 263.062 121.285C263.212 120.667 263.437 120.13 263.736 119.674C264.042 119.218 264.423 118.867 264.879 118.619C265.341 118.365 265.878 118.238 266.49 118.238C266.894 118.238 267.268 118.31 267.613 118.453C267.965 118.59 268.271 118.808 268.531 119.107C268.792 119.407 268.993 119.791 269.137 120.26C269.286 120.729 269.361 121.295 269.361 121.959V129H267.633V122.047C267.633 121.493 267.558 121.051 267.408 120.719C267.265 120.387 267.06 120.146 266.793 119.996C266.526 119.84 266.207 119.762 265.836 119.762C265.413 119.762 265.058 119.856 264.771 120.045C264.492 120.234 264.267 120.494 264.098 120.826C263.935 121.158 263.818 121.539 263.746 121.969C263.681 122.392 263.648 122.841 263.648 123.316ZM269.342 122.32L268.189 122.691C268.183 122.112 268.255 121.555 268.404 121.021C268.554 120.488 268.775 120.012 269.068 119.596C269.368 119.179 269.739 118.85 270.182 118.609C270.624 118.362 271.139 118.238 271.725 118.238C272.206 118.238 272.633 118.313 273.004 118.463C273.375 118.613 273.688 118.844 273.941 119.156C274.202 119.462 274.397 119.856 274.527 120.338C274.658 120.82 274.723 121.393 274.723 122.057V129H272.994V122.037C272.994 121.445 272.919 120.986 272.77 120.66C272.626 120.328 272.421 120.097 272.154 119.967C271.887 119.83 271.568 119.762 271.197 119.762C270.898 119.762 270.631 119.83 270.396 119.967C270.169 120.104 269.977 120.292 269.82 120.533C269.664 120.768 269.544 121.038 269.459 121.344C269.381 121.65 269.342 121.975 269.342 122.32ZM282.506 127.193V121.461C282.506 121.044 282.441 120.709 282.311 120.455C282.187 120.201 281.998 120.016 281.744 119.898C281.497 119.781 281.184 119.723 280.807 119.723C280.442 119.723 280.126 119.798 279.859 119.947C279.599 120.097 279.397 120.296 279.254 120.543C279.117 120.79 279.049 121.064 279.049 121.363H277.32C277.32 120.986 277.402 120.611 277.564 120.24C277.734 119.869 277.975 119.534 278.287 119.234C278.6 118.928 278.974 118.688 279.41 118.512C279.853 118.329 280.348 118.238 280.895 118.238C281.546 118.238 282.122 118.346 282.623 118.561C283.124 118.769 283.518 119.111 283.805 119.586C284.091 120.061 284.234 120.693 284.234 121.48V126.695C284.234 127.047 284.26 127.421 284.312 127.818C284.371 128.215 284.452 128.557 284.557 128.844V129H282.77C282.685 128.792 282.62 128.515 282.574 128.17C282.529 127.818 282.506 127.493 282.506 127.193ZM282.779 122.594L282.799 123.863H281.598C281.188 123.863 280.813 123.909 280.475 124C280.143 124.091 279.856 124.225 279.615 124.4C279.374 124.57 279.189 124.781 279.059 125.035C278.935 125.289 278.873 125.579 278.873 125.904C278.873 126.327 278.932 126.666 279.049 126.92C279.166 127.167 279.342 127.346 279.576 127.457C279.811 127.568 280.107 127.623 280.465 127.623C280.901 127.623 281.285 127.522 281.617 127.32C281.949 127.118 282.206 126.874 282.389 126.588C282.577 126.301 282.665 126.035 282.652 125.787L283.033 126.598C283.007 126.852 282.923 127.128 282.779 127.428C282.643 127.721 282.451 128.004 282.203 128.277C281.956 128.544 281.663 128.766 281.324 128.941C280.992 129.111 280.618 129.195 280.201 129.195C279.589 129.195 279.052 129.078 278.59 128.844C278.134 128.609 277.779 128.264 277.525 127.809C277.271 127.353 277.145 126.79 277.145 126.119C277.145 125.611 277.232 125.143 277.408 124.713C277.584 124.283 277.844 123.912 278.189 123.6C278.535 123.281 278.967 123.033 279.488 122.857C280.016 122.682 280.624 122.594 281.314 122.594H282.779ZM288.648 120.094V129H286.92V118.434H288.59L288.648 120.094ZM291.275 118.375L291.285 120.055C291.142 120.022 291.012 120.003 290.895 119.996C290.784 119.983 290.654 119.977 290.504 119.977C290.178 119.977 289.892 120.042 289.645 120.172C289.404 120.302 289.195 120.484 289.02 120.719C288.844 120.953 288.704 121.233 288.6 121.559C288.495 121.878 288.424 122.229 288.385 122.613L287.936 122.906C287.936 122.268 287.984 121.669 288.082 121.109C288.186 120.549 288.346 120.055 288.561 119.625C288.775 119.189 289.049 118.85 289.381 118.609C289.719 118.362 290.123 118.238 290.592 118.238C290.696 118.238 290.823 118.255 290.973 118.287C291.129 118.313 291.23 118.342 291.275 118.375Z" fill="white"/>
</svg>
