<svg width="360" height="116" viewBox="0 0 360 116" fill="none" xmlns="http://www.w3.org/2000/svg">
<g clip-path="url(#clip0_219_2)">
<path d="M360 -401H0V397H360V-401Z" fill="white"/>
<path d="M27.8047 20.9999H25.8672L25.8828 19.7729H27.8047C28.487 19.7729 29.0417 19.6429 29.4688 19.3829C29.8958 19.1169 30.2109 18.7269 30.4141 18.2109C30.6172 17.6899 30.7188 17.0469 30.7188 16.2809V14.3359C30.7188 13.7319 30.6615 13.2109 30.5469 12.7729C30.4323 12.3359 30.2604 11.9769 30.0312 11.6949C29.8021 11.4139 29.513 11.2059 29.1641 11.0699C28.8151 10.9299 28.4062 10.8589 27.9375 10.8589H25.8281V9.62494H27.9375C28.5781 9.62494 29.1562 9.72693 29.6719 9.92993C30.1875 10.1279 30.6302 10.4269 31 10.8279C31.3698 11.2239 31.651 11.7159 31.8438 12.3049C32.0417 12.8929 32.1406 13.5759 32.1406 14.3519V16.2809C32.1406 17.0569 32.0417 17.7399 31.8438 18.3279C31.651 18.9169 31.3672 19.4089 30.9922 19.8049C30.6172 20.2009 30.1615 20.4999 29.625 20.7029C29.0938 20.9009 28.487 20.9999 27.8047 20.9999ZM26.6641 9.62494V20.9999H25.2266V9.62494H26.6641ZM37.2031 21.1559C36.6979 21.1559 36.2422 21.0809 35.8359 20.9299C35.4297 20.7789 35.0833 20.5489 34.7969 20.2419C34.5104 19.9299 34.2917 19.536 34.1406 19.062C33.9896 18.589 33.9141 18.0289 33.9141 17.3829V16.4299C33.9141 15.6849 34 15.0549 34.1719 14.5389C34.349 14.0229 34.5859 13.6089 34.8828 13.2969C35.1797 12.9789 35.5156 12.7499 35.8906 12.6089C36.2656 12.4639 36.651 12.3909 37.0469 12.3909C37.5781 12.3909 38.0312 12.4769 38.4062 12.6479C38.7812 12.8199 39.0859 13.0759 39.3203 13.4139C39.5547 13.7529 39.7266 14.1689 39.8359 14.6639C39.9505 15.1589 40.0078 15.7289 40.0078 16.3749V17.1799H34.7266V15.9999H38.625V15.8049C38.6042 15.3669 38.5443 14.9819 38.4453 14.6479C38.3516 14.3149 38.1953 14.0549 37.9766 13.8669C37.7578 13.6739 37.4479 13.5779 37.0469 13.5779C36.7917 13.5779 36.5547 13.6219 36.3359 13.7109C36.1224 13.7939 35.9375 13.9429 35.7812 14.1559C35.6302 14.3649 35.5104 14.6539 35.4219 15.0229C35.3385 15.3929 35.2969 15.8619 35.2969 16.4299V17.3829C35.2969 17.8359 35.3385 18.2269 35.4219 18.5549C35.5104 18.8779 35.638 19.1459 35.8047 19.3589C35.9766 19.5679 36.1849 19.7239 36.4297 19.8279C36.6797 19.9269 36.9635 19.9769 37.2812 19.9769C37.7448 19.9769 38.1276 19.8879 38.4297 19.7109C38.7318 19.5289 38.9948 19.2969 39.2188 19.0159L39.9453 19.8829C39.7943 20.0959 39.5964 20.3019 39.3516 20.4999C39.112 20.6929 38.8151 20.8519 38.4609 20.9769C38.112 21.0959 37.6927 21.1559 37.2031 21.1559ZM43.4453 20.9999H42.0625V11.812C42.0625 11.172 42.1693 10.6299 42.3828 10.1879C42.6016 9.74493 42.9115 9.40893 43.3125 9.17993C43.7188 8.95093 44.1979 8.83594 44.75 8.83594C45.0781 8.83594 45.3932 8.88293 45.6953 8.97693C45.9974 9.06493 46.3099 9.17695 46.6328 9.31195L46.3984 10.5309C46.2109 10.4379 45.9818 10.3489 45.7109 10.2659C45.4401 10.1769 45.1562 10.1329 44.8594 10.1329C44.3385 10.1329 43.9714 10.2729 43.7578 10.5549C43.5495 10.8309 43.4453 11.25 43.4453 11.812V20.9999ZM44.8125 12.5469V13.6559H40.9609V12.5469H44.8125ZM47.2969 12.5469V20.9999H45.9141V12.5469H47.2969ZM50.9062 14.3519V20.9999H49.5234V12.5469H50.8281L50.9062 14.3519ZM50.5703 16.4529L50.0078 16.4299C50.0026 15.8519 50.0677 15.3179 50.2031 14.8279C50.3438 14.3329 50.5417 13.9039 50.7969 13.5389C51.0573 13.1739 51.3672 12.8929 51.7266 12.6949C52.0859 12.4919 52.4844 12.3909 52.9219 12.3909C53.2656 12.3909 53.5781 12.448 53.8594 12.562C54.1406 12.672 54.3802 12.8489 54.5781 13.0939C54.776 13.3389 54.9271 13.6559 55.0312 14.0469C55.1406 14.4319 55.1953 14.9039 55.1953 15.4609V20.9999H53.8125V15.4449C53.8125 15.0029 53.763 14.6479 53.6641 14.3829C53.5703 14.1119 53.4245 13.9169 53.2266 13.7969C53.0339 13.6719 52.7891 13.6089 52.4922 13.6089C52.2214 13.6089 51.9688 13.6849 51.7344 13.8359C51.5 13.9869 51.2943 14.1949 51.1172 14.4609C50.9453 14.7269 50.8099 15.0309 50.7109 15.3749C50.6172 15.7139 50.5703 16.0729 50.5703 16.4529ZM58.7578 12.5469V20.9999H57.3828V12.5469H58.7578ZM57.3047 10.3049C57.3047 10.0699 57.3698 9.87194 57.5 9.71094C57.6302 9.54894 57.8255 9.46893 58.0859 9.46893C58.3464 9.46893 58.5417 9.54894 58.6719 9.71094C58.8073 9.87194 58.875 10.0699 58.875 10.3049C58.875 10.5289 58.8073 10.7209 58.6719 10.8829C58.5417 11.0389 58.3464 11.1169 58.0859 11.1169C57.8255 11.1169 57.6302 11.0389 57.5 10.8829C57.3698 10.7209 57.3047 10.5289 57.3047 10.3049ZM62.3281 13.8749V20.9999H60.9453V12.5469H62.2812L62.3281 13.8749ZM64.4297 12.4999L64.4375 13.8439C64.3229 13.8179 64.2188 13.8019 64.125 13.7969C64.0365 13.7859 63.9323 13.7809 63.8125 13.7809C63.5521 13.7809 63.3229 13.8329 63.125 13.9379C62.9323 14.0419 62.7656 14.1879 62.625 14.3749C62.4844 14.5619 62.3724 14.7859 62.2891 15.0469C62.2057 15.3019 62.1484 15.5829 62.1172 15.8909L61.7578 16.1249C61.7578 15.6149 61.7969 15.1349 61.875 14.6879C61.9583 14.2399 62.0859 13.8439 62.2578 13.4999C62.4297 13.1509 62.6484 12.8799 62.9141 12.6879C63.1849 12.4899 63.5078 12.3909 63.8828 12.3909C63.9661 12.3909 64.0677 12.4039 64.1875 12.4299C64.3125 12.4509 64.3932 12.4739 64.4297 12.4999ZM70.9766 12.5469V20.9999H69.6016V12.5469H70.9766ZM69.5234 10.3049C69.5234 10.0699 69.5885 9.87194 69.7188 9.71094C69.849 9.54894 70.0443 9.46893 70.3047 9.46893C70.5651 9.46893 70.7604 9.54894 70.8906 9.71094C71.026 9.87194 71.0938 10.0699 71.0938 10.3049C71.0938 10.5289 71.026 10.7209 70.8906 10.8829C70.7604 11.0389 70.5651 11.1169 70.3047 11.1169C70.0443 11.1169 69.849 11.0389 69.7188 10.8829C69.5885 10.7209 69.5234 10.5289 69.5234 10.3049ZM74.5469 14.3519V20.9999H73.1641V12.5469H74.4688L74.5469 14.3519ZM74.2109 16.4529L73.6484 16.4299C73.6432 15.8519 73.7083 15.3179 73.8438 14.8279C73.9844 14.3329 74.1823 13.9039 74.4375 13.5389C74.6979 13.1739 75.0078 12.8929 75.3672 12.6949C75.7266 12.4919 76.125 12.3909 76.5625 12.3909C76.9062 12.3909 77.2188 12.448 77.5 12.562C77.7812 12.672 78.0208 12.8489 78.2188 13.0939C78.4167 13.3389 78.5677 13.6559 78.6719 14.0469C78.7812 14.4319 78.8359 14.9039 78.8359 15.4609V20.9999H77.4531V15.4449C77.4531 15.0029 77.4036 14.6479 77.3047 14.3829C77.2109 14.1119 77.0651 13.9169 76.8672 13.7969C76.6745 13.6719 76.4297 13.6089 76.1328 13.6089C75.862 13.6089 75.6094 13.6849 75.375 13.8359C75.1406 13.9869 74.9349 14.1949 74.7578 14.4609C74.5859 14.7269 74.4505 15.0309 74.3516 15.3749C74.2578 15.7139 74.2109 16.0729 74.2109 16.4529ZM85.4922 12.5469H86.7344V21.0699C86.7344 21.8149 86.6042 22.4299 86.3438 22.9139C86.0885 23.3979 85.7318 23.7549 85.2734 23.9839C84.8151 24.2189 84.2865 24.3359 83.6875 24.3359C83.474 24.3359 83.2057 24.2969 82.8828 24.2189C82.5599 24.1409 82.237 24.0209 81.9141 23.8589C81.5911 23.7029 81.3255 23.5049 81.1172 23.2659L81.6875 22.3049C81.9844 22.6069 82.2995 22.8229 82.6328 22.9529C82.9661 23.0829 83.2839 23.1479 83.5859 23.1479C83.9453 23.1479 84.2578 23.0829 84.5234 22.9529C84.7891 22.8229 84.9948 22.609 85.1406 22.312C85.2865 22.021 85.3594 21.6299 85.3594 21.1409V14.4059L85.4922 12.5469ZM80.6328 17.1799V16.3909C80.6328 15.6929 80.6979 15.0939 80.8281 14.5939C80.9583 14.0889 81.1458 13.6739 81.3906 13.3519C81.6406 13.0229 81.9401 12.7809 82.2891 12.6249C82.638 12.4689 83.0286 12.3909 83.4609 12.3909C83.8984 12.3909 84.276 12.4789 84.5938 12.6559C84.9115 12.8329 85.1745 13.0909 85.3828 13.4299C85.5964 13.7629 85.763 14.1689 85.8828 14.6479C86.0078 15.1219 86.0938 15.6589 86.1406 16.2579V17.312C86.0938 17.906 86.0078 18.4399 85.8828 18.9139C85.763 19.3879 85.5938 19.7919 85.375 20.1249C85.1615 20.4579 84.8958 20.7139 84.5781 20.8909C84.2604 21.0679 83.8828 21.1559 83.4453 21.1559C83.0182 21.1559 82.6328 21.0759 82.2891 20.9139C81.9453 20.7469 81.6484 20.4999 81.3984 20.1719C81.1536 19.8389 80.9635 19.4239 80.8281 18.9299C80.6979 18.4299 80.6328 17.8459 80.6328 17.1799ZM82.0156 16.3909V17.1799C82.0156 17.6479 82.0495 18.0569 82.1172 18.4059C82.1849 18.7499 82.2891 19.0359 82.4297 19.2659C82.5755 19.4899 82.7604 19.6559 82.9844 19.7659C83.2135 19.8749 83.487 19.9299 83.8047 19.9299C84.1901 19.9299 84.5052 19.8359 84.75 19.6479C84.9948 19.4609 85.1901 19.2139 85.3359 18.9059C85.487 18.5939 85.6068 18.2579 85.6953 17.8979V15.6799C85.6432 15.4139 85.5677 15.1589 85.4688 14.9139C85.375 14.6639 85.2526 14.4429 85.1016 14.2499C84.9505 14.0519 84.7682 13.8959 84.5547 13.7809C84.3464 13.6669 84.1016 13.6089 83.8203 13.6089C83.5026 13.6089 83.2292 13.6669 83 13.7809C82.7708 13.8959 82.5833 14.0679 82.4375 14.2969C82.2917 14.5259 82.1849 14.8149 82.1172 15.1639C82.0495 15.5129 82.0156 15.9219 82.0156 16.3909ZM91.8281 21.1559C91.3229 21.1559 90.8672 21.0809 90.4609 20.9299C90.0547 20.7789 89.7083 20.5489 89.4219 20.2419C89.1354 19.9299 88.9167 19.536 88.7656 19.062C88.6146 18.589 88.5391 18.0289 88.5391 17.3829V16.4299C88.5391 15.6849 88.625 15.0549 88.7969 14.5389C88.974 14.0229 89.2109 13.6089 89.5078 13.2969C89.8047 12.9789 90.1406 12.7499 90.5156 12.6089C90.8906 12.4639 91.276 12.3909 91.6719 12.3909C92.2031 12.3909 92.6562 12.4769 93.0312 12.6479C93.4062 12.8199 93.7109 13.0759 93.9453 13.4139C94.1797 13.7529 94.3516 14.1689 94.4609 14.6639C94.5755 15.1589 94.6328 15.7289 94.6328 16.3749V17.1799H89.3516V15.9999H93.25V15.8049C93.2292 15.3669 93.1693 14.9819 93.0703 14.6479C92.9766 14.3149 92.8203 14.0549 92.6016 13.8669C92.3828 13.6739 92.0729 13.5779 91.6719 13.5779C91.4167 13.5779 91.1797 13.6219 90.9609 13.7109C90.7474 13.7939 90.5625 13.9429 90.4062 14.1559C90.2552 14.3649 90.1354 14.6539 90.0469 15.0229C89.9635 15.3929 89.9219 15.8619 89.9219 16.4299V17.3829C89.9219 17.8359 89.9635 18.2269 90.0469 18.5549C90.1354 18.8779 90.263 19.1459 90.4297 19.3589C90.6016 19.5679 90.8099 19.7239 91.0547 19.8279C91.3047 19.9269 91.5885 19.9769 91.9062 19.9769C92.3698 19.9769 92.7526 19.8879 93.0547 19.7109C93.3568 19.5289 93.6198 19.2969 93.8438 19.0159L94.5703 19.8829C94.4193 20.0959 94.2214 20.3019 93.9766 20.4999C93.737 20.6929 93.4401 20.8519 93.0859 20.9769C92.737 21.0959 92.3177 21.1559 91.8281 21.1559ZM100.406 18.8359C100.406 18.6219 100.354 18.4349 100.25 18.2729C100.146 18.1119 99.974 17.9559 99.7344 17.8049C99.5 17.6539 99.1823 17.4919 98.7812 17.3199C98.3906 17.1589 98.0391 16.9999 97.7266 16.8439C97.4193 16.6819 97.1589 16.5079 96.9453 16.3199C96.7318 16.1329 96.5677 15.9169 96.4531 15.6719C96.3438 15.4219 96.2891 15.1279 96.2891 14.7889C96.2891 14.4509 96.3516 14.1379 96.4766 13.8519C96.6068 13.5599 96.7891 13.3049 97.0234 13.0859C97.2578 12.8669 97.5391 12.6979 97.8672 12.5779C98.1953 12.4529 98.5625 12.3909 98.9688 12.3909C99.5469 12.3909 100.039 12.5029 100.445 12.7269C100.852 12.9509 101.161 13.2579 101.375 13.6479C101.594 14.0339 101.703 14.4689 101.703 14.9529H100.328C100.328 14.7189 100.276 14.4969 100.172 14.2889C100.068 14.0809 99.9141 13.9109 99.7109 13.7809C99.5078 13.6459 99.2604 13.5779 98.9688 13.5779C98.6615 13.5779 98.4115 13.6329 98.2188 13.7419C98.026 13.8519 97.8854 13.9949 97.7969 14.1719C97.7135 14.3439 97.6719 14.5339 97.6719 14.7419C97.6719 14.8979 97.6927 15.0339 97.7344 15.1479C97.7812 15.2579 97.8594 15.3619 97.9688 15.4609C98.0781 15.5549 98.2266 15.6539 98.4141 15.7579C98.6068 15.8569 98.8516 15.9709 99.1484 16.1019C99.7214 16.3259 100.203 16.5519 100.594 16.7809C100.984 17.0099 101.281 17.2789 101.484 17.5859C101.688 17.8929 101.789 18.2729 101.789 18.7269C101.789 19.0959 101.721 19.4319 101.586 19.7339C101.456 20.0309 101.268 20.2859 101.023 20.4999C100.779 20.7139 100.484 20.8779 100.141 20.9919C99.8021 21.1019 99.4219 21.1559 99 21.1559C98.3646 21.1559 97.8255 21.0309 97.3828 20.7809C96.9453 20.5259 96.612 20.1949 96.3828 19.7889C96.1589 19.3779 96.0469 18.9379 96.0469 18.4689H97.4297C97.4453 18.8649 97.5339 19.1719 97.6953 19.3909C97.862 19.6089 98.0625 19.7599 98.2969 19.8439C98.5312 19.9269 98.7656 19.9689 99 19.9689C99.3073 19.9689 99.5651 19.9239 99.7734 19.8359C99.9818 19.7419 100.138 19.6089 100.242 19.4379C100.352 19.2659 100.406 19.0649 100.406 18.8359ZM106.688 12.5469V13.6559H102.742V12.5469H106.688ZM104.031 10.4919H105.414V18.9059C105.414 19.1929 105.448 19.4089 105.516 19.5549C105.589 19.7009 105.68 19.7969 105.789 19.8439C105.898 19.8909 106.016 19.9139 106.141 19.9139C106.234 19.9139 106.339 19.9039 106.453 19.8829C106.568 19.8569 106.646 19.8359 106.688 19.8199L106.68 20.9999C106.586 21.0359 106.461 21.0699 106.305 21.1019C106.148 21.1379 105.951 21.1559 105.711 21.1559C105.414 21.1559 105.138 21.0859 104.883 20.9449C104.628 20.8049 104.422 20.5699 104.266 20.2419C104.109 19.9089 104.031 19.4609 104.031 18.8979V10.4919ZM112.477 19.5549V14.9689C112.477 14.6349 112.424 14.3669 112.32 14.1639C112.221 13.9609 112.07 13.8119 111.867 13.7189C111.669 13.6249 111.419 13.5779 111.117 13.5779C110.826 13.5779 110.573 13.6379 110.359 13.7579C110.151 13.8779 109.99 14.0359 109.875 14.2339C109.766 14.4319 109.711 14.6509 109.711 14.8909H108.328C108.328 14.5889 108.393 14.2889 108.523 13.9919C108.659 13.6949 108.852 13.4269 109.102 13.1879C109.352 12.9429 109.651 12.7499 110 12.6089C110.354 12.4639 110.75 12.3909 111.188 12.3909C111.708 12.3909 112.169 12.4769 112.57 12.6479C112.971 12.8149 113.286 13.0889 113.516 13.4689C113.745 13.8489 113.859 14.3539 113.859 14.9839V19.1559C113.859 19.4379 113.88 19.7369 113.922 20.0549C113.969 20.3719 114.034 20.6459 114.117 20.8749V20.9999H112.688C112.62 20.8329 112.568 20.6119 112.531 20.3359C112.495 20.0549 112.477 19.7939 112.477 19.5549ZM112.695 15.8749L112.711 16.8909H111.75C111.422 16.8909 111.122 16.9269 110.852 16.9999C110.586 17.0729 110.357 17.1799 110.164 17.3199C109.971 17.4559 109.823 17.6249 109.719 17.8279C109.62 18.0309 109.57 18.2629 109.57 18.5229C109.57 18.8619 109.617 19.1329 109.711 19.3359C109.805 19.5339 109.945 19.6769 110.133 19.7659C110.32 19.8539 110.557 19.8979 110.844 19.8979C111.193 19.8979 111.5 19.8179 111.766 19.6559C112.031 19.4949 112.237 19.2989 112.383 19.0699C112.534 18.8409 112.604 18.6279 112.594 18.4299L112.898 19.0779C112.878 19.2809 112.81 19.5029 112.695 19.7419C112.586 19.9769 112.432 20.2029 112.234 20.4219C112.036 20.6349 111.802 20.8119 111.531 20.9529C111.266 21.0889 110.966 21.1559 110.633 21.1559C110.143 21.1559 109.714 21.0619 109.344 20.8749C108.979 20.6879 108.695 20.4109 108.492 20.0469C108.289 19.6819 108.188 19.2319 108.188 18.6949C108.188 18.2889 108.258 17.9139 108.398 17.5699C108.539 17.2269 108.747 16.9299 109.023 16.6799C109.299 16.4239 109.646 16.2269 110.062 16.0859C110.484 15.9449 110.971 15.8749 111.523 15.8749H112.695ZM112.734 9.15594L113.633 9.24194C113.633 9.62194 113.568 9.95594 113.438 10.2419C113.307 10.5289 113.13 10.7499 112.906 10.9059C112.688 11.0619 112.443 11.1409 112.172 11.1409C111.953 11.1409 111.771 11.1039 111.625 11.0309C111.479 10.9529 111.349 10.8669 111.234 10.7729C111.125 10.6739 111.008 10.5889 110.883 10.5159C110.763 10.4379 110.612 10.3979 110.43 10.3979C110.253 10.3979 110.104 10.4819 109.984 10.6479C109.865 10.8149 109.805 11.0209 109.805 11.2659L108.906 11.2189C108.906 10.8389 108.969 10.5049 109.094 10.2189C109.224 9.92693 109.398 9.70094 109.617 9.53894C109.841 9.37194 110.089 9.28894 110.359 9.28894C110.542 9.28894 110.703 9.32794 110.844 9.40594C110.984 9.47894 111.117 9.56494 111.242 9.66394C111.367 9.75794 111.497 9.84394 111.633 9.92194C111.773 9.99494 111.93 10.0309 112.102 10.0309C112.279 10.0309 112.427 9.94794 112.547 9.78094C112.672 9.60894 112.734 9.40094 112.734 9.15594ZM115.719 17.1799V16.3749C115.719 15.7189 115.802 15.1429 115.969 14.6479C116.135 14.1479 116.367 13.7319 116.664 13.3979C116.961 13.0649 117.307 12.8149 117.703 12.6479C118.099 12.4769 118.523 12.3909 118.977 12.3909C119.44 12.3909 119.87 12.4769 120.266 12.6479C120.661 12.8149 121.008 13.0649 121.305 13.3979C121.607 13.7319 121.841 14.1479 122.008 14.6479C122.174 15.1429 122.258 15.7189 122.258 16.3749V17.1799C122.258 17.8359 122.174 18.4139 122.008 18.9139C121.841 19.4089 121.609 19.8229 121.312 20.1559C121.016 20.4899 120.669 20.7399 120.273 20.9059C119.878 21.0729 119.451 21.1559 118.992 21.1559C118.534 21.1559 118.107 21.0729 117.711 20.9059C117.315 20.7399 116.966 20.4899 116.664 20.1559C116.367 19.8229 116.135 19.4089 115.969 18.9139C115.802 18.4139 115.719 17.8359 115.719 17.1799ZM117.102 16.3749V17.1799C117.102 17.6429 117.148 18.0489 117.242 18.3979C117.336 18.7469 117.469 19.0389 117.641 19.2729C117.812 19.5079 118.013 19.6849 118.242 19.8049C118.471 19.9189 118.721 19.9769 118.992 19.9769C119.305 19.9769 119.578 19.9189 119.812 19.8049C120.052 19.6849 120.25 19.5079 120.406 19.2729C120.562 19.0389 120.68 18.7469 120.758 18.3979C120.836 18.0489 120.875 17.6429 120.875 17.1799V16.3749C120.875 15.9109 120.828 15.5079 120.734 15.1639C120.641 14.8149 120.508 14.5229 120.336 14.2889C120.164 14.0489 119.961 13.8719 119.727 13.7579C119.497 13.6379 119.247 13.5779 118.977 13.5779C118.711 13.5779 118.464 13.6379 118.234 13.7579C118.005 13.8719 117.805 14.0489 117.633 14.2889C117.466 14.5229 117.336 14.8149 117.242 15.1639C117.148 15.5079 117.102 15.9109 117.102 16.3749ZM130.641 19.9769C130.917 19.9769 131.167 19.922 131.391 19.812C131.62 19.698 131.807 19.5209 131.953 19.2809C132.099 19.0359 132.182 18.7189 132.203 18.3279H133.5C133.479 18.8909 133.336 19.385 133.07 19.812C132.81 20.234 132.466 20.5649 132.039 20.8049C131.617 21.0389 131.151 21.1559 130.641 21.1559C130.094 21.1559 129.617 21.0679 129.211 20.8909C128.81 20.7139 128.477 20.4579 128.211 20.1249C127.951 19.7859 127.755 19.3779 127.625 18.8979C127.495 18.4139 127.43 17.8649 127.43 17.2499V16.2969C127.43 15.6819 127.495 15.1349 127.625 14.6559C127.755 14.1719 127.951 13.7629 128.211 13.4299C128.477 13.0909 128.81 12.8329 129.211 12.6559C129.617 12.4789 130.094 12.3909 130.641 12.3909C131.214 12.3909 131.708 12.5129 132.125 12.7579C132.547 12.9969 132.875 13.3459 133.109 13.8049C133.349 14.2579 133.479 14.8069 133.5 15.4529H132.203C132.182 15.0359 132.107 14.6899 131.977 14.4139C131.846 14.1329 131.669 13.9239 131.445 13.7889C131.221 13.6479 130.953 13.5779 130.641 13.5779C130.276 13.5779 129.974 13.6429 129.734 13.7729C129.5 13.8979 129.315 14.0809 129.18 14.3199C129.044 14.5599 128.948 14.8459 128.891 15.1799C128.839 15.5129 128.812 15.8849 128.812 16.2969V17.2499C128.812 17.6609 128.839 18.0359 128.891 18.3749C128.948 18.7079 129.042 18.9949 129.172 19.2339C129.307 19.4739 129.495 19.6589 129.734 19.7889C129.974 19.9139 130.276 19.9769 130.641 19.9769ZM139.242 19.5549V14.9689C139.242 14.6349 139.19 14.3669 139.086 14.1639C138.987 13.9609 138.836 13.8119 138.633 13.7189C138.435 13.6249 138.185 13.5779 137.883 13.5779C137.591 13.5779 137.339 13.6379 137.125 13.7579C136.917 13.8779 136.755 14.0359 136.641 14.2339C136.531 14.4319 136.477 14.6509 136.477 14.8909H135.094C135.094 14.5889 135.159 14.2889 135.289 13.9919C135.424 13.6949 135.617 13.4269 135.867 13.1879C136.117 12.9429 136.417 12.7499 136.766 12.6089C137.12 12.4639 137.516 12.3909 137.953 12.3909C138.474 12.3909 138.935 12.4769 139.336 12.6479C139.737 12.8149 140.052 13.0889 140.281 13.4689C140.51 13.8489 140.625 14.3539 140.625 14.9839V19.1559C140.625 19.4379 140.646 19.7369 140.688 20.0549C140.734 20.3719 140.799 20.6459 140.883 20.8749V20.9999H139.453C139.385 20.8329 139.333 20.6119 139.297 20.3359C139.26 20.0549 139.242 19.7939 139.242 19.5549ZM139.461 15.8749L139.477 16.8909H138.516C138.188 16.8909 137.888 16.9269 137.617 16.9999C137.352 17.0729 137.122 17.1799 136.93 17.3199C136.737 17.4559 136.589 17.6249 136.484 17.8279C136.385 18.0309 136.336 18.2629 136.336 18.5229C136.336 18.8619 136.383 19.1329 136.477 19.3359C136.57 19.5339 136.711 19.6769 136.898 19.7659C137.086 19.8539 137.323 19.8979 137.609 19.8979C137.958 19.8979 138.266 19.8179 138.531 19.6559C138.797 19.4949 139.003 19.2989 139.148 19.0699C139.299 18.8409 139.37 18.6279 139.359 18.4299L139.664 19.0779C139.643 19.2809 139.576 19.5029 139.461 19.7419C139.352 19.9769 139.198 20.2029 139 20.4219C138.802 20.6349 138.568 20.8119 138.297 20.9529C138.031 21.0889 137.732 21.1559 137.398 21.1559C136.909 21.1559 136.479 21.0619 136.109 20.8749C135.745 20.6879 135.461 20.4109 135.258 20.0469C135.055 19.6819 134.953 19.2319 134.953 18.6949C134.953 18.2889 135.023 17.9139 135.164 17.5699C135.305 17.2269 135.513 16.9299 135.789 16.6799C136.065 16.4239 136.411 16.2269 136.828 16.0859C137.25 15.9449 137.737 15.8749 138.289 15.8749H139.461ZM144.258 8.99994V20.9999H142.883V8.99994H144.258ZM146.156 17.1799V16.3749C146.156 15.7189 146.24 15.1429 146.406 14.6479C146.573 14.1479 146.805 13.7319 147.102 13.3979C147.398 13.0649 147.745 12.8149 148.141 12.6479C148.536 12.4769 148.961 12.3909 149.414 12.3909C149.878 12.3909 150.307 12.4769 150.703 12.6479C151.099 12.8149 151.445 13.0649 151.742 13.3979C152.044 13.7319 152.279 14.1479 152.445 14.6479C152.612 15.1429 152.695 15.7189 152.695 16.3749V17.1799C152.695 17.8359 152.612 18.4139 152.445 18.9139C152.279 19.4089 152.047 19.8229 151.75 20.1559C151.453 20.4899 151.107 20.7399 150.711 20.9059C150.315 21.0729 149.888 21.1559 149.43 21.1559C148.971 21.1559 148.544 21.0729 148.148 20.9059C147.753 20.7399 147.404 20.4899 147.102 20.1559C146.805 19.8229 146.573 19.4089 146.406 18.9139C146.24 18.4139 146.156 17.8359 146.156 17.1799ZM147.539 16.3749V17.1799C147.539 17.6429 147.586 18.0489 147.68 18.3979C147.773 18.7469 147.906 19.0389 148.078 19.2729C148.25 19.5079 148.451 19.6849 148.68 19.8049C148.909 19.9189 149.159 19.9769 149.43 19.9769C149.742 19.9769 150.016 19.9189 150.25 19.8049C150.49 19.6849 150.688 19.5079 150.844 19.2729C151 19.0389 151.117 18.7469 151.195 18.3979C151.273 18.0489 151.312 17.6429 151.312 17.1799V16.3749C151.312 15.9109 151.266 15.5079 151.172 15.1639C151.078 14.8149 150.945 14.5229 150.773 14.2889C150.602 14.0489 150.398 13.8719 150.164 13.7579C149.935 13.6379 149.685 13.5779 149.414 13.5779C149.148 13.5779 148.901 13.6379 148.672 13.7579C148.443 13.8719 148.242 14.0489 148.07 14.2889C147.904 14.5229 147.773 14.8149 147.68 15.1639C147.586 15.5079 147.539 15.9109 147.539 16.3749ZM148.547 11.2969L150.062 8.99994H151.805L149.711 11.2969H148.547ZM155.859 13.8749V20.9999H154.477V12.5469H155.812L155.859 13.8749ZM157.961 12.4999L157.969 13.8439C157.854 13.8179 157.75 13.8019 157.656 13.7969C157.568 13.7859 157.464 13.7809 157.344 13.7809C157.083 13.7809 156.854 13.8329 156.656 13.9379C156.464 14.0419 156.297 14.1879 156.156 14.3749C156.016 14.5619 155.904 14.7859 155.82 15.0469C155.737 15.3019 155.68 15.5829 155.648 15.8909L155.289 16.1249C155.289 15.6149 155.328 15.1349 155.406 14.6879C155.49 14.2399 155.617 13.8439 155.789 13.4999C155.961 13.1509 156.18 12.8799 156.445 12.6879C156.716 12.4899 157.039 12.3909 157.414 12.3909C157.497 12.3909 157.599 12.4039 157.719 12.4299C157.844 12.4509 157.924 12.4739 157.961 12.4999ZM160.836 12.5469V20.9999H159.461V12.5469H160.836ZM159.383 10.3049C159.383 10.0699 159.448 9.87194 159.578 9.71094C159.708 9.54894 159.904 9.46893 160.164 9.46893C160.424 9.46893 160.62 9.54894 160.75 9.71094C160.885 9.87194 160.953 10.0699 160.953 10.3049C160.953 10.5289 160.885 10.7209 160.75 10.8829C160.62 11.0389 160.424 11.1169 160.164 11.1169C159.904 11.1169 159.708 11.0389 159.578 10.8829C159.448 10.7209 159.383 10.5289 159.383 10.3049ZM165.953 19.9769C166.229 19.9769 166.479 19.922 166.703 19.812C166.932 19.698 167.12 19.5209 167.266 19.2809C167.411 19.0359 167.495 18.7189 167.516 18.3279H168.812C168.792 18.8909 168.648 19.385 168.383 19.812C168.122 20.234 167.779 20.5649 167.352 20.8049C166.93 21.0389 166.464 21.1559 165.953 21.1559C165.406 21.1559 164.93 21.0679 164.523 20.8909C164.122 20.7139 163.789 20.4579 163.523 20.1249C163.263 19.7859 163.068 19.3779 162.938 18.8979C162.807 18.4139 162.742 17.8649 162.742 17.2499V16.2969C162.742 15.6819 162.807 15.1349 162.938 14.6559C163.068 14.1719 163.263 13.7629 163.523 13.4299C163.789 13.0909 164.122 12.8329 164.523 12.6559C164.93 12.4789 165.406 12.3909 165.953 12.3909C166.526 12.3909 167.021 12.5129 167.438 12.7579C167.859 12.9969 168.188 13.3459 168.422 13.8049C168.661 14.2579 168.792 14.8069 168.812 15.4529H167.516C167.495 15.0359 167.419 14.6899 167.289 14.4139C167.159 14.1329 166.982 13.9239 166.758 13.7889C166.534 13.6479 166.266 13.5779 165.953 13.5779C165.589 13.5779 165.286 13.6429 165.047 13.7729C164.812 13.8979 164.628 14.0809 164.492 14.3199C164.357 14.5599 164.26 14.8459 164.203 15.1799C164.151 15.5129 164.125 15.8849 164.125 16.2969V17.2499C164.125 17.6609 164.151 18.0359 164.203 18.3749C164.26 18.7079 164.354 18.9949 164.484 19.2339C164.62 19.4739 164.807 19.6589 165.047 19.7889C165.286 19.9139 165.589 19.9769 165.953 19.9769ZM174.555 19.5549V14.9689C174.555 14.6349 174.503 14.3669 174.398 14.1639C174.299 13.9609 174.148 13.8119 173.945 13.7189C173.747 13.6249 173.497 13.5779 173.195 13.5779C172.904 13.5779 172.651 13.6379 172.438 13.7579C172.229 13.8779 172.068 14.0359 171.953 14.2339C171.844 14.4319 171.789 14.6509 171.789 14.8909H170.406C170.406 14.5889 170.471 14.2889 170.602 13.9919C170.737 13.6949 170.93 13.4269 171.18 13.1879C171.43 12.9429 171.729 12.7499 172.078 12.6089C172.432 12.4639 172.828 12.3909 173.266 12.3909C173.786 12.3909 174.247 12.4769 174.648 12.6479C175.049 12.8149 175.365 13.0889 175.594 13.4689C175.823 13.8489 175.938 14.3539 175.938 14.9839V19.1559C175.938 19.4379 175.958 19.7369 176 20.0549C176.047 20.3719 176.112 20.6459 176.195 20.8749V20.9999H174.766C174.698 20.8329 174.646 20.6119 174.609 20.3359C174.573 20.0549 174.555 19.7939 174.555 19.5549ZM174.773 15.8749L174.789 16.8909H173.828C173.5 16.8909 173.201 16.9269 172.93 16.9999C172.664 17.0729 172.435 17.1799 172.242 17.3199C172.049 17.4559 171.901 17.6249 171.797 17.8279C171.698 18.0309 171.648 18.2629 171.648 18.5229C171.648 18.8619 171.695 19.1329 171.789 19.3359C171.883 19.5339 172.023 19.6769 172.211 19.7659C172.398 19.8539 172.635 19.8979 172.922 19.8979C173.271 19.8979 173.578 19.8179 173.844 19.6559C174.109 19.4949 174.315 19.2989 174.461 19.0699C174.612 18.8409 174.682 18.6279 174.672 18.4299L174.977 19.0779C174.956 19.2809 174.888 19.5029 174.773 19.7419C174.664 19.9769 174.51 20.2029 174.312 20.4219C174.115 20.6349 173.88 20.8119 173.609 20.9529C173.344 21.0889 173.044 21.1559 172.711 21.1559C172.221 21.1559 171.792 21.0619 171.422 20.8749C171.057 20.6879 170.773 20.4109 170.57 20.0469C170.367 19.6819 170.266 19.2319 170.266 18.6949C170.266 18.2889 170.336 17.9139 170.477 17.5699C170.617 17.2269 170.826 16.9299 171.102 16.6799C171.378 16.4239 171.724 16.2269 172.141 16.0859C172.562 15.9449 173.049 15.8749 173.602 15.8749H174.773ZM178.125 20.2339C178.125 19.9899 178.201 19.7839 178.352 19.6169C178.508 19.4449 178.732 19.3589 179.023 19.3589C179.315 19.3589 179.536 19.4449 179.688 19.6169C179.844 19.7839 179.922 19.9899 179.922 20.2339C179.922 20.4739 179.844 20.6769 179.688 20.8439C179.536 21.0099 179.315 21.0939 179.023 21.0939C178.732 21.0939 178.508 21.0099 178.352 20.8439C178.201 20.6769 178.125 20.4739 178.125 20.2339ZM178.117 13.3359C178.117 13.0909 178.193 12.8849 178.344 12.7189C178.5 12.5469 178.724 12.4609 179.016 12.4609C179.307 12.4609 179.529 12.5469 179.68 12.7189C179.836 12.8849 179.914 13.0909 179.914 13.3359C179.914 13.5759 179.836 13.7789 179.68 13.9449C179.529 14.1119 179.307 14.1949 179.016 14.1949C178.724 14.1949 178.5 14.1119 178.344 13.9449C178.193 13.7789 178.117 13.5759 178.117 13.3359Z" fill="black"/>
<path d="M30.9443 39.0031V40.0001H26.0503V39.0031H30.9443ZM26.2979 30.7581V40.0001H25.0728V30.7581H26.2979ZM30.2969 34.731V35.7281H26.0503V34.731H30.2969ZM30.8809 30.7581V31.761H26.0503V30.7581H30.8809ZM27.2817 30.0721L28.5132 28.2061H29.9287L28.2275 30.0721H27.2817ZM37.2603 40.0001H36.0859V32.4081C36.0859 31.9131 36.1748 31.4961 36.3525 31.1581C36.5345 30.8151 36.7948 30.5571 37.1333 30.3831C37.4718 30.2061 37.8739 30.1171 38.3394 30.1171C38.4748 30.1171 38.6102 30.1251 38.7456 30.1421C38.8853 30.1591 39.0207 30.184 39.1519 30.218L39.0884 31.1771C38.9995 31.1561 38.8979 31.141 38.7837 31.132C38.6737 31.124 38.5636 31.1201 38.4536 31.1201C38.2039 31.1201 37.9881 31.1701 37.8062 31.2721C37.6284 31.3691 37.493 31.5131 37.3999 31.7041C37.3068 31.8941 37.2603 32.1291 37.2603 32.4081V40.0001ZM38.7202 33.132V34.0331H35.0005V33.132H38.7202ZM44.23 38.4131V33.132H45.4106V40.0001H44.2871L44.23 38.4131ZM44.4521 36.9661L44.9409 36.9531C44.9409 37.4101 44.8923 37.8331 44.7949 38.2231C44.7018 38.6081 44.5495 38.9421 44.3379 39.2261C44.1263 39.5091 43.8491 39.7311 43.5063 39.8921C43.1636 40.0491 42.7467 40.1271 42.2559 40.1271C41.9215 40.1271 41.6147 40.078 41.3354 39.981C41.0604 39.884 40.8234 39.7331 40.6245 39.5301C40.4256 39.3271 40.2712 39.0631 40.1611 38.7371C40.0553 38.4111 40.0024 38.0201 40.0024 37.5621V33.132H41.1768V37.5751C41.1768 37.8841 41.2106 38.14 41.2783 38.343C41.3503 38.542 41.4455 38.7011 41.564 38.8191C41.6867 38.9341 41.8221 39.0141 41.9702 39.0611C42.1226 39.1071 42.2791 39.1301 42.4399 39.1301C42.9393 39.1301 43.335 39.0351 43.627 38.8451C43.9189 38.6501 44.1284 38.3901 44.2554 38.0641C44.3866 37.7341 44.4521 37.3681 44.4521 36.9661ZM48.375 34.5981V40.0001H47.2007V33.132H48.3115L48.375 34.5981ZM48.0957 36.3061L47.6069 36.287C47.6112 35.817 47.681 35.383 47.8164 34.985C47.9518 34.583 48.1423 34.234 48.3877 33.938C48.6331 33.642 48.9251 33.4131 49.2637 33.2521C49.6064 33.0871 49.9852 33.0051 50.3999 33.0051C50.7384 33.0051 51.0431 33.0511 51.314 33.1451C51.5848 33.2331 51.8154 33.377 52.0059 33.576C52.2005 33.775 52.3486 34.0331 52.4502 34.3511C52.5518 34.6641 52.6025 35.0471 52.6025 35.5001V40.0001H51.4219V35.4871C51.4219 35.1271 51.369 34.8391 51.2632 34.6241C51.1574 34.4031 51.0029 34.2451 50.7998 34.1471C50.5967 34.0461 50.347 33.9951 50.0508 33.9951C49.7588 33.9951 49.4922 34.056 49.251 34.179C49.014 34.302 48.8088 34.4711 48.6353 34.6871C48.466 34.9031 48.3327 35.1501 48.2354 35.4301C48.1423 35.7051 48.0957 35.9971 48.0957 36.3061ZM58.7153 38.6671V30.2501H59.896V40.0001H58.8169L58.7153 38.6671ZM54.0942 36.6421V36.5091C54.0942 35.9841 54.1577 35.5081 54.2847 35.0811C54.4159 34.6491 54.5999 34.2791 54.8369 33.9701C55.0781 33.6611 55.3638 33.4241 55.6938 33.2591C56.0282 33.0901 56.4006 33.0051 56.811 33.0051C57.2427 33.0051 57.6193 33.0811 57.9409 33.2331C58.2668 33.3821 58.5418 33.5991 58.7661 33.8871C58.9946 34.1711 59.1745 34.514 59.3057 34.916C59.4368 35.318 59.5278 35.7721 59.5786 36.2801V36.8641C59.5321 37.3681 59.4411 37.8211 59.3057 38.2231C59.1745 38.6251 58.9946 38.9671 58.7661 39.2511C58.5418 39.5351 58.2668 39.7521 57.9409 39.9051C57.6151 40.0531 57.2342 40.1271 56.7983 40.1271C56.3963 40.1271 56.0282 40.0401 55.6938 39.8671C55.3638 39.6931 55.0781 39.4501 54.8369 39.1371C54.5999 38.8241 54.4159 38.4551 54.2847 38.0321C54.1577 37.6051 54.0942 37.1411 54.0942 36.6421ZM55.2749 36.5091V36.6421C55.2749 36.9851 55.3088 37.3061 55.3765 37.6071C55.4484 37.9071 55.5584 38.1721 55.7065 38.4001C55.8547 38.6291 56.043 38.8091 56.2715 38.9401C56.5 39.0671 56.7729 39.1301 57.0903 39.1301C57.4797 39.1301 57.7992 39.0481 58.0488 38.8831C58.3027 38.7181 58.5059 38.5001 58.6582 38.2291C58.8105 37.9581 58.929 37.664 59.0137 37.347V35.817C58.9629 35.584 58.8888 35.3601 58.7915 35.1441C58.6984 34.9241 58.5757 34.7291 58.4233 34.5601C58.2752 34.3871 58.0911 34.2491 57.8711 34.1471C57.6553 34.0461 57.3993 33.9951 57.103 33.9951C56.7814 33.9951 56.5042 34.0631 56.2715 34.1981C56.043 34.3291 55.8547 34.511 55.7065 34.744C55.5584 34.973 55.4484 35.2391 55.3765 35.5441C55.3088 35.8441 55.2749 36.1661 55.2749 36.5091ZM65.7739 38.826V35.2901C65.7739 35.0191 65.7189 34.7841 65.6089 34.5851C65.5031 34.3821 65.3423 34.2261 65.1265 34.1161C64.9106 34.0061 64.644 33.951 64.3267 33.951C64.0304 33.951 63.7702 34.0011 63.5459 34.1031C63.3258 34.2051 63.1523 34.3381 63.0254 34.5031C62.9027 34.6681 62.8413 34.8461 62.8413 35.0361H61.667C61.667 34.7911 61.7305 34.5471 61.8574 34.3061C61.9844 34.0651 62.1663 33.8471 62.4033 33.6521C62.6445 33.4531 62.9323 33.2971 63.2666 33.1831C63.6051 33.0641 63.9818 33.0051 64.3965 33.0051C64.8958 33.0051 65.3359 33.0901 65.7168 33.2591C66.1019 33.4281 66.4023 33.6841 66.6182 34.0271C66.8382 34.3651 66.9482 34.7911 66.9482 35.3031V38.5021C66.9482 38.7301 66.9673 38.9741 67.0054 39.2321C67.0477 39.4901 67.109 39.7121 67.1895 39.8981V40.0001H65.9644C65.9051 39.8651 65.8586 39.6851 65.8247 39.4601C65.7909 39.2321 65.7739 39.02 65.7739 38.826ZM65.9771 35.8361L65.9897 36.6611H64.8027C64.4684 36.6611 64.1701 36.689 63.9077 36.744C63.6453 36.794 63.4253 36.8731 63.2476 36.9791C63.0698 37.0841 62.9344 37.2181 62.8413 37.3781C62.7482 37.5351 62.7017 37.7191 62.7017 37.9311C62.7017 38.1461 62.7503 38.3431 62.8477 38.5211C62.945 38.6991 63.091 38.8401 63.2856 38.9461C63.4845 39.0481 63.7279 39.0991 64.0156 39.0991C64.3753 39.0991 64.6927 39.0221 64.9678 38.8701C65.2428 38.7181 65.4608 38.5321 65.6216 38.3121C65.7866 38.0911 65.8755 37.8781 65.8882 37.6701L66.3896 38.235C66.36 38.413 66.2796 38.61 66.1484 38.826C66.0173 39.042 65.8416 39.2491 65.6216 39.4481C65.4058 39.6421 65.1476 39.8051 64.8472 39.9371C64.5509 40.0631 64.2166 40.1271 63.8442 40.1271C63.3787 40.1271 62.9704 40.0361 62.6191 39.8541C62.2721 39.6721 62.0013 39.4291 61.8066 39.1241C61.6162 38.8151 61.521 38.4701 61.521 38.0891C61.521 37.7211 61.5929 37.3971 61.7368 37.1181C61.8807 36.8351 62.0881 36.6001 62.3589 36.4141C62.6297 36.2231 62.9556 36.0791 63.3364 35.9821C63.7173 35.8851 64.1426 35.8361 64.6123 35.8361H65.9771ZM69.9634 34.4971V40.0001H68.7827V33.132H69.8999L69.9634 34.4971ZM69.7222 36.3061L69.1763 36.287C69.1805 35.817 69.2419 35.383 69.3604 34.985C69.4788 34.583 69.6545 34.234 69.8872 33.938C70.12 33.642 70.4098 33.4131 70.7568 33.2521C71.1038 33.0871 71.5059 33.0051 71.9629 33.0051C72.2845 33.0051 72.5807 33.0511 72.8516 33.1451C73.1224 33.2331 73.3573 33.3751 73.5562 33.5701C73.755 33.7641 73.9095 34.0141 74.0195 34.3191C74.1296 34.6241 74.1846 34.9921 74.1846 35.4231V40.0001H73.0103V35.4801C73.0103 35.1211 72.9489 34.8331 72.8262 34.6171C72.7077 34.4011 72.5384 34.2451 72.3184 34.1471C72.0983 34.0461 71.8402 33.9951 71.5439 33.9951C71.1969 33.9951 70.9071 34.056 70.6743 34.179C70.4416 34.302 70.2554 34.4711 70.1157 34.6871C69.9761 34.9031 69.8745 35.1501 69.811 35.4301C69.7518 35.7051 69.7222 35.9971 69.7222 36.3061ZM74.1719 35.6581L73.3848 35.899C73.389 35.523 73.4504 35.1611 73.5688 34.8141C73.6916 34.4671 73.8672 34.1581 74.0957 33.8871C74.3285 33.6161 74.6141 33.4031 74.9526 33.2461C75.2912 33.0851 75.6784 33.0051 76.1143 33.0051C76.4824 33.0051 76.8083 33.0541 77.0918 33.1511C77.3796 33.2481 77.6208 33.3981 77.8154 33.6021C78.0143 33.8001 78.1646 34.0561 78.2661 34.3701C78.3677 34.6831 78.4185 35.0551 78.4185 35.4871V40.0001H77.2378V35.4741C77.2378 35.0891 77.1764 34.7911 77.0537 34.5791C76.9352 34.3631 76.766 34.2131 76.5459 34.1281C76.3301 34.0401 76.0719 33.9951 75.7715 33.9951C75.5133 33.9951 75.2848 34.0401 75.0859 34.1281C74.887 34.2171 74.7199 34.3401 74.5845 34.4971C74.4491 34.6491 74.3454 34.8251 74.2734 35.0231C74.2057 35.2221 74.1719 35.4341 74.1719 35.6581ZM83.0459 40.1271C82.5677 40.1271 82.134 40.047 81.7446 39.886C81.3595 39.721 81.0273 39.4901 80.748 39.1941C80.473 38.8981 80.2614 38.5461 80.1133 38.1401C79.9652 37.7341 79.8911 37.2901 79.8911 36.8071V36.541C79.8911 35.982 79.9736 35.4851 80.1387 35.0491C80.3037 34.6091 80.528 34.2361 80.8115 33.9321C81.0951 33.6271 81.4167 33.3961 81.7764 33.2401C82.1361 33.0831 82.5085 33.0051 82.8936 33.0051C83.3844 33.0051 83.8076 33.0901 84.1631 33.2591C84.5228 33.4281 84.8169 33.6651 85.0454 33.9701C85.2739 34.2701 85.4432 34.6261 85.5532 35.0361C85.6632 35.4421 85.7183 35.887 85.7183 36.369V36.8961H80.5894V35.938H84.5439V35.8491C84.527 35.5441 84.4635 35.2481 84.3535 34.9601C84.2477 34.6721 84.0785 34.4351 83.8457 34.2491C83.613 34.0631 83.2956 33.9701 82.8936 33.9701C82.627 33.9701 82.3815 34.0271 82.1572 34.1411C81.9329 34.2511 81.7404 34.416 81.5796 34.636C81.4188 34.856 81.2939 35.125 81.2051 35.442C81.1162 35.76 81.0718 36.126 81.0718 36.541V36.8071C81.0718 37.1331 81.1162 37.4401 81.2051 37.7281C81.2982 38.0111 81.4315 38.2611 81.605 38.4771C81.7827 38.6921 81.9964 38.8621 82.2461 38.9841C82.5 39.1071 82.7878 39.1681 83.1094 39.1681C83.5241 39.1681 83.8753 39.0841 84.1631 38.9151C84.4508 38.7451 84.7026 38.519 84.9185 38.235L85.6294 38.8C85.4813 39.025 85.293 39.2381 85.0645 39.4411C84.8359 39.6451 84.5545 39.8101 84.2202 39.9371C83.8901 40.0631 83.4987 40.1271 83.0459 40.1271ZM88.2637 34.5981V40.0001H87.0894V33.132H88.2002L88.2637 34.5981ZM87.9844 36.3061L87.4956 36.287C87.4998 35.817 87.5697 35.383 87.7051 34.985C87.8405 34.583 88.0309 34.234 88.2764 33.938C88.5218 33.642 88.8138 33.4131 89.1523 33.2521C89.4951 33.0871 89.8739 33.0051 90.2886 33.0051C90.6271 33.0051 90.9318 33.0511 91.2026 33.1451C91.4735 33.2331 91.7041 33.377 91.8945 33.576C92.0892 33.775 92.2373 34.0331 92.3389 34.3511C92.4404 34.6641 92.4912 35.0471 92.4912 35.5001V40.0001H91.3105V35.4871C91.3105 35.1271 91.2576 34.8391 91.1519 34.6241C91.0461 34.4031 90.8916 34.2451 90.6885 34.1471C90.4854 34.0461 90.2357 33.9951 89.9395 33.9951C89.6475 33.9951 89.3809 34.056 89.1396 34.179C88.9027 34.302 88.6974 34.4711 88.5239 34.6871C88.3547 34.9031 88.2214 35.1501 88.124 35.4301C88.0309 35.7051 87.9844 35.9971 87.9844 36.3061ZM97.1504 33.132V34.0331H93.437V33.132H97.1504ZM94.6938 31.4621H95.8682V38.2991C95.8682 38.5321 95.9041 38.707 95.9761 38.826C96.048 38.944 96.1411 39.0221 96.2554 39.0611C96.3696 39.0991 96.4924 39.1181 96.6235 39.1181C96.7209 39.1181 96.8224 39.1091 96.9282 39.0921C97.0382 39.0711 97.1208 39.0541 97.1758 39.0421L97.1821 40.0001C97.089 40.0301 96.9663 40.0571 96.814 40.0831C96.6659 40.1121 96.486 40.1271 96.2744 40.1271C95.9867 40.1271 95.7222 40.0701 95.481 39.9561C95.2397 39.8411 95.0472 39.6511 94.9033 39.3841C94.7637 39.1131 94.6938 38.7501 94.6938 38.2921V31.4621ZM102.578 38.826V35.2901C102.578 35.0191 102.523 34.7841 102.413 34.5851C102.307 34.3821 102.146 34.2261 101.93 34.1161C101.714 34.0061 101.448 33.951 101.13 33.951C100.834 33.951 100.574 34.0011 100.35 34.1031C100.13 34.2051 99.9561 34.3381 99.8291 34.5031C99.7064 34.6681 99.645 34.8461 99.645 35.0361H98.4707C98.4707 34.7911 98.5342 34.5471 98.6611 34.3061C98.7881 34.0651 98.9701 33.8471 99.207 33.6521C99.4482 33.4531 99.736 33.2971 100.07 33.1831C100.409 33.0641 100.785 33.0051 101.2 33.0051C101.7 33.0051 102.14 33.0901 102.521 33.2591C102.906 33.4281 103.206 33.6841 103.422 34.0271C103.642 34.3651 103.752 34.7911 103.752 35.3031V38.5021C103.752 38.7301 103.771 38.9741 103.809 39.2321C103.851 39.4901 103.913 39.7121 103.993 39.8981V40.0001H102.768C102.709 39.8651 102.662 39.6851 102.628 39.4601C102.595 39.2321 102.578 39.02 102.578 38.826ZM102.781 35.8361L102.793 36.6611H101.606C101.272 36.6611 100.974 36.689 100.711 36.744C100.449 36.794 100.229 36.8731 100.051 36.9791C99.8735 37.0841 99.7381 37.2181 99.645 37.3781C99.5519 37.5351 99.5054 37.7191 99.5054 37.9311C99.5054 38.1461 99.554 38.3431 99.6514 38.5211C99.7487 38.6991 99.8947 38.8401 100.089 38.9461C100.288 39.0481 100.532 39.0991 100.819 39.0991C101.179 39.0991 101.496 39.0221 101.771 38.8701C102.047 38.7181 102.264 38.5321 102.425 38.3121C102.59 38.0911 102.679 37.8781 102.692 37.6701L103.193 38.235C103.164 38.413 103.083 38.61 102.952 38.826C102.821 39.042 102.645 39.2491 102.425 39.4481C102.209 39.6421 101.951 39.8051 101.651 39.9371C101.355 40.0631 101.02 40.1271 100.648 40.1271C100.182 40.1271 99.7741 40.0361 99.4229 39.8541C99.0758 39.6721 98.805 39.4291 98.6104 39.1241C98.4199 38.8151 98.3247 38.4701 98.3247 38.0891C98.3247 37.7211 98.3966 37.3971 98.5405 37.1181C98.6844 36.8351 98.8918 36.6001 99.1626 36.4141C99.4334 36.2231 99.7593 36.0791 100.14 35.9821C100.521 35.8851 100.946 35.8361 101.416 35.8361H102.781ZM106.875 30.2501V40.0001H105.694V30.2501H106.875ZM111.674 36.6421V36.4961C111.674 36.0011 111.746 35.542 111.89 35.119C112.034 34.691 112.241 34.3211 112.512 34.0081C112.783 33.6901 113.111 33.4451 113.496 33.2711C113.881 33.0941 114.312 33.0051 114.791 33.0051C115.273 33.0051 115.707 33.0941 116.092 33.2711C116.481 33.4451 116.811 33.6901 117.082 34.0081C117.357 34.3211 117.567 34.691 117.71 35.119C117.854 35.542 117.926 36.0011 117.926 36.4961V36.6421C117.926 37.1371 117.854 37.5961 117.71 38.0201C117.567 38.4431 117.357 38.8131 117.082 39.1301C116.811 39.4441 116.483 39.6891 116.098 39.8671C115.717 40.0401 115.286 40.1271 114.803 40.1271C114.321 40.1271 113.887 40.0401 113.502 39.8671C113.117 39.6891 112.787 39.4441 112.512 39.1301C112.241 38.8131 112.034 38.4431 111.89 38.0201C111.746 37.5961 111.674 37.1371 111.674 36.6421ZM112.848 36.4961V36.6421C112.848 36.9851 112.888 37.3091 112.969 37.6131C113.049 37.9141 113.17 38.1801 113.331 38.4131C113.496 38.6461 113.701 38.8301 113.946 38.9651C114.192 39.0971 114.477 39.162 114.803 39.162C115.125 39.162 115.406 39.0971 115.647 38.9651C115.893 38.8301 116.096 38.6461 116.257 38.4131C116.418 38.1801 116.538 37.9141 116.619 37.6131C116.703 37.3091 116.746 36.9851 116.746 36.6421V36.4961C116.746 36.1581 116.703 35.8381 116.619 35.5381C116.538 35.2331 116.416 34.964 116.25 34.731C116.09 34.494 115.887 34.3081 115.641 34.1731C115.4 34.0371 115.116 33.9701 114.791 33.9701C114.469 33.9701 114.185 34.0371 113.94 34.1731C113.699 34.3081 113.496 34.494 113.331 34.731C113.17 34.964 113.049 35.2331 112.969 35.5381C112.888 35.8381 112.848 36.1581 112.848 36.4961ZM126.673 38.826V35.2901C126.673 35.0191 126.618 34.7841 126.508 34.5851C126.403 34.3821 126.242 34.2261 126.026 34.1161C125.81 34.0061 125.543 33.951 125.226 33.951C124.93 33.951 124.67 34.0011 124.445 34.1031C124.225 34.2051 124.052 34.3381 123.925 34.5031C123.802 34.6681 123.741 34.8461 123.741 35.0361H122.566C122.566 34.7911 122.63 34.5471 122.757 34.3061C122.884 34.0651 123.066 33.8471 123.303 33.6521C123.544 33.4531 123.832 33.2971 124.166 33.1831C124.505 33.0641 124.881 33.0051 125.296 33.0051C125.795 33.0051 126.235 33.0901 126.616 33.2591C127.001 33.4281 127.302 33.6841 127.518 34.0271C127.738 34.3651 127.848 34.7911 127.848 35.3031V38.5021C127.848 38.7301 127.867 38.9741 127.905 39.2321C127.947 39.4901 128.008 39.7121 128.089 39.8981V40.0001H126.864C126.805 39.8651 126.758 39.6851 126.724 39.4601C126.69 39.2321 126.673 39.02 126.673 38.826ZM126.876 35.8361L126.889 36.6611H125.702C125.368 36.6611 125.069 36.689 124.807 36.744C124.545 36.794 124.325 36.8731 124.147 36.9791C123.969 37.0841 123.834 37.2181 123.741 37.3781C123.648 37.5351 123.601 37.7191 123.601 37.9311C123.601 38.1461 123.65 38.3431 123.747 38.5211C123.844 38.6991 123.99 38.8401 124.185 38.9461C124.384 39.0481 124.627 39.0991 124.915 39.0991C125.275 39.0991 125.592 39.0221 125.867 38.8701C126.142 38.7181 126.36 38.5321 126.521 38.3121C126.686 38.0911 126.775 37.8781 126.788 37.6701L127.289 38.235C127.259 38.413 127.179 38.61 127.048 38.826C126.917 39.042 126.741 39.2491 126.521 39.4481C126.305 39.6421 126.047 39.8051 125.747 39.9371C125.45 40.0631 125.116 40.1271 124.744 40.1271C124.278 40.1271 123.87 40.0361 123.519 39.8541C123.172 39.6721 122.901 39.4291 122.706 39.1241C122.516 38.8151 122.42 38.4701 122.42 38.0891C122.42 37.7211 122.492 37.3971 122.636 37.1181C122.78 36.8351 122.987 36.6001 123.258 36.4141C123.529 36.2231 123.855 36.0791 124.236 35.9821C124.617 35.8851 125.042 35.8361 125.512 35.8361H126.876ZM132.443 39.162C132.723 39.162 132.981 39.1051 133.218 38.9911C133.455 38.8761 133.649 38.7201 133.802 38.5211C133.954 38.3181 134.041 38.0871 134.062 37.8291H135.179C135.158 38.2351 135.021 38.6141 134.767 38.9651C134.517 39.3121 134.189 39.5941 133.783 39.8101C133.376 40.0211 132.93 40.1271 132.443 40.1271C131.927 40.1271 131.476 40.0361 131.091 39.8541C130.71 39.6721 130.393 39.4221 130.139 39.1051C129.889 38.7881 129.701 38.4241 129.574 38.0131C129.451 37.5981 129.39 37.1601 129.39 36.6991V36.4331C129.39 35.9711 129.451 35.5351 129.574 35.1251C129.701 34.7101 129.889 34.3441 130.139 34.0271C130.393 33.7091 130.71 33.4601 131.091 33.2781C131.476 33.0961 131.927 33.0051 132.443 33.0051C132.981 33.0051 133.451 33.1151 133.853 33.3351C134.255 33.5511 134.57 33.8471 134.798 34.2241C135.031 34.5961 135.158 35.0191 135.179 35.4931H134.062C134.041 35.2101 133.96 34.9541 133.821 34.7251C133.685 34.4971 133.499 34.315 133.262 34.179C133.029 34.04 132.757 33.9701 132.443 33.9701C132.084 33.9701 131.781 34.0421 131.536 34.1861C131.294 34.3251 131.102 34.516 130.958 34.757C130.818 34.994 130.717 35.258 130.653 35.55C130.594 35.838 130.564 36.1321 130.564 36.4331V36.6991C130.564 37.0001 130.594 37.2961 130.653 37.5881C130.713 37.8801 130.812 38.1441 130.952 38.3811C131.096 38.6181 131.288 38.8091 131.529 38.9531C131.775 39.0921 132.079 39.162 132.443 39.162ZM136.188 36.6421V36.4961C136.188 36.0011 136.26 35.542 136.404 35.119C136.548 34.691 136.756 34.3211 137.026 34.0081C137.297 33.6901 137.625 33.4451 138.01 33.2711C138.395 33.0941 138.827 33.0051 139.305 33.0051C139.788 33.0051 140.221 33.0941 140.606 33.2711C140.996 33.4451 141.326 33.6901 141.597 34.0081C141.872 34.3211 142.081 34.691 142.225 35.119C142.369 35.542 142.441 36.0011 142.441 36.4961V36.6421C142.441 37.1371 142.369 37.5961 142.225 38.0201C142.081 38.4431 141.872 38.8131 141.597 39.1301C141.326 39.4441 140.998 39.6891 140.613 39.8671C140.232 40.0401 139.8 40.1271 139.318 40.1271C138.835 40.1271 138.402 40.0401 138.017 39.8671C137.632 39.6891 137.301 39.4441 137.026 39.1301C136.756 38.8131 136.548 38.4431 136.404 38.0201C136.26 37.5961 136.188 37.1371 136.188 36.6421ZM137.363 36.4961V36.6421C137.363 36.9851 137.403 37.3091 137.483 37.6131C137.564 37.9141 137.684 38.1801 137.845 38.4131C138.01 38.6461 138.215 38.8301 138.461 38.9651C138.706 39.0971 138.992 39.162 139.318 39.162C139.639 39.162 139.921 39.0971 140.162 38.9651C140.408 38.8301 140.611 38.6461 140.771 38.4131C140.932 38.1801 141.053 37.9141 141.133 37.6131C141.218 37.3091 141.26 36.9851 141.26 36.6421V36.4961C141.26 36.1581 141.218 35.8381 141.133 35.5381C141.053 35.2331 140.93 34.964 140.765 34.731C140.604 34.494 140.401 34.3081 140.156 34.1731C139.915 34.0371 139.631 33.9701 139.305 33.9701C138.984 33.9701 138.7 34.0371 138.455 34.1731C138.213 34.3081 138.01 34.494 137.845 34.731C137.684 34.964 137.564 35.2331 137.483 35.5381C137.403 35.8381 137.363 36.1581 137.363 36.4961ZM145.082 34.4971V40.0001H143.901V33.132H145.018L145.082 34.4971ZM144.84 36.3061L144.294 36.287C144.299 35.817 144.36 35.383 144.479 34.985C144.597 34.583 144.773 34.234 145.005 33.938C145.238 33.642 145.528 33.4131 145.875 33.2521C146.222 33.0871 146.624 33.0051 147.081 33.0051C147.403 33.0051 147.699 33.0511 147.97 33.1451C148.241 33.2331 148.475 33.3751 148.674 33.5701C148.873 33.7641 149.028 34.0141 149.138 34.3191C149.248 34.6241 149.303 34.9921 149.303 35.4231V40.0001H148.128V35.4801C148.128 35.1211 148.067 34.8331 147.944 34.6171C147.826 34.4011 147.657 34.2451 147.437 34.1471C147.216 34.0461 146.958 33.9951 146.662 33.9951C146.315 33.9951 146.025 34.056 145.792 34.179C145.56 34.302 145.374 34.4711 145.234 34.6871C145.094 34.9031 144.993 35.1501 144.929 35.4301C144.87 35.7051 144.84 35.9971 144.84 36.3061ZM149.29 35.6581L148.503 35.899C148.507 35.523 148.569 35.1611 148.687 34.8141C148.81 34.4671 148.985 34.1581 149.214 33.8871C149.447 33.6161 149.732 33.4031 150.071 33.2461C150.409 33.0851 150.797 33.0051 151.232 33.0051C151.601 33.0051 151.926 33.0541 152.21 33.1511C152.498 33.2481 152.739 33.3981 152.934 33.6021C153.132 33.8001 153.283 34.0561 153.384 34.3701C153.486 34.6831 153.537 35.0551 153.537 35.4871V40.0001H152.356V35.4741C152.356 35.0891 152.295 34.7911 152.172 34.5791C152.053 34.3631 151.884 34.2131 151.664 34.1281C151.448 34.0401 151.19 33.9951 150.89 33.9951C150.632 33.9951 150.403 34.0401 150.204 34.1281C150.005 34.2171 149.838 34.3401 149.703 34.4971C149.567 34.6491 149.464 34.8251 149.392 35.0231C149.324 35.2221 149.29 35.4341 149.29 35.6581ZM156.488 34.4521V42.6411H155.308V33.132H156.387L156.488 34.4521ZM161.116 36.5091V36.6421C161.116 37.1411 161.056 37.6051 160.938 38.0321C160.819 38.4551 160.646 38.8241 160.417 39.1371C160.193 39.4501 159.916 39.6931 159.586 39.8671C159.256 40.0401 158.877 40.1271 158.45 40.1271C158.014 40.1271 157.629 40.0551 157.294 39.9111C156.96 39.7671 156.677 39.5581 156.444 39.2831C156.211 39.0081 156.025 38.6781 155.885 38.2921C155.75 37.9071 155.657 37.4741 155.606 36.9911V36.2801C155.657 35.7721 155.752 35.318 155.892 34.916C156.031 34.514 156.215 34.1711 156.444 33.8871C156.677 33.5991 156.958 33.3821 157.288 33.2331C157.618 33.0811 157.999 33.0051 158.431 33.0051C158.862 33.0051 159.245 33.0901 159.58 33.2591C159.914 33.4241 160.195 33.6611 160.424 33.9701C160.652 34.2791 160.824 34.6491 160.938 35.0811C161.056 35.5081 161.116 35.9841 161.116 36.5091ZM159.935 36.6421V36.5091C159.935 36.1661 159.899 35.8441 159.827 35.5441C159.755 35.2391 159.643 34.973 159.491 34.744C159.343 34.511 159.152 34.3291 158.919 34.1981C158.687 34.0631 158.41 33.9951 158.088 33.9951C157.792 33.9951 157.534 34.0461 157.313 34.1471C157.098 34.2491 156.914 34.3871 156.761 34.5601C156.609 34.7291 156.484 34.9241 156.387 35.1441C156.294 35.3601 156.224 35.584 156.177 35.817V37.4611C156.262 37.7571 156.38 38.0361 156.533 38.2991C156.685 38.5571 156.888 38.7661 157.142 38.9271C157.396 39.0841 157.715 39.162 158.101 39.162C158.418 39.162 158.691 39.0971 158.919 38.9651C159.152 38.8301 159.343 38.6461 159.491 38.4131C159.643 38.1801 159.755 37.9141 159.827 37.6131C159.899 37.3091 159.935 36.9851 159.935 36.6421ZM166.664 38.826V35.2901C166.664 35.0191 166.609 34.7841 166.499 34.5851C166.393 34.3821 166.232 34.2261 166.016 34.1161C165.8 34.0061 165.534 33.951 165.216 33.951C164.92 33.951 164.66 34.0011 164.436 34.1031C164.215 34.2051 164.042 34.3381 163.915 34.5031C163.792 34.6681 163.731 34.8461 163.731 35.0361H162.557C162.557 34.7911 162.62 34.5471 162.747 34.3061C162.874 34.0651 163.056 33.8471 163.293 33.6521C163.534 33.4531 163.822 33.2971 164.156 33.1831C164.495 33.0641 164.871 33.0051 165.286 33.0051C165.785 33.0051 166.226 33.0901 166.606 33.2591C166.992 33.4281 167.292 33.6841 167.508 34.0271C167.728 34.3651 167.838 34.7911 167.838 35.3031V38.5021C167.838 38.7301 167.857 38.9741 167.895 39.2321C167.937 39.4901 167.999 39.7121 168.079 39.8981V40.0001H166.854C166.795 39.8651 166.748 39.6851 166.714 39.4601C166.681 39.2321 166.664 39.02 166.664 38.826ZM166.867 35.8361L166.879 36.6611H165.692C165.358 36.6611 165.06 36.689 164.797 36.744C164.535 36.794 164.315 36.8731 164.137 36.9791C163.959 37.0841 163.824 37.2181 163.731 37.3781C163.638 37.5351 163.591 37.7191 163.591 37.9311C163.591 38.1461 163.64 38.3431 163.737 38.5211C163.835 38.6991 163.981 38.8401 164.175 38.9461C164.374 39.0481 164.618 39.0991 164.905 39.0991C165.265 39.0991 165.582 39.0221 165.857 38.8701C166.132 38.7181 166.35 38.5321 166.511 38.3121C166.676 38.0911 166.765 37.8781 166.778 37.6701L167.279 38.235C167.25 38.413 167.169 38.61 167.038 38.826C166.907 39.042 166.731 39.2491 166.511 39.4481C166.295 39.6421 166.037 39.8051 165.737 39.9371C165.441 40.0631 165.106 40.1271 164.734 40.1271C164.268 40.1271 163.86 40.0361 163.509 39.8541C163.162 39.6721 162.891 39.4291 162.696 39.1241C162.506 38.8151 162.411 38.4701 162.411 38.0891C162.411 37.7211 162.483 37.3971 162.626 37.1181C162.77 36.8351 162.978 36.6001 163.249 36.4141C163.519 36.2231 163.845 36.0791 164.226 35.9821C164.607 35.8851 165.032 35.8361 165.502 35.8361H166.867ZM170.859 34.5981V40.0001H169.685V33.132H170.796L170.859 34.5981ZM170.58 36.3061L170.091 36.287C170.096 35.817 170.165 35.383 170.301 34.985C170.436 34.583 170.627 34.234 170.872 33.938C171.118 33.642 171.41 33.4131 171.748 33.2521C172.091 33.0871 172.47 33.0051 172.884 33.0051C173.223 33.0051 173.528 33.0511 173.798 33.1451C174.069 33.2331 174.3 33.377 174.49 33.576C174.685 33.775 174.833 34.0331 174.935 34.3511C175.036 34.6641 175.087 35.0471 175.087 35.5001V40.0001H173.906V35.4871C173.906 35.1271 173.853 34.8391 173.748 34.6241C173.642 34.4031 173.487 34.2451 173.284 34.1471C173.081 34.0461 172.831 33.9951 172.535 33.9951C172.243 33.9951 171.977 34.056 171.735 34.179C171.498 34.302 171.293 34.4711 171.12 34.6871C170.95 34.9031 170.817 35.1501 170.72 35.4301C170.627 35.7051 170.58 35.9971 170.58 36.3061ZM178.045 30.2501V40.0001H176.871V30.2501H178.045ZM177.766 36.3061L177.277 36.287C177.281 35.817 177.351 35.383 177.486 34.985C177.622 34.583 177.812 34.234 178.058 33.938C178.303 33.642 178.595 33.4131 178.934 33.2521C179.276 33.0871 179.655 33.0051 180.07 33.0051C180.408 33.0051 180.713 33.0511 180.984 33.1451C181.255 33.2331 181.485 33.377 181.676 33.576C181.87 33.775 182.019 34.0331 182.12 34.3511C182.222 34.6641 182.272 35.0471 182.272 35.5001V40.0001H181.092V35.4871C181.092 35.1271 181.039 34.8391 180.933 34.6241C180.827 34.4031 180.673 34.2451 180.47 34.1471C180.267 34.0461 180.017 33.9951 179.721 33.9951C179.429 33.9951 179.162 34.056 178.921 34.179C178.684 34.302 178.479 34.4711 178.305 34.6871C178.136 34.9031 178.003 35.1501 177.905 35.4301C177.812 35.7051 177.766 35.9971 177.766 36.3061ZM188.081 38.826V35.2901C188.081 35.0191 188.026 34.7841 187.916 34.5851C187.81 34.3821 187.649 34.2261 187.433 34.1161C187.217 34.0061 186.951 33.951 186.633 33.951C186.337 33.951 186.077 34.0011 185.853 34.1031C185.632 34.2051 185.459 34.3381 185.332 34.5031C185.209 34.6681 185.148 34.8461 185.148 35.0361H183.974C183.974 34.7911 184.037 34.5471 184.164 34.3061C184.291 34.0651 184.473 33.8471 184.71 33.6521C184.951 33.4531 185.239 33.2971 185.573 33.1831C185.912 33.0641 186.288 33.0051 186.703 33.0051C187.202 33.0051 187.643 33.0901 188.023 33.2591C188.409 33.4281 188.709 33.6841 188.925 34.0271C189.145 34.3651 189.255 34.7911 189.255 35.3031V38.5021C189.255 38.7301 189.274 38.9741 189.312 39.2321C189.354 39.4901 189.416 39.7121 189.496 39.8981V40.0001H188.271C188.212 39.8651 188.165 39.6851 188.131 39.4601C188.097 39.2321 188.081 39.02 188.081 38.826ZM188.284 35.8361L188.296 36.6611H187.109C186.775 36.6611 186.477 36.689 186.214 36.744C185.952 36.794 185.732 36.8731 185.554 36.9791C185.376 37.0841 185.241 37.2181 185.148 37.3781C185.055 37.5351 185.008 37.7191 185.008 37.9311C185.008 38.1461 185.057 38.3431 185.154 38.5211C185.252 38.6991 185.398 38.8401 185.592 38.9461C185.791 39.0481 186.035 39.0991 186.322 39.0991C186.682 39.0991 186.999 39.0221 187.274 38.8701C187.549 38.7181 187.767 38.5321 187.928 38.3121C188.093 38.0911 188.182 37.8781 188.195 37.6701L188.696 38.235C188.667 38.413 188.586 38.61 188.455 38.826C188.324 39.042 188.148 39.2491 187.928 39.4481C187.712 39.6421 187.454 39.8051 187.154 39.9371C186.858 40.0631 186.523 40.1271 186.151 40.1271C185.685 40.1271 185.277 40.0361 184.926 39.8541C184.579 39.6721 184.308 39.4291 184.113 39.1241C183.923 38.8151 183.828 38.4701 183.828 38.0891C183.828 37.7211 183.9 37.3971 184.043 37.1181C184.187 36.8351 184.395 36.6001 184.666 36.4141C184.936 36.2231 185.262 36.0791 185.643 35.9821C186.024 35.8851 186.449 35.8361 186.919 35.8361H188.284ZM192.27 34.4971V40.0001H191.089V33.132H192.207L192.27 34.4971ZM192.029 36.3061L191.483 36.287C191.487 35.817 191.549 35.383 191.667 34.985C191.785 34.583 191.961 34.234 192.194 33.938C192.427 33.642 192.716 33.4131 193.063 33.2521C193.41 33.0871 193.812 33.0051 194.27 33.0051C194.591 33.0051 194.887 33.0511 195.158 33.1451C195.429 33.2331 195.664 33.3751 195.863 33.5701C196.062 33.7641 196.216 34.0141 196.326 34.3191C196.436 34.6241 196.491 34.9921 196.491 35.4231V40.0001H195.317V35.4801C195.317 35.1211 195.256 34.8331 195.133 34.6171C195.014 34.4011 194.845 34.2451 194.625 34.1471C194.405 34.0461 194.147 33.9951 193.851 33.9951C193.504 33.9951 193.214 34.056 192.981 34.179C192.748 34.302 192.562 34.4711 192.422 34.6871C192.283 34.9031 192.181 35.1501 192.118 35.4301C192.058 35.7051 192.029 35.9971 192.029 36.3061ZM196.479 35.6581L195.691 35.899C195.696 35.523 195.757 35.1611 195.875 34.8141C195.998 34.4671 196.174 34.1581 196.402 33.8871C196.635 33.6161 196.921 33.4031 197.259 33.2461C197.598 33.0851 197.985 33.0051 198.421 33.0051C198.789 33.0051 199.115 33.0541 199.398 33.1511C199.686 33.2481 199.927 33.3981 200.122 33.6021C200.321 33.8001 200.471 34.0561 200.573 34.3701C200.674 34.6831 200.725 35.0551 200.725 35.4871V40.0001H199.544V35.4741C199.544 35.0891 199.483 34.7911 199.36 34.5791C199.242 34.3631 199.073 34.2131 198.853 34.1281C198.637 34.0401 198.379 33.9951 198.078 33.9951C197.82 33.9951 197.591 34.0401 197.393 34.1281C197.194 34.2171 197.027 34.3401 196.891 34.4971C196.756 34.6491 196.652 34.8251 196.58 35.0231C196.512 35.2221 196.479 35.4341 196.479 35.6581ZM205.353 40.1271C204.874 40.1271 204.441 40.047 204.051 39.886C203.666 39.721 203.334 39.4901 203.055 39.1941C202.78 38.8981 202.568 38.5461 202.42 38.1401C202.272 37.7341 202.198 37.2901 202.198 36.8071V36.541C202.198 35.982 202.28 35.4851 202.445 35.0491C202.61 34.6091 202.835 34.2361 203.118 33.9321C203.402 33.6271 203.723 33.3961 204.083 33.2401C204.443 33.0831 204.815 33.0051 205.2 33.0051C205.691 33.0051 206.114 33.0901 206.47 33.2591C206.829 33.4281 207.124 33.6651 207.352 33.9701C207.581 34.2701 207.75 34.6261 207.86 35.0361C207.97 35.4421 208.025 35.887 208.025 36.369V36.8961H202.896V35.938H206.851V35.8491C206.834 35.5441 206.77 35.2481 206.66 34.9601C206.554 34.6721 206.385 34.4351 206.152 34.2491C205.92 34.0631 205.602 33.9701 205.2 33.9701C204.934 33.9701 204.688 34.0271 204.464 34.1411C204.24 34.2511 204.047 34.416 203.886 34.636C203.725 34.856 203.601 35.125 203.512 35.442C203.423 35.76 203.378 36.126 203.378 36.541V36.8071C203.378 37.1331 203.423 37.4401 203.512 37.7281C203.605 38.0111 203.738 38.2611 203.912 38.4771C204.089 38.6921 204.303 38.8621 204.553 38.9841C204.807 39.1071 205.094 39.1681 205.416 39.1681C205.831 39.1681 206.182 39.0841 206.47 38.9151C206.757 38.7451 207.009 38.519 207.225 38.235L207.936 38.8C207.788 39.025 207.6 39.2381 207.371 39.4411C207.143 39.6451 206.861 39.8101 206.527 39.9371C206.197 40.0631 205.805 40.1271 205.353 40.1271ZM210.57 34.5981V40.0001H209.396V33.132H210.507L210.57 34.5981ZM210.291 36.3061L209.802 36.287C209.806 35.817 209.876 35.383 210.012 34.985C210.147 34.583 210.338 34.234 210.583 33.938C210.828 33.642 211.12 33.4131 211.459 33.2521C211.802 33.0871 212.181 33.0051 212.595 33.0051C212.934 33.0051 213.238 33.0511 213.509 33.1451C213.78 33.2331 214.011 33.377 214.201 33.576C214.396 33.775 214.544 34.0331 214.646 34.3511C214.747 34.6641 214.798 35.0471 214.798 35.5001V40.0001H213.617V35.4871C213.617 35.1271 213.564 34.8391 213.458 34.6241C213.353 34.4031 213.198 34.2451 212.995 34.1471C212.792 34.0461 212.542 33.9951 212.246 33.9951C211.954 33.9951 211.688 34.056 211.446 34.179C211.209 34.302 211.004 34.4711 210.831 34.6871C210.661 34.9031 210.528 35.1501 210.431 35.4301C210.338 35.7051 210.291 35.9971 210.291 36.3061ZM219.457 33.132V34.0331H215.744V33.132H219.457ZM217 31.4621H218.175V38.2991C218.175 38.5321 218.211 38.707 218.283 38.826C218.355 38.944 218.448 39.0221 218.562 39.0611C218.676 39.0991 218.799 39.1181 218.93 39.1181C219.028 39.1181 219.129 39.1091 219.235 39.0921C219.345 39.0711 219.427 39.0541 219.482 39.0421L219.489 40.0001C219.396 40.0301 219.273 40.0571 219.121 40.0831C218.972 40.1121 218.793 40.1271 218.581 40.1271C218.293 40.1271 218.029 40.0701 217.788 39.9561C217.546 39.8411 217.354 39.6511 217.21 39.3841C217.07 39.1131 217 38.7501 217 38.2921V31.4621ZM220.396 36.6421V36.4961C220.396 36.0011 220.468 35.542 220.612 35.119C220.756 34.691 220.964 34.3211 221.234 34.0081C221.505 33.6901 221.833 33.4451 222.218 33.2711C222.603 33.0941 223.035 33.0051 223.513 33.0051C223.996 33.0051 224.429 33.0941 224.814 33.2711C225.204 33.4451 225.534 33.6901 225.805 34.0081C226.08 34.3211 226.289 34.691 226.433 35.119C226.577 35.542 226.649 36.0011 226.649 36.4961V36.6421C226.649 37.1371 226.577 37.5961 226.433 38.0201C226.289 38.4431 226.08 38.8131 225.805 39.1301C225.534 39.4441 225.206 39.6891 224.821 39.8671C224.44 40.0401 224.008 40.1271 223.526 40.1271C223.043 40.1271 222.61 40.0401 222.225 39.8671C221.84 39.6891 221.509 39.4441 221.234 39.1301C220.964 38.8131 220.756 38.4431 220.612 38.0201C220.468 37.5961 220.396 37.1371 220.396 36.6421ZM221.571 36.4961V36.6421C221.571 36.9851 221.611 37.3091 221.691 37.6131C221.772 37.9141 221.892 38.1801 222.053 38.4131C222.218 38.6461 222.424 38.8301 222.669 38.9651C222.914 39.0971 223.2 39.162 223.526 39.162C223.847 39.162 224.129 39.0971 224.37 38.9651C224.616 38.8301 224.819 38.6461 224.979 38.4131C225.14 38.1801 225.261 37.9141 225.341 37.6131C225.426 37.3091 225.468 36.9851 225.468 36.6421V36.4961C225.468 36.1581 225.426 35.8381 225.341 35.5381C225.261 35.2331 225.138 34.964 224.973 34.731C224.812 34.494 224.609 34.3081 224.364 34.1731C224.123 34.0371 223.839 33.9701 223.513 33.9701C223.192 33.9701 222.908 34.0371 222.663 34.1731C222.421 34.3081 222.218 34.494 222.053 34.731C221.892 34.964 221.772 35.2331 221.691 35.5381C221.611 35.8381 221.571 36.1581 221.571 36.4961ZM232.514 34.4971V40.0001H231.333V33.132H232.451L232.514 34.4971ZM232.273 36.3061L231.727 36.287C231.731 35.817 231.793 35.383 231.911 34.985C232.03 34.583 232.205 34.234 232.438 33.938C232.671 33.642 232.961 33.4131 233.308 33.2521C233.655 33.0871 234.057 33.0051 234.514 33.0051C234.835 33.0051 235.132 33.0511 235.402 33.1451C235.673 33.2331 235.908 33.3751 236.107 33.5701C236.306 33.7641 236.46 34.0141 236.57 34.3191C236.68 34.6241 236.735 34.9921 236.735 35.4231V40.0001H235.561V35.4801C235.561 35.1211 235.5 34.8331 235.377 34.6171C235.258 34.4011 235.089 34.2451 234.869 34.1471C234.649 34.0461 234.391 33.9951 234.095 33.9951C233.748 33.9951 233.458 34.056 233.225 34.179C232.992 34.302 232.806 34.4711 232.667 34.6871C232.527 34.9031 232.425 35.1501 232.362 35.4301C232.303 35.7051 232.273 35.9971 232.273 36.3061ZM236.723 35.6581L235.936 35.899C235.94 35.523 236.001 35.1611 236.12 34.8141C236.242 34.4671 236.418 34.1581 236.646 33.8871C236.879 33.6161 237.165 33.4031 237.503 33.2461C237.842 33.0851 238.229 33.0051 238.665 33.0051C239.033 33.0051 239.359 33.0541 239.643 33.1511C239.93 33.2481 240.172 33.3981 240.366 33.6021C240.565 33.8001 240.715 34.0561 240.817 34.3701C240.918 34.6831 240.969 35.0551 240.969 35.4871V40.0001H239.789V35.4741C239.789 35.0891 239.727 34.7911 239.604 34.5791C239.486 34.3631 239.317 34.2131 239.097 34.1281C238.881 34.0401 238.623 33.9951 238.322 33.9951C238.064 33.9951 237.836 34.0401 237.637 34.1281C237.438 34.2171 237.271 34.3401 237.135 34.4971C237 34.6491 236.896 34.8251 236.824 35.0231C236.757 35.2221 236.723 35.4341 236.723 35.6581ZM245.597 40.1271C245.118 40.1271 244.685 40.047 244.295 39.886C243.91 39.721 243.578 39.4901 243.299 39.1941C243.024 38.8981 242.812 38.5461 242.664 38.1401C242.516 37.7341 242.442 37.2901 242.442 36.8071V36.541C242.442 35.982 242.524 35.4851 242.689 35.0491C242.854 34.6091 243.079 34.2361 243.362 33.9321C243.646 33.6271 243.967 33.3961 244.327 33.2401C244.687 33.0831 245.059 33.0051 245.444 33.0051C245.935 33.0051 246.358 33.0901 246.714 33.2591C247.074 33.4281 247.368 33.6651 247.596 33.9701C247.825 34.2701 247.994 34.6261 248.104 35.0361C248.214 35.4421 248.269 35.887 248.269 36.369V36.8961H243.14V35.938H247.095V35.8491C247.078 35.5441 247.014 35.2481 246.904 34.9601C246.799 34.6721 246.629 34.4351 246.396 34.2491C246.164 34.0631 245.846 33.9701 245.444 33.9701C245.178 33.9701 244.932 34.0271 244.708 34.1411C244.484 34.2511 244.291 34.416 244.13 34.636C243.97 34.856 243.845 35.125 243.756 35.442C243.667 35.76 243.623 36.126 243.623 36.541V36.8071C243.623 37.1331 243.667 37.4401 243.756 37.7281C243.849 38.0111 243.982 38.2611 244.156 38.4771C244.333 38.6921 244.547 38.8621 244.797 38.9841C245.051 39.1071 245.339 39.1681 245.66 39.1681C246.075 39.1681 246.426 39.0841 246.714 38.9151C247.002 38.7451 247.253 38.519 247.469 38.235L248.18 38.8C248.032 39.025 247.844 39.2381 247.615 39.4411C247.387 39.6451 247.105 39.8101 246.771 39.9371C246.441 40.0631 246.049 40.1271 245.597 40.1271ZM244.791 32.1161L246.022 30.2501H247.438L245.736 32.1161H244.791ZM253.969 38.6671V30.2501H255.15V40.0001H254.071L253.969 38.6671ZM249.348 36.6421V36.5091C249.348 35.9841 249.412 35.5081 249.539 35.0811C249.67 34.6491 249.854 34.2791 250.091 33.9701C250.332 33.6611 250.618 33.4241 250.948 33.2591C251.282 33.0901 251.654 33.0051 252.065 33.0051C252.497 33.0051 252.873 33.0811 253.195 33.2331C253.521 33.3821 253.796 33.5991 254.02 33.8871C254.249 34.1711 254.428 34.514 254.56 34.916C254.691 35.318 254.782 35.7721 254.833 36.2801V36.8641C254.786 37.3681 254.695 37.8211 254.56 38.2231C254.428 38.6251 254.249 38.9671 254.02 39.2511C253.796 39.5351 253.521 39.7521 253.195 39.9051C252.869 40.0531 252.488 40.1271 252.052 40.1271C251.65 40.1271 251.282 40.0401 250.948 39.8671C250.618 39.6931 250.332 39.4501 250.091 39.1371C249.854 38.8241 249.67 38.4551 249.539 38.0321C249.412 37.6051 249.348 37.1411 249.348 36.6421ZM250.529 36.5091V36.6421C250.529 36.9851 250.563 37.3061 250.63 37.6071C250.702 37.9071 250.812 38.1721 250.96 38.4001C251.109 38.6291 251.297 38.8091 251.525 38.9401C251.754 39.0671 252.027 39.1301 252.344 39.1301C252.734 39.1301 253.053 39.0481 253.303 38.8831C253.557 38.7181 253.76 38.5001 253.912 38.2291C254.064 37.9581 254.183 37.664 254.268 37.347V35.817C254.217 35.584 254.143 35.3601 254.045 35.1441C253.952 34.9241 253.83 34.7291 253.677 34.5601C253.529 34.3871 253.345 34.2491 253.125 34.1471C252.909 34.0461 252.653 33.9951 252.357 33.9951C252.035 33.9951 251.758 34.0631 251.525 34.1981C251.297 34.3291 251.109 34.511 250.96 34.744C250.812 34.973 250.702 35.2391 250.63 35.5441C250.563 35.8441 250.529 36.1661 250.529 36.5091ZM258.254 33.132V40.0001H257.073V33.132H258.254ZM256.984 31.3101C256.984 31.1201 257.042 30.9591 257.156 30.8281C257.274 30.6961 257.448 30.6311 257.676 30.6311C257.901 30.6311 258.072 30.6961 258.19 30.8281C258.313 30.9591 258.375 31.1201 258.375 31.3101C258.375 31.4921 258.313 31.6491 258.19 31.7801C258.072 31.9071 257.901 31.9701 257.676 31.9701C257.448 31.9701 257.274 31.9071 257.156 31.7801C257.042 31.6491 256.984 31.4921 256.984 31.3101ZM262.888 39.162C263.167 39.162 263.425 39.1051 263.662 38.9911C263.899 38.8761 264.094 38.7201 264.246 38.5211C264.398 38.3181 264.485 38.0871 264.506 37.8291H265.624C265.602 38.2351 265.465 38.6141 265.211 38.9651C264.961 39.3121 264.633 39.5941 264.227 39.8101C263.821 40.0211 263.374 40.1271 262.888 40.1271C262.371 40.1271 261.921 40.0361 261.536 39.8541C261.155 39.6721 260.837 39.4221 260.583 39.1051C260.334 38.7881 260.146 38.4241 260.019 38.0131C259.896 37.5981 259.834 37.1601 259.834 36.6991V36.4331C259.834 35.9711 259.896 35.5351 260.019 35.1251C260.146 34.7101 260.334 34.3441 260.583 34.0271C260.837 33.7091 261.155 33.4601 261.536 33.2781C261.921 33.0961 262.371 33.0051 262.888 33.0051C263.425 33.0051 263.895 33.1151 264.297 33.3351C264.699 33.5511 265.014 33.8471 265.243 34.2241C265.475 34.5961 265.602 35.0191 265.624 35.4931H264.506C264.485 35.2101 264.405 34.9541 264.265 34.7251C264.13 34.4971 263.944 34.315 263.707 34.179C263.474 34.04 263.201 33.9701 262.888 33.9701C262.528 33.9701 262.225 34.0421 261.98 34.1861C261.739 34.3251 261.546 34.516 261.402 34.757C261.263 34.994 261.161 35.258 261.098 35.55C261.038 35.838 261.009 36.1321 261.009 36.4331V36.6991C261.009 37.0001 261.038 37.2961 261.098 37.5881C261.157 37.8801 261.256 38.1441 261.396 38.3811C261.54 38.6181 261.732 38.8091 261.974 38.9531C262.219 39.0921 262.524 39.162 262.888 39.162ZM266.633 36.6421V36.4961C266.633 36.0011 266.705 35.542 266.849 35.119C266.993 34.691 267.2 34.3211 267.471 34.0081C267.742 33.6901 268.069 33.4451 268.455 33.2711C268.84 33.0941 269.271 33.0051 269.75 33.0051C270.232 33.0051 270.666 33.0941 271.051 33.2711C271.44 33.4451 271.77 33.6901 272.041 34.0081C272.316 34.3211 272.526 34.691 272.669 35.119C272.813 35.542 272.885 36.0011 272.885 36.4961V36.6421C272.885 37.1371 272.813 37.5961 272.669 38.0201C272.526 38.4431 272.316 38.8131 272.041 39.1301C271.77 39.4441 271.442 39.6891 271.057 39.8671C270.676 40.0401 270.245 40.1271 269.762 40.1271C269.28 40.1271 268.846 40.0401 268.461 39.8671C268.076 39.6891 267.746 39.4441 267.471 39.1301C267.2 38.8131 266.993 38.4431 266.849 38.0201C266.705 37.5961 266.633 37.1371 266.633 36.6421ZM267.807 36.4961V36.6421C267.807 36.9851 267.847 37.3091 267.928 37.6131C268.008 37.9141 268.129 38.1801 268.29 38.4131C268.455 38.6461 268.66 38.8301 268.905 38.9651C269.151 39.0971 269.436 39.162 269.762 39.162C270.084 39.162 270.365 39.0971 270.606 38.9651C270.852 38.8301 271.055 38.6461 271.216 38.4131C271.377 38.1801 271.497 37.9141 271.578 37.6131C271.662 37.3091 271.705 36.9851 271.705 36.6421V36.4961C271.705 36.1581 271.662 35.8381 271.578 35.5381C271.497 35.2331 271.375 34.964 271.209 34.731C271.049 34.494 270.846 34.3081 270.6 34.1731C270.359 34.0371 270.075 33.9701 269.75 33.9701C269.428 33.9701 269.144 34.0371 268.899 34.1731C268.658 34.3081 268.455 34.494 268.29 34.731C268.129 34.964 268.008 35.2331 267.928 35.5381C267.847 35.8381 267.807 36.1581 267.807 36.4961ZM278.757 34.4521V42.6411H277.576V33.132H278.655L278.757 34.4521ZM283.384 36.5091V36.6421C283.384 37.1411 283.325 37.6051 283.207 38.0321C283.088 38.4551 282.915 38.8241 282.686 39.1371C282.462 39.4501 282.185 39.6931 281.854 39.8671C281.524 40.0401 281.146 40.1271 280.718 40.1271C280.282 40.1271 279.897 40.0551 279.563 39.9111C279.229 39.7671 278.945 39.5581 278.712 39.2831C278.48 39.0081 278.293 38.6781 278.154 38.2921C278.018 37.9071 277.925 37.4741 277.875 36.9911V36.2801C277.925 35.7721 278.021 35.318 278.16 34.916C278.3 34.514 278.484 34.1711 278.712 33.8871C278.945 33.5991 279.227 33.3821 279.557 33.2331C279.887 33.0811 280.268 33.0051 280.699 33.0051C281.131 33.0051 281.514 33.0901 281.848 33.2591C282.182 33.4241 282.464 33.6611 282.692 33.9701C282.921 34.2791 283.092 34.6491 283.207 35.0811C283.325 35.5081 283.384 35.9841 283.384 36.5091ZM282.204 36.6421V36.5091C282.204 36.1661 282.168 35.8441 282.096 35.5441C282.024 35.2391 281.912 34.973 281.759 34.744C281.611 34.511 281.421 34.3291 281.188 34.1981C280.955 34.0631 280.678 33.9951 280.356 33.9951C280.06 33.9951 279.802 34.0461 279.582 34.1471C279.366 34.2491 279.182 34.3871 279.03 34.5601C278.877 34.7291 278.753 34.9241 278.655 35.1441C278.562 35.3601 278.492 35.584 278.446 35.817V37.4611C278.53 37.7571 278.649 38.0361 278.801 38.2991C278.954 38.5571 279.157 38.7661 279.411 38.9271C279.665 39.0841 279.984 39.162 280.369 39.162C280.687 39.162 280.959 39.0971 281.188 38.9651C281.421 38.8301 281.611 38.6461 281.759 38.4131C281.912 38.1801 282.024 37.9141 282.096 37.6131C282.168 37.3091 282.204 36.9851 282.204 36.6421ZM288.932 38.826V35.2901C288.932 35.0191 288.877 34.7841 288.767 34.5851C288.661 34.3821 288.5 34.2261 288.285 34.1161C288.069 34.0061 287.802 33.951 287.485 33.951C287.189 33.951 286.928 34.0011 286.704 34.1031C286.484 34.2051 286.311 34.3381 286.184 34.5031C286.061 34.6681 286 34.8461 286 35.0361H284.825C284.825 34.7911 284.889 34.5471 285.016 34.3061C285.143 34.0651 285.325 33.8471 285.562 33.6521C285.803 33.4531 286.09 33.2971 286.425 33.1831C286.763 33.0641 287.14 33.0051 287.555 33.0051C288.054 33.0051 288.494 33.0901 288.875 33.2591C289.26 33.4281 289.561 33.6841 289.776 34.0271C289.996 34.3651 290.106 34.7911 290.106 35.3031V38.5021C290.106 38.7301 290.125 38.9741 290.164 39.2321C290.206 39.4901 290.267 39.7121 290.348 39.8981V40.0001H289.123C289.063 39.8651 289.017 39.6851 288.983 39.4601C288.949 39.2321 288.932 39.02 288.932 38.826ZM289.135 35.8361L289.148 36.6611H287.961C287.627 36.6611 287.328 36.689 287.066 36.744C286.804 36.794 286.583 36.8731 286.406 36.9791C286.228 37.0841 286.093 37.2181 286 37.3781C285.906 37.5351 285.86 37.7191 285.86 37.9311C285.86 38.1461 285.909 38.3431 286.006 38.5211C286.103 38.6991 286.249 38.8401 286.444 38.9461C286.643 39.0481 286.886 39.0991 287.174 39.0991C287.534 39.0991 287.851 39.0221 288.126 38.8701C288.401 38.7181 288.619 38.5321 288.78 38.3121C288.945 38.0911 289.034 37.8781 289.046 37.6701L289.548 38.235C289.518 38.413 289.438 38.61 289.307 38.826C289.175 39.042 289 39.2491 288.78 39.4481C288.564 39.6421 288.306 39.8051 288.005 39.9371C287.709 40.0631 287.375 40.1271 287.002 40.1271C286.537 40.1271 286.129 40.0361 285.777 39.8541C285.43 39.6721 285.16 39.4291 284.965 39.1241C284.774 38.8151 284.679 38.4701 284.679 38.0891C284.679 37.7211 284.751 37.3971 284.895 37.1181C285.039 36.8351 285.246 36.6001 285.517 36.4141C285.788 36.2231 286.114 36.0791 286.495 35.9821C286.875 35.8851 287.301 35.8361 287.771 35.8361H289.135ZM293.128 34.2111V40.0001H291.954V33.132H293.096L293.128 34.2111ZM295.273 33.0941L295.267 34.1861C295.17 34.1641 295.077 34.1521 294.988 34.1471C294.903 34.1391 294.806 34.1351 294.696 34.1351C294.425 34.1351 294.186 34.1771 293.979 34.2621C293.771 34.3461 293.596 34.4651 293.452 34.6171C293.308 34.7701 293.194 34.9511 293.109 35.1631C293.028 35.3701 292.976 35.5991 292.95 35.8491L292.62 36.0391C292.62 35.6241 292.66 35.2351 292.741 34.8711C292.825 34.5071 292.954 34.1861 293.128 33.9061C293.301 33.6231 293.521 33.4031 293.788 33.2461C294.059 33.0851 294.381 33.0051 294.753 33.0051C294.838 33.0051 294.935 33.015 295.045 33.037C295.155 33.054 295.231 33.0731 295.273 33.0941ZM300.155 38.826V35.2901C300.155 35.0191 300.1 34.7841 299.99 34.5851C299.884 34.3821 299.723 34.2261 299.507 34.1161C299.292 34.0061 299.025 33.951 298.708 33.951C298.411 33.951 298.151 34.0011 297.927 34.1031C297.707 34.2051 297.533 34.3381 297.406 34.5031C297.284 34.6681 297.222 34.8461 297.222 35.0361H296.048C296.048 34.7911 296.111 34.5471 296.238 34.3061C296.365 34.0651 296.547 33.8471 296.784 33.6521C297.025 33.4531 297.313 33.2971 297.647 33.1831C297.986 33.0641 298.363 33.0051 298.777 33.0051C299.277 33.0051 299.717 33.0901 300.098 33.2591C300.483 33.4281 300.783 33.6841 300.999 34.0271C301.219 34.3651 301.329 34.7911 301.329 35.3031V38.5021C301.329 38.7301 301.348 38.9741 301.386 39.2321C301.429 39.4901 301.49 39.7121 301.57 39.8981V40.0001H300.345C300.286 39.8651 300.239 39.6851 300.206 39.4601C300.172 39.2321 300.155 39.02 300.155 38.826ZM300.358 35.8361L300.371 36.6611H299.184C298.849 36.6611 298.551 36.689 298.289 36.744C298.026 36.794 297.806 36.8731 297.628 36.9791C297.451 37.0841 297.315 37.2181 297.222 37.3781C297.129 37.5351 297.083 37.7191 297.083 37.9311C297.083 38.1461 297.131 38.3431 297.229 38.5211C297.326 38.6991 297.472 38.8401 297.667 38.9461C297.865 39.0481 298.109 39.0991 298.396 39.0991C298.756 39.0991 299.074 39.0221 299.349 38.8701C299.624 38.7181 299.842 38.5321 300.002 38.3121C300.167 38.0911 300.256 37.8781 300.269 37.6701L300.771 38.235C300.741 38.413 300.66 38.61 300.529 38.826C300.398 39.042 300.222 39.2491 300.002 39.4481C299.787 39.6421 299.528 39.8051 299.228 39.9371C298.932 40.0631 298.597 40.1271 298.225 40.1271C297.76 40.1271 297.351 40.0361 297 39.8541C296.653 39.6721 296.382 39.4291 296.188 39.1241C295.997 38.8151 295.902 38.4701 295.902 38.0891C295.902 37.7211 295.974 37.3971 296.118 37.1181C296.262 36.8351 296.469 36.6001 296.74 36.4141C297.011 36.2231 297.336 36.0791 297.717 35.9821C298.098 35.8851 298.523 35.8361 298.993 35.8361H300.358ZM27.6436 54.162C27.9229 54.162 28.181 54.1051 28.418 53.9911C28.6549 53.8761 28.8496 53.7201 29.002 53.5211C29.1543 53.3181 29.241 53.0871 29.2622 52.8291H30.3794C30.3582 53.2351 30.2207 53.6141 29.9668 53.9651C29.7171 54.3121 29.3892 54.5941 28.9829 54.8101C28.5767 55.0211 28.1302 55.1271 27.6436 55.1271C27.1273 55.1271 26.6766 55.0361 26.2915 54.8541C25.9106 54.6721 25.5933 54.4221 25.3394 54.1051C25.0897 53.7881 24.9014 53.4241 24.7744 53.0131C24.6517 52.5981 24.5903 52.1601 24.5903 51.6991V51.4331C24.5903 50.9711 24.6517 50.5351 24.7744 50.1251C24.9014 49.7101 25.0897 49.3441 25.3394 49.0271C25.5933 48.7091 25.9106 48.4601 26.2915 48.2781C26.6766 48.0961 27.1273 48.0051 27.6436 48.0051C28.181 48.0051 28.6507 48.1151 29.0527 48.3351C29.4548 48.5511 29.77 48.8471 29.9985 49.2241C30.2313 49.5961 30.3582 50.0191 30.3794 50.4931H29.2622C29.241 50.2101 29.1606 49.9541 29.021 49.7251C28.8856 49.4971 28.6994 49.315 28.4624 49.179C28.2297 49.04 27.9567 48.9701 27.6436 48.9701C27.2839 48.9701 26.9813 49.0421 26.7358 49.1861C26.4946 49.3251 26.3021 49.516 26.1582 49.757C26.0186 49.994 25.917 50.258 25.8535 50.55C25.7943 50.838 25.7646 51.1321 25.7646 51.4331V51.6991C25.7646 52.0001 25.7943 52.2961 25.8535 52.5881C25.9128 52.8801 26.0122 53.1441 26.1519 53.3811C26.2957 53.6181 26.4883 53.8091 26.7295 53.9531C26.9749 54.0921 27.2796 54.162 27.6436 54.162ZM31.3887 51.6421V51.4961C31.3887 51.0011 31.4606 50.542 31.6045 50.119C31.7484 49.691 31.9557 49.3211 32.2266 49.0081C32.4974 48.6901 32.8254 48.4451 33.2104 48.2711C33.5955 48.0941 34.0272 48.0051 34.5054 48.0051C34.9878 48.0051 35.4215 48.0941 35.8066 48.2711C36.196 48.4451 36.526 48.6901 36.7969 49.0081C37.0719 49.3211 37.2814 49.691 37.4253 50.119C37.5692 50.542 37.6411 51.0011 37.6411 51.4961V51.6421C37.6411 52.1371 37.5692 52.5961 37.4253 53.0201C37.2814 53.4431 37.0719 53.8131 36.7969 54.1301C36.526 54.4441 36.1981 54.6891 35.813 54.8671C35.4321 55.0401 35.0005 55.1271 34.5181 55.1271C34.0356 55.1271 33.6019 55.0401 33.2168 54.8671C32.8317 54.6891 32.5016 54.4441 32.2266 54.1301C31.9557 53.8131 31.7484 53.4431 31.6045 53.0201C31.4606 52.5961 31.3887 52.1371 31.3887 51.6421ZM32.563 51.4961V51.6421C32.563 51.9851 32.6032 52.3091 32.6836 52.6131C32.764 52.9141 32.8846 53.1801 33.0454 53.4131C33.2104 53.6461 33.4157 53.8301 33.6611 53.9651C33.9066 54.0971 34.1922 54.162 34.5181 54.162C34.8397 54.162 35.1211 54.0971 35.3623 53.9651C35.6077 53.8301 35.8109 53.6461 35.9717 53.4131C36.1325 53.1801 36.2531 52.9141 36.3335 52.6131C36.4181 52.3091 36.4604 51.9851 36.4604 51.6421V51.4961C36.4604 51.1581 36.4181 50.8381 36.3335 50.5381C36.2531 50.2331 36.1304 49.964 35.9653 49.731C35.8045 49.494 35.6014 49.3081 35.356 49.1731C35.1147 49.0371 34.8312 48.9701 34.5054 48.9701C34.1838 48.9701 33.9002 49.0371 33.6548 49.1731C33.4136 49.3081 33.2104 49.494 33.0454 49.731C32.8846 49.964 32.764 50.2331 32.6836 50.5381C32.6032 50.8381 32.563 51.1581 32.563 51.4961ZM40.2881 49.5981V55.0001H39.1138V48.132H40.2246L40.2881 49.5981ZM40.0088 51.3061L39.52 51.287C39.5243 50.817 39.5941 50.383 39.7295 49.985C39.8649 49.583 40.0553 49.234 40.3008 48.938C40.5462 48.642 40.8382 48.4131 41.1768 48.2521C41.5195 48.0871 41.8983 48.0051 42.313 48.0051C42.6515 48.0051 42.9562 48.0511 43.2271 48.1451C43.4979 48.2331 43.7285 48.377 43.9189 48.576C44.1136 48.775 44.2617 49.0331 44.3633 49.3511C44.4648 49.6641 44.5156 50.0471 44.5156 50.5001V55.0001H43.335V50.4871C43.335 50.1271 43.2821 49.8391 43.1763 49.6241C43.0705 49.4031 42.916 49.2451 42.7129 49.1471C42.5098 49.0461 42.2601 48.9951 41.9639 48.9951C41.6719 48.9951 41.4053 49.056 41.1641 49.179C40.9271 49.302 40.7218 49.4711 40.5483 49.6871C40.3791 49.9031 40.2458 50.1501 40.1484 50.4301C40.0553 50.7051 40.0088 50.9971 40.0088 51.3061ZM49.1748 48.132V49.0331H45.4614V48.132H49.1748ZM46.7183 46.4621H47.8926V53.2991C47.8926 53.5321 47.9285 53.707 48.0005 53.826C48.0724 53.944 48.1655 54.0221 48.2798 54.0611C48.394 54.0991 48.5168 54.1181 48.6479 54.1181C48.7453 54.1181 48.8468 54.1091 48.9526 54.0921C49.0627 54.0711 49.1452 54.0541 49.2002 54.0421L49.2065 55.0001C49.1134 55.0301 48.9907 55.0571 48.8384 55.0831C48.6903 55.1121 48.5104 55.1271 48.2988 55.1271C48.0111 55.1271 47.7466 55.0701 47.5054 54.9561C47.2642 54.8411 47.0716 54.6511 46.9277 54.3841C46.7881 54.1131 46.7183 53.7501 46.7183 53.2921V46.4621ZM51.7266 49.2111V55.0001H50.5522V48.132H51.6948L51.7266 49.2111ZM53.8721 48.0941L53.8657 49.1861C53.7684 49.1641 53.6753 49.1521 53.5864 49.1471C53.5018 49.1391 53.4045 49.1351 53.2944 49.1351C53.0236 49.1351 52.7845 49.1771 52.5771 49.2621C52.3698 49.3461 52.1942 49.4651 52.0503 49.6171C51.9064 49.7701 51.7922 49.9511 51.7075 50.1631C51.6271 50.3701 51.5742 50.5991 51.5488 50.8491L51.2188 51.0391C51.2188 50.6241 51.259 50.2351 51.3394 49.8711C51.424 49.5071 51.5531 49.1861 51.7266 48.9061C51.9001 48.6231 52.1201 48.4031 52.3867 48.2461C52.6576 48.0851 52.9792 48.0051 53.3516 48.0051C53.4362 48.0051 53.5335 48.015 53.6436 48.037C53.7536 48.054 53.8298 48.0731 53.8721 48.0941ZM54.5195 51.6421V51.4961C54.5195 51.0011 54.5915 50.542 54.7354 50.119C54.8792 49.691 55.0866 49.3211 55.3574 49.0081C55.6283 48.6901 55.9562 48.4451 56.3413 48.2711C56.7264 48.0941 57.158 48.0051 57.6362 48.0051C58.1187 48.0051 58.5524 48.0941 58.9375 48.2711C59.3268 48.4451 59.6569 48.6901 59.9277 49.0081C60.2028 49.3211 60.4123 49.691 60.5562 50.119C60.7 50.542 60.772 51.0011 60.772 51.4961V51.6421C60.772 52.1371 60.7 52.5961 60.5562 53.0201C60.4123 53.4431 60.2028 53.8131 59.9277 54.1301C59.6569 54.4441 59.3289 54.6891 58.9438 54.8671C58.563 55.0401 58.1313 55.1271 57.6489 55.1271C57.1665 55.1271 56.7327 55.0401 56.3477 54.8671C55.9626 54.6891 55.6325 54.4441 55.3574 54.1301C55.0866 53.8131 54.8792 53.4431 54.7354 53.0201C54.5915 52.5961 54.5195 52.1371 54.5195 51.6421ZM55.6938 51.4961V51.6421C55.6938 51.9851 55.734 52.3091 55.8145 52.6131C55.8949 52.9141 56.0155 53.1801 56.1763 53.4131C56.3413 53.6461 56.5465 53.8301 56.792 53.9651C57.0374 54.0971 57.3231 54.162 57.6489 54.162C57.9705 54.162 58.252 54.0971 58.4932 53.9651C58.7386 53.8301 58.9417 53.6461 59.1025 53.4131C59.2633 53.1801 59.384 52.9141 59.4644 52.6131C59.549 52.3091 59.5913 51.9851 59.5913 51.6421V51.4961C59.5913 51.1581 59.549 50.8381 59.4644 50.5381C59.384 50.2331 59.2612 49.964 59.0962 49.731C58.9354 49.494 58.7323 49.3081 58.4868 49.1731C58.2456 49.0371 57.9621 48.9701 57.6362 48.9701C57.3146 48.9701 57.0311 49.0371 56.7856 49.1731C56.5444 49.3081 56.3413 49.494 56.1763 49.731C56.0155 49.964 55.8949 50.2331 55.8145 50.5381C55.734 50.8381 55.6938 51.1581 55.6938 51.4961ZM63.5205 45.2501V55.0001H62.3398V45.2501H63.5205ZM68.2559 55.1271C67.7777 55.1271 67.3439 55.047 66.9546 54.886C66.5695 54.721 66.2373 54.4901 65.958 54.1941C65.6829 53.8981 65.4714 53.5461 65.3232 53.1401C65.1751 52.7341 65.1011 52.2901 65.1011 51.8071V51.541C65.1011 50.982 65.1836 50.4851 65.3486 50.0491C65.5137 49.6091 65.738 49.2361 66.0215 48.9321C66.305 48.6271 66.6266 48.3961 66.9863 48.2401C67.346 48.0831 67.7184 48.0051 68.1035 48.0051C68.5944 48.0051 69.0176 48.0901 69.373 48.2591C69.7327 48.4281 70.0269 48.6651 70.2554 48.9701C70.4839 49.2701 70.6532 49.6261 70.7632 50.0361C70.8732 50.4421 70.9282 50.887 70.9282 51.369V51.8961H65.7993V50.938H69.7539V50.8491C69.737 50.5441 69.6735 50.2481 69.5635 49.9601C69.4577 49.6721 69.2884 49.4351 69.0557 49.2491C68.8229 49.0631 68.5055 48.9701 68.1035 48.9701C67.8369 48.9701 67.5915 49.0271 67.3672 49.1411C67.1429 49.2511 66.9504 49.416 66.7896 49.636C66.6287 49.856 66.5039 50.125 66.415 50.442C66.3262 50.76 66.2817 51.126 66.2817 51.541V51.8071C66.2817 52.1331 66.3262 52.4401 66.415 52.7281C66.5081 53.0111 66.6414 53.2611 66.8149 53.4771C66.9927 53.6921 67.2064 53.8621 67.4561 53.9841C67.71 54.1071 67.9977 54.1681 68.3193 54.1681C68.734 54.1681 69.0853 54.0841 69.373 53.9151C69.6608 53.7451 69.9126 53.519 70.1284 53.235L70.8394 53.8C70.6912 54.025 70.5029 54.2381 70.2744 54.4411C70.0459 54.6451 69.7645 54.8101 69.4302 54.9371C69.1001 55.0631 68.7087 55.1271 68.2559 55.1271ZM76.6982 49.5981V55.0001H75.5239V48.132H76.6348L76.6982 49.5981ZM76.4189 51.3061L75.9302 51.287C75.9344 50.817 76.0042 50.383 76.1396 49.985C76.2751 49.583 76.4655 49.234 76.7109 48.938C76.9564 48.642 77.2484 48.4131 77.5869 48.2521C77.9297 48.0871 78.3084 48.0051 78.7231 48.0051C79.0617 48.0051 79.3664 48.0511 79.6372 48.1451C79.908 48.2331 80.1387 48.377 80.3291 48.576C80.5238 48.775 80.6719 49.0331 80.7734 49.3511C80.875 49.6641 80.9258 50.0471 80.9258 50.5001V55.0001H79.7451V50.4871C79.7451 50.1271 79.6922 49.8391 79.5864 49.6241C79.4806 49.4031 79.3262 49.2451 79.123 49.1471C78.9199 49.0461 78.6702 48.9951 78.374 48.9951C78.082 48.9951 77.8154 49.056 77.5742 49.179C77.3372 49.302 77.132 49.4711 76.9585 49.6871C76.7892 49.9031 76.6559 50.1501 76.5586 50.4301C76.4655 50.7051 76.4189 50.9971 76.4189 51.3061ZM86.9116 53.4131V48.132H88.0923V55.0001H86.9688L86.9116 53.4131ZM87.1338 51.9661L87.6226 51.9531C87.6226 52.4101 87.5739 52.8331 87.4766 53.2231C87.3835 53.6081 87.2311 53.9421 87.0195 54.2261C86.8079 54.5091 86.5308 54.7311 86.188 54.8921C85.8452 55.0491 85.4284 55.1271 84.9375 55.1271C84.6032 55.1271 84.2964 55.078 84.0171 54.981C83.742 54.884 83.505 54.7331 83.3062 54.5301C83.1073 54.3271 82.9528 54.0631 82.8428 53.7371C82.737 53.4111 82.6841 53.0201 82.6841 52.5621V48.132H83.8584V52.5751C83.8584 52.8841 83.8923 53.14 83.96 53.343C84.0319 53.542 84.1271 53.7011 84.2456 53.8191C84.3683 53.9341 84.5037 54.0141 84.6519 54.0611C84.8042 54.1071 84.9608 54.1301 85.1216 54.1301C85.6209 54.1301 86.0166 54.0351 86.3086 53.8451C86.6006 53.6501 86.8101 53.3901 86.937 53.0641C87.0682 52.7341 87.1338 52.3681 87.1338 51.9661ZM92.7578 48.132V49.0331H89.0444V48.132H92.7578ZM90.3013 46.4621H91.4756V53.2991C91.4756 53.5321 91.5116 53.707 91.5835 53.826C91.6554 53.944 91.7485 54.0221 91.8628 54.0611C91.9771 54.0991 92.0998 54.1181 92.231 54.1181C92.3283 54.1181 92.4299 54.1091 92.5356 54.0921C92.6457 54.0711 92.7282 54.0541 92.7832 54.0421L92.7896 55.0001C92.6965 55.0301 92.5737 55.0571 92.4214 55.0831C92.2733 55.1121 92.0934 55.1271 91.8818 55.1271C91.5941 55.1271 91.3296 55.0701 91.0884 54.9561C90.8472 54.8411 90.6546 54.6511 90.5107 54.3841C90.3711 54.1131 90.3013 53.7501 90.3013 53.2921V46.4621ZM95.3096 49.2111V55.0001H94.1353V48.132H95.2778L95.3096 49.2111ZM97.4551 48.0941L97.4487 49.1861C97.3514 49.1641 97.2583 49.1521 97.1694 49.1471C97.0848 49.1391 96.9875 49.1351 96.8774 49.1351C96.6066 49.1351 96.3675 49.1771 96.1602 49.2621C95.9528 49.3461 95.7772 49.4651 95.6333 49.6171C95.4894 49.7701 95.3752 49.9511 95.2905 50.1631C95.2101 50.3701 95.1572 50.5991 95.1318 50.8491L94.8018 51.0391C94.8018 50.6241 94.842 50.2351 94.9224 49.8711C95.007 49.5071 95.1361 49.1861 95.3096 48.9061C95.4831 48.6231 95.7031 48.4031 95.9697 48.2461C96.2406 48.0851 96.5622 48.0051 96.9346 48.0051C97.0192 48.0051 97.1165 48.015 97.2266 48.037C97.3366 48.054 97.4128 48.0731 97.4551 48.0941ZM99.8164 48.132V55.0001H98.6357V48.132H99.8164ZM98.5469 46.3101C98.5469 46.1201 98.604 45.9591 98.7183 45.8281C98.8368 45.6961 99.0103 45.6311 99.2388 45.6311C99.4631 45.6311 99.6344 45.6961 99.7529 45.8281C99.8757 45.9591 99.937 46.1201 99.937 46.3101C99.937 46.4921 99.8757 46.6491 99.7529 46.7801C99.6344 46.9071 99.4631 46.9701 99.2388 46.9701C99.0103 46.9701 98.8368 46.9071 98.7183 46.7801C98.604 46.6491 98.5469 46.4921 98.5469 46.3101ZM104.45 54.162C104.729 54.162 104.988 54.1051 105.225 53.9911C105.462 53.8761 105.656 53.7201 105.809 53.5211C105.961 53.3181 106.048 53.0871 106.069 52.8291H107.186C107.165 53.2351 107.027 53.6141 106.773 53.9651C106.524 54.3121 106.196 54.5941 105.79 54.8101C105.383 55.0211 104.937 55.1271 104.45 55.1271C103.934 55.1271 103.483 55.0361 103.098 54.8541C102.717 54.6721 102.4 54.4221 102.146 54.1051C101.896 53.7881 101.708 53.4241 101.581 53.0131C101.458 52.5981 101.397 52.1601 101.397 51.6991V51.4331C101.397 50.9711 101.458 50.5351 101.581 50.1251C101.708 49.7101 101.896 49.3441 102.146 49.0271C102.4 48.7091 102.717 48.4601 103.098 48.2781C103.483 48.0961 103.934 48.0051 104.45 48.0051C104.988 48.0051 105.457 48.1151 105.859 48.3351C106.261 48.5511 106.577 48.8471 106.805 49.2241C107.038 49.5961 107.165 50.0191 107.186 50.4931H106.069C106.048 50.2101 105.967 49.9541 105.828 49.7251C105.692 49.4971 105.506 49.315 105.269 49.179C105.036 49.04 104.763 48.9701 104.45 48.9701C104.09 48.9701 103.788 49.0421 103.542 49.1861C103.301 49.3251 103.109 49.516 102.965 49.757C102.825 49.994 102.724 50.258 102.66 50.55C102.601 50.838 102.571 51.1321 102.571 51.4331V51.6991C102.571 52.0001 102.601 52.2961 102.66 52.5881C102.719 52.8801 102.819 53.1441 102.958 53.3811C103.102 53.6181 103.295 53.8091 103.536 53.9531C103.782 54.0921 104.086 54.162 104.45 54.162ZM109.782 48.132V55.0001H108.602V48.132H109.782ZM108.513 46.3101C108.513 46.1201 108.57 45.9591 108.684 45.8281C108.803 45.6961 108.976 45.6311 109.205 45.6311C109.429 45.6311 109.6 45.6961 109.719 45.8281C109.841 45.9591 109.903 46.1201 109.903 46.3101C109.903 46.4921 109.841 46.6491 109.719 46.7801C109.6 46.9071 109.429 46.9701 109.205 46.9701C108.976 46.9701 108.803 46.9071 108.684 46.7801C108.57 46.6491 108.513 46.4921 108.513 46.3101ZM111.356 51.6421V51.4961C111.356 51.0011 111.428 50.542 111.572 50.119C111.716 49.691 111.924 49.3211 112.194 49.0081C112.465 48.6901 112.793 48.4451 113.178 48.2711C113.563 48.0941 113.995 48.0051 114.473 48.0051C114.956 48.0051 115.389 48.0941 115.774 48.2711C116.164 48.4451 116.494 48.6901 116.765 49.0081C117.04 49.3211 117.249 49.691 117.393 50.119C117.537 50.542 117.609 51.0011 117.609 51.4961V51.6421C117.609 52.1371 117.537 52.5961 117.393 53.0201C117.249 53.4431 117.04 53.8131 116.765 54.1301C116.494 54.4441 116.166 54.6891 115.781 54.8671C115.4 55.0401 114.968 55.1271 114.486 55.1271C114.003 55.1271 113.57 55.0401 113.185 54.8671C112.799 54.6891 112.469 54.4441 112.194 54.1301C111.924 53.8131 111.716 53.4431 111.572 53.0201C111.428 52.5961 111.356 52.1371 111.356 51.6421ZM112.531 51.4961V51.6421C112.531 51.9851 112.571 52.3091 112.651 52.6131C112.732 52.9141 112.852 53.1801 113.013 53.4131C113.178 53.6461 113.383 53.8301 113.629 53.9651C113.874 54.0971 114.16 54.162 114.486 54.162C114.807 54.162 115.089 54.0971 115.33 53.9651C115.576 53.8301 115.779 53.6461 115.939 53.4131C116.1 53.1801 116.221 52.9141 116.301 52.6131C116.386 52.3091 116.428 51.9851 116.428 51.6421V51.4961C116.428 51.1581 116.386 50.8381 116.301 50.5381C116.221 50.2331 116.098 49.964 115.933 49.731C115.772 49.494 115.569 49.3081 115.324 49.1731C115.083 49.0371 114.799 48.9701 114.473 48.9701C114.152 48.9701 113.868 49.0371 113.623 49.1731C113.381 49.3081 113.178 49.494 113.013 49.731C112.852 49.964 112.732 50.2331 112.651 50.5381C112.571 50.8381 112.531 51.1581 112.531 51.4961ZM120.256 49.5981V55.0001H119.082V48.132H120.192L120.256 49.5981ZM119.977 51.3061L119.488 51.287C119.492 50.817 119.562 50.383 119.697 49.985C119.833 49.583 120.023 49.234 120.269 48.938C120.514 48.642 120.806 48.4131 121.145 48.2521C121.487 48.0871 121.866 48.0051 122.281 48.0051C122.619 48.0051 122.924 48.0511 123.195 48.1451C123.466 48.2331 123.696 48.377 123.887 48.576C124.081 48.775 124.229 49.0331 124.331 49.3511C124.433 49.6641 124.483 50.0471 124.483 50.5001V55.0001H123.303V50.4871C123.303 50.1271 123.25 49.8391 123.144 49.6241C123.038 49.4031 122.884 49.2451 122.681 49.1471C122.478 49.0461 122.228 48.9951 121.932 48.9951C121.64 48.9951 121.373 49.056 121.132 49.179C120.895 49.302 120.69 49.4711 120.516 49.6871C120.347 49.9031 120.214 50.1501 120.116 50.4301C120.023 50.7051 119.977 50.9971 119.977 51.3061ZM130.317 53.826V50.2901C130.317 50.0191 130.262 49.7841 130.152 49.5851C130.046 49.3821 129.885 49.2261 129.669 49.1161C129.454 49.0061 129.187 48.951 128.87 48.951C128.573 48.951 128.313 49.0011 128.089 49.1031C127.869 49.2051 127.695 49.3381 127.568 49.5031C127.446 49.6681 127.384 49.8461 127.384 50.0361H126.21C126.21 49.7911 126.273 49.5471 126.4 49.3061C126.527 49.0651 126.709 48.8471 126.946 48.6521C127.188 48.4531 127.475 48.2971 127.81 48.1831C128.148 48.0641 128.525 48.0051 128.939 48.0051C129.439 48.0051 129.879 48.0901 130.26 48.2591C130.645 48.4281 130.945 48.6841 131.161 49.0271C131.381 49.3651 131.491 49.7911 131.491 50.3031V53.5021C131.491 53.7301 131.51 53.9741 131.548 54.2321C131.591 54.4901 131.652 54.7121 131.732 54.8981V55.0001H130.507C130.448 54.8651 130.402 54.6851 130.368 54.4601C130.334 54.2321 130.317 54.02 130.317 53.826ZM130.52 50.8361L130.533 51.6611H129.346C129.011 51.6611 128.713 51.689 128.451 51.744C128.188 51.794 127.968 51.8731 127.791 51.9791C127.613 52.0841 127.477 52.2181 127.384 52.3781C127.291 52.5351 127.245 52.7191 127.245 52.9311C127.245 53.1461 127.293 53.3431 127.391 53.5211C127.488 53.6991 127.634 53.8401 127.829 53.9461C128.028 54.0481 128.271 54.0991 128.559 54.0991C128.918 54.0991 129.236 54.0221 129.511 53.8701C129.786 53.7181 130.004 53.5321 130.165 53.3121C130.33 53.0911 130.418 52.8781 130.431 52.6701L130.933 53.235C130.903 53.413 130.823 53.61 130.691 53.826C130.56 54.042 130.385 54.2491 130.165 54.4481C129.949 54.6421 129.691 54.8051 129.39 54.9371C129.094 55.0631 128.76 55.1271 128.387 55.1271C127.922 55.1271 127.513 55.0361 127.162 54.8541C126.815 54.6721 126.544 54.4291 126.35 54.1241C126.159 53.8151 126.064 53.4701 126.064 53.0891C126.064 52.7211 126.136 52.3971 126.28 52.1181C126.424 51.8351 126.631 51.6001 126.902 51.4141C127.173 51.2231 127.499 51.0791 127.879 50.9821C128.26 50.8851 128.686 50.8361 129.155 50.8361H130.52ZM134.614 45.2501V55.0001H133.434V45.2501H134.614Z" fill="#515151"/>
<path d="M24 69C24 65.686 26.6863 63 30 63H300C303.314 63 306 65.686 306 69V96C306 99.314 303.314 102 300 102H30C26.6863 102 24 99.314 24 96V69Z" fill="white"/>
<path d="M24.5 69C24.5 65.962 26.9624 63.5 30 63.5H300C303.038 63.5 305.5 65.962 305.5 69V96C305.5 99.038 303.038 101.5 300 101.5H30C26.9624 101.5 24.5 99.038 24.5 96V69Z" stroke="black" stroke-opacity="0.66"/>
</g>
<defs>
<clipPath id="clip0_219_2">
<rect width="360" height="782" fill="white" transform="translate(0 -385)"/>
</clipPath>
</defs>
</svg>
