<svg width="360" height="50" viewBox="0 0 360 50" fill="none" xmlns="http://www.w3.org/2000/svg">
<path d="M360 -653H0V145H360V-653Z" fill="white"/>
<path d="M198 12C198 8.686 200.686 6 204 6H325C328.314 6 331 8.686 331 12V38C331 41.314 328.314 44 325 44H204C200.686 44 198 41.314 198 38V12Z" fill="#EA1D2C"/>
<path d="M228.652 28.4789H230.449C230.404 29.4549 230.205 30.2979 229.854 31.0079C229.508 31.7109 229.004 32.251 228.34 32.629C227.682 33.007 226.859 33.1949 225.869 33.1949C225.16 33.1949 224.518 33.055 223.945 32.775C223.372 32.495 222.881 32.0949 222.471 31.5739C222.067 31.0469 221.758 30.4149 221.543 29.6799C221.328 28.9439 221.221 28.1169 221.221 27.1989V24.572C221.221 23.661 221.328 22.8369 221.543 22.1019C221.764 21.3659 222.08 20.7379 222.49 20.2169C222.907 19.6889 223.411 19.2859 224.004 19.0059C224.603 18.7259 225.28 18.5859 226.035 18.5859C226.96 18.5859 227.741 18.7709 228.379 19.1429C229.023 19.5069 229.518 20.044 229.863 20.754C230.215 21.457 230.41 22.3199 230.449 23.3419H228.652C228.607 22.5929 228.49 21.9839 228.301 21.5159C228.112 21.0399 227.832 20.6919 227.461 20.4709C227.096 20.2429 226.621 20.129 226.035 20.129C225.514 20.129 225.062 20.2329 224.678 20.4409C224.3 20.6499 223.988 20.949 223.74 21.34C223.499 21.724 223.317 22.189 223.193 22.736C223.076 23.277 223.018 23.8819 223.018 24.5529V27.1989C223.018 27.8239 223.066 28.407 223.164 28.947C223.268 29.488 223.431 29.9629 223.652 30.3729C223.88 30.7769 224.176 31.0919 224.541 31.3199C224.906 31.5479 225.348 31.6619 225.869 31.6619C226.527 31.6619 227.048 31.555 227.432 31.34C227.816 31.125 228.099 30.783 228.281 30.314C228.47 29.846 228.594 29.2339 228.652 28.4789ZM232.285 28.2249V27.2189C232.285 26.3979 232.389 25.6789 232.598 25.0609C232.806 24.4359 233.096 23.9149 233.467 23.4979C233.838 23.0809 234.271 22.7689 234.766 22.5609C235.26 22.3459 235.791 22.2379 236.357 22.2379C236.937 22.2379 237.474 22.3459 237.969 22.5609C238.464 22.7689 238.896 23.0809 239.268 23.4979C239.645 23.9149 239.938 24.4359 240.146 25.0609C240.355 25.6789 240.459 26.3979 240.459 27.2189V28.2249C240.459 29.0449 240.355 29.7679 240.146 30.3929C239.938 31.0109 239.648 31.5289 239.277 31.9449C238.906 32.3619 238.473 32.6739 237.979 32.8829C237.484 33.0909 236.95 33.1949 236.377 33.1949C235.804 33.1949 235.27 33.0909 234.775 32.8829C234.281 32.6739 233.844 32.3619 233.467 31.9449C233.096 31.5289 232.806 31.0109 232.598 30.3929C232.389 29.7679 232.285 29.0449 232.285 28.2249ZM234.014 27.2189V28.2249C234.014 28.8039 234.072 29.3119 234.189 29.7479C234.307 30.1839 234.473 30.5489 234.688 30.8419C234.902 31.1349 235.153 31.3559 235.439 31.5059C235.726 31.6489 236.038 31.7209 236.377 31.7209C236.768 31.7209 237.109 31.6489 237.402 31.5059C237.702 31.3559 237.949 31.1349 238.145 30.8419C238.34 30.5489 238.486 30.1839 238.584 29.7479C238.682 29.3119 238.73 28.8039 238.73 28.2249V27.2189C238.73 26.6389 238.672 26.135 238.555 25.705C238.438 25.269 238.271 24.904 238.057 24.611C237.842 24.312 237.588 24.09 237.295 23.947C237.008 23.798 236.696 23.723 236.357 23.723C236.025 23.723 235.716 23.798 235.43 23.947C235.143 24.09 234.893 24.312 234.678 24.611C234.469 24.904 234.307 25.269 234.189 25.705C234.072 26.135 234.014 26.6389 234.014 27.2189ZM244.414 24.689V32.9999H242.686V22.434H244.316L244.414 24.689ZM243.994 27.3159L243.291 27.2869C243.285 26.5639 243.366 25.8969 243.535 25.2849C243.711 24.6669 243.958 24.13 244.277 23.674C244.603 23.218 244.99 22.867 245.439 22.619C245.889 22.365 246.387 22.2379 246.934 22.2379C247.363 22.2379 247.754 22.3099 248.105 22.4529C248.457 22.5899 248.757 22.8109 249.004 23.1169C249.251 23.4229 249.44 23.82 249.57 24.309C249.707 24.79 249.775 25.3799 249.775 26.0759V32.9999H248.047V26.0569C248.047 25.5029 247.985 25.0609 247.861 24.7289C247.744 24.3899 247.562 24.1459 247.314 23.9959C247.074 23.8399 246.768 23.762 246.396 23.762C246.058 23.762 245.742 23.8559 245.449 24.0449C245.156 24.2339 244.899 24.4939 244.678 24.8259C244.463 25.1579 244.294 25.5389 244.17 25.9689C244.053 26.3919 243.994 26.8409 243.994 27.3159ZM254.58 32.9999H252.852V21.5159C252.852 20.7149 252.985 20.0379 253.252 19.4839C253.525 18.9309 253.913 18.5109 254.414 18.2249C254.922 17.9379 255.521 17.7949 256.211 17.7949C256.621 17.7949 257.015 17.8539 257.393 17.9709C257.77 18.0809 258.161 18.2209 258.564 18.3909L258.271 19.9139C258.037 19.7969 257.751 19.6859 257.412 19.5819C257.074 19.4709 256.719 19.416 256.348 19.416C255.697 19.416 255.238 19.5919 254.971 19.9429C254.71 20.2879 254.58 20.8119 254.58 21.5159V32.9999ZM256.289 22.434V23.8199H251.475V22.434H256.289ZM259.395 22.434V32.9999H257.666V22.434H259.395ZM263.906 24.0939V32.9999H262.178V22.434H263.848L263.906 24.0939ZM266.533 22.3749L266.543 24.0549C266.4 24.0219 266.27 24.0029 266.152 23.9959C266.042 23.9829 265.911 23.9769 265.762 23.9769C265.436 23.9769 265.15 24.0419 264.902 24.1719C264.661 24.3019 264.453 24.4839 264.277 24.7189C264.102 24.9529 263.962 25.233 263.857 25.559C263.753 25.878 263.682 26.2289 263.643 26.6129L263.193 26.9059C263.193 26.2679 263.242 25.6689 263.34 25.1089C263.444 24.5489 263.604 24.0549 263.818 23.6249C264.033 23.1889 264.307 22.8499 264.639 22.6089C264.977 22.3619 265.381 22.2379 265.85 22.2379C265.954 22.2379 266.081 22.2549 266.23 22.2869C266.387 22.3129 266.488 22.3419 266.533 22.3749ZM270 24.533V32.9999H268.281V22.434H269.902L270 24.533ZM269.648 27.3159L268.848 27.2869C268.841 26.5639 268.913 25.8969 269.062 25.2849C269.212 24.6669 269.437 24.13 269.736 23.674C270.042 23.218 270.423 22.867 270.879 22.619C271.341 22.365 271.878 22.2379 272.49 22.2379C272.894 22.2379 273.268 22.3099 273.613 22.4529C273.965 22.5899 274.271 22.8079 274.531 23.1069C274.792 23.4069 274.993 23.7909 275.137 24.2599C275.286 24.7289 275.361 25.2949 275.361 25.9589V32.9999H273.633V26.0469C273.633 25.4929 273.558 25.0509 273.408 24.7189C273.265 24.3869 273.06 24.1459 272.793 23.9959C272.526 23.8399 272.207 23.762 271.836 23.762C271.413 23.762 271.058 23.8559 270.771 24.0449C270.492 24.2339 270.267 24.4939 270.098 24.8259C269.935 25.1579 269.818 25.5389 269.746 25.9689C269.681 26.3919 269.648 26.8409 269.648 27.3159ZM275.342 26.3199L274.189 26.6909C274.183 26.1119 274.255 25.5549 274.404 25.0209C274.554 24.4879 274.775 24.0119 275.068 23.5959C275.368 23.1789 275.739 22.8499 276.182 22.6089C276.624 22.3619 277.139 22.2379 277.725 22.2379C278.206 22.2379 278.633 22.313 279.004 22.463C279.375 22.613 279.688 22.8439 279.941 23.1559C280.202 23.4619 280.397 23.856 280.527 24.338C280.658 24.82 280.723 25.3929 280.723 26.0569V32.9999H278.994V26.0369C278.994 25.4449 278.919 24.9859 278.77 24.6599C278.626 24.3279 278.421 24.0969 278.154 23.9669C277.887 23.8299 277.568 23.762 277.197 23.762C276.898 23.762 276.631 23.8299 276.396 23.9669C276.169 24.1039 275.977 24.292 275.82 24.533C275.664 24.768 275.544 25.0379 275.459 25.3439C275.381 25.6499 275.342 25.9749 275.342 26.3199ZM288.506 31.1929V25.4609C288.506 25.0439 288.441 24.709 288.311 24.455C288.187 24.201 287.998 24.0159 287.744 23.8979C287.497 23.7809 287.184 23.723 286.807 23.723C286.442 23.723 286.126 23.798 285.859 23.947C285.599 24.097 285.397 24.296 285.254 24.543C285.117 24.79 285.049 25.0639 285.049 25.3629H283.32C283.32 24.9859 283.402 24.6109 283.564 24.2399C283.734 23.8689 283.975 23.5339 284.287 23.2339C284.6 22.9279 284.974 22.688 285.41 22.512C285.853 22.329 286.348 22.2379 286.895 22.2379C287.546 22.2379 288.122 22.3459 288.623 22.5609C289.124 22.7689 289.518 23.1109 289.805 23.5859C290.091 24.0609 290.234 24.6929 290.234 25.4799V30.6949C290.234 31.0469 290.26 31.4209 290.312 31.8179C290.371 32.2149 290.452 32.5569 290.557 32.8439V32.9999H288.77C288.685 32.7919 288.62 32.5149 288.574 32.1699C288.529 31.8179 288.506 31.4929 288.506 31.1929ZM288.779 26.5939L288.799 27.8629H287.598C287.188 27.8629 286.813 27.9089 286.475 27.9999C286.143 28.0909 285.856 28.225 285.615 28.4C285.374 28.57 285.189 28.7809 285.059 29.0349C284.935 29.2889 284.873 29.5789 284.873 29.9039C284.873 30.3269 284.932 30.6659 285.049 30.9199C285.166 31.1669 285.342 31.3459 285.576 31.4569C285.811 31.5679 286.107 31.6229 286.465 31.6229C286.901 31.6229 287.285 31.5219 287.617 31.3199C287.949 31.1179 288.206 30.874 288.389 30.588C288.577 30.301 288.665 30.0349 288.652 29.7869L289.033 30.598C289.007 30.852 288.923 31.1279 288.779 31.4279C288.643 31.7209 288.451 32.0039 288.203 32.2769C287.956 32.5439 287.663 32.7659 287.324 32.9409C286.992 33.1109 286.618 33.1949 286.201 33.1949C285.589 33.1949 285.052 33.0779 284.59 32.8439C284.134 32.6089 283.779 32.264 283.525 31.809C283.271 31.353 283.145 30.79 283.145 30.119C283.145 29.611 283.232 29.143 283.408 28.713C283.584 28.283 283.844 27.9119 284.189 27.5999C284.535 27.2809 284.967 27.0329 285.488 26.8569C286.016 26.6819 286.624 26.5939 287.314 26.5939H288.779ZM294.648 24.0939V32.9999H292.92V22.434H294.59L294.648 24.0939ZM297.275 22.3749L297.285 24.0549C297.142 24.0219 297.012 24.0029 296.895 23.9959C296.784 23.9829 296.654 23.9769 296.504 23.9769C296.178 23.9769 295.892 24.0419 295.645 24.1719C295.404 24.3019 295.195 24.4839 295.02 24.7189C294.844 24.9529 294.704 25.233 294.6 25.559C294.495 25.878 294.424 26.2289 294.385 26.6129L293.936 26.9059C293.936 26.2679 293.984 25.6689 294.082 25.1089C294.186 24.5489 294.346 24.0549 294.561 23.6249C294.775 23.1889 295.049 22.8499 295.381 22.6089C295.719 22.3619 296.123 22.2379 296.592 22.2379C296.696 22.2379 296.823 22.2549 296.973 22.2869C297.129 22.3129 297.23 22.3419 297.275 22.3749Z" fill="white"/>
</svg>
